M48
; DRILL file {KiCad (5.1.12)-1} date 12/29/21 18:15:51
; FORMAT={-:-/ absolute / metric / decimal}
; #@! TF.CreationDate,2021-12-29T18:15:51+01:00
; #@! TF.GenerationSoftware,Kicad,Pcbnew,(5.1.12)-1
; #@! TF.FileFunction,Plated,1,2,PTH
FMAT,2
METRIC
T1C0.400
T2C0.762
T3C0.800
T4C1.000
T5C1.100
T6C1.290
T7C1.320
T8C1.520
%
G90
G05
T1
X41.656Y-79.248
X42.164Y-86.868
X46.736Y-79.756
X55.372Y-84.328
X79.248Y-71.628
X81.136Y-77.806
X86.868Y-104.14
X86.868Y-106.68
X92.964Y-110.744
X97.315Y-97.238
X107.95Y-107.95
X114.3Y-107.95
X125.245Y-97.876
X129.54Y-104.14
X133.35Y-106.68
T2
X38.1Y-73.66
X38.1Y-76.2
X38.1Y-78.74
X38.1Y-81.28
X38.1Y-83.82
X38.1Y-86.36
X38.1Y-88.9
X38.1Y-91.44
X38.1Y-93.98
X38.1Y-96.52
X38.1Y-99.06
X38.1Y-101.6
X38.1Y-104.14
X60.96Y-73.66
X60.96Y-76.2
X60.96Y-78.74
X60.96Y-81.28
X60.96Y-83.82
X60.96Y-86.36
X60.96Y-88.9
X60.96Y-91.44
X60.96Y-93.98
X60.96Y-96.52
X60.96Y-99.06
X60.96Y-101.6
X60.96Y-104.14
X67.31Y-57.15
X67.31Y-59.69
X67.31Y-62.23
X67.31Y-64.77
X67.31Y-67.31
X67.31Y-69.85
X67.31Y-72.39
X67.31Y-74.93
X67.31Y-77.47
X67.31Y-80.01
X67.31Y-82.55
X67.31Y-85.09
X67.31Y-87.63
X67.31Y-90.17
X85.09Y-60.96
X87.63Y-60.96
X88.773Y-83.058
X90.17Y-60.96
X92.329Y-83.058
X92.71Y-60.96
X95.25Y-60.96
X95.885Y-83.058
X97.79Y-60.96
X99.441Y-83.058
X100.33Y-60.96
X102.87Y-60.96
X148.336Y-69.85
X148.336Y-72.39
X148.336Y-74.93
X148.336Y-77.47
T3
X113.665Y-54.61
X116.205Y-54.61
X118.745Y-54.61
T4
X114.3Y-90.17
X116.84Y-90.17
T5
X97.155Y-54.61
X109.855Y-54.61
T6
X123.98Y-60.325
T7
X125.98Y-54.325
X125.98Y-66.325
X138.18Y-54.325
X138.18Y-66.325
T8
X154.305Y-55.88
X154.305Y-60.96
X154.305Y-66.04
T0
M30
