%TF.GenerationSoftware,KiCad,Pcbnew,(5.1.12)-1*%
%TF.CreationDate,2021-12-29T18:15:49+01:00*%
%TF.ProjectId,esp32pcbheater,65737033-3270-4636-9268-65617465722e,rev?*%
%TF.SameCoordinates,Original*%
%TF.FileFunction,Legend,Bot*%
%TF.FilePolarity,Positive*%
%FSLAX46Y46*%
G04 Gerber Fmt 4.6, Leading zero omitted, Abs format (unit mm)*
G04 Created by KiCad (PCBNEW (5.1.12)-1) date 2021-12-29 18:15:49*
%MOMM*%
%LPD*%
G01*
G04 APERTURE LIST*
%ADD10C,0.150000*%
%ADD11C,0.120000*%
%ADD12C,0.300000*%
%ADD13C,0.127000*%
%ADD14C,0.200000*%
%ADD15C,0.050000*%
%ADD16C,0.100000*%
G04 APERTURE END LIST*
D10*
%TO.C,BZ1*%
X118313200Y-78105000D02*
X110744000Y-78105000D01*
X120015000Y-80060800D02*
X118313200Y-78105000D01*
X110744000Y-87401400D02*
X120015000Y-87401400D01*
X110744000Y-78105000D02*
X110744000Y-81864200D01*
X110744000Y-83616800D02*
X110744000Y-87401400D01*
X120015000Y-80060800D02*
X120015000Y-81864200D01*
X120015000Y-83591400D02*
X120015000Y-87426800D01*
D11*
%TO.C,D1*%
X100785000Y-56080000D02*
X100785000Y-53140000D01*
X100785000Y-53140000D02*
X106225000Y-53140000D01*
X106225000Y-53140000D02*
X106225000Y-56080000D01*
X106225000Y-56080000D02*
X100785000Y-56080000D01*
X98495000Y-54610000D02*
X100785000Y-54610000D01*
X108515000Y-54610000D02*
X106225000Y-54610000D01*
X101685000Y-56080000D02*
X101685000Y-53140000D01*
X101805000Y-56080000D02*
X101805000Y-53140000D01*
X101565000Y-56080000D02*
X101565000Y-53140000D01*
%TO.C,J1*%
X76770000Y-94980000D02*
X78170000Y-94980000D01*
X78870000Y-94280000D02*
X78870000Y-93680000D01*
X78170000Y-92980000D02*
X76770000Y-92980000D01*
X76070000Y-93680000D02*
X76070000Y-94280000D01*
X76070000Y-94280000D02*
G75*
G03*
X76770000Y-94980000I700000J0D01*
G01*
X76770000Y-92980000D02*
G75*
G03*
X76070000Y-93680000I0J-700000D01*
G01*
X78870000Y-93680000D02*
G75*
G03*
X78170000Y-92980000I-700000J0D01*
G01*
X78170000Y-94980000D02*
G75*
G03*
X78870000Y-94280000I0J700000D01*
G01*
%TO.C,J2*%
X112970000Y-91500000D02*
X112970000Y-88840000D01*
X115570000Y-91500000D02*
X112970000Y-91500000D01*
X115570000Y-88840000D02*
X112970000Y-88840000D01*
X115570000Y-91500000D02*
X115570000Y-88840000D01*
X116840000Y-91500000D02*
X118170000Y-91500000D01*
X118170000Y-91500000D02*
X118170000Y-90170000D01*
%TO.C,J3*%
X76070000Y-89870000D02*
X76070000Y-90470000D01*
X78170000Y-89170000D02*
X76770000Y-89170000D01*
X78870000Y-90470000D02*
X78870000Y-89870000D01*
X76770000Y-91170000D02*
X78170000Y-91170000D01*
X78170000Y-91170000D02*
G75*
G03*
X78870000Y-90470000I0J700000D01*
G01*
X78870000Y-89870000D02*
G75*
G03*
X78170000Y-89170000I-700000J0D01*
G01*
X76770000Y-89170000D02*
G75*
G03*
X76070000Y-89870000I0J-700000D01*
G01*
X76070000Y-90470000D02*
G75*
G03*
X76770000Y-91170000I700000J0D01*
G01*
%TO.C,J4*%
X76770000Y-86090000D02*
X78170000Y-86090000D01*
X78870000Y-85390000D02*
X78870000Y-84790000D01*
X78170000Y-84090000D02*
X76770000Y-84090000D01*
X76070000Y-84790000D02*
X76070000Y-85390000D01*
X76070000Y-85390000D02*
G75*
G03*
X76770000Y-86090000I700000J0D01*
G01*
X76770000Y-84090000D02*
G75*
G03*
X76070000Y-84790000I0J-700000D01*
G01*
X78870000Y-84790000D02*
G75*
G03*
X78170000Y-84090000I-700000J0D01*
G01*
X78170000Y-86090000D02*
G75*
G03*
X78870000Y-85390000I0J700000D01*
G01*
%TO.C,J5*%
X76070000Y-80980000D02*
X76070000Y-81580000D01*
X78170000Y-80280000D02*
X76770000Y-80280000D01*
X78870000Y-81580000D02*
X78870000Y-80980000D01*
X76770000Y-82280000D02*
X78170000Y-82280000D01*
X78170000Y-82280000D02*
G75*
G03*
X78870000Y-81580000I0J700000D01*
G01*
X78870000Y-80980000D02*
G75*
G03*
X78170000Y-80280000I-700000J0D01*
G01*
X76770000Y-80280000D02*
G75*
G03*
X76070000Y-80980000I0J-700000D01*
G01*
X76070000Y-81580000D02*
G75*
G03*
X76770000Y-82280000I700000J0D01*
G01*
%TO.C,J6*%
X76070000Y-75900000D02*
X76070000Y-76500000D01*
X78170000Y-75200000D02*
X76770000Y-75200000D01*
X78870000Y-76500000D02*
X78870000Y-75900000D01*
X76770000Y-77200000D02*
X78170000Y-77200000D01*
X78170000Y-77200000D02*
G75*
G03*
X78870000Y-76500000I0J700000D01*
G01*
X78870000Y-75900000D02*
G75*
G03*
X78170000Y-75200000I-700000J0D01*
G01*
X76770000Y-75200000D02*
G75*
G03*
X76070000Y-75900000I0J-700000D01*
G01*
X76070000Y-76500000D02*
G75*
G03*
X76770000Y-77200000I700000J0D01*
G01*
%TO.C,J7*%
X158115000Y-53340000D02*
X150495000Y-53340000D01*
X158115000Y-68580000D02*
X150495000Y-68580000D01*
X156845000Y-53340000D02*
X156845000Y-68580000D01*
X150495000Y-53340000D02*
X150495000Y-68580000D01*
X158115000Y-53340000D02*
X158115000Y-68580000D01*
%TO.C,JP1*%
X89870000Y-56660000D02*
X90470000Y-56660000D01*
X89170000Y-54560000D02*
X89170000Y-55960000D01*
X90470000Y-53860000D02*
X89870000Y-53860000D01*
X91170000Y-55960000D02*
X91170000Y-54560000D01*
X91170000Y-54560000D02*
G75*
G03*
X90470000Y-53860000I-700000J0D01*
G01*
X89870000Y-53860000D02*
G75*
G03*
X89170000Y-54560000I0J-700000D01*
G01*
X89170000Y-55960000D02*
G75*
G03*
X89870000Y-56660000I700000J0D01*
G01*
X90470000Y-56660000D02*
G75*
G03*
X91170000Y-55960000I0J700000D01*
G01*
D12*
%TO.C,K1*%
X121980000Y-66444000D02*
G75*
G03*
X121980000Y-66444000I-100000J0D01*
G01*
D13*
X141630000Y-52575000D02*
X122530000Y-52575000D01*
X141630000Y-68075000D02*
X141630000Y-52575000D01*
X122530000Y-68075000D02*
X141630000Y-68075000D01*
X122530000Y-52575000D02*
X122530000Y-68075000D01*
D11*
%TO.C,Q1*%
X114265000Y-52910000D02*
X118115000Y-52910000D01*
X113882369Y-53487955D02*
G75*
G02*
X114265000Y-52910000I2322631J-1122045D01*
G01*
X113848600Y-55708807D02*
G75*
G03*
X116205000Y-57210000I2356400J1098807D01*
G01*
X118561400Y-55708807D02*
G75*
G02*
X116205000Y-57210000I-2356400J1098807D01*
G01*
X118507383Y-53497736D02*
G75*
G03*
X118115000Y-52910000I-2302383J-1112264D01*
G01*
%TO.C,R8*%
X114072936Y-60425000D02*
X114527064Y-60425000D01*
X114072936Y-58955000D02*
X114527064Y-58955000D01*
%TO.C,R10*%
X110262936Y-60425000D02*
X110717064Y-60425000D01*
X110262936Y-58955000D02*
X110717064Y-58955000D01*
D10*
%TO.C,U2*%
X53340000Y-109220000D02*
X62230000Y-109220000D01*
X53340000Y-115570000D02*
X53340000Y-109220000D01*
X45720000Y-115570000D02*
X45720000Y-110490000D01*
X38100000Y-110490000D02*
X38100000Y-115570000D01*
X45720000Y-110490000D02*
X38100000Y-110490000D01*
X62230000Y-115570000D02*
X62230000Y-114300000D01*
X36830000Y-115570000D02*
X62230000Y-115570000D01*
X36830000Y-114300000D02*
X36830000Y-115570000D01*
X36830000Y-68580000D02*
X36830000Y-114300000D01*
X62230000Y-68580000D02*
X62230000Y-114300000D01*
X59690000Y-66040000D02*
X39370000Y-66040000D01*
X62230000Y-68580000D02*
G75*
G03*
X59690000Y-66040000I-2540000J0D01*
G01*
X39370000Y-66040000D02*
G75*
G03*
X36830000Y-68580000I0J-2540000D01*
G01*
D14*
%TO.C,U3*%
X105775728Y-84201000D02*
G75*
G03*
X105775728Y-84201000I-1254728J0D01*
G01*
X84993766Y-84196986D02*
G75*
G03*
X84993766Y-84196986I-1259214J0D01*
G01*
X81119918Y-84539896D02*
X81119918Y-60495724D01*
X104861578Y-86811600D02*
X83352068Y-86811600D01*
X107109893Y-60495724D02*
X107109893Y-84539896D01*
X83352068Y-58234779D02*
X104861578Y-58234779D01*
X81119918Y-84539896D02*
G75*
G03*
X83352068Y-86811600I2524952J248494D01*
G01*
X104861578Y-86811600D02*
G75*
G03*
X107109893Y-84539896I-279807J2525361D01*
G01*
X83352068Y-58234779D02*
G75*
G03*
X81119918Y-60495724I123710J-2354468D01*
G01*
X107109893Y-60495723D02*
G75*
G03*
X104861578Y-58234779I-2476093J-213912D01*
G01*
%TO.C,BZ1*%
D10*
X107395971Y-81592847D02*
X107443590Y-81735704D01*
X107491209Y-81783323D01*
X107586447Y-81830942D01*
X107729304Y-81830942D01*
X107824542Y-81783323D01*
X107872161Y-81735704D01*
X107919780Y-81640466D01*
X107919780Y-81259514D01*
X106919780Y-81259514D01*
X106919780Y-81592847D01*
X106967400Y-81688085D01*
X107015019Y-81735704D01*
X107110257Y-81783323D01*
X107205495Y-81783323D01*
X107300733Y-81735704D01*
X107348352Y-81688085D01*
X107395971Y-81592847D01*
X107395971Y-81259514D01*
X106919780Y-82164276D02*
X106919780Y-82830942D01*
X107919780Y-82164276D01*
X107919780Y-82830942D01*
X107919780Y-83735704D02*
X107919780Y-83164276D01*
X107919780Y-83449990D02*
X106919780Y-83449990D01*
X107062638Y-83354752D01*
X107157876Y-83259514D01*
X107205495Y-83164276D01*
X114761971Y-81537323D02*
X114809590Y-81680180D01*
X114857209Y-81727800D01*
X114952447Y-81775419D01*
X115095304Y-81775419D01*
X115190542Y-81727800D01*
X115238161Y-81680180D01*
X115285780Y-81584942D01*
X115285780Y-81203990D01*
X114285780Y-81203990D01*
X114285780Y-81537323D01*
X114333400Y-81632561D01*
X114381019Y-81680180D01*
X114476257Y-81727800D01*
X114571495Y-81727800D01*
X114666733Y-81680180D01*
X114714352Y-81632561D01*
X114761971Y-81537323D01*
X114761971Y-81203990D01*
X114619114Y-82632561D02*
X115285780Y-82632561D01*
X114619114Y-82203990D02*
X115142923Y-82203990D01*
X115238161Y-82251609D01*
X115285780Y-82346847D01*
X115285780Y-82489704D01*
X115238161Y-82584942D01*
X115190542Y-82632561D01*
X114619114Y-83013514D02*
X114619114Y-83537323D01*
X115285780Y-83013514D01*
X115285780Y-83537323D01*
X114619114Y-83823038D02*
X114619114Y-84346847D01*
X115285780Y-83823038D01*
X115285780Y-84346847D01*
%TO.C,D1*%
X104243095Y-57532380D02*
X104243095Y-56532380D01*
X104005000Y-56532380D01*
X103862142Y-56580000D01*
X103766904Y-56675238D01*
X103719285Y-56770476D01*
X103671666Y-56960952D01*
X103671666Y-57103809D01*
X103719285Y-57294285D01*
X103766904Y-57389523D01*
X103862142Y-57484761D01*
X104005000Y-57532380D01*
X104243095Y-57532380D01*
X102719285Y-57532380D02*
X103290714Y-57532380D01*
X103005000Y-57532380D02*
X103005000Y-56532380D01*
X103100238Y-56675238D01*
X103195476Y-56770476D01*
X103290714Y-56818095D01*
X97416904Y-57162380D02*
X97416904Y-56162380D01*
X96845476Y-57162380D02*
X97274047Y-56590952D01*
X96845476Y-56162380D02*
X97416904Y-56733809D01*
%TO.C,J1*%
X77803333Y-95232380D02*
X77803333Y-95946666D01*
X77850952Y-96089523D01*
X77946190Y-96184761D01*
X78089047Y-96232380D01*
X78184285Y-96232380D01*
X76803333Y-96232380D02*
X77374761Y-96232380D01*
X77089047Y-96232380D02*
X77089047Y-95232380D01*
X77184285Y-95375238D01*
X77279523Y-95470476D01*
X77374761Y-95518095D01*
%TO.C,J2*%
X118622380Y-89836666D02*
X119336666Y-89836666D01*
X119479523Y-89789047D01*
X119574761Y-89693809D01*
X119622380Y-89550952D01*
X119622380Y-89455714D01*
X118717619Y-90265238D02*
X118670000Y-90312857D01*
X118622380Y-90408095D01*
X118622380Y-90646190D01*
X118670000Y-90741428D01*
X118717619Y-90789047D01*
X118812857Y-90836666D01*
X118908095Y-90836666D01*
X119050952Y-90789047D01*
X119622380Y-90217619D01*
X119622380Y-90836666D01*
%TO.C,J3*%
X77803333Y-91422380D02*
X77803333Y-92136666D01*
X77850952Y-92279523D01*
X77946190Y-92374761D01*
X78089047Y-92422380D01*
X78184285Y-92422380D01*
X77422380Y-91422380D02*
X76803333Y-91422380D01*
X77136666Y-91803333D01*
X76993809Y-91803333D01*
X76898571Y-91850952D01*
X76850952Y-91898571D01*
X76803333Y-91993809D01*
X76803333Y-92231904D01*
X76850952Y-92327142D01*
X76898571Y-92374761D01*
X76993809Y-92422380D01*
X77279523Y-92422380D01*
X77374761Y-92374761D01*
X77422380Y-92327142D01*
%TO.C,J4*%
X77803333Y-86342380D02*
X77803333Y-87056666D01*
X77850952Y-87199523D01*
X77946190Y-87294761D01*
X78089047Y-87342380D01*
X78184285Y-87342380D01*
X76898571Y-86675714D02*
X76898571Y-87342380D01*
X77136666Y-86294761D02*
X77374761Y-87009047D01*
X76755714Y-87009047D01*
%TO.C,J5*%
X77803333Y-82532380D02*
X77803333Y-83246666D01*
X77850952Y-83389523D01*
X77946190Y-83484761D01*
X78089047Y-83532380D01*
X78184285Y-83532380D01*
X76850952Y-82532380D02*
X77327142Y-82532380D01*
X77374761Y-83008571D01*
X77327142Y-82960952D01*
X77231904Y-82913333D01*
X76993809Y-82913333D01*
X76898571Y-82960952D01*
X76850952Y-83008571D01*
X76803333Y-83103809D01*
X76803333Y-83341904D01*
X76850952Y-83437142D01*
X76898571Y-83484761D01*
X76993809Y-83532380D01*
X77231904Y-83532380D01*
X77327142Y-83484761D01*
X77374761Y-83437142D01*
%TO.C,J6*%
X77803333Y-77452380D02*
X77803333Y-78166666D01*
X77850952Y-78309523D01*
X77946190Y-78404761D01*
X78089047Y-78452380D01*
X78184285Y-78452380D01*
X76898571Y-77452380D02*
X77089047Y-77452380D01*
X77184285Y-77500000D01*
X77231904Y-77547619D01*
X77327142Y-77690476D01*
X77374761Y-77880952D01*
X77374761Y-78261904D01*
X77327142Y-78357142D01*
X77279523Y-78404761D01*
X77184285Y-78452380D01*
X76993809Y-78452380D01*
X76898571Y-78404761D01*
X76850952Y-78357142D01*
X76803333Y-78261904D01*
X76803333Y-78023809D01*
X76850952Y-77928571D01*
X76898571Y-77880952D01*
X76993809Y-77833333D01*
X77184285Y-77833333D01*
X77279523Y-77880952D01*
X77327142Y-77928571D01*
X77374761Y-78023809D01*
%TO.C,J7*%
X149107380Y-60596666D02*
X149821666Y-60596666D01*
X149964523Y-60549047D01*
X150059761Y-60453809D01*
X150107380Y-60310952D01*
X150107380Y-60215714D01*
X149107380Y-60977619D02*
X149107380Y-61644285D01*
X150107380Y-61215714D01*
%TO.C,JP1*%
X92654380Y-54522785D02*
X91654380Y-54522785D01*
X92654380Y-55094214D01*
X91654380Y-55094214D01*
X92559142Y-56141833D02*
X92606761Y-56094214D01*
X92654380Y-55951357D01*
X92654380Y-55856119D01*
X92606761Y-55713261D01*
X92511523Y-55618023D01*
X92416285Y-55570404D01*
X92225809Y-55522785D01*
X92082952Y-55522785D01*
X91892476Y-55570404D01*
X91797238Y-55618023D01*
X91702000Y-55713261D01*
X91654380Y-55856119D01*
X91654380Y-55951357D01*
X91702000Y-56094214D01*
X91749619Y-56141833D01*
%TO.C,K1*%
D15*
X140119301Y-63039888D02*
X139976399Y-63087522D01*
X139738230Y-63087522D01*
X139642963Y-63039888D01*
X139595329Y-62992254D01*
X139547695Y-62896986D01*
X139547695Y-62801719D01*
X139595329Y-62706451D01*
X139642963Y-62658817D01*
X139738230Y-62611184D01*
X139928766Y-62563550D01*
X140024033Y-62515916D01*
X140071667Y-62468282D01*
X140119301Y-62373015D01*
X140119301Y-62277747D01*
X140071667Y-62182479D01*
X140024033Y-62134846D01*
X139928766Y-62087212D01*
X139690597Y-62087212D01*
X139547695Y-62134846D01*
X138547385Y-63087522D02*
X138880822Y-62611184D01*
X139118991Y-63087522D02*
X139118991Y-62087212D01*
X138737920Y-62087212D01*
X138642653Y-62134846D01*
X138595019Y-62182479D01*
X138547385Y-62277747D01*
X138547385Y-62420648D01*
X138595019Y-62515916D01*
X138642653Y-62563550D01*
X138737920Y-62611184D01*
X139118991Y-62611184D01*
X138118681Y-63087522D02*
X138118681Y-62087212D01*
X137880512Y-62087212D01*
X137737610Y-62134846D01*
X137642343Y-62230113D01*
X137594709Y-62325381D01*
X137547075Y-62515916D01*
X137547075Y-62658817D01*
X137594709Y-62849353D01*
X137642343Y-62944620D01*
X137737610Y-63039888D01*
X137880512Y-63087522D01*
X138118681Y-63087522D01*
X137118371Y-62706451D02*
X136356230Y-62706451D01*
X135689357Y-62087212D02*
X135594089Y-62087212D01*
X135498821Y-62134846D01*
X135451188Y-62182479D01*
X135403554Y-62277747D01*
X135355920Y-62468282D01*
X135355920Y-62706451D01*
X135403554Y-62896986D01*
X135451188Y-62992254D01*
X135498821Y-63039888D01*
X135594089Y-63087522D01*
X135689357Y-63087522D01*
X135784624Y-63039888D01*
X135832258Y-62992254D01*
X135879892Y-62896986D01*
X135927526Y-62706451D01*
X135927526Y-62468282D01*
X135879892Y-62277747D01*
X135832258Y-62182479D01*
X135784624Y-62134846D01*
X135689357Y-62087212D01*
X134450878Y-62087212D02*
X134927216Y-62087212D01*
X134974849Y-62563550D01*
X134927216Y-62515916D01*
X134831948Y-62468282D01*
X134593779Y-62468282D01*
X134498511Y-62515916D01*
X134450878Y-62563550D01*
X134403244Y-62658817D01*
X134403244Y-62896986D01*
X134450878Y-62992254D01*
X134498511Y-63039888D01*
X134593779Y-63087522D01*
X134831948Y-63087522D01*
X134927216Y-63039888D01*
X134974849Y-62992254D01*
X134117441Y-62087212D02*
X133784004Y-63087522D01*
X133450568Y-62087212D01*
X133117131Y-63087522D02*
X133117131Y-62087212D01*
X132878962Y-62087212D01*
X132736060Y-62134846D01*
X132640793Y-62230113D01*
X132593159Y-62325381D01*
X132545525Y-62515916D01*
X132545525Y-62658817D01*
X132593159Y-62849353D01*
X132640793Y-62944620D01*
X132736060Y-63039888D01*
X132878962Y-63087522D01*
X133117131Y-63087522D01*
X131545215Y-62992254D02*
X131592849Y-63039888D01*
X131735750Y-63087522D01*
X131831018Y-63087522D01*
X131973919Y-63039888D01*
X132069187Y-62944620D01*
X132116821Y-62849353D01*
X132164455Y-62658817D01*
X132164455Y-62515916D01*
X132116821Y-62325381D01*
X132069187Y-62230113D01*
X131973919Y-62134846D01*
X131831018Y-62087212D01*
X131735750Y-62087212D01*
X131592849Y-62134846D01*
X131545215Y-62182479D01*
X131116511Y-62706451D02*
X130354370Y-62706451D01*
X129925666Y-63039888D02*
X129782764Y-63087522D01*
X129544595Y-63087522D01*
X129449328Y-63039888D01*
X129401694Y-62992254D01*
X129354060Y-62896986D01*
X129354060Y-62801719D01*
X129401694Y-62706451D01*
X129449328Y-62658817D01*
X129544595Y-62611184D01*
X129735130Y-62563550D01*
X129830398Y-62515916D01*
X129878032Y-62468282D01*
X129925666Y-62373015D01*
X129925666Y-62277747D01*
X129878032Y-62182479D01*
X129830398Y-62134846D01*
X129735130Y-62087212D01*
X129496961Y-62087212D01*
X129354060Y-62134846D01*
X128449018Y-63087522D02*
X128925356Y-63087522D01*
X128925356Y-62087212D01*
X128115581Y-62706451D02*
X127353440Y-62706451D01*
X126305496Y-62992254D02*
X126353130Y-63039888D01*
X126496031Y-63087522D01*
X126591299Y-63087522D01*
X126734200Y-63039888D01*
X126829468Y-62944620D01*
X126877102Y-62849353D01*
X126924736Y-62658817D01*
X126924736Y-62515916D01*
X126877102Y-62325381D01*
X126829468Y-62230113D01*
X126734200Y-62134846D01*
X126591299Y-62087212D01*
X126496031Y-62087212D01*
X126353130Y-62134846D01*
X126305496Y-62182479D01*
%TO.C,Q1*%
D10*
X116300238Y-58717619D02*
X116395476Y-58670000D01*
X116490714Y-58574761D01*
X116633571Y-58431904D01*
X116728809Y-58384285D01*
X116824047Y-58384285D01*
X116776428Y-58622380D02*
X116871666Y-58574761D01*
X116966904Y-58479523D01*
X117014523Y-58289047D01*
X117014523Y-57955714D01*
X116966904Y-57765238D01*
X116871666Y-57670000D01*
X116776428Y-57622380D01*
X116585952Y-57622380D01*
X116490714Y-57670000D01*
X116395476Y-57765238D01*
X116347857Y-57955714D01*
X116347857Y-58289047D01*
X116395476Y-58479523D01*
X116490714Y-58574761D01*
X116585952Y-58622380D01*
X116776428Y-58622380D01*
X115395476Y-58622380D02*
X115966904Y-58622380D01*
X115681190Y-58622380D02*
X115681190Y-57622380D01*
X115776428Y-57765238D01*
X115871666Y-57860476D01*
X115966904Y-57908095D01*
%TO.C,R8*%
X114466666Y-61792380D02*
X114800000Y-61316190D01*
X115038095Y-61792380D02*
X115038095Y-60792380D01*
X114657142Y-60792380D01*
X114561904Y-60840000D01*
X114514285Y-60887619D01*
X114466666Y-60982857D01*
X114466666Y-61125714D01*
X114514285Y-61220952D01*
X114561904Y-61268571D01*
X114657142Y-61316190D01*
X115038095Y-61316190D01*
X113895238Y-61220952D02*
X113990476Y-61173333D01*
X114038095Y-61125714D01*
X114085714Y-61030476D01*
X114085714Y-60982857D01*
X114038095Y-60887619D01*
X113990476Y-60840000D01*
X113895238Y-60792380D01*
X113704761Y-60792380D01*
X113609523Y-60840000D01*
X113561904Y-60887619D01*
X113514285Y-60982857D01*
X113514285Y-61030476D01*
X113561904Y-61125714D01*
X113609523Y-61173333D01*
X113704761Y-61220952D01*
X113895238Y-61220952D01*
X113990476Y-61268571D01*
X114038095Y-61316190D01*
X114085714Y-61411428D01*
X114085714Y-61601904D01*
X114038095Y-61697142D01*
X113990476Y-61744761D01*
X113895238Y-61792380D01*
X113704761Y-61792380D01*
X113609523Y-61744761D01*
X113561904Y-61697142D01*
X113514285Y-61601904D01*
X113514285Y-61411428D01*
X113561904Y-61316190D01*
X113609523Y-61268571D01*
X113704761Y-61220952D01*
%TO.C,R10*%
X111132857Y-61792380D02*
X111466190Y-61316190D01*
X111704285Y-61792380D02*
X111704285Y-60792380D01*
X111323333Y-60792380D01*
X111228095Y-60840000D01*
X111180476Y-60887619D01*
X111132857Y-60982857D01*
X111132857Y-61125714D01*
X111180476Y-61220952D01*
X111228095Y-61268571D01*
X111323333Y-61316190D01*
X111704285Y-61316190D01*
X110180476Y-61792380D02*
X110751904Y-61792380D01*
X110466190Y-61792380D02*
X110466190Y-60792380D01*
X110561428Y-60935238D01*
X110656666Y-61030476D01*
X110751904Y-61078095D01*
X109561428Y-60792380D02*
X109466190Y-60792380D01*
X109370952Y-60840000D01*
X109323333Y-60887619D01*
X109275714Y-60982857D01*
X109228095Y-61173333D01*
X109228095Y-61411428D01*
X109275714Y-61601904D01*
X109323333Y-61697142D01*
X109370952Y-61744761D01*
X109466190Y-61792380D01*
X109561428Y-61792380D01*
X109656666Y-61744761D01*
X109704285Y-61697142D01*
X109751904Y-61601904D01*
X109799523Y-61411428D01*
X109799523Y-61173333D01*
X109751904Y-60982857D01*
X109704285Y-60887619D01*
X109656666Y-60840000D01*
X109561428Y-60792380D01*
%TO.C,U2*%
X50291904Y-113752380D02*
X50291904Y-114561904D01*
X50244285Y-114657142D01*
X50196666Y-114704761D01*
X50101428Y-114752380D01*
X49910952Y-114752380D01*
X49815714Y-114704761D01*
X49768095Y-114657142D01*
X49720476Y-114561904D01*
X49720476Y-113752380D01*
X49291904Y-113847619D02*
X49244285Y-113800000D01*
X49149047Y-113752380D01*
X48910952Y-113752380D01*
X48815714Y-113800000D01*
X48768095Y-113847619D01*
X48720476Y-113942857D01*
X48720476Y-114038095D01*
X48768095Y-114180952D01*
X49339523Y-114752380D01*
X48720476Y-114752380D01*
%TO.C,U3*%
X95122904Y-69183380D02*
X95122904Y-69992904D01*
X95075285Y-70088142D01*
X95027666Y-70135761D01*
X94932428Y-70183380D01*
X94741952Y-70183380D01*
X94646714Y-70135761D01*
X94599095Y-70088142D01*
X94551476Y-69992904D01*
X94551476Y-69183380D01*
X94170523Y-69183380D02*
X93551476Y-69183380D01*
X93884809Y-69564333D01*
X93741952Y-69564333D01*
X93646714Y-69611952D01*
X93599095Y-69659571D01*
X93551476Y-69754809D01*
X93551476Y-69992904D01*
X93599095Y-70088142D01*
X93646714Y-70135761D01*
X93741952Y-70183380D01*
X94027666Y-70183380D01*
X94122904Y-70135761D01*
X94170523Y-70088142D01*
D16*
X85856666Y-62227666D02*
X85623333Y-62927666D01*
X85390000Y-62227666D01*
X85156666Y-62927666D02*
X85156666Y-62227666D01*
X84823333Y-62927666D02*
X84823333Y-62227666D01*
X84423333Y-62927666D01*
X84423333Y-62227666D01*
X88163333Y-62261000D02*
X88230000Y-62227666D01*
X88330000Y-62227666D01*
X88430000Y-62261000D01*
X88496666Y-62327666D01*
X88530000Y-62394333D01*
X88563333Y-62527666D01*
X88563333Y-62627666D01*
X88530000Y-62761000D01*
X88496666Y-62827666D01*
X88430000Y-62894333D01*
X88330000Y-62927666D01*
X88263333Y-62927666D01*
X88163333Y-62894333D01*
X88130000Y-62861000D01*
X88130000Y-62627666D01*
X88263333Y-62627666D01*
X87830000Y-62927666D02*
X87830000Y-62227666D01*
X87430000Y-62927666D01*
X87430000Y-62227666D01*
X87096666Y-62927666D02*
X87096666Y-62227666D01*
X86930000Y-62227666D01*
X86830000Y-62261000D01*
X86763333Y-62327666D01*
X86730000Y-62394333D01*
X86696666Y-62527666D01*
X86696666Y-62627666D01*
X86730000Y-62761000D01*
X86763333Y-62827666D01*
X86830000Y-62894333D01*
X86930000Y-62927666D01*
X87096666Y-62927666D01*
X90903333Y-62227666D02*
X90470000Y-62227666D01*
X90703333Y-62494333D01*
X90603333Y-62494333D01*
X90536666Y-62527666D01*
X90503333Y-62561000D01*
X90470000Y-62627666D01*
X90470000Y-62794333D01*
X90503333Y-62861000D01*
X90536666Y-62894333D01*
X90603333Y-62927666D01*
X90803333Y-62927666D01*
X90870000Y-62894333D01*
X90903333Y-62861000D01*
X90170000Y-62861000D02*
X90136666Y-62894333D01*
X90170000Y-62927666D01*
X90203333Y-62894333D01*
X90170000Y-62861000D01*
X90170000Y-62927666D01*
X89903333Y-62227666D02*
X89470000Y-62227666D01*
X89703333Y-62494333D01*
X89603333Y-62494333D01*
X89536666Y-62527666D01*
X89503333Y-62561000D01*
X89470000Y-62627666D01*
X89470000Y-62794333D01*
X89503333Y-62861000D01*
X89536666Y-62894333D01*
X89603333Y-62927666D01*
X89803333Y-62927666D01*
X89870000Y-62894333D01*
X89903333Y-62861000D01*
X93126666Y-62861000D02*
X93160000Y-62894333D01*
X93260000Y-62927666D01*
X93326666Y-62927666D01*
X93426666Y-62894333D01*
X93493333Y-62827666D01*
X93526666Y-62761000D01*
X93560000Y-62627666D01*
X93560000Y-62527666D01*
X93526666Y-62394333D01*
X93493333Y-62327666D01*
X93426666Y-62261000D01*
X93326666Y-62227666D01*
X93260000Y-62227666D01*
X93160000Y-62261000D01*
X93126666Y-62294333D01*
X92493333Y-62927666D02*
X92826666Y-62927666D01*
X92826666Y-62227666D01*
X92260000Y-62927666D02*
X92260000Y-62227666D01*
X91860000Y-62927666D02*
X92160000Y-62527666D01*
X91860000Y-62227666D02*
X92260000Y-62627666D01*
X96039666Y-62894333D02*
X95939666Y-62927666D01*
X95773000Y-62927666D01*
X95706333Y-62894333D01*
X95673000Y-62861000D01*
X95639666Y-62794333D01*
X95639666Y-62727666D01*
X95673000Y-62661000D01*
X95706333Y-62627666D01*
X95773000Y-62594333D01*
X95906333Y-62561000D01*
X95973000Y-62527666D01*
X96006333Y-62494333D01*
X96039666Y-62427666D01*
X96039666Y-62361000D01*
X96006333Y-62294333D01*
X95973000Y-62261000D01*
X95906333Y-62227666D01*
X95739666Y-62227666D01*
X95639666Y-62261000D01*
X95339666Y-62927666D02*
X95339666Y-62227666D01*
X95173000Y-62227666D01*
X95073000Y-62261000D01*
X95006333Y-62327666D01*
X94973000Y-62394333D01*
X94939666Y-62527666D01*
X94939666Y-62627666D01*
X94973000Y-62761000D01*
X95006333Y-62827666D01*
X95073000Y-62894333D01*
X95173000Y-62927666D01*
X95339666Y-62927666D01*
X94506333Y-62227666D02*
X94373000Y-62227666D01*
X94306333Y-62261000D01*
X94239666Y-62327666D01*
X94206333Y-62461000D01*
X94206333Y-62694333D01*
X94239666Y-62827666D01*
X94306333Y-62894333D01*
X94373000Y-62927666D01*
X94506333Y-62927666D01*
X94573000Y-62894333D01*
X94639666Y-62827666D01*
X94673000Y-62694333D01*
X94673000Y-62461000D01*
X94639666Y-62327666D01*
X94573000Y-62261000D01*
X94506333Y-62227666D01*
X98506666Y-62894333D02*
X98406666Y-62927666D01*
X98240000Y-62927666D01*
X98173333Y-62894333D01*
X98140000Y-62861000D01*
X98106666Y-62794333D01*
X98106666Y-62727666D01*
X98140000Y-62661000D01*
X98173333Y-62627666D01*
X98240000Y-62594333D01*
X98373333Y-62561000D01*
X98440000Y-62527666D01*
X98473333Y-62494333D01*
X98506666Y-62427666D01*
X98506666Y-62361000D01*
X98473333Y-62294333D01*
X98440000Y-62261000D01*
X98373333Y-62227666D01*
X98206666Y-62227666D01*
X98106666Y-62261000D01*
X97806666Y-62927666D02*
X97806666Y-62227666D01*
X97640000Y-62227666D01*
X97540000Y-62261000D01*
X97473333Y-62327666D01*
X97440000Y-62394333D01*
X97406666Y-62527666D01*
X97406666Y-62627666D01*
X97440000Y-62761000D01*
X97473333Y-62827666D01*
X97540000Y-62894333D01*
X97640000Y-62927666D01*
X97806666Y-62927666D01*
X97106666Y-62927666D02*
X97106666Y-62227666D01*
X100446666Y-62861000D02*
X100480000Y-62894333D01*
X100580000Y-62927666D01*
X100646666Y-62927666D01*
X100746666Y-62894333D01*
X100813333Y-62827666D01*
X100846666Y-62761000D01*
X100880000Y-62627666D01*
X100880000Y-62527666D01*
X100846666Y-62394333D01*
X100813333Y-62327666D01*
X100746666Y-62261000D01*
X100646666Y-62227666D01*
X100580000Y-62227666D01*
X100480000Y-62261000D01*
X100446666Y-62294333D01*
X100180000Y-62894333D02*
X100080000Y-62927666D01*
X99913333Y-62927666D01*
X99846666Y-62894333D01*
X99813333Y-62861000D01*
X99780000Y-62794333D01*
X99780000Y-62727666D01*
X99813333Y-62661000D01*
X99846666Y-62627666D01*
X99913333Y-62594333D01*
X100046666Y-62561000D01*
X100113333Y-62527666D01*
X100146666Y-62494333D01*
X100180000Y-62427666D01*
X100180000Y-62361000D01*
X100146666Y-62294333D01*
X100113333Y-62261000D01*
X100046666Y-62227666D01*
X99880000Y-62227666D01*
X99780000Y-62261000D01*
X103303333Y-62927666D02*
X103536666Y-62594333D01*
X103703333Y-62927666D02*
X103703333Y-62227666D01*
X103436666Y-62227666D01*
X103370000Y-62261000D01*
X103336666Y-62294333D01*
X103303333Y-62361000D01*
X103303333Y-62461000D01*
X103336666Y-62527666D01*
X103370000Y-62561000D01*
X103436666Y-62594333D01*
X103703333Y-62594333D01*
X103003333Y-62927666D02*
X103003333Y-62227666D01*
X102836666Y-62227666D01*
X102736666Y-62261000D01*
X102670000Y-62327666D01*
X102636666Y-62394333D01*
X102603333Y-62527666D01*
X102603333Y-62627666D01*
X102636666Y-62761000D01*
X102670000Y-62827666D01*
X102736666Y-62894333D01*
X102836666Y-62927666D01*
X103003333Y-62927666D01*
X102170000Y-62594333D02*
X102170000Y-62927666D01*
X102403333Y-62227666D02*
X102170000Y-62594333D01*
X101936666Y-62227666D01*
X89450000Y-81215666D02*
X89450000Y-80515666D01*
X89050000Y-81215666D01*
X89050000Y-80515666D01*
X88316666Y-81149000D02*
X88350000Y-81182333D01*
X88450000Y-81215666D01*
X88516666Y-81215666D01*
X88616666Y-81182333D01*
X88683333Y-81115666D01*
X88716666Y-81049000D01*
X88750000Y-80915666D01*
X88750000Y-80815666D01*
X88716666Y-80682333D01*
X88683333Y-80615666D01*
X88616666Y-80549000D01*
X88516666Y-80515666D01*
X88450000Y-80515666D01*
X88350000Y-80549000D01*
X88316666Y-80582333D01*
X92879000Y-81215666D02*
X92879000Y-80515666D01*
X92479000Y-81215666D01*
X92479000Y-80515666D01*
X91745666Y-81149000D02*
X91779000Y-81182333D01*
X91879000Y-81215666D01*
X91945666Y-81215666D01*
X92045666Y-81182333D01*
X92112333Y-81115666D01*
X92145666Y-81049000D01*
X92179000Y-80915666D01*
X92179000Y-80815666D01*
X92145666Y-80682333D01*
X92112333Y-80615666D01*
X92045666Y-80549000D01*
X91945666Y-80515666D01*
X91879000Y-80515666D01*
X91779000Y-80549000D01*
X91745666Y-80582333D01*
X96435000Y-81215666D02*
X96435000Y-80515666D01*
X96035000Y-81215666D01*
X96035000Y-80515666D01*
X95301666Y-81149000D02*
X95335000Y-81182333D01*
X95435000Y-81215666D01*
X95501666Y-81215666D01*
X95601666Y-81182333D01*
X95668333Y-81115666D01*
X95701666Y-81049000D01*
X95735000Y-80915666D01*
X95735000Y-80815666D01*
X95701666Y-80682333D01*
X95668333Y-80615666D01*
X95601666Y-80549000D01*
X95501666Y-80515666D01*
X95435000Y-80515666D01*
X95335000Y-80549000D01*
X95301666Y-80582333D01*
X100118000Y-81215666D02*
X100118000Y-80515666D01*
X99718000Y-81215666D01*
X99718000Y-80515666D01*
X98984666Y-81149000D02*
X99018000Y-81182333D01*
X99118000Y-81215666D01*
X99184666Y-81215666D01*
X99284666Y-81182333D01*
X99351333Y-81115666D01*
X99384666Y-81049000D01*
X99418000Y-80915666D01*
X99418000Y-80815666D01*
X99384666Y-80682333D01*
X99351333Y-80615666D01*
X99284666Y-80549000D01*
X99184666Y-80515666D01*
X99118000Y-80515666D01*
X99018000Y-80549000D01*
X98984666Y-80582333D01*
%TD*%
M02*
