%TF.GenerationSoftware,KiCad,Pcbnew,(5.1.12)-1*%
%TF.CreationDate,2021-12-29T18:15:49+01:00*%
%TF.ProjectId,esp32pcbheater,65737033-3270-4636-9268-65617465722e,rev?*%
%TF.SameCoordinates,Original*%
%TF.FileFunction,Soldermask,Bot*%
%TF.FilePolarity,Negative*%
%FSLAX46Y46*%
G04 Gerber Fmt 4.6, Leading zero omitted, Abs format (unit mm)*
G04 Created by KiCad (PCBNEW (5.1.12)-1) date 2021-12-29 18:15:49*
%MOMM*%
%LPD*%
G01*
G04 APERTURE LIST*
%ADD10R,3.000000X1.524000*%
%ADD11R,2.200000X2.200000*%
%ADD12O,2.200000X2.200000*%
%ADD13C,3.000000*%
%ADD14C,0.100000*%
%ADD15R,1.700000X1.700000*%
%ADD16O,1.700000X1.700000*%
%ADD17R,3.000000X3.000000*%
%ADD18R,1.980000X1.980000*%
%ADD19C,1.935000*%
%ADD20C,1.980000*%
%ADD21C,1.500000*%
%ADD22R,1.500000X1.500000*%
%ADD23C,1.524000*%
G04 APERTURE END LIST*
D10*
%TO.C,BZ1*%
X110744000Y-82753200D03*
X119989600Y-82753200D03*
%TD*%
D11*
%TO.C,D1*%
X97155000Y-54610000D03*
D12*
X109855000Y-54610000D03*
%TD*%
D13*
%TO.C,H1*%
X33020000Y-45720000D03*
%TD*%
%TO.C,H2*%
X153670000Y-45720000D03*
%TD*%
%TO.C,H3*%
X33020000Y-110490000D03*
%TD*%
%TO.C,H4*%
X153670000Y-110490000D03*
%TD*%
D14*
%TO.C,J1*%
G36*
X78120000Y-93230602D02*
G01*
X78144534Y-93230602D01*
X78193365Y-93235412D01*
X78241490Y-93244984D01*
X78288445Y-93259228D01*
X78333778Y-93278005D01*
X78377051Y-93301136D01*
X78417850Y-93328396D01*
X78455779Y-93359524D01*
X78490476Y-93394221D01*
X78521604Y-93432150D01*
X78548864Y-93472949D01*
X78571995Y-93516222D01*
X78590772Y-93561555D01*
X78605016Y-93608510D01*
X78614588Y-93656635D01*
X78619398Y-93705466D01*
X78619398Y-93730000D01*
X78620000Y-93730000D01*
X78620000Y-94230000D01*
X78619398Y-94230000D01*
X78619398Y-94254534D01*
X78614588Y-94303365D01*
X78605016Y-94351490D01*
X78590772Y-94398445D01*
X78571995Y-94443778D01*
X78548864Y-94487051D01*
X78521604Y-94527850D01*
X78490476Y-94565779D01*
X78455779Y-94600476D01*
X78417850Y-94631604D01*
X78377051Y-94658864D01*
X78333778Y-94681995D01*
X78288445Y-94700772D01*
X78241490Y-94715016D01*
X78193365Y-94724588D01*
X78144534Y-94729398D01*
X78120000Y-94729398D01*
X78120000Y-94730000D01*
X77620000Y-94730000D01*
X77620000Y-93230000D01*
X78120000Y-93230000D01*
X78120000Y-93230602D01*
G37*
G36*
X77320000Y-94730000D02*
G01*
X76820000Y-94730000D01*
X76820000Y-94729398D01*
X76795466Y-94729398D01*
X76746635Y-94724588D01*
X76698510Y-94715016D01*
X76651555Y-94700772D01*
X76606222Y-94681995D01*
X76562949Y-94658864D01*
X76522150Y-94631604D01*
X76484221Y-94600476D01*
X76449524Y-94565779D01*
X76418396Y-94527850D01*
X76391136Y-94487051D01*
X76368005Y-94443778D01*
X76349228Y-94398445D01*
X76334984Y-94351490D01*
X76325412Y-94303365D01*
X76320602Y-94254534D01*
X76320602Y-94230000D01*
X76320000Y-94230000D01*
X76320000Y-93730000D01*
X76320602Y-93730000D01*
X76320602Y-93705466D01*
X76325412Y-93656635D01*
X76334984Y-93608510D01*
X76349228Y-93561555D01*
X76368005Y-93516222D01*
X76391136Y-93472949D01*
X76418396Y-93432150D01*
X76449524Y-93394221D01*
X76484221Y-93359524D01*
X76522150Y-93328396D01*
X76562949Y-93301136D01*
X76606222Y-93278005D01*
X76651555Y-93259228D01*
X76698510Y-93244984D01*
X76746635Y-93235412D01*
X76795466Y-93230602D01*
X76820000Y-93230602D01*
X76820000Y-93230000D01*
X77320000Y-93230000D01*
X77320000Y-94730000D01*
G37*
%TD*%
D15*
%TO.C,J2*%
X116840000Y-90170000D03*
D16*
X114300000Y-90170000D03*
%TD*%
D14*
%TO.C,J3*%
G36*
X77320000Y-90920000D02*
G01*
X76820000Y-90920000D01*
X76820000Y-90919398D01*
X76795466Y-90919398D01*
X76746635Y-90914588D01*
X76698510Y-90905016D01*
X76651555Y-90890772D01*
X76606222Y-90871995D01*
X76562949Y-90848864D01*
X76522150Y-90821604D01*
X76484221Y-90790476D01*
X76449524Y-90755779D01*
X76418396Y-90717850D01*
X76391136Y-90677051D01*
X76368005Y-90633778D01*
X76349228Y-90588445D01*
X76334984Y-90541490D01*
X76325412Y-90493365D01*
X76320602Y-90444534D01*
X76320602Y-90420000D01*
X76320000Y-90420000D01*
X76320000Y-89920000D01*
X76320602Y-89920000D01*
X76320602Y-89895466D01*
X76325412Y-89846635D01*
X76334984Y-89798510D01*
X76349228Y-89751555D01*
X76368005Y-89706222D01*
X76391136Y-89662949D01*
X76418396Y-89622150D01*
X76449524Y-89584221D01*
X76484221Y-89549524D01*
X76522150Y-89518396D01*
X76562949Y-89491136D01*
X76606222Y-89468005D01*
X76651555Y-89449228D01*
X76698510Y-89434984D01*
X76746635Y-89425412D01*
X76795466Y-89420602D01*
X76820000Y-89420602D01*
X76820000Y-89420000D01*
X77320000Y-89420000D01*
X77320000Y-90920000D01*
G37*
G36*
X78120000Y-89420602D02*
G01*
X78144534Y-89420602D01*
X78193365Y-89425412D01*
X78241490Y-89434984D01*
X78288445Y-89449228D01*
X78333778Y-89468005D01*
X78377051Y-89491136D01*
X78417850Y-89518396D01*
X78455779Y-89549524D01*
X78490476Y-89584221D01*
X78521604Y-89622150D01*
X78548864Y-89662949D01*
X78571995Y-89706222D01*
X78590772Y-89751555D01*
X78605016Y-89798510D01*
X78614588Y-89846635D01*
X78619398Y-89895466D01*
X78619398Y-89920000D01*
X78620000Y-89920000D01*
X78620000Y-90420000D01*
X78619398Y-90420000D01*
X78619398Y-90444534D01*
X78614588Y-90493365D01*
X78605016Y-90541490D01*
X78590772Y-90588445D01*
X78571995Y-90633778D01*
X78548864Y-90677051D01*
X78521604Y-90717850D01*
X78490476Y-90755779D01*
X78455779Y-90790476D01*
X78417850Y-90821604D01*
X78377051Y-90848864D01*
X78333778Y-90871995D01*
X78288445Y-90890772D01*
X78241490Y-90905016D01*
X78193365Y-90914588D01*
X78144534Y-90919398D01*
X78120000Y-90919398D01*
X78120000Y-90920000D01*
X77620000Y-90920000D01*
X77620000Y-89420000D01*
X78120000Y-89420000D01*
X78120000Y-89420602D01*
G37*
%TD*%
%TO.C,J4*%
G36*
X78120000Y-84340602D02*
G01*
X78144534Y-84340602D01*
X78193365Y-84345412D01*
X78241490Y-84354984D01*
X78288445Y-84369228D01*
X78333778Y-84388005D01*
X78377051Y-84411136D01*
X78417850Y-84438396D01*
X78455779Y-84469524D01*
X78490476Y-84504221D01*
X78521604Y-84542150D01*
X78548864Y-84582949D01*
X78571995Y-84626222D01*
X78590772Y-84671555D01*
X78605016Y-84718510D01*
X78614588Y-84766635D01*
X78619398Y-84815466D01*
X78619398Y-84840000D01*
X78620000Y-84840000D01*
X78620000Y-85340000D01*
X78619398Y-85340000D01*
X78619398Y-85364534D01*
X78614588Y-85413365D01*
X78605016Y-85461490D01*
X78590772Y-85508445D01*
X78571995Y-85553778D01*
X78548864Y-85597051D01*
X78521604Y-85637850D01*
X78490476Y-85675779D01*
X78455779Y-85710476D01*
X78417850Y-85741604D01*
X78377051Y-85768864D01*
X78333778Y-85791995D01*
X78288445Y-85810772D01*
X78241490Y-85825016D01*
X78193365Y-85834588D01*
X78144534Y-85839398D01*
X78120000Y-85839398D01*
X78120000Y-85840000D01*
X77620000Y-85840000D01*
X77620000Y-84340000D01*
X78120000Y-84340000D01*
X78120000Y-84340602D01*
G37*
G36*
X77320000Y-85840000D02*
G01*
X76820000Y-85840000D01*
X76820000Y-85839398D01*
X76795466Y-85839398D01*
X76746635Y-85834588D01*
X76698510Y-85825016D01*
X76651555Y-85810772D01*
X76606222Y-85791995D01*
X76562949Y-85768864D01*
X76522150Y-85741604D01*
X76484221Y-85710476D01*
X76449524Y-85675779D01*
X76418396Y-85637850D01*
X76391136Y-85597051D01*
X76368005Y-85553778D01*
X76349228Y-85508445D01*
X76334984Y-85461490D01*
X76325412Y-85413365D01*
X76320602Y-85364534D01*
X76320602Y-85340000D01*
X76320000Y-85340000D01*
X76320000Y-84840000D01*
X76320602Y-84840000D01*
X76320602Y-84815466D01*
X76325412Y-84766635D01*
X76334984Y-84718510D01*
X76349228Y-84671555D01*
X76368005Y-84626222D01*
X76391136Y-84582949D01*
X76418396Y-84542150D01*
X76449524Y-84504221D01*
X76484221Y-84469524D01*
X76522150Y-84438396D01*
X76562949Y-84411136D01*
X76606222Y-84388005D01*
X76651555Y-84369228D01*
X76698510Y-84354984D01*
X76746635Y-84345412D01*
X76795466Y-84340602D01*
X76820000Y-84340602D01*
X76820000Y-84340000D01*
X77320000Y-84340000D01*
X77320000Y-85840000D01*
G37*
%TD*%
%TO.C,J5*%
G36*
X77320000Y-82030000D02*
G01*
X76820000Y-82030000D01*
X76820000Y-82029398D01*
X76795466Y-82029398D01*
X76746635Y-82024588D01*
X76698510Y-82015016D01*
X76651555Y-82000772D01*
X76606222Y-81981995D01*
X76562949Y-81958864D01*
X76522150Y-81931604D01*
X76484221Y-81900476D01*
X76449524Y-81865779D01*
X76418396Y-81827850D01*
X76391136Y-81787051D01*
X76368005Y-81743778D01*
X76349228Y-81698445D01*
X76334984Y-81651490D01*
X76325412Y-81603365D01*
X76320602Y-81554534D01*
X76320602Y-81530000D01*
X76320000Y-81530000D01*
X76320000Y-81030000D01*
X76320602Y-81030000D01*
X76320602Y-81005466D01*
X76325412Y-80956635D01*
X76334984Y-80908510D01*
X76349228Y-80861555D01*
X76368005Y-80816222D01*
X76391136Y-80772949D01*
X76418396Y-80732150D01*
X76449524Y-80694221D01*
X76484221Y-80659524D01*
X76522150Y-80628396D01*
X76562949Y-80601136D01*
X76606222Y-80578005D01*
X76651555Y-80559228D01*
X76698510Y-80544984D01*
X76746635Y-80535412D01*
X76795466Y-80530602D01*
X76820000Y-80530602D01*
X76820000Y-80530000D01*
X77320000Y-80530000D01*
X77320000Y-82030000D01*
G37*
G36*
X78120000Y-80530602D02*
G01*
X78144534Y-80530602D01*
X78193365Y-80535412D01*
X78241490Y-80544984D01*
X78288445Y-80559228D01*
X78333778Y-80578005D01*
X78377051Y-80601136D01*
X78417850Y-80628396D01*
X78455779Y-80659524D01*
X78490476Y-80694221D01*
X78521604Y-80732150D01*
X78548864Y-80772949D01*
X78571995Y-80816222D01*
X78590772Y-80861555D01*
X78605016Y-80908510D01*
X78614588Y-80956635D01*
X78619398Y-81005466D01*
X78619398Y-81030000D01*
X78620000Y-81030000D01*
X78620000Y-81530000D01*
X78619398Y-81530000D01*
X78619398Y-81554534D01*
X78614588Y-81603365D01*
X78605016Y-81651490D01*
X78590772Y-81698445D01*
X78571995Y-81743778D01*
X78548864Y-81787051D01*
X78521604Y-81827850D01*
X78490476Y-81865779D01*
X78455779Y-81900476D01*
X78417850Y-81931604D01*
X78377051Y-81958864D01*
X78333778Y-81981995D01*
X78288445Y-82000772D01*
X78241490Y-82015016D01*
X78193365Y-82024588D01*
X78144534Y-82029398D01*
X78120000Y-82029398D01*
X78120000Y-82030000D01*
X77620000Y-82030000D01*
X77620000Y-80530000D01*
X78120000Y-80530000D01*
X78120000Y-80530602D01*
G37*
%TD*%
%TO.C,J6*%
G36*
X77320000Y-76950000D02*
G01*
X76820000Y-76950000D01*
X76820000Y-76949398D01*
X76795466Y-76949398D01*
X76746635Y-76944588D01*
X76698510Y-76935016D01*
X76651555Y-76920772D01*
X76606222Y-76901995D01*
X76562949Y-76878864D01*
X76522150Y-76851604D01*
X76484221Y-76820476D01*
X76449524Y-76785779D01*
X76418396Y-76747850D01*
X76391136Y-76707051D01*
X76368005Y-76663778D01*
X76349228Y-76618445D01*
X76334984Y-76571490D01*
X76325412Y-76523365D01*
X76320602Y-76474534D01*
X76320602Y-76450000D01*
X76320000Y-76450000D01*
X76320000Y-75950000D01*
X76320602Y-75950000D01*
X76320602Y-75925466D01*
X76325412Y-75876635D01*
X76334984Y-75828510D01*
X76349228Y-75781555D01*
X76368005Y-75736222D01*
X76391136Y-75692949D01*
X76418396Y-75652150D01*
X76449524Y-75614221D01*
X76484221Y-75579524D01*
X76522150Y-75548396D01*
X76562949Y-75521136D01*
X76606222Y-75498005D01*
X76651555Y-75479228D01*
X76698510Y-75464984D01*
X76746635Y-75455412D01*
X76795466Y-75450602D01*
X76820000Y-75450602D01*
X76820000Y-75450000D01*
X77320000Y-75450000D01*
X77320000Y-76950000D01*
G37*
G36*
X78120000Y-75450602D02*
G01*
X78144534Y-75450602D01*
X78193365Y-75455412D01*
X78241490Y-75464984D01*
X78288445Y-75479228D01*
X78333778Y-75498005D01*
X78377051Y-75521136D01*
X78417850Y-75548396D01*
X78455779Y-75579524D01*
X78490476Y-75614221D01*
X78521604Y-75652150D01*
X78548864Y-75692949D01*
X78571995Y-75736222D01*
X78590772Y-75781555D01*
X78605016Y-75828510D01*
X78614588Y-75876635D01*
X78619398Y-75925466D01*
X78619398Y-75950000D01*
X78620000Y-75950000D01*
X78620000Y-76450000D01*
X78619398Y-76450000D01*
X78619398Y-76474534D01*
X78614588Y-76523365D01*
X78605016Y-76571490D01*
X78590772Y-76618445D01*
X78571995Y-76663778D01*
X78548864Y-76707051D01*
X78521604Y-76747850D01*
X78490476Y-76785779D01*
X78455779Y-76820476D01*
X78417850Y-76851604D01*
X78377051Y-76878864D01*
X78333778Y-76901995D01*
X78288445Y-76920772D01*
X78241490Y-76935016D01*
X78193365Y-76944588D01*
X78144534Y-76949398D01*
X78120000Y-76949398D01*
X78120000Y-76950000D01*
X77620000Y-76950000D01*
X77620000Y-75450000D01*
X78120000Y-75450000D01*
X78120000Y-75450602D01*
G37*
%TD*%
D17*
%TO.C,J7*%
X154305000Y-55880000D03*
D13*
X154305000Y-60960000D03*
X154305000Y-66040000D03*
%TD*%
D14*
%TO.C,JP1*%
G36*
X90920000Y-55410000D02*
G01*
X90920000Y-55910000D01*
X90919398Y-55910000D01*
X90919398Y-55934534D01*
X90914588Y-55983365D01*
X90905016Y-56031490D01*
X90890772Y-56078445D01*
X90871995Y-56123778D01*
X90848864Y-56167051D01*
X90821604Y-56207850D01*
X90790476Y-56245779D01*
X90755779Y-56280476D01*
X90717850Y-56311604D01*
X90677051Y-56338864D01*
X90633778Y-56361995D01*
X90588445Y-56380772D01*
X90541490Y-56395016D01*
X90493365Y-56404588D01*
X90444534Y-56409398D01*
X90420000Y-56409398D01*
X90420000Y-56410000D01*
X89920000Y-56410000D01*
X89920000Y-56409398D01*
X89895466Y-56409398D01*
X89846635Y-56404588D01*
X89798510Y-56395016D01*
X89751555Y-56380772D01*
X89706222Y-56361995D01*
X89662949Y-56338864D01*
X89622150Y-56311604D01*
X89584221Y-56280476D01*
X89549524Y-56245779D01*
X89518396Y-56207850D01*
X89491136Y-56167051D01*
X89468005Y-56123778D01*
X89449228Y-56078445D01*
X89434984Y-56031490D01*
X89425412Y-55983365D01*
X89420602Y-55934534D01*
X89420602Y-55910000D01*
X89420000Y-55910000D01*
X89420000Y-55410000D01*
X90920000Y-55410000D01*
G37*
G36*
X89420602Y-54610000D02*
G01*
X89420602Y-54585466D01*
X89425412Y-54536635D01*
X89434984Y-54488510D01*
X89449228Y-54441555D01*
X89468005Y-54396222D01*
X89491136Y-54352949D01*
X89518396Y-54312150D01*
X89549524Y-54274221D01*
X89584221Y-54239524D01*
X89622150Y-54208396D01*
X89662949Y-54181136D01*
X89706222Y-54158005D01*
X89751555Y-54139228D01*
X89798510Y-54124984D01*
X89846635Y-54115412D01*
X89895466Y-54110602D01*
X89920000Y-54110602D01*
X89920000Y-54110000D01*
X90420000Y-54110000D01*
X90420000Y-54110602D01*
X90444534Y-54110602D01*
X90493365Y-54115412D01*
X90541490Y-54124984D01*
X90588445Y-54139228D01*
X90633778Y-54158005D01*
X90677051Y-54181136D01*
X90717850Y-54208396D01*
X90755779Y-54239524D01*
X90790476Y-54274221D01*
X90821604Y-54312150D01*
X90848864Y-54352949D01*
X90871995Y-54396222D01*
X90890772Y-54441555D01*
X90905016Y-54488510D01*
X90914588Y-54536635D01*
X90919398Y-54585466D01*
X90919398Y-54610000D01*
X90920000Y-54610000D01*
X90920000Y-55110000D01*
X89420000Y-55110000D01*
X89420000Y-54610000D01*
X89420602Y-54610000D01*
G37*
%TD*%
D18*
%TO.C,K1*%
X125980000Y-66325000D03*
D19*
X123980000Y-60325000D03*
D20*
X125980000Y-54325000D03*
X138180000Y-54325000D03*
X138180000Y-66325000D03*
%TD*%
D21*
%TO.C,Q1*%
X116205000Y-54610000D03*
X118745000Y-54610000D03*
D22*
X113665000Y-54610000D03*
%TD*%
%TO.C,R8*%
G36*
G01*
X112875000Y-60140001D02*
X112875000Y-59239999D01*
G75*
G02*
X113124999Y-58990000I249999J0D01*
G01*
X113650001Y-58990000D01*
G75*
G02*
X113900000Y-59239999I0J-249999D01*
G01*
X113900000Y-60140001D01*
G75*
G02*
X113650001Y-60390000I-249999J0D01*
G01*
X113124999Y-60390000D01*
G75*
G02*
X112875000Y-60140001I0J249999D01*
G01*
G37*
G36*
G01*
X114700000Y-60140001D02*
X114700000Y-59239999D01*
G75*
G02*
X114949999Y-58990000I249999J0D01*
G01*
X115475001Y-58990000D01*
G75*
G02*
X115725000Y-59239999I0J-249999D01*
G01*
X115725000Y-60140001D01*
G75*
G02*
X115475001Y-60390000I-249999J0D01*
G01*
X114949999Y-60390000D01*
G75*
G02*
X114700000Y-60140001I0J249999D01*
G01*
G37*
%TD*%
%TO.C,R10*%
G36*
G01*
X109065000Y-60140001D02*
X109065000Y-59239999D01*
G75*
G02*
X109314999Y-58990000I249999J0D01*
G01*
X109840001Y-58990000D01*
G75*
G02*
X110090000Y-59239999I0J-249999D01*
G01*
X110090000Y-60140001D01*
G75*
G02*
X109840001Y-60390000I-249999J0D01*
G01*
X109314999Y-60390000D01*
G75*
G02*
X109065000Y-60140001I0J249999D01*
G01*
G37*
G36*
G01*
X110890000Y-60140001D02*
X110890000Y-59239999D01*
G75*
G02*
X111139999Y-58990000I249999J0D01*
G01*
X111665001Y-58990000D01*
G75*
G02*
X111915000Y-59239999I0J-249999D01*
G01*
X111915000Y-60140001D01*
G75*
G02*
X111665001Y-60390000I-249999J0D01*
G01*
X111139999Y-60390000D01*
G75*
G02*
X110890000Y-60140001I0J249999D01*
G01*
G37*
%TD*%
D23*
%TO.C,U1*%
X67310000Y-57150000D03*
X67310000Y-59690000D03*
X67310000Y-62230000D03*
X67310000Y-64770000D03*
X67310000Y-67310000D03*
X67310000Y-69850000D03*
X67310000Y-72390000D03*
X67310000Y-74930000D03*
X67310000Y-77470000D03*
X67310000Y-80010000D03*
X67310000Y-82550000D03*
X67310000Y-85090000D03*
X67310000Y-87630000D03*
X67310000Y-90170000D03*
X148336000Y-69850000D03*
X148336000Y-72390000D03*
X148336000Y-74930000D03*
X148336000Y-77470000D03*
%TD*%
%TO.C,U2*%
X60960000Y-73660000D03*
X60960000Y-76200000D03*
X60960000Y-78740000D03*
X60960000Y-81280000D03*
X60960000Y-83820000D03*
X60960000Y-86360000D03*
X60960000Y-88900000D03*
X60960000Y-91440000D03*
X60960000Y-93980000D03*
X60960000Y-96520000D03*
X60960000Y-99060000D03*
X60960000Y-101600000D03*
X60960000Y-104140000D03*
X38100000Y-73660000D03*
X38100000Y-76200000D03*
X38100000Y-78740000D03*
X38100000Y-81280000D03*
X38100000Y-83820000D03*
X38100000Y-86360000D03*
X38100000Y-88900000D03*
X38100000Y-91440000D03*
X38100000Y-93980000D03*
X38100000Y-96520000D03*
X38100000Y-99060000D03*
X38100000Y-101600000D03*
X38100000Y-104140000D03*
%TD*%
%TO.C,U3*%
X85090000Y-60960000D03*
X87630000Y-60960000D03*
X90170000Y-60960000D03*
X92710000Y-60960000D03*
X95250000Y-60960000D03*
X97790000Y-60960000D03*
X100330000Y-60960000D03*
X102870000Y-60960000D03*
X88773000Y-83058000D03*
X92329000Y-83058000D03*
X95885000Y-83058000D03*
X99441000Y-83058000D03*
%TD*%
M02*
