%TF.GenerationSoftware,KiCad,Pcbnew,(5.1.12)-1*%
%TF.CreationDate,2021-12-29T18:15:48+01:00*%
%TF.ProjectId,esp32pcbheater,65737033-3270-4636-9268-65617465722e,rev?*%
%TF.SameCoordinates,Original*%
%TF.FileFunction,Copper,L2,Bot*%
%TF.FilePolarity,Positive*%
%FSLAX46Y46*%
G04 Gerber Fmt 4.6, Leading zero omitted, Abs format (unit mm)*
G04 Created by KiCad (PCBNEW (5.1.12)-1) date 2021-12-29 18:15:48*
%MOMM*%
%LPD*%
G01*
G04 APERTURE LIST*
%TA.AperFunction,SMDPad,CuDef*%
%ADD10R,3.000000X1.524000*%
%TD*%
%TA.AperFunction,ComponentPad*%
%ADD11R,2.200000X2.200000*%
%TD*%
%TA.AperFunction,ComponentPad*%
%ADD12O,2.200000X2.200000*%
%TD*%
%TA.AperFunction,SMDPad,CuDef*%
%ADD13C,0.100000*%
%TD*%
%TA.AperFunction,ComponentPad*%
%ADD14R,1.700000X1.700000*%
%TD*%
%TA.AperFunction,ComponentPad*%
%ADD15O,1.700000X1.700000*%
%TD*%
%TA.AperFunction,ComponentPad*%
%ADD16R,3.000000X3.000000*%
%TD*%
%TA.AperFunction,ComponentPad*%
%ADD17C,3.000000*%
%TD*%
%TA.AperFunction,ComponentPad*%
%ADD18R,1.980000X1.980000*%
%TD*%
%TA.AperFunction,ComponentPad*%
%ADD19C,1.935000*%
%TD*%
%TA.AperFunction,ComponentPad*%
%ADD20C,1.980000*%
%TD*%
%TA.AperFunction,ComponentPad*%
%ADD21C,1.500000*%
%TD*%
%TA.AperFunction,ComponentPad*%
%ADD22R,1.500000X1.500000*%
%TD*%
%TA.AperFunction,ComponentPad*%
%ADD23C,1.524000*%
%TD*%
%TA.AperFunction,ViaPad*%
%ADD24C,0.800000*%
%TD*%
%TA.AperFunction,Conductor*%
%ADD25C,0.250000*%
%TD*%
%TA.AperFunction,Conductor*%
%ADD26C,0.254000*%
%TD*%
%TA.AperFunction,Conductor*%
%ADD27C,0.100000*%
%TD*%
G04 APERTURE END LIST*
D10*
%TO.P,BZ1,2*%
%TO.N,GND*%
X110744000Y-82753200D03*
%TO.P,BZ1,1*%
%TO.N,/BUZZ*%
X119989600Y-82753200D03*
%TD*%
D11*
%TO.P,D1,1*%
%TO.N,+3V3*%
X97155000Y-54610000D03*
D12*
%TO.P,D1,2*%
%TO.N,Net-(D1-Pad2)*%
X109855000Y-54610000D03*
%TD*%
%TA.AperFunction,SMDPad,CuDef*%
D13*
%TO.P,J1,2*%
%TO.N,/TOUCH_CS*%
G36*
X78120000Y-93230602D02*
G01*
X78144534Y-93230602D01*
X78193365Y-93235412D01*
X78241490Y-93244984D01*
X78288445Y-93259228D01*
X78333778Y-93278005D01*
X78377051Y-93301136D01*
X78417850Y-93328396D01*
X78455779Y-93359524D01*
X78490476Y-93394221D01*
X78521604Y-93432150D01*
X78548864Y-93472949D01*
X78571995Y-93516222D01*
X78590772Y-93561555D01*
X78605016Y-93608510D01*
X78614588Y-93656635D01*
X78619398Y-93705466D01*
X78619398Y-93730000D01*
X78620000Y-93730000D01*
X78620000Y-94230000D01*
X78619398Y-94230000D01*
X78619398Y-94254534D01*
X78614588Y-94303365D01*
X78605016Y-94351490D01*
X78590772Y-94398445D01*
X78571995Y-94443778D01*
X78548864Y-94487051D01*
X78521604Y-94527850D01*
X78490476Y-94565779D01*
X78455779Y-94600476D01*
X78417850Y-94631604D01*
X78377051Y-94658864D01*
X78333778Y-94681995D01*
X78288445Y-94700772D01*
X78241490Y-94715016D01*
X78193365Y-94724588D01*
X78144534Y-94729398D01*
X78120000Y-94729398D01*
X78120000Y-94730000D01*
X77620000Y-94730000D01*
X77620000Y-93230000D01*
X78120000Y-93230000D01*
X78120000Y-93230602D01*
G37*
%TD.AperFunction*%
%TA.AperFunction,SMDPad,CuDef*%
%TO.P,J1,1*%
%TO.N,Net-(J1-Pad1)*%
G36*
X77320000Y-94730000D02*
G01*
X76820000Y-94730000D01*
X76820000Y-94729398D01*
X76795466Y-94729398D01*
X76746635Y-94724588D01*
X76698510Y-94715016D01*
X76651555Y-94700772D01*
X76606222Y-94681995D01*
X76562949Y-94658864D01*
X76522150Y-94631604D01*
X76484221Y-94600476D01*
X76449524Y-94565779D01*
X76418396Y-94527850D01*
X76391136Y-94487051D01*
X76368005Y-94443778D01*
X76349228Y-94398445D01*
X76334984Y-94351490D01*
X76325412Y-94303365D01*
X76320602Y-94254534D01*
X76320602Y-94230000D01*
X76320000Y-94230000D01*
X76320000Y-93730000D01*
X76320602Y-93730000D01*
X76320602Y-93705466D01*
X76325412Y-93656635D01*
X76334984Y-93608510D01*
X76349228Y-93561555D01*
X76368005Y-93516222D01*
X76391136Y-93472949D01*
X76418396Y-93432150D01*
X76449524Y-93394221D01*
X76484221Y-93359524D01*
X76522150Y-93328396D01*
X76562949Y-93301136D01*
X76606222Y-93278005D01*
X76651555Y-93259228D01*
X76698510Y-93244984D01*
X76746635Y-93235412D01*
X76795466Y-93230602D01*
X76820000Y-93230602D01*
X76820000Y-93230000D01*
X77320000Y-93230000D01*
X77320000Y-94730000D01*
G37*
%TD.AperFunction*%
%TD*%
D14*
%TO.P,J2,1*%
%TO.N,/BUZZ*%
X116840000Y-90170000D03*
D15*
%TO.P,J2,2*%
%TO.N,GND*%
X114300000Y-90170000D03*
%TD*%
%TA.AperFunction,SMDPad,CuDef*%
D13*
%TO.P,J3,1*%
%TO.N,Net-(J3-Pad1)*%
G36*
X77320000Y-90920000D02*
G01*
X76820000Y-90920000D01*
X76820000Y-90919398D01*
X76795466Y-90919398D01*
X76746635Y-90914588D01*
X76698510Y-90905016D01*
X76651555Y-90890772D01*
X76606222Y-90871995D01*
X76562949Y-90848864D01*
X76522150Y-90821604D01*
X76484221Y-90790476D01*
X76449524Y-90755779D01*
X76418396Y-90717850D01*
X76391136Y-90677051D01*
X76368005Y-90633778D01*
X76349228Y-90588445D01*
X76334984Y-90541490D01*
X76325412Y-90493365D01*
X76320602Y-90444534D01*
X76320602Y-90420000D01*
X76320000Y-90420000D01*
X76320000Y-89920000D01*
X76320602Y-89920000D01*
X76320602Y-89895466D01*
X76325412Y-89846635D01*
X76334984Y-89798510D01*
X76349228Y-89751555D01*
X76368005Y-89706222D01*
X76391136Y-89662949D01*
X76418396Y-89622150D01*
X76449524Y-89584221D01*
X76484221Y-89549524D01*
X76522150Y-89518396D01*
X76562949Y-89491136D01*
X76606222Y-89468005D01*
X76651555Y-89449228D01*
X76698510Y-89434984D01*
X76746635Y-89425412D01*
X76795466Y-89420602D01*
X76820000Y-89420602D01*
X76820000Y-89420000D01*
X77320000Y-89420000D01*
X77320000Y-90920000D01*
G37*
%TD.AperFunction*%
%TA.AperFunction,SMDPad,CuDef*%
%TO.P,J3,2*%
%TO.N,/MOSI*%
G36*
X78120000Y-89420602D02*
G01*
X78144534Y-89420602D01*
X78193365Y-89425412D01*
X78241490Y-89434984D01*
X78288445Y-89449228D01*
X78333778Y-89468005D01*
X78377051Y-89491136D01*
X78417850Y-89518396D01*
X78455779Y-89549524D01*
X78490476Y-89584221D01*
X78521604Y-89622150D01*
X78548864Y-89662949D01*
X78571995Y-89706222D01*
X78590772Y-89751555D01*
X78605016Y-89798510D01*
X78614588Y-89846635D01*
X78619398Y-89895466D01*
X78619398Y-89920000D01*
X78620000Y-89920000D01*
X78620000Y-90420000D01*
X78619398Y-90420000D01*
X78619398Y-90444534D01*
X78614588Y-90493365D01*
X78605016Y-90541490D01*
X78590772Y-90588445D01*
X78571995Y-90633778D01*
X78548864Y-90677051D01*
X78521604Y-90717850D01*
X78490476Y-90755779D01*
X78455779Y-90790476D01*
X78417850Y-90821604D01*
X78377051Y-90848864D01*
X78333778Y-90871995D01*
X78288445Y-90890772D01*
X78241490Y-90905016D01*
X78193365Y-90914588D01*
X78144534Y-90919398D01*
X78120000Y-90919398D01*
X78120000Y-90920000D01*
X77620000Y-90920000D01*
X77620000Y-89420000D01*
X78120000Y-89420000D01*
X78120000Y-89420602D01*
G37*
%TD.AperFunction*%
%TD*%
%TA.AperFunction,SMDPad,CuDef*%
%TO.P,J4,2*%
%TO.N,/MISO*%
G36*
X78120000Y-84340602D02*
G01*
X78144534Y-84340602D01*
X78193365Y-84345412D01*
X78241490Y-84354984D01*
X78288445Y-84369228D01*
X78333778Y-84388005D01*
X78377051Y-84411136D01*
X78417850Y-84438396D01*
X78455779Y-84469524D01*
X78490476Y-84504221D01*
X78521604Y-84542150D01*
X78548864Y-84582949D01*
X78571995Y-84626222D01*
X78590772Y-84671555D01*
X78605016Y-84718510D01*
X78614588Y-84766635D01*
X78619398Y-84815466D01*
X78619398Y-84840000D01*
X78620000Y-84840000D01*
X78620000Y-85340000D01*
X78619398Y-85340000D01*
X78619398Y-85364534D01*
X78614588Y-85413365D01*
X78605016Y-85461490D01*
X78590772Y-85508445D01*
X78571995Y-85553778D01*
X78548864Y-85597051D01*
X78521604Y-85637850D01*
X78490476Y-85675779D01*
X78455779Y-85710476D01*
X78417850Y-85741604D01*
X78377051Y-85768864D01*
X78333778Y-85791995D01*
X78288445Y-85810772D01*
X78241490Y-85825016D01*
X78193365Y-85834588D01*
X78144534Y-85839398D01*
X78120000Y-85839398D01*
X78120000Y-85840000D01*
X77620000Y-85840000D01*
X77620000Y-84340000D01*
X78120000Y-84340000D01*
X78120000Y-84340602D01*
G37*
%TD.AperFunction*%
%TA.AperFunction,SMDPad,CuDef*%
%TO.P,J4,1*%
%TO.N,Net-(J4-Pad1)*%
G36*
X77320000Y-85840000D02*
G01*
X76820000Y-85840000D01*
X76820000Y-85839398D01*
X76795466Y-85839398D01*
X76746635Y-85834588D01*
X76698510Y-85825016D01*
X76651555Y-85810772D01*
X76606222Y-85791995D01*
X76562949Y-85768864D01*
X76522150Y-85741604D01*
X76484221Y-85710476D01*
X76449524Y-85675779D01*
X76418396Y-85637850D01*
X76391136Y-85597051D01*
X76368005Y-85553778D01*
X76349228Y-85508445D01*
X76334984Y-85461490D01*
X76325412Y-85413365D01*
X76320602Y-85364534D01*
X76320602Y-85340000D01*
X76320000Y-85340000D01*
X76320000Y-84840000D01*
X76320602Y-84840000D01*
X76320602Y-84815466D01*
X76325412Y-84766635D01*
X76334984Y-84718510D01*
X76349228Y-84671555D01*
X76368005Y-84626222D01*
X76391136Y-84582949D01*
X76418396Y-84542150D01*
X76449524Y-84504221D01*
X76484221Y-84469524D01*
X76522150Y-84438396D01*
X76562949Y-84411136D01*
X76606222Y-84388005D01*
X76651555Y-84369228D01*
X76698510Y-84354984D01*
X76746635Y-84345412D01*
X76795466Y-84340602D01*
X76820000Y-84340602D01*
X76820000Y-84340000D01*
X77320000Y-84340000D01*
X77320000Y-85840000D01*
G37*
%TD.AperFunction*%
%TD*%
%TA.AperFunction,SMDPad,CuDef*%
%TO.P,J5,1*%
%TO.N,Net-(J5-Pad1)*%
G36*
X77320000Y-82030000D02*
G01*
X76820000Y-82030000D01*
X76820000Y-82029398D01*
X76795466Y-82029398D01*
X76746635Y-82024588D01*
X76698510Y-82015016D01*
X76651555Y-82000772D01*
X76606222Y-81981995D01*
X76562949Y-81958864D01*
X76522150Y-81931604D01*
X76484221Y-81900476D01*
X76449524Y-81865779D01*
X76418396Y-81827850D01*
X76391136Y-81787051D01*
X76368005Y-81743778D01*
X76349228Y-81698445D01*
X76334984Y-81651490D01*
X76325412Y-81603365D01*
X76320602Y-81554534D01*
X76320602Y-81530000D01*
X76320000Y-81530000D01*
X76320000Y-81030000D01*
X76320602Y-81030000D01*
X76320602Y-81005466D01*
X76325412Y-80956635D01*
X76334984Y-80908510D01*
X76349228Y-80861555D01*
X76368005Y-80816222D01*
X76391136Y-80772949D01*
X76418396Y-80732150D01*
X76449524Y-80694221D01*
X76484221Y-80659524D01*
X76522150Y-80628396D01*
X76562949Y-80601136D01*
X76606222Y-80578005D01*
X76651555Y-80559228D01*
X76698510Y-80544984D01*
X76746635Y-80535412D01*
X76795466Y-80530602D01*
X76820000Y-80530602D01*
X76820000Y-80530000D01*
X77320000Y-80530000D01*
X77320000Y-82030000D01*
G37*
%TD.AperFunction*%
%TA.AperFunction,SMDPad,CuDef*%
%TO.P,J5,2*%
%TO.N,/TIRQ*%
G36*
X78120000Y-80530602D02*
G01*
X78144534Y-80530602D01*
X78193365Y-80535412D01*
X78241490Y-80544984D01*
X78288445Y-80559228D01*
X78333778Y-80578005D01*
X78377051Y-80601136D01*
X78417850Y-80628396D01*
X78455779Y-80659524D01*
X78490476Y-80694221D01*
X78521604Y-80732150D01*
X78548864Y-80772949D01*
X78571995Y-80816222D01*
X78590772Y-80861555D01*
X78605016Y-80908510D01*
X78614588Y-80956635D01*
X78619398Y-81005466D01*
X78619398Y-81030000D01*
X78620000Y-81030000D01*
X78620000Y-81530000D01*
X78619398Y-81530000D01*
X78619398Y-81554534D01*
X78614588Y-81603365D01*
X78605016Y-81651490D01*
X78590772Y-81698445D01*
X78571995Y-81743778D01*
X78548864Y-81787051D01*
X78521604Y-81827850D01*
X78490476Y-81865779D01*
X78455779Y-81900476D01*
X78417850Y-81931604D01*
X78377051Y-81958864D01*
X78333778Y-81981995D01*
X78288445Y-82000772D01*
X78241490Y-82015016D01*
X78193365Y-82024588D01*
X78144534Y-82029398D01*
X78120000Y-82029398D01*
X78120000Y-82030000D01*
X77620000Y-82030000D01*
X77620000Y-80530000D01*
X78120000Y-80530000D01*
X78120000Y-80530602D01*
G37*
%TD.AperFunction*%
%TD*%
%TA.AperFunction,SMDPad,CuDef*%
%TO.P,J6,1*%
%TO.N,Net-(J6-Pad1)*%
G36*
X77320000Y-76950000D02*
G01*
X76820000Y-76950000D01*
X76820000Y-76949398D01*
X76795466Y-76949398D01*
X76746635Y-76944588D01*
X76698510Y-76935016D01*
X76651555Y-76920772D01*
X76606222Y-76901995D01*
X76562949Y-76878864D01*
X76522150Y-76851604D01*
X76484221Y-76820476D01*
X76449524Y-76785779D01*
X76418396Y-76747850D01*
X76391136Y-76707051D01*
X76368005Y-76663778D01*
X76349228Y-76618445D01*
X76334984Y-76571490D01*
X76325412Y-76523365D01*
X76320602Y-76474534D01*
X76320602Y-76450000D01*
X76320000Y-76450000D01*
X76320000Y-75950000D01*
X76320602Y-75950000D01*
X76320602Y-75925466D01*
X76325412Y-75876635D01*
X76334984Y-75828510D01*
X76349228Y-75781555D01*
X76368005Y-75736222D01*
X76391136Y-75692949D01*
X76418396Y-75652150D01*
X76449524Y-75614221D01*
X76484221Y-75579524D01*
X76522150Y-75548396D01*
X76562949Y-75521136D01*
X76606222Y-75498005D01*
X76651555Y-75479228D01*
X76698510Y-75464984D01*
X76746635Y-75455412D01*
X76795466Y-75450602D01*
X76820000Y-75450602D01*
X76820000Y-75450000D01*
X77320000Y-75450000D01*
X77320000Y-76950000D01*
G37*
%TD.AperFunction*%
%TA.AperFunction,SMDPad,CuDef*%
%TO.P,J6,2*%
%TO.N,/SCK*%
G36*
X78120000Y-75450602D02*
G01*
X78144534Y-75450602D01*
X78193365Y-75455412D01*
X78241490Y-75464984D01*
X78288445Y-75479228D01*
X78333778Y-75498005D01*
X78377051Y-75521136D01*
X78417850Y-75548396D01*
X78455779Y-75579524D01*
X78490476Y-75614221D01*
X78521604Y-75652150D01*
X78548864Y-75692949D01*
X78571995Y-75736222D01*
X78590772Y-75781555D01*
X78605016Y-75828510D01*
X78614588Y-75876635D01*
X78619398Y-75925466D01*
X78619398Y-75950000D01*
X78620000Y-75950000D01*
X78620000Y-76450000D01*
X78619398Y-76450000D01*
X78619398Y-76474534D01*
X78614588Y-76523365D01*
X78605016Y-76571490D01*
X78590772Y-76618445D01*
X78571995Y-76663778D01*
X78548864Y-76707051D01*
X78521604Y-76747850D01*
X78490476Y-76785779D01*
X78455779Y-76820476D01*
X78417850Y-76851604D01*
X78377051Y-76878864D01*
X78333778Y-76901995D01*
X78288445Y-76920772D01*
X78241490Y-76935016D01*
X78193365Y-76944588D01*
X78144534Y-76949398D01*
X78120000Y-76949398D01*
X78120000Y-76950000D01*
X77620000Y-76950000D01*
X77620000Y-75450000D01*
X78120000Y-75450000D01*
X78120000Y-75450602D01*
G37*
%TD.AperFunction*%
%TD*%
D16*
%TO.P,J7,1*%
%TO.N,Net-(J7-Pad1)*%
X154305000Y-55880000D03*
D17*
%TO.P,J7,2*%
%TO.N,Net-(J7-Pad2)*%
X154305000Y-60960000D03*
%TO.P,J7,3*%
%TO.N,Net-(J7-Pad3)*%
X154305000Y-66040000D03*
%TD*%
%TA.AperFunction,SMDPad,CuDef*%
D13*
%TO.P,JP1,1*%
%TO.N,Net-(JP1-Pad1)*%
G36*
X90920000Y-55410000D02*
G01*
X90920000Y-55910000D01*
X90919398Y-55910000D01*
X90919398Y-55934534D01*
X90914588Y-55983365D01*
X90905016Y-56031490D01*
X90890772Y-56078445D01*
X90871995Y-56123778D01*
X90848864Y-56167051D01*
X90821604Y-56207850D01*
X90790476Y-56245779D01*
X90755779Y-56280476D01*
X90717850Y-56311604D01*
X90677051Y-56338864D01*
X90633778Y-56361995D01*
X90588445Y-56380772D01*
X90541490Y-56395016D01*
X90493365Y-56404588D01*
X90444534Y-56409398D01*
X90420000Y-56409398D01*
X90420000Y-56410000D01*
X89920000Y-56410000D01*
X89920000Y-56409398D01*
X89895466Y-56409398D01*
X89846635Y-56404588D01*
X89798510Y-56395016D01*
X89751555Y-56380772D01*
X89706222Y-56361995D01*
X89662949Y-56338864D01*
X89622150Y-56311604D01*
X89584221Y-56280476D01*
X89549524Y-56245779D01*
X89518396Y-56207850D01*
X89491136Y-56167051D01*
X89468005Y-56123778D01*
X89449228Y-56078445D01*
X89434984Y-56031490D01*
X89425412Y-55983365D01*
X89420602Y-55934534D01*
X89420602Y-55910000D01*
X89420000Y-55910000D01*
X89420000Y-55410000D01*
X90920000Y-55410000D01*
G37*
%TD.AperFunction*%
%TA.AperFunction,SMDPad,CuDef*%
%TO.P,JP1,2*%
%TO.N,+3V3*%
G36*
X89420602Y-54610000D02*
G01*
X89420602Y-54585466D01*
X89425412Y-54536635D01*
X89434984Y-54488510D01*
X89449228Y-54441555D01*
X89468005Y-54396222D01*
X89491136Y-54352949D01*
X89518396Y-54312150D01*
X89549524Y-54274221D01*
X89584221Y-54239524D01*
X89622150Y-54208396D01*
X89662949Y-54181136D01*
X89706222Y-54158005D01*
X89751555Y-54139228D01*
X89798510Y-54124984D01*
X89846635Y-54115412D01*
X89895466Y-54110602D01*
X89920000Y-54110602D01*
X89920000Y-54110000D01*
X90420000Y-54110000D01*
X90420000Y-54110602D01*
X90444534Y-54110602D01*
X90493365Y-54115412D01*
X90541490Y-54124984D01*
X90588445Y-54139228D01*
X90633778Y-54158005D01*
X90677051Y-54181136D01*
X90717850Y-54208396D01*
X90755779Y-54239524D01*
X90790476Y-54274221D01*
X90821604Y-54312150D01*
X90848864Y-54352949D01*
X90871995Y-54396222D01*
X90890772Y-54441555D01*
X90905016Y-54488510D01*
X90914588Y-54536635D01*
X90919398Y-54585466D01*
X90919398Y-54610000D01*
X90920000Y-54610000D01*
X90920000Y-55110000D01*
X89420000Y-55110000D01*
X89420000Y-54610000D01*
X89420602Y-54610000D01*
G37*
%TD.AperFunction*%
%TD*%
D18*
%TO.P,K1,1*%
%TO.N,+3V3*%
X125980000Y-66325000D03*
D19*
%TO.P,K1,5*%
%TO.N,Net-(J7-Pad2)*%
X123980000Y-60325000D03*
D20*
%TO.P,K1,4*%
%TO.N,Net-(D1-Pad2)*%
X125980000Y-54325000D03*
%TO.P,K1,3*%
%TO.N,Net-(J7-Pad1)*%
X138180000Y-54325000D03*
%TO.P,K1,2*%
%TO.N,Net-(J7-Pad3)*%
X138180000Y-66325000D03*
%TD*%
D21*
%TO.P,Q1,2*%
%TO.N,Net-(Q1-Pad2)*%
X116205000Y-54610000D03*
%TO.P,Q1,3*%
%TO.N,Net-(D1-Pad2)*%
X118745000Y-54610000D03*
D22*
%TO.P,Q1,1*%
%TO.N,GND*%
X113665000Y-54610000D03*
%TD*%
%TO.P,R8,1*%
%TO.N,Net-(Q1-Pad2)*%
%TA.AperFunction,SMDPad,CuDef*%
G36*
G01*
X112875000Y-60140001D02*
X112875000Y-59239999D01*
G75*
G02*
X113124999Y-58990000I249999J0D01*
G01*
X113650001Y-58990000D01*
G75*
G02*
X113900000Y-59239999I0J-249999D01*
G01*
X113900000Y-60140001D01*
G75*
G02*
X113650001Y-60390000I-249999J0D01*
G01*
X113124999Y-60390000D01*
G75*
G02*
X112875000Y-60140001I0J249999D01*
G01*
G37*
%TD.AperFunction*%
%TO.P,R8,2*%
%TO.N,/IO15*%
%TA.AperFunction,SMDPad,CuDef*%
G36*
G01*
X114700000Y-60140001D02*
X114700000Y-59239999D01*
G75*
G02*
X114949999Y-58990000I249999J0D01*
G01*
X115475001Y-58990000D01*
G75*
G02*
X115725000Y-59239999I0J-249999D01*
G01*
X115725000Y-60140001D01*
G75*
G02*
X115475001Y-60390000I-249999J0D01*
G01*
X114949999Y-60390000D01*
G75*
G02*
X114700000Y-60140001I0J249999D01*
G01*
G37*
%TD.AperFunction*%
%TD*%
%TO.P,R10,1*%
%TO.N,GND*%
%TA.AperFunction,SMDPad,CuDef*%
G36*
G01*
X109065000Y-60140001D02*
X109065000Y-59239999D01*
G75*
G02*
X109314999Y-58990000I249999J0D01*
G01*
X109840001Y-58990000D01*
G75*
G02*
X110090000Y-59239999I0J-249999D01*
G01*
X110090000Y-60140001D01*
G75*
G02*
X109840001Y-60390000I-249999J0D01*
G01*
X109314999Y-60390000D01*
G75*
G02*
X109065000Y-60140001I0J249999D01*
G01*
G37*
%TD.AperFunction*%
%TO.P,R10,2*%
%TO.N,Net-(Q1-Pad2)*%
%TA.AperFunction,SMDPad,CuDef*%
G36*
G01*
X110890000Y-60140001D02*
X110890000Y-59239999D01*
G75*
G02*
X111139999Y-58990000I249999J0D01*
G01*
X111665001Y-58990000D01*
G75*
G02*
X111915000Y-59239999I0J-249999D01*
G01*
X111915000Y-60140001D01*
G75*
G02*
X111665001Y-60390000I-249999J0D01*
G01*
X111139999Y-60390000D01*
G75*
G02*
X110890000Y-60140001I0J249999D01*
G01*
G37*
%TD.AperFunction*%
%TD*%
D23*
%TO.P,U1,1*%
%TO.N,+3V3*%
X67310000Y-57150000D03*
%TO.P,U1,2*%
%TO.N,GND*%
X67310000Y-59690000D03*
%TO.P,U1,3*%
%TO.N,/CS*%
X67310000Y-62230000D03*
%TO.P,U1,4*%
%TO.N,/RESETT*%
X67310000Y-64770000D03*
%TO.P,U1,5*%
%TO.N,/DCD*%
X67310000Y-67310000D03*
%TO.P,U1,6*%
%TO.N,/MOSI*%
X67310000Y-69850000D03*
%TO.P,U1,7*%
%TO.N,/SCK*%
X67310000Y-72390000D03*
%TO.P,U1,8*%
%TO.N,+3V3*%
X67310000Y-74930000D03*
%TO.P,U1,9*%
%TO.N,/MISO*%
X67310000Y-77470000D03*
%TO.P,U1,10*%
%TO.N,Net-(J6-Pad1)*%
X67310000Y-80010000D03*
%TO.P,U1,11*%
%TO.N,Net-(J1-Pad1)*%
X67310000Y-82550000D03*
%TO.P,U1,12*%
%TO.N,Net-(J3-Pad1)*%
X67310000Y-85090000D03*
%TO.P,U1,13*%
%TO.N,Net-(J4-Pad1)*%
X67310000Y-87630000D03*
%TO.P,U1,14*%
%TO.N,Net-(J5-Pad1)*%
X67310000Y-90170000D03*
%TO.P,U1,15*%
%TO.N,N/C*%
X148336000Y-69850000D03*
%TO.P,U1,16*%
X148336000Y-72390000D03*
%TO.P,U1,17*%
X148336000Y-74930000D03*
%TO.P,U1,18*%
X148336000Y-77470000D03*
%TD*%
%TO.P,U2,1*%
%TO.N,N/C*%
X60960000Y-73660000D03*
%TO.P,U2,2*%
X60960000Y-76200000D03*
%TO.P,U2,3*%
X60960000Y-78740000D03*
%TO.P,U2,4*%
%TO.N,/BUT1*%
X60960000Y-81280000D03*
%TO.P,U2,5*%
%TO.N,/BUT2*%
X60960000Y-83820000D03*
%TO.P,U2,6*%
%TO.N,/BUT3*%
X60960000Y-86360000D03*
%TO.P,U2,7*%
%TO.N,/BUT4*%
X60960000Y-88900000D03*
%TO.P,U2,8*%
%TO.N,/TOUCH_CS*%
X60960000Y-91440000D03*
%TO.P,U2,9*%
%TO.N,/LEFT*%
X60960000Y-93980000D03*
%TO.P,U2,10*%
%TO.N,/RIGHT*%
X60960000Y-96520000D03*
%TO.P,U2,11*%
%TO.N,/BUZZ*%
X60960000Y-99060000D03*
%TO.P,U2,12*%
%TO.N,/RESETT*%
X60960000Y-101600000D03*
%TO.P,U2,13*%
%TO.N,GND*%
X60960000Y-104140000D03*
%TO.P,U2,14*%
%TO.N,+3V3*%
X38100000Y-73660000D03*
%TO.P,U2,15*%
%TO.N,N/C*%
X38100000Y-76200000D03*
%TO.P,U2,16*%
%TO.N,/MISO*%
X38100000Y-78740000D03*
%TO.P,U2,17*%
%TO.N,/MOSI*%
X38100000Y-81280000D03*
%TO.P,U2,18*%
%TO.N,/SCK*%
X38100000Y-83820000D03*
%TO.P,U2,19*%
%TO.N,/CS*%
X38100000Y-86360000D03*
%TO.P,U2,20*%
%TO.N,N/C*%
X38100000Y-88900000D03*
%TO.P,U2,21*%
X38100000Y-91440000D03*
%TO.P,U2,22*%
%TO.N,/TIRQ*%
X38100000Y-93980000D03*
%TO.P,U2,23*%
%TO.N,N/C*%
X38100000Y-96520000D03*
%TO.P,U2,24*%
%TO.N,/CSTEMP*%
X38100000Y-99060000D03*
%TO.P,U2,25*%
%TO.N,/IO15*%
X38100000Y-101600000D03*
%TO.P,U2,26*%
%TO.N,/DCD*%
X38100000Y-104140000D03*
%TD*%
%TO.P,U3,1*%
%TO.N,+3V3*%
X85090000Y-60960000D03*
%TO.P,U3,2*%
%TO.N,GND*%
X87630000Y-60960000D03*
%TO.P,U3,3*%
%TO.N,Net-(JP1-Pad1)*%
X90170000Y-60960000D03*
%TO.P,U3,4*%
%TO.N,/SCK*%
X92710000Y-60960000D03*
%TO.P,U3,5*%
%TO.N,/MOSI*%
X95250000Y-60960000D03*
%TO.P,U3,6*%
%TO.N,/MISO*%
X97790000Y-60960000D03*
%TO.P,U3,7*%
%TO.N,/CSTEMP*%
X100330000Y-60960000D03*
%TO.P,U3,8*%
%TO.N,N/C*%
X102870000Y-60960000D03*
%TO.P,U3,~*%
X88773000Y-83058000D03*
X92329000Y-83058000D03*
X95885000Y-83058000D03*
X99441000Y-83058000D03*
%TD*%
D24*
%TO.N,GND*%
X133350000Y-106680000D03*
X129540000Y-104140000D03*
X107950000Y-107950000D03*
X114300000Y-107950000D03*
X79248000Y-71628000D03*
X55372000Y-84328000D03*
X42164000Y-86868000D03*
X46736000Y-79756000D03*
X41656000Y-79248000D03*
X86868000Y-104140000D03*
X86868000Y-106680000D03*
X92964000Y-110744000D03*
%TO.N,+3V3*%
X125245000Y-97875600D03*
%TO.N,/MISO*%
X81136500Y-77805600D03*
%TO.N,/LEFT*%
X97315000Y-97237800D03*
%TD*%
D25*
%TO.N,/BUZZ*%
X115664700Y-90170000D02*
X115664700Y-90537300D01*
X115664700Y-90537300D02*
X107142000Y-99060000D01*
X107142000Y-99060000D02*
X60960000Y-99060000D01*
X116840000Y-90170000D02*
X115664700Y-90170000D01*
X119989600Y-82753200D02*
X119989600Y-83840500D01*
X116840000Y-90170000D02*
X116840000Y-86990100D01*
X116840000Y-86990100D02*
X119989600Y-83840500D01*
%TO.N,+3V3*%
X125980000Y-66325000D02*
X125980000Y-97140600D01*
X125980000Y-97140600D02*
X125245000Y-97875600D01*
X68756700Y-59258100D02*
X68756700Y-69942700D01*
X68756700Y-69942700D02*
X67579400Y-71120000D01*
X67579400Y-71120000D02*
X67015300Y-71120000D01*
X67015300Y-71120000D02*
X66219200Y-71916100D01*
X66219200Y-71916100D02*
X66219200Y-73839200D01*
X66219200Y-73839200D02*
X67310000Y-74930000D01*
X67310000Y-57150000D02*
X68756700Y-58596700D01*
X68756700Y-58596700D02*
X68756700Y-59258100D01*
X85090000Y-59258100D02*
X68756700Y-59258100D01*
X85090000Y-59258100D02*
X89738100Y-54610000D01*
X89738100Y-54610000D02*
X90170000Y-54610000D01*
X85090000Y-60960000D02*
X85090000Y-59258100D01*
X90170000Y-54610000D02*
X97155000Y-54610000D01*
%TO.N,/TOUCH_CS*%
X60960000Y-91440000D02*
X64627200Y-95107200D01*
X64627200Y-95107200D02*
X77443800Y-95107200D01*
X77443800Y-95107200D02*
X78120000Y-94431000D01*
X78120000Y-94431000D02*
X78120000Y-93980000D01*
%TO.N,Net-(J1-Pad1)*%
X67310000Y-82550000D02*
X65280200Y-84579800D01*
X65280200Y-84579800D02*
X65280200Y-91101800D01*
X65280200Y-91101800D02*
X68158400Y-93980000D01*
X68158400Y-93980000D02*
X76820000Y-93980000D01*
%TO.N,Net-(J3-Pad1)*%
X67310000Y-85090000D02*
X65770000Y-86630000D01*
X65770000Y-86630000D02*
X65770000Y-90864400D01*
X65770000Y-90864400D02*
X66662900Y-91757300D01*
X66662900Y-91757300D02*
X75232700Y-91757300D01*
X75232700Y-91757300D02*
X76820000Y-90170000D01*
%TO.N,/MOSI*%
X95250000Y-60960000D02*
X95250000Y-73040000D01*
X95250000Y-73040000D02*
X78120000Y-90170000D01*
X67310000Y-69850000D02*
X62230000Y-74930000D01*
X62230000Y-74930000D02*
X37768700Y-74930000D01*
X37768700Y-74930000D02*
X36997800Y-75700900D01*
X36997800Y-75700900D02*
X36997800Y-80177800D01*
X36997800Y-80177800D02*
X38100000Y-81280000D01*
%TO.N,/MISO*%
X67310000Y-77470000D02*
X39370000Y-77470000D01*
X39370000Y-77470000D02*
X38100000Y-78740000D01*
X81136500Y-77805600D02*
X81136500Y-82073500D01*
X81136500Y-82073500D02*
X78120000Y-85090000D01*
%TO.N,Net-(J4-Pad1)*%
X67310000Y-87630000D02*
X66220400Y-88719600D01*
X66220400Y-88719600D02*
X66220400Y-90656700D01*
X66220400Y-90656700D02*
X66821100Y-91257400D01*
X66821100Y-91257400D02*
X70652600Y-91257400D01*
X70652600Y-91257400D02*
X76820000Y-85090000D01*
%TO.N,Net-(J5-Pad1)*%
X67310000Y-90170000D02*
X76200000Y-81280000D01*
X76200000Y-81280000D02*
X76820000Y-81280000D01*
%TO.N,/TIRQ*%
X38100000Y-93980000D02*
X46990000Y-85090000D01*
X46990000Y-85090000D02*
X63045800Y-85090000D01*
X63045800Y-85090000D02*
X66855600Y-81280200D01*
X66855600Y-81280200D02*
X75114700Y-81280200D01*
X75114700Y-81280200D02*
X76221700Y-80173200D01*
X76221700Y-80173200D02*
X77428300Y-80173200D01*
X77428300Y-80173200D02*
X78120000Y-80864900D01*
X78120000Y-80864900D02*
X78120000Y-81280000D01*
%TO.N,Net-(J6-Pad1)*%
X67310000Y-80010000D02*
X71120000Y-76200000D01*
X71120000Y-76200000D02*
X76820000Y-76200000D01*
%TO.N,/SCK*%
X69600000Y-75108200D02*
X69600000Y-74680000D01*
X69600000Y-74680000D02*
X67310000Y-72390000D01*
X38100000Y-83820000D02*
X39370000Y-82550000D01*
X39370000Y-82550000D02*
X61298700Y-82550000D01*
X61298700Y-82550000D02*
X65108700Y-78740000D01*
X65108700Y-78740000D02*
X67593700Y-78740000D01*
X67593700Y-78740000D02*
X69600000Y-76733700D01*
X69600000Y-76733700D02*
X69600000Y-75108200D01*
X69600000Y-75108200D02*
X77678200Y-75108200D01*
X77678200Y-75108200D02*
X78120000Y-75550000D01*
X78120000Y-75550000D02*
X78120000Y-76200000D01*
X92710000Y-60960000D02*
X78120000Y-75550000D01*
%TO.N,Net-(JP1-Pad1)*%
X90170000Y-60960000D02*
X90170000Y-55910000D01*
%TO.N,Net-(Q1-Pad2)*%
X113387500Y-59690000D02*
X113387500Y-57427500D01*
X113387500Y-57427500D02*
X116205000Y-54610000D01*
X111402500Y-59690000D02*
X113387500Y-59690000D01*
%TO.N,/LEFT*%
X60960000Y-93980000D02*
X64217800Y-97237800D01*
X64217800Y-97237800D02*
X97315000Y-97237800D01*
%TO.N,/IO15*%
X38100000Y-101600000D02*
X46835700Y-92864300D01*
X46835700Y-92864300D02*
X61386600Y-92864300D01*
X61386600Y-92864300D02*
X64114500Y-95592200D01*
X64114500Y-95592200D02*
X88481600Y-95592200D01*
X88481600Y-95592200D02*
X115212500Y-68861300D01*
X115212500Y-68861300D02*
X115212500Y-59690000D01*
%TO.N,/RESETT*%
X60960000Y-101600000D02*
X59869000Y-102691000D01*
X59869000Y-102691000D02*
X37597300Y-102691000D01*
X31750000Y-60960000D02*
X31750000Y-99398762D01*
X35042238Y-102691000D02*
X37597300Y-102691000D01*
X34290000Y-58420000D02*
X31750000Y-60960000D01*
X63166600Y-60626600D02*
X60960000Y-58420000D01*
X60960000Y-58420000D02*
X34290000Y-58420000D01*
X63659600Y-60626600D02*
X63166600Y-60626600D01*
X67310000Y-64277000D02*
X63659600Y-60626600D01*
X31750000Y-99398762D02*
X35042238Y-102691000D01*
X67310000Y-64770000D02*
X67310000Y-64277000D01*
%TD*%
D26*
%TO.N,Net-(J7-Pad2)*%
X154452249Y-41372437D02*
X155209774Y-41579672D01*
X155918625Y-41917777D01*
X156556404Y-42376067D01*
X157102946Y-42940055D01*
X157540977Y-43591913D01*
X157856651Y-44311038D01*
X158041206Y-45079768D01*
X158090001Y-45744221D01*
X158090001Y-77343000D01*
X150495000Y-77343000D01*
X150495000Y-68072000D01*
X150492560Y-68047224D01*
X150485333Y-68023399D01*
X150473597Y-68001443D01*
X150457803Y-67982197D01*
X150438557Y-67966403D01*
X150416601Y-67954667D01*
X150392776Y-67947440D01*
X150368000Y-67945000D01*
X146304000Y-67945000D01*
X146279224Y-67947440D01*
X146255399Y-67954667D01*
X146233443Y-67966403D01*
X146214197Y-67982197D01*
X146198403Y-68001443D01*
X146186667Y-68023399D01*
X146179440Y-68047224D01*
X146177000Y-68072000D01*
X146177000Y-77343000D01*
X126740000Y-77343000D01*
X126740000Y-67953072D01*
X126970000Y-67953072D01*
X127094482Y-67940812D01*
X127214180Y-67904502D01*
X127324494Y-67845537D01*
X127421185Y-67766185D01*
X127500537Y-67669494D01*
X127559502Y-67559180D01*
X127595812Y-67439482D01*
X127608072Y-67315000D01*
X127608072Y-66164951D01*
X136555000Y-66164951D01*
X136555000Y-66485049D01*
X136617448Y-66798995D01*
X136739943Y-67094726D01*
X136917780Y-67360877D01*
X137144123Y-67587220D01*
X137410274Y-67765057D01*
X137706005Y-67887552D01*
X138019951Y-67950000D01*
X138340049Y-67950000D01*
X138653995Y-67887552D01*
X138949726Y-67765057D01*
X139215877Y-67587220D01*
X139442220Y-67360877D01*
X139620057Y-67094726D01*
X139742552Y-66798995D01*
X139805000Y-66485049D01*
X139805000Y-66164951D01*
X139742552Y-65851005D01*
X139733736Y-65829721D01*
X152170000Y-65829721D01*
X152170000Y-66250279D01*
X152252047Y-66662756D01*
X152412988Y-67051302D01*
X152646637Y-67400983D01*
X152944017Y-67698363D01*
X153293698Y-67932012D01*
X153682244Y-68092953D01*
X154094721Y-68175000D01*
X154515279Y-68175000D01*
X154927756Y-68092953D01*
X155316302Y-67932012D01*
X155665983Y-67698363D01*
X155963363Y-67400983D01*
X156197012Y-67051302D01*
X156357953Y-66662756D01*
X156440000Y-66250279D01*
X156440000Y-65829721D01*
X156357953Y-65417244D01*
X156197012Y-65028698D01*
X155963363Y-64679017D01*
X155665983Y-64381637D01*
X155316302Y-64147988D01*
X154927756Y-63987047D01*
X154515279Y-63905000D01*
X154094721Y-63905000D01*
X153682244Y-63987047D01*
X153293698Y-64147988D01*
X152944017Y-64381637D01*
X152646637Y-64679017D01*
X152412988Y-65028698D01*
X152252047Y-65417244D01*
X152170000Y-65829721D01*
X139733736Y-65829721D01*
X139620057Y-65555274D01*
X139442220Y-65289123D01*
X139215877Y-65062780D01*
X138949726Y-64884943D01*
X138653995Y-64762448D01*
X138340049Y-64700000D01*
X138019951Y-64700000D01*
X137706005Y-64762448D01*
X137410274Y-64884943D01*
X137144123Y-65062780D01*
X136917780Y-65289123D01*
X136739943Y-65555274D01*
X136617448Y-65851005D01*
X136555000Y-66164951D01*
X127608072Y-66164951D01*
X127608072Y-65335000D01*
X127595812Y-65210518D01*
X127559502Y-65090820D01*
X127500537Y-64980506D01*
X127421185Y-64883815D01*
X127324494Y-64804463D01*
X127214180Y-64745498D01*
X127094482Y-64709188D01*
X126970000Y-64696928D01*
X124990000Y-64696928D01*
X124865518Y-64709188D01*
X124745820Y-64745498D01*
X124635506Y-64804463D01*
X124538815Y-64883815D01*
X124459463Y-64980506D01*
X124400498Y-65090820D01*
X124364188Y-65210518D01*
X124351928Y-65335000D01*
X124351928Y-67315000D01*
X124364188Y-67439482D01*
X124400498Y-67559180D01*
X124459463Y-67669494D01*
X124538815Y-67766185D01*
X124635506Y-67845537D01*
X124745820Y-67904502D01*
X124865518Y-67940812D01*
X124990000Y-67953072D01*
X125220000Y-67953072D01*
X125220000Y-77343000D01*
X120142000Y-77343000D01*
X120142000Y-62451653D01*
X152992952Y-62451653D01*
X153148962Y-62767214D01*
X153523745Y-62958020D01*
X153928551Y-63072044D01*
X154347824Y-63104902D01*
X154765451Y-63055334D01*
X155165383Y-62925243D01*
X155461038Y-62767214D01*
X155617048Y-62451653D01*
X154305000Y-61139605D01*
X152992952Y-62451653D01*
X120142000Y-62451653D01*
X120142000Y-61437234D01*
X123047371Y-61437234D01*
X123139210Y-61698314D01*
X123423286Y-61835956D01*
X123728756Y-61915533D01*
X124043881Y-61933987D01*
X124356551Y-61890608D01*
X124654751Y-61787063D01*
X124820790Y-61698314D01*
X124912629Y-61437234D01*
X123980000Y-60504605D01*
X123047371Y-61437234D01*
X120142000Y-61437234D01*
X120142000Y-60388881D01*
X122371013Y-60388881D01*
X122414392Y-60701551D01*
X122517937Y-60999751D01*
X122606686Y-61165790D01*
X122867766Y-61257629D01*
X123800395Y-60325000D01*
X124159605Y-60325000D01*
X125092234Y-61257629D01*
X125353314Y-61165790D01*
X125432275Y-61002824D01*
X152160098Y-61002824D01*
X152209666Y-61420451D01*
X152339757Y-61820383D01*
X152497786Y-62116038D01*
X152813347Y-62272048D01*
X154125395Y-60960000D01*
X154484605Y-60960000D01*
X155796653Y-62272048D01*
X156112214Y-62116038D01*
X156303020Y-61741255D01*
X156417044Y-61336449D01*
X156449902Y-60917176D01*
X156400334Y-60499549D01*
X156270243Y-60099617D01*
X156112214Y-59803962D01*
X155796653Y-59647952D01*
X154484605Y-60960000D01*
X154125395Y-60960000D01*
X152813347Y-59647952D01*
X152497786Y-59803962D01*
X152306980Y-60178745D01*
X152192956Y-60583551D01*
X152160098Y-61002824D01*
X125432275Y-61002824D01*
X125490956Y-60881714D01*
X125570533Y-60576244D01*
X125588987Y-60261119D01*
X125545608Y-59948449D01*
X125442063Y-59650249D01*
X125353314Y-59484210D01*
X125308219Y-59468347D01*
X152992952Y-59468347D01*
X154305000Y-60780395D01*
X155617048Y-59468347D01*
X155461038Y-59152786D01*
X155086255Y-58961980D01*
X154681449Y-58847956D01*
X154262176Y-58815098D01*
X153844549Y-58864666D01*
X153444617Y-58994757D01*
X153148962Y-59152786D01*
X152992952Y-59468347D01*
X125308219Y-59468347D01*
X125092234Y-59392371D01*
X124159605Y-60325000D01*
X123800395Y-60325000D01*
X122867766Y-59392371D01*
X122606686Y-59484210D01*
X122469044Y-59768286D01*
X122389467Y-60073756D01*
X122371013Y-60388881D01*
X120142000Y-60388881D01*
X120142000Y-59212766D01*
X123047371Y-59212766D01*
X123980000Y-60145395D01*
X124912629Y-59212766D01*
X124820790Y-58951686D01*
X124536714Y-58814044D01*
X124231244Y-58734467D01*
X123916119Y-58716013D01*
X123603449Y-58759392D01*
X123305249Y-58862937D01*
X123139210Y-58951686D01*
X123047371Y-59212766D01*
X120142000Y-59212766D01*
X120142000Y-54164951D01*
X124355000Y-54164951D01*
X124355000Y-54485049D01*
X124417448Y-54798995D01*
X124539943Y-55094726D01*
X124717780Y-55360877D01*
X124944123Y-55587220D01*
X125210274Y-55765057D01*
X125506005Y-55887552D01*
X125819951Y-55950000D01*
X126140049Y-55950000D01*
X126453995Y-55887552D01*
X126749726Y-55765057D01*
X127015877Y-55587220D01*
X127242220Y-55360877D01*
X127420057Y-55094726D01*
X127542552Y-54798995D01*
X127605000Y-54485049D01*
X127605000Y-54164951D01*
X136555000Y-54164951D01*
X136555000Y-54485049D01*
X136617448Y-54798995D01*
X136739943Y-55094726D01*
X136917780Y-55360877D01*
X137144123Y-55587220D01*
X137410274Y-55765057D01*
X137706005Y-55887552D01*
X138019951Y-55950000D01*
X138340049Y-55950000D01*
X138653995Y-55887552D01*
X138949726Y-55765057D01*
X139215877Y-55587220D01*
X139442220Y-55360877D01*
X139620057Y-55094726D01*
X139742552Y-54798995D01*
X139805000Y-54485049D01*
X139805000Y-54380000D01*
X152166928Y-54380000D01*
X152166928Y-57380000D01*
X152179188Y-57504482D01*
X152215498Y-57624180D01*
X152274463Y-57734494D01*
X152353815Y-57831185D01*
X152450506Y-57910537D01*
X152560820Y-57969502D01*
X152680518Y-58005812D01*
X152805000Y-58018072D01*
X155805000Y-58018072D01*
X155929482Y-58005812D01*
X156049180Y-57969502D01*
X156159494Y-57910537D01*
X156256185Y-57831185D01*
X156335537Y-57734494D01*
X156394502Y-57624180D01*
X156430812Y-57504482D01*
X156443072Y-57380000D01*
X156443072Y-54380000D01*
X156430812Y-54255518D01*
X156394502Y-54135820D01*
X156335537Y-54025506D01*
X156256185Y-53928815D01*
X156159494Y-53849463D01*
X156049180Y-53790498D01*
X155929482Y-53754188D01*
X155805000Y-53741928D01*
X152805000Y-53741928D01*
X152680518Y-53754188D01*
X152560820Y-53790498D01*
X152450506Y-53849463D01*
X152353815Y-53928815D01*
X152274463Y-54025506D01*
X152215498Y-54135820D01*
X152179188Y-54255518D01*
X152166928Y-54380000D01*
X139805000Y-54380000D01*
X139805000Y-54164951D01*
X139742552Y-53851005D01*
X139620057Y-53555274D01*
X139442220Y-53289123D01*
X139215877Y-53062780D01*
X138949726Y-52884943D01*
X138653995Y-52762448D01*
X138340049Y-52700000D01*
X138019951Y-52700000D01*
X137706005Y-52762448D01*
X137410274Y-52884943D01*
X137144123Y-53062780D01*
X136917780Y-53289123D01*
X136739943Y-53555274D01*
X136617448Y-53851005D01*
X136555000Y-54164951D01*
X127605000Y-54164951D01*
X127542552Y-53851005D01*
X127420057Y-53555274D01*
X127242220Y-53289123D01*
X127015877Y-53062780D01*
X126749726Y-52884943D01*
X126453995Y-52762448D01*
X126140049Y-52700000D01*
X125819951Y-52700000D01*
X125506005Y-52762448D01*
X125210274Y-52884943D01*
X124944123Y-53062780D01*
X124717780Y-53289123D01*
X124539943Y-53555274D01*
X124417448Y-53851005D01*
X124355000Y-54164951D01*
X120142000Y-54164951D01*
X120142000Y-49543455D01*
X121006371Y-45509721D01*
X151535000Y-45509721D01*
X151535000Y-45930279D01*
X151617047Y-46342756D01*
X151777988Y-46731302D01*
X152011637Y-47080983D01*
X152309017Y-47378363D01*
X152658698Y-47612012D01*
X153047244Y-47772953D01*
X153459721Y-47855000D01*
X153880279Y-47855000D01*
X154292756Y-47772953D01*
X154681302Y-47612012D01*
X155030983Y-47378363D01*
X155328363Y-47080983D01*
X155562012Y-46731302D01*
X155722953Y-46342756D01*
X155805000Y-45930279D01*
X155805000Y-45509721D01*
X155722953Y-45097244D01*
X155562012Y-44708698D01*
X155328363Y-44359017D01*
X155030983Y-44061637D01*
X154681302Y-43827988D01*
X154292756Y-43667047D01*
X153880279Y-43585000D01*
X153459721Y-43585000D01*
X153047244Y-43667047D01*
X152658698Y-43827988D01*
X152309017Y-44061637D01*
X152011637Y-44359017D01*
X151777988Y-44708698D01*
X151617047Y-45097244D01*
X151535000Y-45509721D01*
X121006371Y-45509721D01*
X121908455Y-41300000D01*
X153640608Y-41300000D01*
X154452249Y-41372437D01*
%TA.AperFunction,Conductor*%
D27*
G36*
X154452249Y-41372437D02*
G01*
X155209774Y-41579672D01*
X155918625Y-41917777D01*
X156556404Y-42376067D01*
X157102946Y-42940055D01*
X157540977Y-43591913D01*
X157856651Y-44311038D01*
X158041206Y-45079768D01*
X158090001Y-45744221D01*
X158090001Y-77343000D01*
X150495000Y-77343000D01*
X150495000Y-68072000D01*
X150492560Y-68047224D01*
X150485333Y-68023399D01*
X150473597Y-68001443D01*
X150457803Y-67982197D01*
X150438557Y-67966403D01*
X150416601Y-67954667D01*
X150392776Y-67947440D01*
X150368000Y-67945000D01*
X146304000Y-67945000D01*
X146279224Y-67947440D01*
X146255399Y-67954667D01*
X146233443Y-67966403D01*
X146214197Y-67982197D01*
X146198403Y-68001443D01*
X146186667Y-68023399D01*
X146179440Y-68047224D01*
X146177000Y-68072000D01*
X146177000Y-77343000D01*
X126740000Y-77343000D01*
X126740000Y-67953072D01*
X126970000Y-67953072D01*
X127094482Y-67940812D01*
X127214180Y-67904502D01*
X127324494Y-67845537D01*
X127421185Y-67766185D01*
X127500537Y-67669494D01*
X127559502Y-67559180D01*
X127595812Y-67439482D01*
X127608072Y-67315000D01*
X127608072Y-66164951D01*
X136555000Y-66164951D01*
X136555000Y-66485049D01*
X136617448Y-66798995D01*
X136739943Y-67094726D01*
X136917780Y-67360877D01*
X137144123Y-67587220D01*
X137410274Y-67765057D01*
X137706005Y-67887552D01*
X138019951Y-67950000D01*
X138340049Y-67950000D01*
X138653995Y-67887552D01*
X138949726Y-67765057D01*
X139215877Y-67587220D01*
X139442220Y-67360877D01*
X139620057Y-67094726D01*
X139742552Y-66798995D01*
X139805000Y-66485049D01*
X139805000Y-66164951D01*
X139742552Y-65851005D01*
X139733736Y-65829721D01*
X152170000Y-65829721D01*
X152170000Y-66250279D01*
X152252047Y-66662756D01*
X152412988Y-67051302D01*
X152646637Y-67400983D01*
X152944017Y-67698363D01*
X153293698Y-67932012D01*
X153682244Y-68092953D01*
X154094721Y-68175000D01*
X154515279Y-68175000D01*
X154927756Y-68092953D01*
X155316302Y-67932012D01*
X155665983Y-67698363D01*
X155963363Y-67400983D01*
X156197012Y-67051302D01*
X156357953Y-66662756D01*
X156440000Y-66250279D01*
X156440000Y-65829721D01*
X156357953Y-65417244D01*
X156197012Y-65028698D01*
X155963363Y-64679017D01*
X155665983Y-64381637D01*
X155316302Y-64147988D01*
X154927756Y-63987047D01*
X154515279Y-63905000D01*
X154094721Y-63905000D01*
X153682244Y-63987047D01*
X153293698Y-64147988D01*
X152944017Y-64381637D01*
X152646637Y-64679017D01*
X152412988Y-65028698D01*
X152252047Y-65417244D01*
X152170000Y-65829721D01*
X139733736Y-65829721D01*
X139620057Y-65555274D01*
X139442220Y-65289123D01*
X139215877Y-65062780D01*
X138949726Y-64884943D01*
X138653995Y-64762448D01*
X138340049Y-64700000D01*
X138019951Y-64700000D01*
X137706005Y-64762448D01*
X137410274Y-64884943D01*
X137144123Y-65062780D01*
X136917780Y-65289123D01*
X136739943Y-65555274D01*
X136617448Y-65851005D01*
X136555000Y-66164951D01*
X127608072Y-66164951D01*
X127608072Y-65335000D01*
X127595812Y-65210518D01*
X127559502Y-65090820D01*
X127500537Y-64980506D01*
X127421185Y-64883815D01*
X127324494Y-64804463D01*
X127214180Y-64745498D01*
X127094482Y-64709188D01*
X126970000Y-64696928D01*
X124990000Y-64696928D01*
X124865518Y-64709188D01*
X124745820Y-64745498D01*
X124635506Y-64804463D01*
X124538815Y-64883815D01*
X124459463Y-64980506D01*
X124400498Y-65090820D01*
X124364188Y-65210518D01*
X124351928Y-65335000D01*
X124351928Y-67315000D01*
X124364188Y-67439482D01*
X124400498Y-67559180D01*
X124459463Y-67669494D01*
X124538815Y-67766185D01*
X124635506Y-67845537D01*
X124745820Y-67904502D01*
X124865518Y-67940812D01*
X124990000Y-67953072D01*
X125220000Y-67953072D01*
X125220000Y-77343000D01*
X120142000Y-77343000D01*
X120142000Y-62451653D01*
X152992952Y-62451653D01*
X153148962Y-62767214D01*
X153523745Y-62958020D01*
X153928551Y-63072044D01*
X154347824Y-63104902D01*
X154765451Y-63055334D01*
X155165383Y-62925243D01*
X155461038Y-62767214D01*
X155617048Y-62451653D01*
X154305000Y-61139605D01*
X152992952Y-62451653D01*
X120142000Y-62451653D01*
X120142000Y-61437234D01*
X123047371Y-61437234D01*
X123139210Y-61698314D01*
X123423286Y-61835956D01*
X123728756Y-61915533D01*
X124043881Y-61933987D01*
X124356551Y-61890608D01*
X124654751Y-61787063D01*
X124820790Y-61698314D01*
X124912629Y-61437234D01*
X123980000Y-60504605D01*
X123047371Y-61437234D01*
X120142000Y-61437234D01*
X120142000Y-60388881D01*
X122371013Y-60388881D01*
X122414392Y-60701551D01*
X122517937Y-60999751D01*
X122606686Y-61165790D01*
X122867766Y-61257629D01*
X123800395Y-60325000D01*
X124159605Y-60325000D01*
X125092234Y-61257629D01*
X125353314Y-61165790D01*
X125432275Y-61002824D01*
X152160098Y-61002824D01*
X152209666Y-61420451D01*
X152339757Y-61820383D01*
X152497786Y-62116038D01*
X152813347Y-62272048D01*
X154125395Y-60960000D01*
X154484605Y-60960000D01*
X155796653Y-62272048D01*
X156112214Y-62116038D01*
X156303020Y-61741255D01*
X156417044Y-61336449D01*
X156449902Y-60917176D01*
X156400334Y-60499549D01*
X156270243Y-60099617D01*
X156112214Y-59803962D01*
X155796653Y-59647952D01*
X154484605Y-60960000D01*
X154125395Y-60960000D01*
X152813347Y-59647952D01*
X152497786Y-59803962D01*
X152306980Y-60178745D01*
X152192956Y-60583551D01*
X152160098Y-61002824D01*
X125432275Y-61002824D01*
X125490956Y-60881714D01*
X125570533Y-60576244D01*
X125588987Y-60261119D01*
X125545608Y-59948449D01*
X125442063Y-59650249D01*
X125353314Y-59484210D01*
X125308219Y-59468347D01*
X152992952Y-59468347D01*
X154305000Y-60780395D01*
X155617048Y-59468347D01*
X155461038Y-59152786D01*
X155086255Y-58961980D01*
X154681449Y-58847956D01*
X154262176Y-58815098D01*
X153844549Y-58864666D01*
X153444617Y-58994757D01*
X153148962Y-59152786D01*
X152992952Y-59468347D01*
X125308219Y-59468347D01*
X125092234Y-59392371D01*
X124159605Y-60325000D01*
X123800395Y-60325000D01*
X122867766Y-59392371D01*
X122606686Y-59484210D01*
X122469044Y-59768286D01*
X122389467Y-60073756D01*
X122371013Y-60388881D01*
X120142000Y-60388881D01*
X120142000Y-59212766D01*
X123047371Y-59212766D01*
X123980000Y-60145395D01*
X124912629Y-59212766D01*
X124820790Y-58951686D01*
X124536714Y-58814044D01*
X124231244Y-58734467D01*
X123916119Y-58716013D01*
X123603449Y-58759392D01*
X123305249Y-58862937D01*
X123139210Y-58951686D01*
X123047371Y-59212766D01*
X120142000Y-59212766D01*
X120142000Y-54164951D01*
X124355000Y-54164951D01*
X124355000Y-54485049D01*
X124417448Y-54798995D01*
X124539943Y-55094726D01*
X124717780Y-55360877D01*
X124944123Y-55587220D01*
X125210274Y-55765057D01*
X125506005Y-55887552D01*
X125819951Y-55950000D01*
X126140049Y-55950000D01*
X126453995Y-55887552D01*
X126749726Y-55765057D01*
X127015877Y-55587220D01*
X127242220Y-55360877D01*
X127420057Y-55094726D01*
X127542552Y-54798995D01*
X127605000Y-54485049D01*
X127605000Y-54164951D01*
X136555000Y-54164951D01*
X136555000Y-54485049D01*
X136617448Y-54798995D01*
X136739943Y-55094726D01*
X136917780Y-55360877D01*
X137144123Y-55587220D01*
X137410274Y-55765057D01*
X137706005Y-55887552D01*
X138019951Y-55950000D01*
X138340049Y-55950000D01*
X138653995Y-55887552D01*
X138949726Y-55765057D01*
X139215877Y-55587220D01*
X139442220Y-55360877D01*
X139620057Y-55094726D01*
X139742552Y-54798995D01*
X139805000Y-54485049D01*
X139805000Y-54380000D01*
X152166928Y-54380000D01*
X152166928Y-57380000D01*
X152179188Y-57504482D01*
X152215498Y-57624180D01*
X152274463Y-57734494D01*
X152353815Y-57831185D01*
X152450506Y-57910537D01*
X152560820Y-57969502D01*
X152680518Y-58005812D01*
X152805000Y-58018072D01*
X155805000Y-58018072D01*
X155929482Y-58005812D01*
X156049180Y-57969502D01*
X156159494Y-57910537D01*
X156256185Y-57831185D01*
X156335537Y-57734494D01*
X156394502Y-57624180D01*
X156430812Y-57504482D01*
X156443072Y-57380000D01*
X156443072Y-54380000D01*
X156430812Y-54255518D01*
X156394502Y-54135820D01*
X156335537Y-54025506D01*
X156256185Y-53928815D01*
X156159494Y-53849463D01*
X156049180Y-53790498D01*
X155929482Y-53754188D01*
X155805000Y-53741928D01*
X152805000Y-53741928D01*
X152680518Y-53754188D01*
X152560820Y-53790498D01*
X152450506Y-53849463D01*
X152353815Y-53928815D01*
X152274463Y-54025506D01*
X152215498Y-54135820D01*
X152179188Y-54255518D01*
X152166928Y-54380000D01*
X139805000Y-54380000D01*
X139805000Y-54164951D01*
X139742552Y-53851005D01*
X139620057Y-53555274D01*
X139442220Y-53289123D01*
X139215877Y-53062780D01*
X138949726Y-52884943D01*
X138653995Y-52762448D01*
X138340049Y-52700000D01*
X138019951Y-52700000D01*
X137706005Y-52762448D01*
X137410274Y-52884943D01*
X137144123Y-53062780D01*
X136917780Y-53289123D01*
X136739943Y-53555274D01*
X136617448Y-53851005D01*
X136555000Y-54164951D01*
X127605000Y-54164951D01*
X127542552Y-53851005D01*
X127420057Y-53555274D01*
X127242220Y-53289123D01*
X127015877Y-53062780D01*
X126749726Y-52884943D01*
X126453995Y-52762448D01*
X126140049Y-52700000D01*
X125819951Y-52700000D01*
X125506005Y-52762448D01*
X125210274Y-52884943D01*
X124944123Y-53062780D01*
X124717780Y-53289123D01*
X124539943Y-53555274D01*
X124417448Y-53851005D01*
X124355000Y-54164951D01*
X120142000Y-54164951D01*
X120142000Y-49543455D01*
X121006371Y-45509721D01*
X151535000Y-45509721D01*
X151535000Y-45930279D01*
X151617047Y-46342756D01*
X151777988Y-46731302D01*
X152011637Y-47080983D01*
X152309017Y-47378363D01*
X152658698Y-47612012D01*
X153047244Y-47772953D01*
X153459721Y-47855000D01*
X153880279Y-47855000D01*
X154292756Y-47772953D01*
X154681302Y-47612012D01*
X155030983Y-47378363D01*
X155328363Y-47080983D01*
X155562012Y-46731302D01*
X155722953Y-46342756D01*
X155805000Y-45930279D01*
X155805000Y-45509721D01*
X155722953Y-45097244D01*
X155562012Y-44708698D01*
X155328363Y-44359017D01*
X155030983Y-44061637D01*
X154681302Y-43827988D01*
X154292756Y-43667047D01*
X153880279Y-43585000D01*
X153459721Y-43585000D01*
X153047244Y-43667047D01*
X152658698Y-43827988D01*
X152309017Y-44061637D01*
X152011637Y-44359017D01*
X151777988Y-44708698D01*
X151617047Y-45097244D01*
X151535000Y-45509721D01*
X121006371Y-45509721D01*
X121908455Y-41300000D01*
X153640608Y-41300000D01*
X154452249Y-41372437D01*
G37*
%TD.AperFunction*%
%TD*%
D26*
%TO.N,GND*%
X116717886Y-49495110D02*
X116713000Y-49530000D01*
X116713000Y-53321308D01*
X116608989Y-53278225D01*
X116341411Y-53225000D01*
X116068589Y-53225000D01*
X115801011Y-53278225D01*
X115548957Y-53382629D01*
X115322114Y-53534201D01*
X115129201Y-53727114D01*
X115051445Y-53843483D01*
X115040812Y-53735518D01*
X115004502Y-53615820D01*
X114945537Y-53505506D01*
X114866185Y-53408815D01*
X114769494Y-53329463D01*
X114659180Y-53270498D01*
X114539482Y-53234188D01*
X114415000Y-53221928D01*
X113950750Y-53225000D01*
X113792000Y-53383750D01*
X113792000Y-54483000D01*
X113812000Y-54483000D01*
X113812000Y-54737000D01*
X113792000Y-54737000D01*
X113792000Y-55836250D01*
X113847974Y-55892224D01*
X112876498Y-56863701D01*
X112847500Y-56887499D01*
X112823702Y-56916497D01*
X112823701Y-56916498D01*
X112752526Y-57003224D01*
X112681954Y-57135254D01*
X112638498Y-57278515D01*
X112623824Y-57427500D01*
X112627501Y-57464832D01*
X112627501Y-58504970D01*
X112497038Y-58612038D01*
X112395000Y-58736371D01*
X112292962Y-58612038D01*
X112158387Y-58501595D01*
X112004851Y-58419528D01*
X111838255Y-58368992D01*
X111665001Y-58351928D01*
X111139999Y-58351928D01*
X110966745Y-58368992D01*
X110800149Y-58419528D01*
X110646613Y-58501595D01*
X110565363Y-58568276D01*
X110541185Y-58538815D01*
X110444494Y-58459463D01*
X110334180Y-58400498D01*
X110214482Y-58364188D01*
X110090000Y-58351928D01*
X109863250Y-58355000D01*
X109704500Y-58513750D01*
X109704500Y-59563000D01*
X109724500Y-59563000D01*
X109724500Y-59817000D01*
X109704500Y-59817000D01*
X109704500Y-60866250D01*
X109863250Y-61025000D01*
X110090000Y-61028072D01*
X110214482Y-61015812D01*
X110334180Y-60979502D01*
X110444494Y-60920537D01*
X110541185Y-60841185D01*
X110565363Y-60811724D01*
X110646613Y-60878405D01*
X110800149Y-60960472D01*
X110966745Y-61011008D01*
X111139999Y-61028072D01*
X111665001Y-61028072D01*
X111838255Y-61011008D01*
X112004851Y-60960472D01*
X112158387Y-60878405D01*
X112292962Y-60767962D01*
X112395000Y-60643629D01*
X112497038Y-60767962D01*
X112631613Y-60878405D01*
X112785149Y-60960472D01*
X112951745Y-61011008D01*
X113124999Y-61028072D01*
X113650001Y-61028072D01*
X113823255Y-61011008D01*
X113989851Y-60960472D01*
X114143387Y-60878405D01*
X114277962Y-60767962D01*
X114300000Y-60741109D01*
X114322038Y-60767962D01*
X114452501Y-60875030D01*
X114452500Y-68546498D01*
X100648452Y-82350547D01*
X100526120Y-82167465D01*
X100331535Y-81972880D01*
X100102727Y-81819995D01*
X99848490Y-81714686D01*
X99578592Y-81661000D01*
X99303408Y-81661000D01*
X99033510Y-81714686D01*
X98779273Y-81819995D01*
X98550465Y-81972880D01*
X98355880Y-82167465D01*
X98202995Y-82396273D01*
X98097686Y-82650510D01*
X98044000Y-82920408D01*
X98044000Y-83195592D01*
X98097686Y-83465490D01*
X98202995Y-83719727D01*
X98355880Y-83948535D01*
X98550465Y-84143120D01*
X98733547Y-84265452D01*
X88166799Y-94832200D01*
X79083474Y-94832200D01*
X79091498Y-94820192D01*
X79150464Y-94709875D01*
X79187973Y-94619319D01*
X79224282Y-94499623D01*
X79243404Y-94403490D01*
X79255664Y-94279009D01*
X79255664Y-94254450D01*
X79258072Y-94230000D01*
X79258072Y-93730000D01*
X79255664Y-93705550D01*
X79255664Y-93680991D01*
X79243404Y-93556510D01*
X79224282Y-93460377D01*
X79187973Y-93340681D01*
X79150464Y-93250125D01*
X79091498Y-93139808D01*
X79037042Y-93058309D01*
X78957690Y-92961618D01*
X78888382Y-92892310D01*
X78791691Y-92812958D01*
X78710192Y-92758502D01*
X78599875Y-92699536D01*
X78509319Y-92662027D01*
X78389623Y-92625718D01*
X78293490Y-92606596D01*
X78169009Y-92594336D01*
X78144450Y-92594336D01*
X78120000Y-92591928D01*
X77620000Y-92591928D01*
X77495518Y-92604188D01*
X77470000Y-92611929D01*
X77444482Y-92604188D01*
X77320000Y-92591928D01*
X76820000Y-92591928D01*
X76795550Y-92594336D01*
X76770991Y-92594336D01*
X76646510Y-92606596D01*
X76550377Y-92625718D01*
X76430681Y-92662027D01*
X76340125Y-92699536D01*
X76229808Y-92758502D01*
X76148309Y-92812958D01*
X76051618Y-92892310D01*
X75982310Y-92961618D01*
X75902958Y-93058309D01*
X75848502Y-93139808D01*
X75805638Y-93220000D01*
X68473203Y-93220000D01*
X67770502Y-92517300D01*
X75195378Y-92517300D01*
X75232700Y-92520976D01*
X75270022Y-92517300D01*
X75270033Y-92517300D01*
X75381686Y-92506303D01*
X75524947Y-92462846D01*
X75656976Y-92392274D01*
X75772701Y-92297301D01*
X75796504Y-92268297D01*
X76542814Y-91521988D01*
X76550377Y-91524282D01*
X76646510Y-91543404D01*
X76770991Y-91555664D01*
X76795550Y-91555664D01*
X76820000Y-91558072D01*
X77320000Y-91558072D01*
X77444482Y-91545812D01*
X77470000Y-91538071D01*
X77495518Y-91545812D01*
X77620000Y-91558072D01*
X78120000Y-91558072D01*
X78144450Y-91555664D01*
X78169009Y-91555664D01*
X78293490Y-91543404D01*
X78389623Y-91524282D01*
X78509319Y-91487973D01*
X78599875Y-91450464D01*
X78710192Y-91391498D01*
X78791691Y-91337042D01*
X78888382Y-91257690D01*
X78957690Y-91188382D01*
X79037042Y-91091691D01*
X79091498Y-91010192D01*
X79150464Y-90899875D01*
X79187973Y-90809319D01*
X79224282Y-90689623D01*
X79243404Y-90593490D01*
X79255664Y-90469009D01*
X79255664Y-90444450D01*
X79258072Y-90420000D01*
X79258072Y-90106729D01*
X86444393Y-82920408D01*
X87376000Y-82920408D01*
X87376000Y-83195592D01*
X87429686Y-83465490D01*
X87534995Y-83719727D01*
X87687880Y-83948535D01*
X87882465Y-84143120D01*
X88111273Y-84296005D01*
X88365510Y-84401314D01*
X88635408Y-84455000D01*
X88910592Y-84455000D01*
X89180490Y-84401314D01*
X89434727Y-84296005D01*
X89663535Y-84143120D01*
X89858120Y-83948535D01*
X90011005Y-83719727D01*
X90116314Y-83465490D01*
X90170000Y-83195592D01*
X90170000Y-82920408D01*
X90932000Y-82920408D01*
X90932000Y-83195592D01*
X90985686Y-83465490D01*
X91090995Y-83719727D01*
X91243880Y-83948535D01*
X91438465Y-84143120D01*
X91667273Y-84296005D01*
X91921510Y-84401314D01*
X92191408Y-84455000D01*
X92466592Y-84455000D01*
X92736490Y-84401314D01*
X92990727Y-84296005D01*
X93219535Y-84143120D01*
X93414120Y-83948535D01*
X93567005Y-83719727D01*
X93672314Y-83465490D01*
X93726000Y-83195592D01*
X93726000Y-82920408D01*
X94488000Y-82920408D01*
X94488000Y-83195592D01*
X94541686Y-83465490D01*
X94646995Y-83719727D01*
X94799880Y-83948535D01*
X94994465Y-84143120D01*
X95223273Y-84296005D01*
X95477510Y-84401314D01*
X95747408Y-84455000D01*
X96022592Y-84455000D01*
X96292490Y-84401314D01*
X96546727Y-84296005D01*
X96775535Y-84143120D01*
X96970120Y-83948535D01*
X97123005Y-83719727D01*
X97228314Y-83465490D01*
X97282000Y-83195592D01*
X97282000Y-82920408D01*
X97228314Y-82650510D01*
X97123005Y-82396273D01*
X96970120Y-82167465D01*
X96775535Y-81972880D01*
X96546727Y-81819995D01*
X96292490Y-81714686D01*
X96022592Y-81661000D01*
X95747408Y-81661000D01*
X95477510Y-81714686D01*
X95223273Y-81819995D01*
X94994465Y-81972880D01*
X94799880Y-82167465D01*
X94646995Y-82396273D01*
X94541686Y-82650510D01*
X94488000Y-82920408D01*
X93726000Y-82920408D01*
X93672314Y-82650510D01*
X93567005Y-82396273D01*
X93414120Y-82167465D01*
X93219535Y-81972880D01*
X92990727Y-81819995D01*
X92736490Y-81714686D01*
X92466592Y-81661000D01*
X92191408Y-81661000D01*
X91921510Y-81714686D01*
X91667273Y-81819995D01*
X91438465Y-81972880D01*
X91243880Y-82167465D01*
X91090995Y-82396273D01*
X90985686Y-82650510D01*
X90932000Y-82920408D01*
X90170000Y-82920408D01*
X90116314Y-82650510D01*
X90011005Y-82396273D01*
X89858120Y-82167465D01*
X89663535Y-81972880D01*
X89434727Y-81819995D01*
X89180490Y-81714686D01*
X88910592Y-81661000D01*
X88635408Y-81661000D01*
X88365510Y-81714686D01*
X88111273Y-81819995D01*
X87882465Y-81972880D01*
X87687880Y-82167465D01*
X87534995Y-82396273D01*
X87429686Y-82650510D01*
X87376000Y-82920408D01*
X86444393Y-82920408D01*
X95761003Y-73603799D01*
X95790001Y-73580001D01*
X95884974Y-73464276D01*
X95955546Y-73332247D01*
X95999003Y-73188986D01*
X96010000Y-73077333D01*
X96010000Y-73077324D01*
X96013676Y-73040001D01*
X96010000Y-73002678D01*
X96010000Y-62132341D01*
X96140535Y-62045120D01*
X96335120Y-61850535D01*
X96488005Y-61621727D01*
X96520000Y-61544485D01*
X96551995Y-61621727D01*
X96704880Y-61850535D01*
X96899465Y-62045120D01*
X97128273Y-62198005D01*
X97382510Y-62303314D01*
X97652408Y-62357000D01*
X97927592Y-62357000D01*
X98197490Y-62303314D01*
X98451727Y-62198005D01*
X98680535Y-62045120D01*
X98875120Y-61850535D01*
X99028005Y-61621727D01*
X99060000Y-61544485D01*
X99091995Y-61621727D01*
X99244880Y-61850535D01*
X99439465Y-62045120D01*
X99668273Y-62198005D01*
X99922510Y-62303314D01*
X100192408Y-62357000D01*
X100467592Y-62357000D01*
X100737490Y-62303314D01*
X100991727Y-62198005D01*
X101220535Y-62045120D01*
X101415120Y-61850535D01*
X101568005Y-61621727D01*
X101600000Y-61544485D01*
X101631995Y-61621727D01*
X101784880Y-61850535D01*
X101979465Y-62045120D01*
X102208273Y-62198005D01*
X102462510Y-62303314D01*
X102732408Y-62357000D01*
X103007592Y-62357000D01*
X103277490Y-62303314D01*
X103531727Y-62198005D01*
X103760535Y-62045120D01*
X103955120Y-61850535D01*
X104108005Y-61621727D01*
X104213314Y-61367490D01*
X104267000Y-61097592D01*
X104267000Y-60822408D01*
X104213314Y-60552510D01*
X104146000Y-60390000D01*
X108426928Y-60390000D01*
X108439188Y-60514482D01*
X108475498Y-60634180D01*
X108534463Y-60744494D01*
X108613815Y-60841185D01*
X108710506Y-60920537D01*
X108820820Y-60979502D01*
X108940518Y-61015812D01*
X109065000Y-61028072D01*
X109291750Y-61025000D01*
X109450500Y-60866250D01*
X109450500Y-59817000D01*
X108588750Y-59817000D01*
X108430000Y-59975750D01*
X108426928Y-60390000D01*
X104146000Y-60390000D01*
X104108005Y-60298273D01*
X103955120Y-60069465D01*
X103760535Y-59874880D01*
X103531727Y-59721995D01*
X103277490Y-59616686D01*
X103007592Y-59563000D01*
X102732408Y-59563000D01*
X102462510Y-59616686D01*
X102208273Y-59721995D01*
X101979465Y-59874880D01*
X101784880Y-60069465D01*
X101631995Y-60298273D01*
X101600000Y-60375515D01*
X101568005Y-60298273D01*
X101415120Y-60069465D01*
X101220535Y-59874880D01*
X100991727Y-59721995D01*
X100737490Y-59616686D01*
X100467592Y-59563000D01*
X100192408Y-59563000D01*
X99922510Y-59616686D01*
X99668273Y-59721995D01*
X99439465Y-59874880D01*
X99244880Y-60069465D01*
X99091995Y-60298273D01*
X99060000Y-60375515D01*
X99028005Y-60298273D01*
X98875120Y-60069465D01*
X98680535Y-59874880D01*
X98451727Y-59721995D01*
X98197490Y-59616686D01*
X97927592Y-59563000D01*
X97652408Y-59563000D01*
X97382510Y-59616686D01*
X97128273Y-59721995D01*
X96899465Y-59874880D01*
X96704880Y-60069465D01*
X96551995Y-60298273D01*
X96520000Y-60375515D01*
X96488005Y-60298273D01*
X96335120Y-60069465D01*
X96140535Y-59874880D01*
X95911727Y-59721995D01*
X95657490Y-59616686D01*
X95387592Y-59563000D01*
X95112408Y-59563000D01*
X94842510Y-59616686D01*
X94588273Y-59721995D01*
X94359465Y-59874880D01*
X94164880Y-60069465D01*
X94011995Y-60298273D01*
X93980000Y-60375515D01*
X93948005Y-60298273D01*
X93795120Y-60069465D01*
X93600535Y-59874880D01*
X93371727Y-59721995D01*
X93117490Y-59616686D01*
X92847592Y-59563000D01*
X92572408Y-59563000D01*
X92302510Y-59616686D01*
X92048273Y-59721995D01*
X91819465Y-59874880D01*
X91624880Y-60069465D01*
X91471995Y-60298273D01*
X91440000Y-60375515D01*
X91408005Y-60298273D01*
X91255120Y-60069465D01*
X91060535Y-59874880D01*
X90930000Y-59787659D01*
X90930000Y-58990000D01*
X108426928Y-58990000D01*
X108430000Y-59404250D01*
X108588750Y-59563000D01*
X109450500Y-59563000D01*
X109450500Y-58513750D01*
X109291750Y-58355000D01*
X109065000Y-58351928D01*
X108940518Y-58364188D01*
X108820820Y-58400498D01*
X108710506Y-58459463D01*
X108613815Y-58538815D01*
X108534463Y-58635506D01*
X108475498Y-58745820D01*
X108439188Y-58865518D01*
X108426928Y-58990000D01*
X90930000Y-58990000D01*
X90930000Y-56924362D01*
X91010192Y-56881498D01*
X91091691Y-56827042D01*
X91188382Y-56747690D01*
X91257690Y-56678382D01*
X91337042Y-56581691D01*
X91391498Y-56500192D01*
X91450464Y-56389875D01*
X91487973Y-56299319D01*
X91524282Y-56179623D01*
X91543404Y-56083490D01*
X91555664Y-55959009D01*
X91555664Y-55934450D01*
X91558072Y-55910000D01*
X91558072Y-55410000D01*
X91554132Y-55370000D01*
X95416928Y-55370000D01*
X95416928Y-55710000D01*
X95429188Y-55834482D01*
X95465498Y-55954180D01*
X95524463Y-56064494D01*
X95603815Y-56161185D01*
X95700506Y-56240537D01*
X95810820Y-56299502D01*
X95930518Y-56335812D01*
X96055000Y-56348072D01*
X98255000Y-56348072D01*
X98379482Y-56335812D01*
X98499180Y-56299502D01*
X98609494Y-56240537D01*
X98706185Y-56161185D01*
X98785537Y-56064494D01*
X98844502Y-55954180D01*
X98880812Y-55834482D01*
X98893072Y-55710000D01*
X98893072Y-54439117D01*
X108120000Y-54439117D01*
X108120000Y-54780883D01*
X108186675Y-55116081D01*
X108317463Y-55431831D01*
X108507337Y-55715998D01*
X108749002Y-55957663D01*
X109033169Y-56147537D01*
X109348919Y-56278325D01*
X109684117Y-56345000D01*
X110025883Y-56345000D01*
X110361081Y-56278325D01*
X110676831Y-56147537D01*
X110960998Y-55957663D01*
X111202663Y-55715998D01*
X111392537Y-55431831D01*
X111422290Y-55360000D01*
X112276928Y-55360000D01*
X112289188Y-55484482D01*
X112325498Y-55604180D01*
X112384463Y-55714494D01*
X112463815Y-55811185D01*
X112560506Y-55890537D01*
X112670820Y-55949502D01*
X112790518Y-55985812D01*
X112915000Y-55998072D01*
X113379250Y-55995000D01*
X113538000Y-55836250D01*
X113538000Y-54737000D01*
X112438750Y-54737000D01*
X112280000Y-54895750D01*
X112276928Y-55360000D01*
X111422290Y-55360000D01*
X111523325Y-55116081D01*
X111590000Y-54780883D01*
X111590000Y-54439117D01*
X111523325Y-54103919D01*
X111422291Y-53860000D01*
X112276928Y-53860000D01*
X112280000Y-54324250D01*
X112438750Y-54483000D01*
X113538000Y-54483000D01*
X113538000Y-53383750D01*
X113379250Y-53225000D01*
X112915000Y-53221928D01*
X112790518Y-53234188D01*
X112670820Y-53270498D01*
X112560506Y-53329463D01*
X112463815Y-53408815D01*
X112384463Y-53505506D01*
X112325498Y-53615820D01*
X112289188Y-53735518D01*
X112276928Y-53860000D01*
X111422291Y-53860000D01*
X111392537Y-53788169D01*
X111202663Y-53504002D01*
X110960998Y-53262337D01*
X110676831Y-53072463D01*
X110361081Y-52941675D01*
X110025883Y-52875000D01*
X109684117Y-52875000D01*
X109348919Y-52941675D01*
X109033169Y-53072463D01*
X108749002Y-53262337D01*
X108507337Y-53504002D01*
X108317463Y-53788169D01*
X108186675Y-54103919D01*
X108120000Y-54439117D01*
X98893072Y-54439117D01*
X98893072Y-53510000D01*
X98880812Y-53385518D01*
X98844502Y-53265820D01*
X98785537Y-53155506D01*
X98706185Y-53058815D01*
X98609494Y-52979463D01*
X98499180Y-52920498D01*
X98379482Y-52884188D01*
X98255000Y-52871928D01*
X96055000Y-52871928D01*
X95930518Y-52884188D01*
X95810820Y-52920498D01*
X95700506Y-52979463D01*
X95603815Y-53058815D01*
X95524463Y-53155506D01*
X95465498Y-53265820D01*
X95429188Y-53385518D01*
X95416928Y-53510000D01*
X95416928Y-53850000D01*
X91264569Y-53850000D01*
X91257690Y-53841618D01*
X91188382Y-53772310D01*
X91091691Y-53692958D01*
X91010192Y-53638502D01*
X90899875Y-53579536D01*
X90809319Y-53542027D01*
X90689623Y-53505718D01*
X90593490Y-53486596D01*
X90469009Y-53474336D01*
X90444450Y-53474336D01*
X90420000Y-53471928D01*
X89920000Y-53471928D01*
X89895550Y-53474336D01*
X89870991Y-53474336D01*
X89746510Y-53486596D01*
X89650377Y-53505718D01*
X89530681Y-53542027D01*
X89440125Y-53579536D01*
X89329808Y-53638502D01*
X89248309Y-53692958D01*
X89151618Y-53772310D01*
X89082310Y-53841618D01*
X89002958Y-53938309D01*
X88948502Y-54019808D01*
X88889536Y-54130125D01*
X88852027Y-54220681D01*
X88815718Y-54340377D01*
X88796596Y-54436510D01*
X88792205Y-54481093D01*
X84775199Y-58498100D01*
X69510666Y-58498100D01*
X69505703Y-58447714D01*
X69462246Y-58304453D01*
X69391674Y-58172424D01*
X69296701Y-58056699D01*
X69267704Y-58032902D01*
X68676372Y-57441570D01*
X68707000Y-57287592D01*
X68707000Y-57012408D01*
X68653314Y-56742510D01*
X68548005Y-56488273D01*
X68395120Y-56259465D01*
X68200535Y-56064880D01*
X67971727Y-55911995D01*
X67717490Y-55806686D01*
X67447592Y-55753000D01*
X67172408Y-55753000D01*
X66902510Y-55806686D01*
X66648273Y-55911995D01*
X66419465Y-56064880D01*
X66224880Y-56259465D01*
X66071995Y-56488273D01*
X65966686Y-56742510D01*
X65913000Y-57012408D01*
X65913000Y-57287592D01*
X65966686Y-57557490D01*
X66071995Y-57811727D01*
X66224880Y-58040535D01*
X66419465Y-58235120D01*
X66648273Y-58388005D01*
X66719943Y-58417692D01*
X66706977Y-58422364D01*
X66591020Y-58484344D01*
X66524040Y-58724435D01*
X67310000Y-59510395D01*
X67324143Y-59496253D01*
X67503748Y-59675858D01*
X67489605Y-59690000D01*
X67503748Y-59704143D01*
X67324143Y-59883748D01*
X67310000Y-59869605D01*
X66524040Y-60655565D01*
X66591020Y-60895656D01*
X66726760Y-60959485D01*
X66648273Y-60991995D01*
X66419465Y-61144880D01*
X66224880Y-61339465D01*
X66071995Y-61568273D01*
X65966686Y-61822510D01*
X65960651Y-61852850D01*
X64223404Y-60115603D01*
X64199601Y-60086599D01*
X64083876Y-59991626D01*
X63951847Y-59921054D01*
X63808586Y-59877597D01*
X63696933Y-59866600D01*
X63696922Y-59866600D01*
X63659600Y-59862924D01*
X63622278Y-59866600D01*
X63481402Y-59866600D01*
X63376819Y-59762017D01*
X65908090Y-59762017D01*
X65949078Y-60034133D01*
X66042364Y-60293023D01*
X66104344Y-60408980D01*
X66344435Y-60475960D01*
X67130395Y-59690000D01*
X66344435Y-58904040D01*
X66104344Y-58971020D01*
X65987244Y-59220048D01*
X65920977Y-59487135D01*
X65908090Y-59762017D01*
X63376819Y-59762017D01*
X61523804Y-57909003D01*
X61500001Y-57879999D01*
X61384276Y-57785026D01*
X61252247Y-57714454D01*
X61108986Y-57670997D01*
X60997333Y-57660000D01*
X60997322Y-57660000D01*
X60960000Y-57656324D01*
X60922678Y-57660000D01*
X34327322Y-57660000D01*
X34289999Y-57656324D01*
X34252676Y-57660000D01*
X34252667Y-57660000D01*
X34141014Y-57670997D01*
X33997753Y-57714454D01*
X33865724Y-57785026D01*
X33865722Y-57785027D01*
X33865723Y-57785027D01*
X33778996Y-57856201D01*
X33778992Y-57856205D01*
X33749999Y-57879999D01*
X33726205Y-57908992D01*
X31239003Y-60396196D01*
X31209999Y-60419999D01*
X31162716Y-60477614D01*
X31115026Y-60535724D01*
X31062824Y-60633387D01*
X31044454Y-60667754D01*
X31000997Y-60811015D01*
X30990000Y-60922668D01*
X30990000Y-60922678D01*
X30986324Y-60960000D01*
X30990000Y-60997322D01*
X30990001Y-99361429D01*
X30986324Y-99398762D01*
X30990001Y-99436095D01*
X30994747Y-99484276D01*
X31000998Y-99547747D01*
X31044454Y-99691008D01*
X31115026Y-99823038D01*
X31186201Y-99909764D01*
X31210000Y-99938763D01*
X31238998Y-99962561D01*
X34478439Y-103202003D01*
X34502237Y-103231001D01*
X34617962Y-103325974D01*
X34749991Y-103396546D01*
X34893252Y-103440003D01*
X35004905Y-103451000D01*
X35004913Y-103451000D01*
X35042238Y-103454676D01*
X35079563Y-103451000D01*
X36880218Y-103451000D01*
X36861995Y-103478273D01*
X36756686Y-103732510D01*
X36703000Y-104002408D01*
X36703000Y-104277592D01*
X36756686Y-104547490D01*
X36861995Y-104801727D01*
X37014880Y-105030535D01*
X37209465Y-105225120D01*
X37438273Y-105378005D01*
X37692510Y-105483314D01*
X37962408Y-105537000D01*
X38237592Y-105537000D01*
X38507490Y-105483314D01*
X38761727Y-105378005D01*
X38990535Y-105225120D01*
X39110090Y-105105565D01*
X60174040Y-105105565D01*
X60241020Y-105345656D01*
X60490048Y-105462756D01*
X60757135Y-105529023D01*
X61032017Y-105541910D01*
X61304133Y-105500922D01*
X61563023Y-105407636D01*
X61678980Y-105345656D01*
X61745960Y-105105565D01*
X60960000Y-104319605D01*
X60174040Y-105105565D01*
X39110090Y-105105565D01*
X39185120Y-105030535D01*
X39338005Y-104801727D01*
X39443314Y-104547490D01*
X39497000Y-104277592D01*
X39497000Y-104002408D01*
X39443314Y-103732510D01*
X39338005Y-103478273D01*
X39319782Y-103451000D01*
X59740247Y-103451000D01*
X59637244Y-103670048D01*
X59570977Y-103937135D01*
X59558090Y-104212017D01*
X59599078Y-104484133D01*
X59692364Y-104743023D01*
X59754344Y-104858980D01*
X59994435Y-104925960D01*
X60780395Y-104140000D01*
X61139605Y-104140000D01*
X61925565Y-104925960D01*
X62165656Y-104858980D01*
X62282756Y-104609952D01*
X62349023Y-104342865D01*
X62361910Y-104067983D01*
X62320922Y-103795867D01*
X62227636Y-103536977D01*
X62165656Y-103421020D01*
X61925565Y-103354040D01*
X61139605Y-104140000D01*
X60780395Y-104140000D01*
X60766253Y-104125858D01*
X60945858Y-103946253D01*
X60960000Y-103960395D01*
X61745960Y-103174435D01*
X61678980Y-102934344D01*
X61543240Y-102870515D01*
X61621727Y-102838005D01*
X61850535Y-102685120D01*
X62045120Y-102490535D01*
X62198005Y-102261727D01*
X62303314Y-102007490D01*
X62357000Y-101737592D01*
X62357000Y-101462408D01*
X62303314Y-101192510D01*
X62198005Y-100938273D01*
X62045120Y-100709465D01*
X61850535Y-100514880D01*
X61621727Y-100361995D01*
X61544485Y-100330000D01*
X61621727Y-100298005D01*
X61850535Y-100145120D01*
X62045120Y-99950535D01*
X62132341Y-99820000D01*
X107104678Y-99820000D01*
X107142000Y-99823676D01*
X107179322Y-99820000D01*
X107179333Y-99820000D01*
X107290986Y-99809003D01*
X107434247Y-99765546D01*
X107566276Y-99694974D01*
X107682001Y-99600001D01*
X107705804Y-99570997D01*
X115694651Y-91582151D01*
X115745820Y-91609502D01*
X115865518Y-91645812D01*
X115990000Y-91658072D01*
X117690000Y-91658072D01*
X117814482Y-91645812D01*
X117934180Y-91609502D01*
X118044494Y-91550537D01*
X118141185Y-91471185D01*
X118220537Y-91374494D01*
X118279502Y-91264180D01*
X118315812Y-91144482D01*
X118328072Y-91020000D01*
X118328072Y-89320000D01*
X118315812Y-89195518D01*
X118279502Y-89075820D01*
X118220537Y-88965506D01*
X118141185Y-88868815D01*
X118044494Y-88789463D01*
X117934180Y-88730498D01*
X117814482Y-88694188D01*
X117690000Y-88681928D01*
X117600000Y-88681928D01*
X117600000Y-87304901D01*
X120500603Y-84404299D01*
X120529601Y-84380501D01*
X120574064Y-84326323D01*
X120624574Y-84264777D01*
X120684175Y-84153272D01*
X121489600Y-84153272D01*
X121614082Y-84141012D01*
X121733780Y-84104702D01*
X121844094Y-84045737D01*
X121940785Y-83966385D01*
X122020137Y-83869694D01*
X122079102Y-83759380D01*
X122115412Y-83639682D01*
X122127672Y-83515200D01*
X122127672Y-81991200D01*
X122115412Y-81866718D01*
X122079102Y-81747020D01*
X122020137Y-81636706D01*
X121940785Y-81540015D01*
X121844094Y-81460663D01*
X121733780Y-81401698D01*
X121614082Y-81365388D01*
X121489600Y-81353128D01*
X118489600Y-81353128D01*
X118365118Y-81365388D01*
X118245420Y-81401698D01*
X118135106Y-81460663D01*
X118038415Y-81540015D01*
X117959063Y-81636706D01*
X117900098Y-81747020D01*
X117863788Y-81866718D01*
X117851528Y-81991200D01*
X117851528Y-83515200D01*
X117863788Y-83639682D01*
X117900098Y-83759380D01*
X117959063Y-83869694D01*
X118038415Y-83966385D01*
X118135106Y-84045737D01*
X118245420Y-84104702D01*
X118365118Y-84141012D01*
X118489600Y-84153272D01*
X118602026Y-84153272D01*
X116328998Y-86426301D01*
X116300000Y-86450099D01*
X116276202Y-86479097D01*
X116276201Y-86479098D01*
X116205026Y-86565824D01*
X116134454Y-86697854D01*
X116090998Y-86841115D01*
X116076324Y-86990100D01*
X116080001Y-87027432D01*
X116080000Y-88681928D01*
X115990000Y-88681928D01*
X115865518Y-88694188D01*
X115745820Y-88730498D01*
X115635506Y-88789463D01*
X115538815Y-88868815D01*
X115459463Y-88965506D01*
X115400498Y-89075820D01*
X115376034Y-89156466D01*
X115300269Y-89072412D01*
X115066920Y-88898359D01*
X114804099Y-88773175D01*
X114656890Y-88728524D01*
X114427000Y-88849845D01*
X114427000Y-90043000D01*
X114447000Y-90043000D01*
X114447000Y-90297000D01*
X114427000Y-90297000D01*
X114427000Y-90317000D01*
X114173000Y-90317000D01*
X114173000Y-90297000D01*
X112979186Y-90297000D01*
X112858519Y-90526891D01*
X112955843Y-90801252D01*
X113104822Y-91051355D01*
X113299731Y-91267588D01*
X113533080Y-91441641D01*
X113636363Y-91490835D01*
X106827199Y-98300000D01*
X62132341Y-98300000D01*
X62045120Y-98169465D01*
X61850535Y-97974880D01*
X61621727Y-97821995D01*
X61544485Y-97790000D01*
X61621727Y-97758005D01*
X61850535Y-97605120D01*
X62045120Y-97410535D01*
X62198005Y-97181727D01*
X62303314Y-96927490D01*
X62357000Y-96657592D01*
X62357000Y-96451802D01*
X63654001Y-97748803D01*
X63677799Y-97777801D01*
X63706797Y-97801599D01*
X63793523Y-97872774D01*
X63925553Y-97943346D01*
X64068814Y-97986803D01*
X64180467Y-97997800D01*
X64180477Y-97997800D01*
X64217800Y-98001476D01*
X64255123Y-97997800D01*
X96611289Y-97997800D01*
X96655226Y-98041737D01*
X96824744Y-98155005D01*
X97013102Y-98233026D01*
X97213061Y-98272800D01*
X97416939Y-98272800D01*
X97616898Y-98233026D01*
X97805256Y-98155005D01*
X97974774Y-98041737D01*
X98118937Y-97897574D01*
X98232205Y-97728056D01*
X98310226Y-97539698D01*
X98350000Y-97339739D01*
X98350000Y-97135861D01*
X98310226Y-96935902D01*
X98232205Y-96747544D01*
X98118937Y-96578026D01*
X97974774Y-96433863D01*
X97805256Y-96320595D01*
X97616898Y-96242574D01*
X97416939Y-96202800D01*
X97213061Y-96202800D01*
X97013102Y-96242574D01*
X96824744Y-96320595D01*
X96655226Y-96433863D01*
X96611289Y-96477800D01*
X64532602Y-96477800D01*
X64407002Y-96352200D01*
X88444278Y-96352200D01*
X88481600Y-96355876D01*
X88518922Y-96352200D01*
X88518933Y-96352200D01*
X88630586Y-96341203D01*
X88773847Y-96297746D01*
X88905876Y-96227174D01*
X89021601Y-96132201D01*
X89045404Y-96103197D01*
X95335492Y-89813109D01*
X112858519Y-89813109D01*
X112979186Y-90043000D01*
X114173000Y-90043000D01*
X114173000Y-88849845D01*
X113943110Y-88728524D01*
X113795901Y-88773175D01*
X113533080Y-88898359D01*
X113299731Y-89072412D01*
X113104822Y-89288645D01*
X112955843Y-89538748D01*
X112858519Y-89813109D01*
X95335492Y-89813109D01*
X101633401Y-83515200D01*
X108605928Y-83515200D01*
X108618188Y-83639682D01*
X108654498Y-83759380D01*
X108713463Y-83869694D01*
X108792815Y-83966385D01*
X108889506Y-84045737D01*
X108999820Y-84104702D01*
X109119518Y-84141012D01*
X109244000Y-84153272D01*
X110458250Y-84150200D01*
X110617000Y-83991450D01*
X110617000Y-82880200D01*
X110871000Y-82880200D01*
X110871000Y-83991450D01*
X111029750Y-84150200D01*
X112244000Y-84153272D01*
X112368482Y-84141012D01*
X112488180Y-84104702D01*
X112598494Y-84045737D01*
X112695185Y-83966385D01*
X112774537Y-83869694D01*
X112833502Y-83759380D01*
X112869812Y-83639682D01*
X112882072Y-83515200D01*
X112879000Y-83038950D01*
X112720250Y-82880200D01*
X110871000Y-82880200D01*
X110617000Y-82880200D01*
X108767750Y-82880200D01*
X108609000Y-83038950D01*
X108605928Y-83515200D01*
X101633401Y-83515200D01*
X103157401Y-81991200D01*
X108605928Y-81991200D01*
X108609000Y-82467450D01*
X108767750Y-82626200D01*
X110617000Y-82626200D01*
X110617000Y-81514950D01*
X110871000Y-81514950D01*
X110871000Y-82626200D01*
X112720250Y-82626200D01*
X112879000Y-82467450D01*
X112882072Y-81991200D01*
X112869812Y-81866718D01*
X112833502Y-81747020D01*
X112774537Y-81636706D01*
X112695185Y-81540015D01*
X112598494Y-81460663D01*
X112488180Y-81401698D01*
X112368482Y-81365388D01*
X112244000Y-81353128D01*
X111029750Y-81356200D01*
X110871000Y-81514950D01*
X110617000Y-81514950D01*
X110458250Y-81356200D01*
X109244000Y-81353128D01*
X109119518Y-81365388D01*
X108999820Y-81401698D01*
X108889506Y-81460663D01*
X108792815Y-81540015D01*
X108713463Y-81636706D01*
X108654498Y-81747020D01*
X108618188Y-81866718D01*
X108605928Y-81991200D01*
X103157401Y-81991200D01*
X115723504Y-69425098D01*
X115752501Y-69401301D01*
X115847474Y-69285576D01*
X115918046Y-69153547D01*
X115961503Y-69010286D01*
X115972500Y-68898633D01*
X115972500Y-68898624D01*
X115976176Y-68861301D01*
X115972500Y-68823978D01*
X115972500Y-60875030D01*
X116102962Y-60767962D01*
X116213405Y-60633387D01*
X116295472Y-60479851D01*
X116346008Y-60313255D01*
X116363072Y-60140001D01*
X116363072Y-59239999D01*
X116346008Y-59066745D01*
X116295472Y-58900149D01*
X116213405Y-58746613D01*
X116102962Y-58612038D01*
X115968387Y-58501595D01*
X115814851Y-58419528D01*
X115648255Y-58368992D01*
X115475001Y-58351928D01*
X114949999Y-58351928D01*
X114776745Y-58368992D01*
X114610149Y-58419528D01*
X114456613Y-58501595D01*
X114322038Y-58612038D01*
X114300000Y-58638891D01*
X114277962Y-58612038D01*
X114147500Y-58504970D01*
X114147500Y-57742301D01*
X115923635Y-55966167D01*
X116068589Y-55995000D01*
X116341411Y-55995000D01*
X116608989Y-55941775D01*
X116713000Y-55898692D01*
X116713000Y-78740000D01*
X116715440Y-78764776D01*
X116722667Y-78788601D01*
X116734403Y-78810557D01*
X116750197Y-78829803D01*
X116769443Y-78845597D01*
X116791399Y-78857333D01*
X116815224Y-78864560D01*
X116840000Y-78867000D01*
X125220000Y-78867000D01*
X125220001Y-96825797D01*
X125205198Y-96840600D01*
X125143061Y-96840600D01*
X124943102Y-96880374D01*
X124754744Y-96958395D01*
X124585226Y-97071663D01*
X124441063Y-97215826D01*
X124327795Y-97385344D01*
X124249774Y-97573702D01*
X124210000Y-97773661D01*
X124210000Y-97977539D01*
X124249774Y-98177498D01*
X124327795Y-98365856D01*
X124441063Y-98535374D01*
X124585226Y-98679537D01*
X124754744Y-98792805D01*
X124943102Y-98870826D01*
X125143061Y-98910600D01*
X125346939Y-98910600D01*
X125546898Y-98870826D01*
X125735256Y-98792805D01*
X125904774Y-98679537D01*
X126048937Y-98535374D01*
X126162205Y-98365856D01*
X126240226Y-98177498D01*
X126280000Y-97977539D01*
X126280000Y-97915402D01*
X126491002Y-97704399D01*
X126520001Y-97680601D01*
X126607731Y-97573702D01*
X126614974Y-97564877D01*
X126685546Y-97432847D01*
X126699518Y-97386786D01*
X126729003Y-97289586D01*
X126740000Y-97177933D01*
X126740000Y-97177923D01*
X126743676Y-97140600D01*
X126740000Y-97103277D01*
X126740000Y-78867000D01*
X146177000Y-78867000D01*
X146177000Y-79248000D01*
X146179440Y-79272776D01*
X146186667Y-79296601D01*
X146198403Y-79318557D01*
X146214197Y-79337803D01*
X146233443Y-79353597D01*
X146255399Y-79365333D01*
X146279224Y-79372560D01*
X146304000Y-79375000D01*
X150368000Y-79375000D01*
X150392776Y-79372560D01*
X150416601Y-79365333D01*
X150438557Y-79353597D01*
X150457803Y-79337803D01*
X150473597Y-79318557D01*
X150485333Y-79296601D01*
X150492560Y-79272776D01*
X150495000Y-79248000D01*
X150495000Y-78867000D01*
X158090000Y-78867000D01*
X158090000Y-110460608D01*
X158017563Y-111272249D01*
X157810328Y-112029774D01*
X157472221Y-112738627D01*
X157013928Y-113376410D01*
X156449945Y-113922946D01*
X155798085Y-114360978D01*
X155078963Y-114676651D01*
X154310232Y-114861206D01*
X153645792Y-114910000D01*
X33049392Y-114910000D01*
X32237751Y-114837563D01*
X31480226Y-114630328D01*
X30771373Y-114292221D01*
X30133590Y-113833928D01*
X29587054Y-113269945D01*
X29149022Y-112618085D01*
X28833349Y-111898963D01*
X28648794Y-111130232D01*
X28600000Y-110465792D01*
X28600000Y-110279721D01*
X30885000Y-110279721D01*
X30885000Y-110700279D01*
X30967047Y-111112756D01*
X31127988Y-111501302D01*
X31361637Y-111850983D01*
X31659017Y-112148363D01*
X32008698Y-112382012D01*
X32397244Y-112542953D01*
X32809721Y-112625000D01*
X33230279Y-112625000D01*
X33642756Y-112542953D01*
X34031302Y-112382012D01*
X34380983Y-112148363D01*
X34678363Y-111850983D01*
X34912012Y-111501302D01*
X35072953Y-111112756D01*
X35155000Y-110700279D01*
X35155000Y-110279721D01*
X151535000Y-110279721D01*
X151535000Y-110700279D01*
X151617047Y-111112756D01*
X151777988Y-111501302D01*
X152011637Y-111850983D01*
X152309017Y-112148363D01*
X152658698Y-112382012D01*
X153047244Y-112542953D01*
X153459721Y-112625000D01*
X153880279Y-112625000D01*
X154292756Y-112542953D01*
X154681302Y-112382012D01*
X155030983Y-112148363D01*
X155328363Y-111850983D01*
X155562012Y-111501302D01*
X155722953Y-111112756D01*
X155805000Y-110700279D01*
X155805000Y-110279721D01*
X155722953Y-109867244D01*
X155562012Y-109478698D01*
X155328363Y-109129017D01*
X155030983Y-108831637D01*
X154681302Y-108597988D01*
X154292756Y-108437047D01*
X153880279Y-108355000D01*
X153459721Y-108355000D01*
X153047244Y-108437047D01*
X152658698Y-108597988D01*
X152309017Y-108831637D01*
X152011637Y-109129017D01*
X151777988Y-109478698D01*
X151617047Y-109867244D01*
X151535000Y-110279721D01*
X35155000Y-110279721D01*
X35072953Y-109867244D01*
X34912012Y-109478698D01*
X34678363Y-109129017D01*
X34380983Y-108831637D01*
X34031302Y-108597988D01*
X33642756Y-108437047D01*
X33230279Y-108355000D01*
X32809721Y-108355000D01*
X32397244Y-108437047D01*
X32008698Y-108597988D01*
X31659017Y-108831637D01*
X31361637Y-109129017D01*
X31127988Y-109478698D01*
X30967047Y-109867244D01*
X30885000Y-110279721D01*
X28600000Y-110279721D01*
X28600000Y-45749392D01*
X28621390Y-45509721D01*
X30885000Y-45509721D01*
X30885000Y-45930279D01*
X30967047Y-46342756D01*
X31127988Y-46731302D01*
X31361637Y-47080983D01*
X31659017Y-47378363D01*
X32008698Y-47612012D01*
X32397244Y-47772953D01*
X32809721Y-47855000D01*
X33230279Y-47855000D01*
X33642756Y-47772953D01*
X34031302Y-47612012D01*
X34380983Y-47378363D01*
X34678363Y-47080983D01*
X34912012Y-46731302D01*
X35072953Y-46342756D01*
X35155000Y-45930279D01*
X35155000Y-45509721D01*
X35072953Y-45097244D01*
X34912012Y-44708698D01*
X34678363Y-44359017D01*
X34380983Y-44061637D01*
X34031302Y-43827988D01*
X33642756Y-43667047D01*
X33230279Y-43585000D01*
X32809721Y-43585000D01*
X32397244Y-43667047D01*
X32008698Y-43827988D01*
X31659017Y-44061637D01*
X31361637Y-44359017D01*
X31127988Y-44708698D01*
X30967047Y-45097244D01*
X30885000Y-45509721D01*
X28621390Y-45509721D01*
X28672437Y-44937751D01*
X28879672Y-44180226D01*
X29217777Y-43471375D01*
X29676067Y-42833596D01*
X30240055Y-42287054D01*
X30891913Y-41849023D01*
X31611038Y-41533349D01*
X32379768Y-41348794D01*
X33044207Y-41300000D01*
X119059346Y-41300000D01*
X116717886Y-49495110D01*
%TA.AperFunction,Conductor*%
D27*
G36*
X116717886Y-49495110D02*
G01*
X116713000Y-49530000D01*
X116713000Y-53321308D01*
X116608989Y-53278225D01*
X116341411Y-53225000D01*
X116068589Y-53225000D01*
X115801011Y-53278225D01*
X115548957Y-53382629D01*
X115322114Y-53534201D01*
X115129201Y-53727114D01*
X115051445Y-53843483D01*
X115040812Y-53735518D01*
X115004502Y-53615820D01*
X114945537Y-53505506D01*
X114866185Y-53408815D01*
X114769494Y-53329463D01*
X114659180Y-53270498D01*
X114539482Y-53234188D01*
X114415000Y-53221928D01*
X113950750Y-53225000D01*
X113792000Y-53383750D01*
X113792000Y-54483000D01*
X113812000Y-54483000D01*
X113812000Y-54737000D01*
X113792000Y-54737000D01*
X113792000Y-55836250D01*
X113847974Y-55892224D01*
X112876498Y-56863701D01*
X112847500Y-56887499D01*
X112823702Y-56916497D01*
X112823701Y-56916498D01*
X112752526Y-57003224D01*
X112681954Y-57135254D01*
X112638498Y-57278515D01*
X112623824Y-57427500D01*
X112627501Y-57464832D01*
X112627501Y-58504970D01*
X112497038Y-58612038D01*
X112395000Y-58736371D01*
X112292962Y-58612038D01*
X112158387Y-58501595D01*
X112004851Y-58419528D01*
X111838255Y-58368992D01*
X111665001Y-58351928D01*
X111139999Y-58351928D01*
X110966745Y-58368992D01*
X110800149Y-58419528D01*
X110646613Y-58501595D01*
X110565363Y-58568276D01*
X110541185Y-58538815D01*
X110444494Y-58459463D01*
X110334180Y-58400498D01*
X110214482Y-58364188D01*
X110090000Y-58351928D01*
X109863250Y-58355000D01*
X109704500Y-58513750D01*
X109704500Y-59563000D01*
X109724500Y-59563000D01*
X109724500Y-59817000D01*
X109704500Y-59817000D01*
X109704500Y-60866250D01*
X109863250Y-61025000D01*
X110090000Y-61028072D01*
X110214482Y-61015812D01*
X110334180Y-60979502D01*
X110444494Y-60920537D01*
X110541185Y-60841185D01*
X110565363Y-60811724D01*
X110646613Y-60878405D01*
X110800149Y-60960472D01*
X110966745Y-61011008D01*
X111139999Y-61028072D01*
X111665001Y-61028072D01*
X111838255Y-61011008D01*
X112004851Y-60960472D01*
X112158387Y-60878405D01*
X112292962Y-60767962D01*
X112395000Y-60643629D01*
X112497038Y-60767962D01*
X112631613Y-60878405D01*
X112785149Y-60960472D01*
X112951745Y-61011008D01*
X113124999Y-61028072D01*
X113650001Y-61028072D01*
X113823255Y-61011008D01*
X113989851Y-60960472D01*
X114143387Y-60878405D01*
X114277962Y-60767962D01*
X114300000Y-60741109D01*
X114322038Y-60767962D01*
X114452501Y-60875030D01*
X114452500Y-68546498D01*
X100648452Y-82350547D01*
X100526120Y-82167465D01*
X100331535Y-81972880D01*
X100102727Y-81819995D01*
X99848490Y-81714686D01*
X99578592Y-81661000D01*
X99303408Y-81661000D01*
X99033510Y-81714686D01*
X98779273Y-81819995D01*
X98550465Y-81972880D01*
X98355880Y-82167465D01*
X98202995Y-82396273D01*
X98097686Y-82650510D01*
X98044000Y-82920408D01*
X98044000Y-83195592D01*
X98097686Y-83465490D01*
X98202995Y-83719727D01*
X98355880Y-83948535D01*
X98550465Y-84143120D01*
X98733547Y-84265452D01*
X88166799Y-94832200D01*
X79083474Y-94832200D01*
X79091498Y-94820192D01*
X79150464Y-94709875D01*
X79187973Y-94619319D01*
X79224282Y-94499623D01*
X79243404Y-94403490D01*
X79255664Y-94279009D01*
X79255664Y-94254450D01*
X79258072Y-94230000D01*
X79258072Y-93730000D01*
X79255664Y-93705550D01*
X79255664Y-93680991D01*
X79243404Y-93556510D01*
X79224282Y-93460377D01*
X79187973Y-93340681D01*
X79150464Y-93250125D01*
X79091498Y-93139808D01*
X79037042Y-93058309D01*
X78957690Y-92961618D01*
X78888382Y-92892310D01*
X78791691Y-92812958D01*
X78710192Y-92758502D01*
X78599875Y-92699536D01*
X78509319Y-92662027D01*
X78389623Y-92625718D01*
X78293490Y-92606596D01*
X78169009Y-92594336D01*
X78144450Y-92594336D01*
X78120000Y-92591928D01*
X77620000Y-92591928D01*
X77495518Y-92604188D01*
X77470000Y-92611929D01*
X77444482Y-92604188D01*
X77320000Y-92591928D01*
X76820000Y-92591928D01*
X76795550Y-92594336D01*
X76770991Y-92594336D01*
X76646510Y-92606596D01*
X76550377Y-92625718D01*
X76430681Y-92662027D01*
X76340125Y-92699536D01*
X76229808Y-92758502D01*
X76148309Y-92812958D01*
X76051618Y-92892310D01*
X75982310Y-92961618D01*
X75902958Y-93058309D01*
X75848502Y-93139808D01*
X75805638Y-93220000D01*
X68473203Y-93220000D01*
X67770502Y-92517300D01*
X75195378Y-92517300D01*
X75232700Y-92520976D01*
X75270022Y-92517300D01*
X75270033Y-92517300D01*
X75381686Y-92506303D01*
X75524947Y-92462846D01*
X75656976Y-92392274D01*
X75772701Y-92297301D01*
X75796504Y-92268297D01*
X76542814Y-91521988D01*
X76550377Y-91524282D01*
X76646510Y-91543404D01*
X76770991Y-91555664D01*
X76795550Y-91555664D01*
X76820000Y-91558072D01*
X77320000Y-91558072D01*
X77444482Y-91545812D01*
X77470000Y-91538071D01*
X77495518Y-91545812D01*
X77620000Y-91558072D01*
X78120000Y-91558072D01*
X78144450Y-91555664D01*
X78169009Y-91555664D01*
X78293490Y-91543404D01*
X78389623Y-91524282D01*
X78509319Y-91487973D01*
X78599875Y-91450464D01*
X78710192Y-91391498D01*
X78791691Y-91337042D01*
X78888382Y-91257690D01*
X78957690Y-91188382D01*
X79037042Y-91091691D01*
X79091498Y-91010192D01*
X79150464Y-90899875D01*
X79187973Y-90809319D01*
X79224282Y-90689623D01*
X79243404Y-90593490D01*
X79255664Y-90469009D01*
X79255664Y-90444450D01*
X79258072Y-90420000D01*
X79258072Y-90106729D01*
X86444393Y-82920408D01*
X87376000Y-82920408D01*
X87376000Y-83195592D01*
X87429686Y-83465490D01*
X87534995Y-83719727D01*
X87687880Y-83948535D01*
X87882465Y-84143120D01*
X88111273Y-84296005D01*
X88365510Y-84401314D01*
X88635408Y-84455000D01*
X88910592Y-84455000D01*
X89180490Y-84401314D01*
X89434727Y-84296005D01*
X89663535Y-84143120D01*
X89858120Y-83948535D01*
X90011005Y-83719727D01*
X90116314Y-83465490D01*
X90170000Y-83195592D01*
X90170000Y-82920408D01*
X90932000Y-82920408D01*
X90932000Y-83195592D01*
X90985686Y-83465490D01*
X91090995Y-83719727D01*
X91243880Y-83948535D01*
X91438465Y-84143120D01*
X91667273Y-84296005D01*
X91921510Y-84401314D01*
X92191408Y-84455000D01*
X92466592Y-84455000D01*
X92736490Y-84401314D01*
X92990727Y-84296005D01*
X93219535Y-84143120D01*
X93414120Y-83948535D01*
X93567005Y-83719727D01*
X93672314Y-83465490D01*
X93726000Y-83195592D01*
X93726000Y-82920408D01*
X94488000Y-82920408D01*
X94488000Y-83195592D01*
X94541686Y-83465490D01*
X94646995Y-83719727D01*
X94799880Y-83948535D01*
X94994465Y-84143120D01*
X95223273Y-84296005D01*
X95477510Y-84401314D01*
X95747408Y-84455000D01*
X96022592Y-84455000D01*
X96292490Y-84401314D01*
X96546727Y-84296005D01*
X96775535Y-84143120D01*
X96970120Y-83948535D01*
X97123005Y-83719727D01*
X97228314Y-83465490D01*
X97282000Y-83195592D01*
X97282000Y-82920408D01*
X97228314Y-82650510D01*
X97123005Y-82396273D01*
X96970120Y-82167465D01*
X96775535Y-81972880D01*
X96546727Y-81819995D01*
X96292490Y-81714686D01*
X96022592Y-81661000D01*
X95747408Y-81661000D01*
X95477510Y-81714686D01*
X95223273Y-81819995D01*
X94994465Y-81972880D01*
X94799880Y-82167465D01*
X94646995Y-82396273D01*
X94541686Y-82650510D01*
X94488000Y-82920408D01*
X93726000Y-82920408D01*
X93672314Y-82650510D01*
X93567005Y-82396273D01*
X93414120Y-82167465D01*
X93219535Y-81972880D01*
X92990727Y-81819995D01*
X92736490Y-81714686D01*
X92466592Y-81661000D01*
X92191408Y-81661000D01*
X91921510Y-81714686D01*
X91667273Y-81819995D01*
X91438465Y-81972880D01*
X91243880Y-82167465D01*
X91090995Y-82396273D01*
X90985686Y-82650510D01*
X90932000Y-82920408D01*
X90170000Y-82920408D01*
X90116314Y-82650510D01*
X90011005Y-82396273D01*
X89858120Y-82167465D01*
X89663535Y-81972880D01*
X89434727Y-81819995D01*
X89180490Y-81714686D01*
X88910592Y-81661000D01*
X88635408Y-81661000D01*
X88365510Y-81714686D01*
X88111273Y-81819995D01*
X87882465Y-81972880D01*
X87687880Y-82167465D01*
X87534995Y-82396273D01*
X87429686Y-82650510D01*
X87376000Y-82920408D01*
X86444393Y-82920408D01*
X95761003Y-73603799D01*
X95790001Y-73580001D01*
X95884974Y-73464276D01*
X95955546Y-73332247D01*
X95999003Y-73188986D01*
X96010000Y-73077333D01*
X96010000Y-73077324D01*
X96013676Y-73040001D01*
X96010000Y-73002678D01*
X96010000Y-62132341D01*
X96140535Y-62045120D01*
X96335120Y-61850535D01*
X96488005Y-61621727D01*
X96520000Y-61544485D01*
X96551995Y-61621727D01*
X96704880Y-61850535D01*
X96899465Y-62045120D01*
X97128273Y-62198005D01*
X97382510Y-62303314D01*
X97652408Y-62357000D01*
X97927592Y-62357000D01*
X98197490Y-62303314D01*
X98451727Y-62198005D01*
X98680535Y-62045120D01*
X98875120Y-61850535D01*
X99028005Y-61621727D01*
X99060000Y-61544485D01*
X99091995Y-61621727D01*
X99244880Y-61850535D01*
X99439465Y-62045120D01*
X99668273Y-62198005D01*
X99922510Y-62303314D01*
X100192408Y-62357000D01*
X100467592Y-62357000D01*
X100737490Y-62303314D01*
X100991727Y-62198005D01*
X101220535Y-62045120D01*
X101415120Y-61850535D01*
X101568005Y-61621727D01*
X101600000Y-61544485D01*
X101631995Y-61621727D01*
X101784880Y-61850535D01*
X101979465Y-62045120D01*
X102208273Y-62198005D01*
X102462510Y-62303314D01*
X102732408Y-62357000D01*
X103007592Y-62357000D01*
X103277490Y-62303314D01*
X103531727Y-62198005D01*
X103760535Y-62045120D01*
X103955120Y-61850535D01*
X104108005Y-61621727D01*
X104213314Y-61367490D01*
X104267000Y-61097592D01*
X104267000Y-60822408D01*
X104213314Y-60552510D01*
X104146000Y-60390000D01*
X108426928Y-60390000D01*
X108439188Y-60514482D01*
X108475498Y-60634180D01*
X108534463Y-60744494D01*
X108613815Y-60841185D01*
X108710506Y-60920537D01*
X108820820Y-60979502D01*
X108940518Y-61015812D01*
X109065000Y-61028072D01*
X109291750Y-61025000D01*
X109450500Y-60866250D01*
X109450500Y-59817000D01*
X108588750Y-59817000D01*
X108430000Y-59975750D01*
X108426928Y-60390000D01*
X104146000Y-60390000D01*
X104108005Y-60298273D01*
X103955120Y-60069465D01*
X103760535Y-59874880D01*
X103531727Y-59721995D01*
X103277490Y-59616686D01*
X103007592Y-59563000D01*
X102732408Y-59563000D01*
X102462510Y-59616686D01*
X102208273Y-59721995D01*
X101979465Y-59874880D01*
X101784880Y-60069465D01*
X101631995Y-60298273D01*
X101600000Y-60375515D01*
X101568005Y-60298273D01*
X101415120Y-60069465D01*
X101220535Y-59874880D01*
X100991727Y-59721995D01*
X100737490Y-59616686D01*
X100467592Y-59563000D01*
X100192408Y-59563000D01*
X99922510Y-59616686D01*
X99668273Y-59721995D01*
X99439465Y-59874880D01*
X99244880Y-60069465D01*
X99091995Y-60298273D01*
X99060000Y-60375515D01*
X99028005Y-60298273D01*
X98875120Y-60069465D01*
X98680535Y-59874880D01*
X98451727Y-59721995D01*
X98197490Y-59616686D01*
X97927592Y-59563000D01*
X97652408Y-59563000D01*
X97382510Y-59616686D01*
X97128273Y-59721995D01*
X96899465Y-59874880D01*
X96704880Y-60069465D01*
X96551995Y-60298273D01*
X96520000Y-60375515D01*
X96488005Y-60298273D01*
X96335120Y-60069465D01*
X96140535Y-59874880D01*
X95911727Y-59721995D01*
X95657490Y-59616686D01*
X95387592Y-59563000D01*
X95112408Y-59563000D01*
X94842510Y-59616686D01*
X94588273Y-59721995D01*
X94359465Y-59874880D01*
X94164880Y-60069465D01*
X94011995Y-60298273D01*
X93980000Y-60375515D01*
X93948005Y-60298273D01*
X93795120Y-60069465D01*
X93600535Y-59874880D01*
X93371727Y-59721995D01*
X93117490Y-59616686D01*
X92847592Y-59563000D01*
X92572408Y-59563000D01*
X92302510Y-59616686D01*
X92048273Y-59721995D01*
X91819465Y-59874880D01*
X91624880Y-60069465D01*
X91471995Y-60298273D01*
X91440000Y-60375515D01*
X91408005Y-60298273D01*
X91255120Y-60069465D01*
X91060535Y-59874880D01*
X90930000Y-59787659D01*
X90930000Y-58990000D01*
X108426928Y-58990000D01*
X108430000Y-59404250D01*
X108588750Y-59563000D01*
X109450500Y-59563000D01*
X109450500Y-58513750D01*
X109291750Y-58355000D01*
X109065000Y-58351928D01*
X108940518Y-58364188D01*
X108820820Y-58400498D01*
X108710506Y-58459463D01*
X108613815Y-58538815D01*
X108534463Y-58635506D01*
X108475498Y-58745820D01*
X108439188Y-58865518D01*
X108426928Y-58990000D01*
X90930000Y-58990000D01*
X90930000Y-56924362D01*
X91010192Y-56881498D01*
X91091691Y-56827042D01*
X91188382Y-56747690D01*
X91257690Y-56678382D01*
X91337042Y-56581691D01*
X91391498Y-56500192D01*
X91450464Y-56389875D01*
X91487973Y-56299319D01*
X91524282Y-56179623D01*
X91543404Y-56083490D01*
X91555664Y-55959009D01*
X91555664Y-55934450D01*
X91558072Y-55910000D01*
X91558072Y-55410000D01*
X91554132Y-55370000D01*
X95416928Y-55370000D01*
X95416928Y-55710000D01*
X95429188Y-55834482D01*
X95465498Y-55954180D01*
X95524463Y-56064494D01*
X95603815Y-56161185D01*
X95700506Y-56240537D01*
X95810820Y-56299502D01*
X95930518Y-56335812D01*
X96055000Y-56348072D01*
X98255000Y-56348072D01*
X98379482Y-56335812D01*
X98499180Y-56299502D01*
X98609494Y-56240537D01*
X98706185Y-56161185D01*
X98785537Y-56064494D01*
X98844502Y-55954180D01*
X98880812Y-55834482D01*
X98893072Y-55710000D01*
X98893072Y-54439117D01*
X108120000Y-54439117D01*
X108120000Y-54780883D01*
X108186675Y-55116081D01*
X108317463Y-55431831D01*
X108507337Y-55715998D01*
X108749002Y-55957663D01*
X109033169Y-56147537D01*
X109348919Y-56278325D01*
X109684117Y-56345000D01*
X110025883Y-56345000D01*
X110361081Y-56278325D01*
X110676831Y-56147537D01*
X110960998Y-55957663D01*
X111202663Y-55715998D01*
X111392537Y-55431831D01*
X111422290Y-55360000D01*
X112276928Y-55360000D01*
X112289188Y-55484482D01*
X112325498Y-55604180D01*
X112384463Y-55714494D01*
X112463815Y-55811185D01*
X112560506Y-55890537D01*
X112670820Y-55949502D01*
X112790518Y-55985812D01*
X112915000Y-55998072D01*
X113379250Y-55995000D01*
X113538000Y-55836250D01*
X113538000Y-54737000D01*
X112438750Y-54737000D01*
X112280000Y-54895750D01*
X112276928Y-55360000D01*
X111422290Y-55360000D01*
X111523325Y-55116081D01*
X111590000Y-54780883D01*
X111590000Y-54439117D01*
X111523325Y-54103919D01*
X111422291Y-53860000D01*
X112276928Y-53860000D01*
X112280000Y-54324250D01*
X112438750Y-54483000D01*
X113538000Y-54483000D01*
X113538000Y-53383750D01*
X113379250Y-53225000D01*
X112915000Y-53221928D01*
X112790518Y-53234188D01*
X112670820Y-53270498D01*
X112560506Y-53329463D01*
X112463815Y-53408815D01*
X112384463Y-53505506D01*
X112325498Y-53615820D01*
X112289188Y-53735518D01*
X112276928Y-53860000D01*
X111422291Y-53860000D01*
X111392537Y-53788169D01*
X111202663Y-53504002D01*
X110960998Y-53262337D01*
X110676831Y-53072463D01*
X110361081Y-52941675D01*
X110025883Y-52875000D01*
X109684117Y-52875000D01*
X109348919Y-52941675D01*
X109033169Y-53072463D01*
X108749002Y-53262337D01*
X108507337Y-53504002D01*
X108317463Y-53788169D01*
X108186675Y-54103919D01*
X108120000Y-54439117D01*
X98893072Y-54439117D01*
X98893072Y-53510000D01*
X98880812Y-53385518D01*
X98844502Y-53265820D01*
X98785537Y-53155506D01*
X98706185Y-53058815D01*
X98609494Y-52979463D01*
X98499180Y-52920498D01*
X98379482Y-52884188D01*
X98255000Y-52871928D01*
X96055000Y-52871928D01*
X95930518Y-52884188D01*
X95810820Y-52920498D01*
X95700506Y-52979463D01*
X95603815Y-53058815D01*
X95524463Y-53155506D01*
X95465498Y-53265820D01*
X95429188Y-53385518D01*
X95416928Y-53510000D01*
X95416928Y-53850000D01*
X91264569Y-53850000D01*
X91257690Y-53841618D01*
X91188382Y-53772310D01*
X91091691Y-53692958D01*
X91010192Y-53638502D01*
X90899875Y-53579536D01*
X90809319Y-53542027D01*
X90689623Y-53505718D01*
X90593490Y-53486596D01*
X90469009Y-53474336D01*
X90444450Y-53474336D01*
X90420000Y-53471928D01*
X89920000Y-53471928D01*
X89895550Y-53474336D01*
X89870991Y-53474336D01*
X89746510Y-53486596D01*
X89650377Y-53505718D01*
X89530681Y-53542027D01*
X89440125Y-53579536D01*
X89329808Y-53638502D01*
X89248309Y-53692958D01*
X89151618Y-53772310D01*
X89082310Y-53841618D01*
X89002958Y-53938309D01*
X88948502Y-54019808D01*
X88889536Y-54130125D01*
X88852027Y-54220681D01*
X88815718Y-54340377D01*
X88796596Y-54436510D01*
X88792205Y-54481093D01*
X84775199Y-58498100D01*
X69510666Y-58498100D01*
X69505703Y-58447714D01*
X69462246Y-58304453D01*
X69391674Y-58172424D01*
X69296701Y-58056699D01*
X69267704Y-58032902D01*
X68676372Y-57441570D01*
X68707000Y-57287592D01*
X68707000Y-57012408D01*
X68653314Y-56742510D01*
X68548005Y-56488273D01*
X68395120Y-56259465D01*
X68200535Y-56064880D01*
X67971727Y-55911995D01*
X67717490Y-55806686D01*
X67447592Y-55753000D01*
X67172408Y-55753000D01*
X66902510Y-55806686D01*
X66648273Y-55911995D01*
X66419465Y-56064880D01*
X66224880Y-56259465D01*
X66071995Y-56488273D01*
X65966686Y-56742510D01*
X65913000Y-57012408D01*
X65913000Y-57287592D01*
X65966686Y-57557490D01*
X66071995Y-57811727D01*
X66224880Y-58040535D01*
X66419465Y-58235120D01*
X66648273Y-58388005D01*
X66719943Y-58417692D01*
X66706977Y-58422364D01*
X66591020Y-58484344D01*
X66524040Y-58724435D01*
X67310000Y-59510395D01*
X67324143Y-59496253D01*
X67503748Y-59675858D01*
X67489605Y-59690000D01*
X67503748Y-59704143D01*
X67324143Y-59883748D01*
X67310000Y-59869605D01*
X66524040Y-60655565D01*
X66591020Y-60895656D01*
X66726760Y-60959485D01*
X66648273Y-60991995D01*
X66419465Y-61144880D01*
X66224880Y-61339465D01*
X66071995Y-61568273D01*
X65966686Y-61822510D01*
X65960651Y-61852850D01*
X64223404Y-60115603D01*
X64199601Y-60086599D01*
X64083876Y-59991626D01*
X63951847Y-59921054D01*
X63808586Y-59877597D01*
X63696933Y-59866600D01*
X63696922Y-59866600D01*
X63659600Y-59862924D01*
X63622278Y-59866600D01*
X63481402Y-59866600D01*
X63376819Y-59762017D01*
X65908090Y-59762017D01*
X65949078Y-60034133D01*
X66042364Y-60293023D01*
X66104344Y-60408980D01*
X66344435Y-60475960D01*
X67130395Y-59690000D01*
X66344435Y-58904040D01*
X66104344Y-58971020D01*
X65987244Y-59220048D01*
X65920977Y-59487135D01*
X65908090Y-59762017D01*
X63376819Y-59762017D01*
X61523804Y-57909003D01*
X61500001Y-57879999D01*
X61384276Y-57785026D01*
X61252247Y-57714454D01*
X61108986Y-57670997D01*
X60997333Y-57660000D01*
X60997322Y-57660000D01*
X60960000Y-57656324D01*
X60922678Y-57660000D01*
X34327322Y-57660000D01*
X34289999Y-57656324D01*
X34252676Y-57660000D01*
X34252667Y-57660000D01*
X34141014Y-57670997D01*
X33997753Y-57714454D01*
X33865724Y-57785026D01*
X33865722Y-57785027D01*
X33865723Y-57785027D01*
X33778996Y-57856201D01*
X33778992Y-57856205D01*
X33749999Y-57879999D01*
X33726205Y-57908992D01*
X31239003Y-60396196D01*
X31209999Y-60419999D01*
X31162716Y-60477614D01*
X31115026Y-60535724D01*
X31062824Y-60633387D01*
X31044454Y-60667754D01*
X31000997Y-60811015D01*
X30990000Y-60922668D01*
X30990000Y-60922678D01*
X30986324Y-60960000D01*
X30990000Y-60997322D01*
X30990001Y-99361429D01*
X30986324Y-99398762D01*
X30990001Y-99436095D01*
X30994747Y-99484276D01*
X31000998Y-99547747D01*
X31044454Y-99691008D01*
X31115026Y-99823038D01*
X31186201Y-99909764D01*
X31210000Y-99938763D01*
X31238998Y-99962561D01*
X34478439Y-103202003D01*
X34502237Y-103231001D01*
X34617962Y-103325974D01*
X34749991Y-103396546D01*
X34893252Y-103440003D01*
X35004905Y-103451000D01*
X35004913Y-103451000D01*
X35042238Y-103454676D01*
X35079563Y-103451000D01*
X36880218Y-103451000D01*
X36861995Y-103478273D01*
X36756686Y-103732510D01*
X36703000Y-104002408D01*
X36703000Y-104277592D01*
X36756686Y-104547490D01*
X36861995Y-104801727D01*
X37014880Y-105030535D01*
X37209465Y-105225120D01*
X37438273Y-105378005D01*
X37692510Y-105483314D01*
X37962408Y-105537000D01*
X38237592Y-105537000D01*
X38507490Y-105483314D01*
X38761727Y-105378005D01*
X38990535Y-105225120D01*
X39110090Y-105105565D01*
X60174040Y-105105565D01*
X60241020Y-105345656D01*
X60490048Y-105462756D01*
X60757135Y-105529023D01*
X61032017Y-105541910D01*
X61304133Y-105500922D01*
X61563023Y-105407636D01*
X61678980Y-105345656D01*
X61745960Y-105105565D01*
X60960000Y-104319605D01*
X60174040Y-105105565D01*
X39110090Y-105105565D01*
X39185120Y-105030535D01*
X39338005Y-104801727D01*
X39443314Y-104547490D01*
X39497000Y-104277592D01*
X39497000Y-104002408D01*
X39443314Y-103732510D01*
X39338005Y-103478273D01*
X39319782Y-103451000D01*
X59740247Y-103451000D01*
X59637244Y-103670048D01*
X59570977Y-103937135D01*
X59558090Y-104212017D01*
X59599078Y-104484133D01*
X59692364Y-104743023D01*
X59754344Y-104858980D01*
X59994435Y-104925960D01*
X60780395Y-104140000D01*
X61139605Y-104140000D01*
X61925565Y-104925960D01*
X62165656Y-104858980D01*
X62282756Y-104609952D01*
X62349023Y-104342865D01*
X62361910Y-104067983D01*
X62320922Y-103795867D01*
X62227636Y-103536977D01*
X62165656Y-103421020D01*
X61925565Y-103354040D01*
X61139605Y-104140000D01*
X60780395Y-104140000D01*
X60766253Y-104125858D01*
X60945858Y-103946253D01*
X60960000Y-103960395D01*
X61745960Y-103174435D01*
X61678980Y-102934344D01*
X61543240Y-102870515D01*
X61621727Y-102838005D01*
X61850535Y-102685120D01*
X62045120Y-102490535D01*
X62198005Y-102261727D01*
X62303314Y-102007490D01*
X62357000Y-101737592D01*
X62357000Y-101462408D01*
X62303314Y-101192510D01*
X62198005Y-100938273D01*
X62045120Y-100709465D01*
X61850535Y-100514880D01*
X61621727Y-100361995D01*
X61544485Y-100330000D01*
X61621727Y-100298005D01*
X61850535Y-100145120D01*
X62045120Y-99950535D01*
X62132341Y-99820000D01*
X107104678Y-99820000D01*
X107142000Y-99823676D01*
X107179322Y-99820000D01*
X107179333Y-99820000D01*
X107290986Y-99809003D01*
X107434247Y-99765546D01*
X107566276Y-99694974D01*
X107682001Y-99600001D01*
X107705804Y-99570997D01*
X115694651Y-91582151D01*
X115745820Y-91609502D01*
X115865518Y-91645812D01*
X115990000Y-91658072D01*
X117690000Y-91658072D01*
X117814482Y-91645812D01*
X117934180Y-91609502D01*
X118044494Y-91550537D01*
X118141185Y-91471185D01*
X118220537Y-91374494D01*
X118279502Y-91264180D01*
X118315812Y-91144482D01*
X118328072Y-91020000D01*
X118328072Y-89320000D01*
X118315812Y-89195518D01*
X118279502Y-89075820D01*
X118220537Y-88965506D01*
X118141185Y-88868815D01*
X118044494Y-88789463D01*
X117934180Y-88730498D01*
X117814482Y-88694188D01*
X117690000Y-88681928D01*
X117600000Y-88681928D01*
X117600000Y-87304901D01*
X120500603Y-84404299D01*
X120529601Y-84380501D01*
X120574064Y-84326323D01*
X120624574Y-84264777D01*
X120684175Y-84153272D01*
X121489600Y-84153272D01*
X121614082Y-84141012D01*
X121733780Y-84104702D01*
X121844094Y-84045737D01*
X121940785Y-83966385D01*
X122020137Y-83869694D01*
X122079102Y-83759380D01*
X122115412Y-83639682D01*
X122127672Y-83515200D01*
X122127672Y-81991200D01*
X122115412Y-81866718D01*
X122079102Y-81747020D01*
X122020137Y-81636706D01*
X121940785Y-81540015D01*
X121844094Y-81460663D01*
X121733780Y-81401698D01*
X121614082Y-81365388D01*
X121489600Y-81353128D01*
X118489600Y-81353128D01*
X118365118Y-81365388D01*
X118245420Y-81401698D01*
X118135106Y-81460663D01*
X118038415Y-81540015D01*
X117959063Y-81636706D01*
X117900098Y-81747020D01*
X117863788Y-81866718D01*
X117851528Y-81991200D01*
X117851528Y-83515200D01*
X117863788Y-83639682D01*
X117900098Y-83759380D01*
X117959063Y-83869694D01*
X118038415Y-83966385D01*
X118135106Y-84045737D01*
X118245420Y-84104702D01*
X118365118Y-84141012D01*
X118489600Y-84153272D01*
X118602026Y-84153272D01*
X116328998Y-86426301D01*
X116300000Y-86450099D01*
X116276202Y-86479097D01*
X116276201Y-86479098D01*
X116205026Y-86565824D01*
X116134454Y-86697854D01*
X116090998Y-86841115D01*
X116076324Y-86990100D01*
X116080001Y-87027432D01*
X116080000Y-88681928D01*
X115990000Y-88681928D01*
X115865518Y-88694188D01*
X115745820Y-88730498D01*
X115635506Y-88789463D01*
X115538815Y-88868815D01*
X115459463Y-88965506D01*
X115400498Y-89075820D01*
X115376034Y-89156466D01*
X115300269Y-89072412D01*
X115066920Y-88898359D01*
X114804099Y-88773175D01*
X114656890Y-88728524D01*
X114427000Y-88849845D01*
X114427000Y-90043000D01*
X114447000Y-90043000D01*
X114447000Y-90297000D01*
X114427000Y-90297000D01*
X114427000Y-90317000D01*
X114173000Y-90317000D01*
X114173000Y-90297000D01*
X112979186Y-90297000D01*
X112858519Y-90526891D01*
X112955843Y-90801252D01*
X113104822Y-91051355D01*
X113299731Y-91267588D01*
X113533080Y-91441641D01*
X113636363Y-91490835D01*
X106827199Y-98300000D01*
X62132341Y-98300000D01*
X62045120Y-98169465D01*
X61850535Y-97974880D01*
X61621727Y-97821995D01*
X61544485Y-97790000D01*
X61621727Y-97758005D01*
X61850535Y-97605120D01*
X62045120Y-97410535D01*
X62198005Y-97181727D01*
X62303314Y-96927490D01*
X62357000Y-96657592D01*
X62357000Y-96451802D01*
X63654001Y-97748803D01*
X63677799Y-97777801D01*
X63706797Y-97801599D01*
X63793523Y-97872774D01*
X63925553Y-97943346D01*
X64068814Y-97986803D01*
X64180467Y-97997800D01*
X64180477Y-97997800D01*
X64217800Y-98001476D01*
X64255123Y-97997800D01*
X96611289Y-97997800D01*
X96655226Y-98041737D01*
X96824744Y-98155005D01*
X97013102Y-98233026D01*
X97213061Y-98272800D01*
X97416939Y-98272800D01*
X97616898Y-98233026D01*
X97805256Y-98155005D01*
X97974774Y-98041737D01*
X98118937Y-97897574D01*
X98232205Y-97728056D01*
X98310226Y-97539698D01*
X98350000Y-97339739D01*
X98350000Y-97135861D01*
X98310226Y-96935902D01*
X98232205Y-96747544D01*
X98118937Y-96578026D01*
X97974774Y-96433863D01*
X97805256Y-96320595D01*
X97616898Y-96242574D01*
X97416939Y-96202800D01*
X97213061Y-96202800D01*
X97013102Y-96242574D01*
X96824744Y-96320595D01*
X96655226Y-96433863D01*
X96611289Y-96477800D01*
X64532602Y-96477800D01*
X64407002Y-96352200D01*
X88444278Y-96352200D01*
X88481600Y-96355876D01*
X88518922Y-96352200D01*
X88518933Y-96352200D01*
X88630586Y-96341203D01*
X88773847Y-96297746D01*
X88905876Y-96227174D01*
X89021601Y-96132201D01*
X89045404Y-96103197D01*
X95335492Y-89813109D01*
X112858519Y-89813109D01*
X112979186Y-90043000D01*
X114173000Y-90043000D01*
X114173000Y-88849845D01*
X113943110Y-88728524D01*
X113795901Y-88773175D01*
X113533080Y-88898359D01*
X113299731Y-89072412D01*
X113104822Y-89288645D01*
X112955843Y-89538748D01*
X112858519Y-89813109D01*
X95335492Y-89813109D01*
X101633401Y-83515200D01*
X108605928Y-83515200D01*
X108618188Y-83639682D01*
X108654498Y-83759380D01*
X108713463Y-83869694D01*
X108792815Y-83966385D01*
X108889506Y-84045737D01*
X108999820Y-84104702D01*
X109119518Y-84141012D01*
X109244000Y-84153272D01*
X110458250Y-84150200D01*
X110617000Y-83991450D01*
X110617000Y-82880200D01*
X110871000Y-82880200D01*
X110871000Y-83991450D01*
X111029750Y-84150200D01*
X112244000Y-84153272D01*
X112368482Y-84141012D01*
X112488180Y-84104702D01*
X112598494Y-84045737D01*
X112695185Y-83966385D01*
X112774537Y-83869694D01*
X112833502Y-83759380D01*
X112869812Y-83639682D01*
X112882072Y-83515200D01*
X112879000Y-83038950D01*
X112720250Y-82880200D01*
X110871000Y-82880200D01*
X110617000Y-82880200D01*
X108767750Y-82880200D01*
X108609000Y-83038950D01*
X108605928Y-83515200D01*
X101633401Y-83515200D01*
X103157401Y-81991200D01*
X108605928Y-81991200D01*
X108609000Y-82467450D01*
X108767750Y-82626200D01*
X110617000Y-82626200D01*
X110617000Y-81514950D01*
X110871000Y-81514950D01*
X110871000Y-82626200D01*
X112720250Y-82626200D01*
X112879000Y-82467450D01*
X112882072Y-81991200D01*
X112869812Y-81866718D01*
X112833502Y-81747020D01*
X112774537Y-81636706D01*
X112695185Y-81540015D01*
X112598494Y-81460663D01*
X112488180Y-81401698D01*
X112368482Y-81365388D01*
X112244000Y-81353128D01*
X111029750Y-81356200D01*
X110871000Y-81514950D01*
X110617000Y-81514950D01*
X110458250Y-81356200D01*
X109244000Y-81353128D01*
X109119518Y-81365388D01*
X108999820Y-81401698D01*
X108889506Y-81460663D01*
X108792815Y-81540015D01*
X108713463Y-81636706D01*
X108654498Y-81747020D01*
X108618188Y-81866718D01*
X108605928Y-81991200D01*
X103157401Y-81991200D01*
X115723504Y-69425098D01*
X115752501Y-69401301D01*
X115847474Y-69285576D01*
X115918046Y-69153547D01*
X115961503Y-69010286D01*
X115972500Y-68898633D01*
X115972500Y-68898624D01*
X115976176Y-68861301D01*
X115972500Y-68823978D01*
X115972500Y-60875030D01*
X116102962Y-60767962D01*
X116213405Y-60633387D01*
X116295472Y-60479851D01*
X116346008Y-60313255D01*
X116363072Y-60140001D01*
X116363072Y-59239999D01*
X116346008Y-59066745D01*
X116295472Y-58900149D01*
X116213405Y-58746613D01*
X116102962Y-58612038D01*
X115968387Y-58501595D01*
X115814851Y-58419528D01*
X115648255Y-58368992D01*
X115475001Y-58351928D01*
X114949999Y-58351928D01*
X114776745Y-58368992D01*
X114610149Y-58419528D01*
X114456613Y-58501595D01*
X114322038Y-58612038D01*
X114300000Y-58638891D01*
X114277962Y-58612038D01*
X114147500Y-58504970D01*
X114147500Y-57742301D01*
X115923635Y-55966167D01*
X116068589Y-55995000D01*
X116341411Y-55995000D01*
X116608989Y-55941775D01*
X116713000Y-55898692D01*
X116713000Y-78740000D01*
X116715440Y-78764776D01*
X116722667Y-78788601D01*
X116734403Y-78810557D01*
X116750197Y-78829803D01*
X116769443Y-78845597D01*
X116791399Y-78857333D01*
X116815224Y-78864560D01*
X116840000Y-78867000D01*
X125220000Y-78867000D01*
X125220001Y-96825797D01*
X125205198Y-96840600D01*
X125143061Y-96840600D01*
X124943102Y-96880374D01*
X124754744Y-96958395D01*
X124585226Y-97071663D01*
X124441063Y-97215826D01*
X124327795Y-97385344D01*
X124249774Y-97573702D01*
X124210000Y-97773661D01*
X124210000Y-97977539D01*
X124249774Y-98177498D01*
X124327795Y-98365856D01*
X124441063Y-98535374D01*
X124585226Y-98679537D01*
X124754744Y-98792805D01*
X124943102Y-98870826D01*
X125143061Y-98910600D01*
X125346939Y-98910600D01*
X125546898Y-98870826D01*
X125735256Y-98792805D01*
X125904774Y-98679537D01*
X126048937Y-98535374D01*
X126162205Y-98365856D01*
X126240226Y-98177498D01*
X126280000Y-97977539D01*
X126280000Y-97915402D01*
X126491002Y-97704399D01*
X126520001Y-97680601D01*
X126607731Y-97573702D01*
X126614974Y-97564877D01*
X126685546Y-97432847D01*
X126699518Y-97386786D01*
X126729003Y-97289586D01*
X126740000Y-97177933D01*
X126740000Y-97177923D01*
X126743676Y-97140600D01*
X126740000Y-97103277D01*
X126740000Y-78867000D01*
X146177000Y-78867000D01*
X146177000Y-79248000D01*
X146179440Y-79272776D01*
X146186667Y-79296601D01*
X146198403Y-79318557D01*
X146214197Y-79337803D01*
X146233443Y-79353597D01*
X146255399Y-79365333D01*
X146279224Y-79372560D01*
X146304000Y-79375000D01*
X150368000Y-79375000D01*
X150392776Y-79372560D01*
X150416601Y-79365333D01*
X150438557Y-79353597D01*
X150457803Y-79337803D01*
X150473597Y-79318557D01*
X150485333Y-79296601D01*
X150492560Y-79272776D01*
X150495000Y-79248000D01*
X150495000Y-78867000D01*
X158090000Y-78867000D01*
X158090000Y-110460608D01*
X158017563Y-111272249D01*
X157810328Y-112029774D01*
X157472221Y-112738627D01*
X157013928Y-113376410D01*
X156449945Y-113922946D01*
X155798085Y-114360978D01*
X155078963Y-114676651D01*
X154310232Y-114861206D01*
X153645792Y-114910000D01*
X33049392Y-114910000D01*
X32237751Y-114837563D01*
X31480226Y-114630328D01*
X30771373Y-114292221D01*
X30133590Y-113833928D01*
X29587054Y-113269945D01*
X29149022Y-112618085D01*
X28833349Y-111898963D01*
X28648794Y-111130232D01*
X28600000Y-110465792D01*
X28600000Y-110279721D01*
X30885000Y-110279721D01*
X30885000Y-110700279D01*
X30967047Y-111112756D01*
X31127988Y-111501302D01*
X31361637Y-111850983D01*
X31659017Y-112148363D01*
X32008698Y-112382012D01*
X32397244Y-112542953D01*
X32809721Y-112625000D01*
X33230279Y-112625000D01*
X33642756Y-112542953D01*
X34031302Y-112382012D01*
X34380983Y-112148363D01*
X34678363Y-111850983D01*
X34912012Y-111501302D01*
X35072953Y-111112756D01*
X35155000Y-110700279D01*
X35155000Y-110279721D01*
X151535000Y-110279721D01*
X151535000Y-110700279D01*
X151617047Y-111112756D01*
X151777988Y-111501302D01*
X152011637Y-111850983D01*
X152309017Y-112148363D01*
X152658698Y-112382012D01*
X153047244Y-112542953D01*
X153459721Y-112625000D01*
X153880279Y-112625000D01*
X154292756Y-112542953D01*
X154681302Y-112382012D01*
X155030983Y-112148363D01*
X155328363Y-111850983D01*
X155562012Y-111501302D01*
X155722953Y-111112756D01*
X155805000Y-110700279D01*
X155805000Y-110279721D01*
X155722953Y-109867244D01*
X155562012Y-109478698D01*
X155328363Y-109129017D01*
X155030983Y-108831637D01*
X154681302Y-108597988D01*
X154292756Y-108437047D01*
X153880279Y-108355000D01*
X153459721Y-108355000D01*
X153047244Y-108437047D01*
X152658698Y-108597988D01*
X152309017Y-108831637D01*
X152011637Y-109129017D01*
X151777988Y-109478698D01*
X151617047Y-109867244D01*
X151535000Y-110279721D01*
X35155000Y-110279721D01*
X35072953Y-109867244D01*
X34912012Y-109478698D01*
X34678363Y-109129017D01*
X34380983Y-108831637D01*
X34031302Y-108597988D01*
X33642756Y-108437047D01*
X33230279Y-108355000D01*
X32809721Y-108355000D01*
X32397244Y-108437047D01*
X32008698Y-108597988D01*
X31659017Y-108831637D01*
X31361637Y-109129017D01*
X31127988Y-109478698D01*
X30967047Y-109867244D01*
X30885000Y-110279721D01*
X28600000Y-110279721D01*
X28600000Y-45749392D01*
X28621390Y-45509721D01*
X30885000Y-45509721D01*
X30885000Y-45930279D01*
X30967047Y-46342756D01*
X31127988Y-46731302D01*
X31361637Y-47080983D01*
X31659017Y-47378363D01*
X32008698Y-47612012D01*
X32397244Y-47772953D01*
X32809721Y-47855000D01*
X33230279Y-47855000D01*
X33642756Y-47772953D01*
X34031302Y-47612012D01*
X34380983Y-47378363D01*
X34678363Y-47080983D01*
X34912012Y-46731302D01*
X35072953Y-46342756D01*
X35155000Y-45930279D01*
X35155000Y-45509721D01*
X35072953Y-45097244D01*
X34912012Y-44708698D01*
X34678363Y-44359017D01*
X34380983Y-44061637D01*
X34031302Y-43827988D01*
X33642756Y-43667047D01*
X33230279Y-43585000D01*
X32809721Y-43585000D01*
X32397244Y-43667047D01*
X32008698Y-43827988D01*
X31659017Y-44061637D01*
X31361637Y-44359017D01*
X31127988Y-44708698D01*
X30967047Y-45097244D01*
X30885000Y-45509721D01*
X28621390Y-45509721D01*
X28672437Y-44937751D01*
X28879672Y-44180226D01*
X29217777Y-43471375D01*
X29676067Y-42833596D01*
X30240055Y-42287054D01*
X30891913Y-41849023D01*
X31611038Y-41533349D01*
X32379768Y-41348794D01*
X33044207Y-41300000D01*
X119059346Y-41300000D01*
X116717886Y-49495110D01*
G37*
%TD.AperFunction*%
D26*
X59616686Y-83412510D02*
X59563000Y-83682408D01*
X59563000Y-83957592D01*
X59616686Y-84227490D01*
X59659147Y-84330000D01*
X47027333Y-84330000D01*
X46990000Y-84326323D01*
X46952667Y-84330000D01*
X46841014Y-84340997D01*
X46697753Y-84384454D01*
X46565724Y-84455026D01*
X46449999Y-84549999D01*
X46426201Y-84578997D01*
X39497000Y-91508199D01*
X39497000Y-91302408D01*
X39443314Y-91032510D01*
X39338005Y-90778273D01*
X39185120Y-90549465D01*
X38990535Y-90354880D01*
X38761727Y-90201995D01*
X38684485Y-90170000D01*
X38761727Y-90138005D01*
X38990535Y-89985120D01*
X39185120Y-89790535D01*
X39338005Y-89561727D01*
X39443314Y-89307490D01*
X39497000Y-89037592D01*
X39497000Y-88762408D01*
X39443314Y-88492510D01*
X39338005Y-88238273D01*
X39185120Y-88009465D01*
X38990535Y-87814880D01*
X38761727Y-87661995D01*
X38684485Y-87630000D01*
X38761727Y-87598005D01*
X38990535Y-87445120D01*
X39185120Y-87250535D01*
X39338005Y-87021727D01*
X39443314Y-86767490D01*
X39497000Y-86497592D01*
X39497000Y-86222408D01*
X39443314Y-85952510D01*
X39338005Y-85698273D01*
X39185120Y-85469465D01*
X38990535Y-85274880D01*
X38761727Y-85121995D01*
X38684485Y-85090000D01*
X38761727Y-85058005D01*
X38990535Y-84905120D01*
X39185120Y-84710535D01*
X39338005Y-84481727D01*
X39443314Y-84227490D01*
X39497000Y-83957592D01*
X39497000Y-83682408D01*
X39466372Y-83528430D01*
X39684802Y-83310000D01*
X59659147Y-83310000D01*
X59616686Y-83412510D01*
%TA.AperFunction,Conductor*%
D27*
G36*
X59616686Y-83412510D02*
G01*
X59563000Y-83682408D01*
X59563000Y-83957592D01*
X59616686Y-84227490D01*
X59659147Y-84330000D01*
X47027333Y-84330000D01*
X46990000Y-84326323D01*
X46952667Y-84330000D01*
X46841014Y-84340997D01*
X46697753Y-84384454D01*
X46565724Y-84455026D01*
X46449999Y-84549999D01*
X46426201Y-84578997D01*
X39497000Y-91508199D01*
X39497000Y-91302408D01*
X39443314Y-91032510D01*
X39338005Y-90778273D01*
X39185120Y-90549465D01*
X38990535Y-90354880D01*
X38761727Y-90201995D01*
X38684485Y-90170000D01*
X38761727Y-90138005D01*
X38990535Y-89985120D01*
X39185120Y-89790535D01*
X39338005Y-89561727D01*
X39443314Y-89307490D01*
X39497000Y-89037592D01*
X39497000Y-88762408D01*
X39443314Y-88492510D01*
X39338005Y-88238273D01*
X39185120Y-88009465D01*
X38990535Y-87814880D01*
X38761727Y-87661995D01*
X38684485Y-87630000D01*
X38761727Y-87598005D01*
X38990535Y-87445120D01*
X39185120Y-87250535D01*
X39338005Y-87021727D01*
X39443314Y-86767490D01*
X39497000Y-86497592D01*
X39497000Y-86222408D01*
X39443314Y-85952510D01*
X39338005Y-85698273D01*
X39185120Y-85469465D01*
X38990535Y-85274880D01*
X38761727Y-85121995D01*
X38684485Y-85090000D01*
X38761727Y-85058005D01*
X38990535Y-84905120D01*
X39185120Y-84710535D01*
X39338005Y-84481727D01*
X39443314Y-84227490D01*
X39497000Y-83957592D01*
X39497000Y-83682408D01*
X39466372Y-83528430D01*
X39684802Y-83310000D01*
X59659147Y-83310000D01*
X59616686Y-83412510D01*
G37*
%TD.AperFunction*%
D26*
X59616686Y-78332510D02*
X59563000Y-78602408D01*
X59563000Y-78877592D01*
X59616686Y-79147490D01*
X59721995Y-79401727D01*
X59874880Y-79630535D01*
X60069465Y-79825120D01*
X60298273Y-79978005D01*
X60375515Y-80010000D01*
X60298273Y-80041995D01*
X60069465Y-80194880D01*
X59874880Y-80389465D01*
X59721995Y-80618273D01*
X59616686Y-80872510D01*
X59563000Y-81142408D01*
X59563000Y-81417592D01*
X59616686Y-81687490D01*
X59659147Y-81790000D01*
X39407322Y-81790000D01*
X39401106Y-81789388D01*
X39443314Y-81687490D01*
X39497000Y-81417592D01*
X39497000Y-81142408D01*
X39443314Y-80872510D01*
X39338005Y-80618273D01*
X39185120Y-80389465D01*
X38990535Y-80194880D01*
X38761727Y-80041995D01*
X38684485Y-80010000D01*
X38761727Y-79978005D01*
X38990535Y-79825120D01*
X39185120Y-79630535D01*
X39338005Y-79401727D01*
X39443314Y-79147490D01*
X39497000Y-78877592D01*
X39497000Y-78602408D01*
X39466372Y-78448430D01*
X39684802Y-78230000D01*
X59659147Y-78230000D01*
X59616686Y-78332510D01*
%TA.AperFunction,Conductor*%
D27*
G36*
X59616686Y-78332510D02*
G01*
X59563000Y-78602408D01*
X59563000Y-78877592D01*
X59616686Y-79147490D01*
X59721995Y-79401727D01*
X59874880Y-79630535D01*
X60069465Y-79825120D01*
X60298273Y-79978005D01*
X60375515Y-80010000D01*
X60298273Y-80041995D01*
X60069465Y-80194880D01*
X59874880Y-80389465D01*
X59721995Y-80618273D01*
X59616686Y-80872510D01*
X59563000Y-81142408D01*
X59563000Y-81417592D01*
X59616686Y-81687490D01*
X59659147Y-81790000D01*
X39407322Y-81790000D01*
X39401106Y-81789388D01*
X39443314Y-81687490D01*
X39497000Y-81417592D01*
X39497000Y-81142408D01*
X39443314Y-80872510D01*
X39338005Y-80618273D01*
X39185120Y-80389465D01*
X38990535Y-80194880D01*
X38761727Y-80041995D01*
X38684485Y-80010000D01*
X38761727Y-79978005D01*
X38990535Y-79825120D01*
X39185120Y-79630535D01*
X39338005Y-79401727D01*
X39443314Y-79147490D01*
X39497000Y-78877592D01*
X39497000Y-78602408D01*
X39466372Y-78448430D01*
X39684802Y-78230000D01*
X59659147Y-78230000D01*
X59616686Y-78332510D01*
G37*
%TD.AperFunction*%
D26*
X88948502Y-56500192D02*
X89002958Y-56581691D01*
X89082310Y-56678382D01*
X89151618Y-56747690D01*
X89248309Y-56827042D01*
X89329808Y-56881498D01*
X89410001Y-56924362D01*
X89410000Y-59787659D01*
X89279465Y-59874880D01*
X89084880Y-60069465D01*
X88931995Y-60298273D01*
X88902308Y-60369943D01*
X88897636Y-60356977D01*
X88835656Y-60241020D01*
X88595565Y-60174040D01*
X87809605Y-60960000D01*
X88595565Y-61745960D01*
X88835656Y-61678980D01*
X88899485Y-61543240D01*
X88931995Y-61621727D01*
X89084880Y-61850535D01*
X89279465Y-62045120D01*
X89508273Y-62198005D01*
X89762510Y-62303314D01*
X90032408Y-62357000D01*
X90238198Y-62357000D01*
X78113185Y-74482014D01*
X78102476Y-74473226D01*
X77970447Y-74402654D01*
X77827186Y-74359197D01*
X77715533Y-74348200D01*
X77715522Y-74348200D01*
X77678200Y-74344524D01*
X77640878Y-74348200D01*
X70284404Y-74348200D01*
X70270254Y-74321727D01*
X70234974Y-74255723D01*
X70163799Y-74168997D01*
X70140001Y-74139999D01*
X70111003Y-74116201D01*
X68676372Y-72681570D01*
X68707000Y-72527592D01*
X68707000Y-72252408D01*
X68653314Y-71982510D01*
X68548005Y-71728273D01*
X68395120Y-71499465D01*
X68334928Y-71439273D01*
X69267703Y-70506499D01*
X69296701Y-70482701D01*
X69391674Y-70366976D01*
X69462246Y-70234947D01*
X69505703Y-70091686D01*
X69516700Y-69980033D01*
X69520377Y-69942700D01*
X69516700Y-69905367D01*
X69516700Y-60018100D01*
X84056245Y-60018100D01*
X84004880Y-60069465D01*
X83851995Y-60298273D01*
X83746686Y-60552510D01*
X83693000Y-60822408D01*
X83693000Y-61097592D01*
X83746686Y-61367490D01*
X83851995Y-61621727D01*
X84004880Y-61850535D01*
X84199465Y-62045120D01*
X84428273Y-62198005D01*
X84682510Y-62303314D01*
X84952408Y-62357000D01*
X85227592Y-62357000D01*
X85497490Y-62303314D01*
X85751727Y-62198005D01*
X85980535Y-62045120D01*
X86100090Y-61925565D01*
X86844040Y-61925565D01*
X86911020Y-62165656D01*
X87160048Y-62282756D01*
X87427135Y-62349023D01*
X87702017Y-62361910D01*
X87974133Y-62320922D01*
X88233023Y-62227636D01*
X88348980Y-62165656D01*
X88415960Y-61925565D01*
X87630000Y-61139605D01*
X86844040Y-61925565D01*
X86100090Y-61925565D01*
X86175120Y-61850535D01*
X86328005Y-61621727D01*
X86357692Y-61550057D01*
X86362364Y-61563023D01*
X86424344Y-61678980D01*
X86664435Y-61745960D01*
X87450395Y-60960000D01*
X86664435Y-60174040D01*
X86424344Y-60241020D01*
X86360515Y-60376760D01*
X86328005Y-60298273D01*
X86175120Y-60069465D01*
X86100090Y-59994435D01*
X86844040Y-59994435D01*
X87630000Y-60780395D01*
X88415960Y-59994435D01*
X88348980Y-59754344D01*
X88099952Y-59637244D01*
X87832865Y-59570977D01*
X87557983Y-59558090D01*
X87285867Y-59599078D01*
X87026977Y-59692364D01*
X86911020Y-59754344D01*
X86844040Y-59994435D01*
X86100090Y-59994435D01*
X85980535Y-59874880D01*
X85850000Y-59787659D01*
X85850000Y-59572901D01*
X88939518Y-56483384D01*
X88948502Y-56500192D01*
%TA.AperFunction,Conductor*%
D27*
G36*
X88948502Y-56500192D02*
G01*
X89002958Y-56581691D01*
X89082310Y-56678382D01*
X89151618Y-56747690D01*
X89248309Y-56827042D01*
X89329808Y-56881498D01*
X89410001Y-56924362D01*
X89410000Y-59787659D01*
X89279465Y-59874880D01*
X89084880Y-60069465D01*
X88931995Y-60298273D01*
X88902308Y-60369943D01*
X88897636Y-60356977D01*
X88835656Y-60241020D01*
X88595565Y-60174040D01*
X87809605Y-60960000D01*
X88595565Y-61745960D01*
X88835656Y-61678980D01*
X88899485Y-61543240D01*
X88931995Y-61621727D01*
X89084880Y-61850535D01*
X89279465Y-62045120D01*
X89508273Y-62198005D01*
X89762510Y-62303314D01*
X90032408Y-62357000D01*
X90238198Y-62357000D01*
X78113185Y-74482014D01*
X78102476Y-74473226D01*
X77970447Y-74402654D01*
X77827186Y-74359197D01*
X77715533Y-74348200D01*
X77715522Y-74348200D01*
X77678200Y-74344524D01*
X77640878Y-74348200D01*
X70284404Y-74348200D01*
X70270254Y-74321727D01*
X70234974Y-74255723D01*
X70163799Y-74168997D01*
X70140001Y-74139999D01*
X70111003Y-74116201D01*
X68676372Y-72681570D01*
X68707000Y-72527592D01*
X68707000Y-72252408D01*
X68653314Y-71982510D01*
X68548005Y-71728273D01*
X68395120Y-71499465D01*
X68334928Y-71439273D01*
X69267703Y-70506499D01*
X69296701Y-70482701D01*
X69391674Y-70366976D01*
X69462246Y-70234947D01*
X69505703Y-70091686D01*
X69516700Y-69980033D01*
X69520377Y-69942700D01*
X69516700Y-69905367D01*
X69516700Y-60018100D01*
X84056245Y-60018100D01*
X84004880Y-60069465D01*
X83851995Y-60298273D01*
X83746686Y-60552510D01*
X83693000Y-60822408D01*
X83693000Y-61097592D01*
X83746686Y-61367490D01*
X83851995Y-61621727D01*
X84004880Y-61850535D01*
X84199465Y-62045120D01*
X84428273Y-62198005D01*
X84682510Y-62303314D01*
X84952408Y-62357000D01*
X85227592Y-62357000D01*
X85497490Y-62303314D01*
X85751727Y-62198005D01*
X85980535Y-62045120D01*
X86100090Y-61925565D01*
X86844040Y-61925565D01*
X86911020Y-62165656D01*
X87160048Y-62282756D01*
X87427135Y-62349023D01*
X87702017Y-62361910D01*
X87974133Y-62320922D01*
X88233023Y-62227636D01*
X88348980Y-62165656D01*
X88415960Y-61925565D01*
X87630000Y-61139605D01*
X86844040Y-61925565D01*
X86100090Y-61925565D01*
X86175120Y-61850535D01*
X86328005Y-61621727D01*
X86357692Y-61550057D01*
X86362364Y-61563023D01*
X86424344Y-61678980D01*
X86664435Y-61745960D01*
X87450395Y-60960000D01*
X86664435Y-60174040D01*
X86424344Y-60241020D01*
X86360515Y-60376760D01*
X86328005Y-60298273D01*
X86175120Y-60069465D01*
X86100090Y-59994435D01*
X86844040Y-59994435D01*
X87630000Y-60780395D01*
X88415960Y-59994435D01*
X88348980Y-59754344D01*
X88099952Y-59637244D01*
X87832865Y-59570977D01*
X87557983Y-59558090D01*
X87285867Y-59599078D01*
X87026977Y-59692364D01*
X86911020Y-59754344D01*
X86844040Y-59994435D01*
X86100090Y-59994435D01*
X85980535Y-59874880D01*
X85850000Y-59787659D01*
X85850000Y-59572901D01*
X88939518Y-56483384D01*
X88948502Y-56500192D01*
G37*
%TD.AperFunction*%
%TD*%
M02*
