%TF.GenerationSoftware,KiCad,Pcbnew,(5.1.12)-1*%
%TF.CreationDate,2021-12-29T18:15:48+01:00*%
%TF.ProjectId,esp32pcbheater,65737033-3270-4636-9268-65617465722e,rev?*%
%TF.SameCoordinates,Original*%
%TF.FileFunction,Copper,L1,Top*%
%TF.FilePolarity,Positive*%
%FSLAX46Y46*%
G04 Gerber Fmt 4.6, Leading zero omitted, Abs format (unit mm)*
G04 Created by KiCad (PCBNEW (5.1.12)-1) date 2021-12-29 18:15:48*
%MOMM*%
%LPD*%
G01*
G04 APERTURE LIST*
%TA.AperFunction,ComponentPad*%
%ADD10R,2.200000X2.200000*%
%TD*%
%TA.AperFunction,ComponentPad*%
%ADD11O,2.200000X2.200000*%
%TD*%
%TA.AperFunction,ComponentPad*%
%ADD12R,1.700000X1.700000*%
%TD*%
%TA.AperFunction,ComponentPad*%
%ADD13O,1.700000X1.700000*%
%TD*%
%TA.AperFunction,ComponentPad*%
%ADD14R,3.000000X3.000000*%
%TD*%
%TA.AperFunction,ComponentPad*%
%ADD15C,3.000000*%
%TD*%
%TA.AperFunction,ComponentPad*%
%ADD16R,1.980000X1.980000*%
%TD*%
%TA.AperFunction,ComponentPad*%
%ADD17C,1.935000*%
%TD*%
%TA.AperFunction,ComponentPad*%
%ADD18C,1.980000*%
%TD*%
%TA.AperFunction,ComponentPad*%
%ADD19C,1.500000*%
%TD*%
%TA.AperFunction,ComponentPad*%
%ADD20R,1.500000X1.500000*%
%TD*%
%TA.AperFunction,SMDPad,CuDef*%
%ADD21R,3.000000X2.000000*%
%TD*%
%TA.AperFunction,SMDPad,CuDef*%
%ADD22R,3.200000X3.000000*%
%TD*%
%TA.AperFunction,SMDPad,CuDef*%
%ADD23R,2.000000X2.000000*%
%TD*%
%TA.AperFunction,ComponentPad*%
%ADD24C,1.524000*%
%TD*%
%TA.AperFunction,ViaPad*%
%ADD25C,0.800000*%
%TD*%
%TA.AperFunction,Conductor*%
%ADD26C,0.250000*%
%TD*%
%TA.AperFunction,Conductor*%
%ADD27C,2.000000*%
%TD*%
%TA.AperFunction,Conductor*%
%ADD28C,0.254000*%
%TD*%
%TA.AperFunction,Conductor*%
%ADD29C,0.100000*%
%TD*%
G04 APERTURE END LIST*
%TO.P,C1,2*%
%TO.N,Net-(C1-Pad2)*%
%TA.AperFunction,SMDPad,CuDef*%
G36*
G01*
X109670000Y-108425000D02*
X109670000Y-107475000D01*
G75*
G02*
X109920000Y-107225000I250000J0D01*
G01*
X110420000Y-107225000D01*
G75*
G02*
X110670000Y-107475000I0J-250000D01*
G01*
X110670000Y-108425000D01*
G75*
G02*
X110420000Y-108675000I-250000J0D01*
G01*
X109920000Y-108675000D01*
G75*
G02*
X109670000Y-108425000I0J250000D01*
G01*
G37*
%TD.AperFunction*%
%TO.P,C1,1*%
%TO.N,GND*%
%TA.AperFunction,SMDPad,CuDef*%
G36*
G01*
X107770000Y-108425000D02*
X107770000Y-107475000D01*
G75*
G02*
X108020000Y-107225000I250000J0D01*
G01*
X108520000Y-107225000D01*
G75*
G02*
X108770000Y-107475000I0J-250000D01*
G01*
X108770000Y-108425000D01*
G75*
G02*
X108520000Y-108675000I-250000J0D01*
G01*
X108020000Y-108675000D01*
G75*
G02*
X107770000Y-108425000I0J250000D01*
G01*
G37*
%TD.AperFunction*%
%TD*%
%TO.P,C2,1*%
%TO.N,Net-(C2-Pad1)*%
%TA.AperFunction,SMDPad,CuDef*%
G36*
G01*
X103960000Y-108425000D02*
X103960000Y-107475000D01*
G75*
G02*
X104210000Y-107225000I250000J0D01*
G01*
X104710000Y-107225000D01*
G75*
G02*
X104960000Y-107475000I0J-250000D01*
G01*
X104960000Y-108425000D01*
G75*
G02*
X104710000Y-108675000I-250000J0D01*
G01*
X104210000Y-108675000D01*
G75*
G02*
X103960000Y-108425000I0J250000D01*
G01*
G37*
%TD.AperFunction*%
%TO.P,C2,2*%
%TO.N,GND*%
%TA.AperFunction,SMDPad,CuDef*%
G36*
G01*
X105860000Y-108425000D02*
X105860000Y-107475000D01*
G75*
G02*
X106110000Y-107225000I250000J0D01*
G01*
X106610000Y-107225000D01*
G75*
G02*
X106860000Y-107475000I0J-250000D01*
G01*
X106860000Y-108425000D01*
G75*
G02*
X106610000Y-108675000I-250000J0D01*
G01*
X106110000Y-108675000D01*
G75*
G02*
X105860000Y-108425000I0J250000D01*
G01*
G37*
%TD.AperFunction*%
%TD*%
%TO.P,C3,1*%
%TO.N,GND*%
%TA.AperFunction,SMDPad,CuDef*%
G36*
G01*
X132875000Y-106500000D02*
X133825000Y-106500000D01*
G75*
G02*
X134075000Y-106750000I0J-250000D01*
G01*
X134075000Y-107250000D01*
G75*
G02*
X133825000Y-107500000I-250000J0D01*
G01*
X132875000Y-107500000D01*
G75*
G02*
X132625000Y-107250000I0J250000D01*
G01*
X132625000Y-106750000D01*
G75*
G02*
X132875000Y-106500000I250000J0D01*
G01*
G37*
%TD.AperFunction*%
%TO.P,C3,2*%
%TO.N,Net-(C3-Pad2)*%
%TA.AperFunction,SMDPad,CuDef*%
G36*
G01*
X132875000Y-108400000D02*
X133825000Y-108400000D01*
G75*
G02*
X134075000Y-108650000I0J-250000D01*
G01*
X134075000Y-109150000D01*
G75*
G02*
X133825000Y-109400000I-250000J0D01*
G01*
X132875000Y-109400000D01*
G75*
G02*
X132625000Y-109150000I0J250000D01*
G01*
X132625000Y-108650000D01*
G75*
G02*
X132875000Y-108400000I250000J0D01*
G01*
G37*
%TD.AperFunction*%
%TD*%
D10*
%TO.P,D1,1*%
%TO.N,+3V3*%
X97155000Y-54610000D03*
D11*
%TO.P,D1,2*%
%TO.N,Net-(D1-Pad2)*%
X109855000Y-54610000D03*
%TD*%
D12*
%TO.P,J2,1*%
%TO.N,/BUZZ*%
X116840000Y-90170000D03*
D13*
%TO.P,J2,2*%
%TO.N,GND*%
X114300000Y-90170000D03*
%TD*%
D14*
%TO.P,J7,1*%
%TO.N,Net-(J7-Pad1)*%
X154305000Y-55880000D03*
D15*
%TO.P,J7,2*%
%TO.N,Net-(J7-Pad2)*%
X154305000Y-60960000D03*
%TO.P,J7,3*%
%TO.N,Net-(J7-Pad3)*%
X154305000Y-66040000D03*
%TD*%
D16*
%TO.P,K1,1*%
%TO.N,+3V3*%
X125980000Y-66325000D03*
D17*
%TO.P,K1,5*%
%TO.N,Net-(J7-Pad2)*%
X123980000Y-60325000D03*
D18*
%TO.P,K1,4*%
%TO.N,Net-(D1-Pad2)*%
X125980000Y-54325000D03*
%TO.P,K1,3*%
%TO.N,Net-(J7-Pad1)*%
X138180000Y-54325000D03*
%TO.P,K1,2*%
%TO.N,Net-(J7-Pad3)*%
X138180000Y-66325000D03*
%TD*%
D19*
%TO.P,Q1,2*%
%TO.N,Net-(Q1-Pad2)*%
X116205000Y-54610000D03*
%TO.P,Q1,3*%
%TO.N,Net-(D1-Pad2)*%
X118745000Y-54610000D03*
D20*
%TO.P,Q1,1*%
%TO.N,GND*%
X113665000Y-54610000D03*
%TD*%
%TO.P,R1,2*%
%TO.N,/BUT1*%
%TA.AperFunction,SMDPad,CuDef*%
G36*
G01*
X75380001Y-106280000D02*
X74479999Y-106280000D01*
G75*
G02*
X74230000Y-106030001I0J249999D01*
G01*
X74230000Y-105504999D01*
G75*
G02*
X74479999Y-105255000I249999J0D01*
G01*
X75380001Y-105255000D01*
G75*
G02*
X75630000Y-105504999I0J-249999D01*
G01*
X75630000Y-106030001D01*
G75*
G02*
X75380001Y-106280000I-249999J0D01*
G01*
G37*
%TD.AperFunction*%
%TO.P,R1,1*%
%TO.N,+3V3*%
%TA.AperFunction,SMDPad,CuDef*%
G36*
G01*
X75380001Y-108105000D02*
X74479999Y-108105000D01*
G75*
G02*
X74230000Y-107855001I0J249999D01*
G01*
X74230000Y-107329999D01*
G75*
G02*
X74479999Y-107080000I249999J0D01*
G01*
X75380001Y-107080000D01*
G75*
G02*
X75630000Y-107329999I0J-249999D01*
G01*
X75630000Y-107855001D01*
G75*
G02*
X75380001Y-108105000I-249999J0D01*
G01*
G37*
%TD.AperFunction*%
%TD*%
%TO.P,R2,2*%
%TO.N,/BUT2*%
%TA.AperFunction,SMDPad,CuDef*%
G36*
G01*
X93160001Y-106280000D02*
X92259999Y-106280000D01*
G75*
G02*
X92010000Y-106030001I0J249999D01*
G01*
X92010000Y-105504999D01*
G75*
G02*
X92259999Y-105255000I249999J0D01*
G01*
X93160001Y-105255000D01*
G75*
G02*
X93410000Y-105504999I0J-249999D01*
G01*
X93410000Y-106030001D01*
G75*
G02*
X93160001Y-106280000I-249999J0D01*
G01*
G37*
%TD.AperFunction*%
%TO.P,R2,1*%
%TO.N,+3V3*%
%TA.AperFunction,SMDPad,CuDef*%
G36*
G01*
X93160001Y-108105000D02*
X92259999Y-108105000D01*
G75*
G02*
X92010000Y-107855001I0J249999D01*
G01*
X92010000Y-107329999D01*
G75*
G02*
X92259999Y-107080000I249999J0D01*
G01*
X93160001Y-107080000D01*
G75*
G02*
X93410000Y-107329999I0J-249999D01*
G01*
X93410000Y-107855001D01*
G75*
G02*
X93160001Y-108105000I-249999J0D01*
G01*
G37*
%TD.AperFunction*%
%TD*%
%TO.P,R3,1*%
%TO.N,+3V3*%
%TA.AperFunction,SMDPad,CuDef*%
G36*
G01*
X138880001Y-108463000D02*
X137979999Y-108463000D01*
G75*
G02*
X137730000Y-108213001I0J249999D01*
G01*
X137730000Y-107687999D01*
G75*
G02*
X137979999Y-107438000I249999J0D01*
G01*
X138880001Y-107438000D01*
G75*
G02*
X139130000Y-107687999I0J-249999D01*
G01*
X139130000Y-108213001D01*
G75*
G02*
X138880001Y-108463000I-249999J0D01*
G01*
G37*
%TD.AperFunction*%
%TO.P,R3,2*%
%TO.N,/BUT3*%
%TA.AperFunction,SMDPad,CuDef*%
G36*
G01*
X138880001Y-106638000D02*
X137979999Y-106638000D01*
G75*
G02*
X137730000Y-106388001I0J249999D01*
G01*
X137730000Y-105862999D01*
G75*
G02*
X137979999Y-105613000I249999J0D01*
G01*
X138880001Y-105613000D01*
G75*
G02*
X139130000Y-105862999I0J-249999D01*
G01*
X139130000Y-106388001D01*
G75*
G02*
X138880001Y-106638000I-249999J0D01*
G01*
G37*
%TD.AperFunction*%
%TD*%
%TO.P,R4,1*%
%TO.N,/RIGHT*%
%TA.AperFunction,SMDPad,CuDef*%
G36*
G01*
X107795000Y-112210001D02*
X107795000Y-111309999D01*
G75*
G02*
X108044999Y-111060000I249999J0D01*
G01*
X108570001Y-111060000D01*
G75*
G02*
X108820000Y-111309999I0J-249999D01*
G01*
X108820000Y-112210001D01*
G75*
G02*
X108570001Y-112460000I-249999J0D01*
G01*
X108044999Y-112460000D01*
G75*
G02*
X107795000Y-112210001I0J249999D01*
G01*
G37*
%TD.AperFunction*%
%TO.P,R4,2*%
%TO.N,Net-(C2-Pad1)*%
%TA.AperFunction,SMDPad,CuDef*%
G36*
G01*
X109620000Y-112210001D02*
X109620000Y-111309999D01*
G75*
G02*
X109869999Y-111060000I249999J0D01*
G01*
X110395001Y-111060000D01*
G75*
G02*
X110645000Y-111309999I0J-249999D01*
G01*
X110645000Y-112210001D01*
G75*
G02*
X110395001Y-112460000I-249999J0D01*
G01*
X109869999Y-112460000D01*
G75*
G02*
X109620000Y-112210001I0J249999D01*
G01*
G37*
%TD.AperFunction*%
%TD*%
%TO.P,R5,1*%
%TO.N,/LEFT*%
%TA.AperFunction,SMDPad,CuDef*%
G36*
G01*
X107795000Y-100780001D02*
X107795000Y-99879999D01*
G75*
G02*
X108044999Y-99630000I249999J0D01*
G01*
X108570001Y-99630000D01*
G75*
G02*
X108820000Y-99879999I0J-249999D01*
G01*
X108820000Y-100780001D01*
G75*
G02*
X108570001Y-101030000I-249999J0D01*
G01*
X108044999Y-101030000D01*
G75*
G02*
X107795000Y-100780001I0J249999D01*
G01*
G37*
%TD.AperFunction*%
%TO.P,R5,2*%
%TO.N,Net-(C1-Pad2)*%
%TA.AperFunction,SMDPad,CuDef*%
G36*
G01*
X109620000Y-100780001D02*
X109620000Y-99879999D01*
G75*
G02*
X109869999Y-99630000I249999J0D01*
G01*
X110395001Y-99630000D01*
G75*
G02*
X110645000Y-99879999I0J-249999D01*
G01*
X110645000Y-100780001D01*
G75*
G02*
X110395001Y-101030000I-249999J0D01*
G01*
X109869999Y-101030000D01*
G75*
G02*
X109620000Y-100780001I0J249999D01*
G01*
G37*
%TD.AperFunction*%
%TD*%
%TO.P,R6,2*%
%TO.N,+3V3*%
%TA.AperFunction,SMDPad,CuDef*%
G36*
G01*
X105810000Y-112210001D02*
X105810000Y-111309999D01*
G75*
G02*
X106059999Y-111060000I249999J0D01*
G01*
X106585001Y-111060000D01*
G75*
G02*
X106835000Y-111309999I0J-249999D01*
G01*
X106835000Y-112210001D01*
G75*
G02*
X106585001Y-112460000I-249999J0D01*
G01*
X106059999Y-112460000D01*
G75*
G02*
X105810000Y-112210001I0J249999D01*
G01*
G37*
%TD.AperFunction*%
%TO.P,R6,1*%
%TO.N,Net-(C2-Pad1)*%
%TA.AperFunction,SMDPad,CuDef*%
G36*
G01*
X103985000Y-112210001D02*
X103985000Y-111309999D01*
G75*
G02*
X104234999Y-111060000I249999J0D01*
G01*
X104760001Y-111060000D01*
G75*
G02*
X105010000Y-111309999I0J-249999D01*
G01*
X105010000Y-112210001D01*
G75*
G02*
X104760001Y-112460000I-249999J0D01*
G01*
X104234999Y-112460000D01*
G75*
G02*
X103985000Y-112210001I0J249999D01*
G01*
G37*
%TD.AperFunction*%
%TD*%
%TO.P,R7,2*%
%TO.N,+3V3*%
%TA.AperFunction,SMDPad,CuDef*%
G36*
G01*
X105810000Y-100780001D02*
X105810000Y-99879999D01*
G75*
G02*
X106059999Y-99630000I249999J0D01*
G01*
X106585001Y-99630000D01*
G75*
G02*
X106835000Y-99879999I0J-249999D01*
G01*
X106835000Y-100780001D01*
G75*
G02*
X106585001Y-101030000I-249999J0D01*
G01*
X106059999Y-101030000D01*
G75*
G02*
X105810000Y-100780001I0J249999D01*
G01*
G37*
%TD.AperFunction*%
%TO.P,R7,1*%
%TO.N,Net-(C1-Pad2)*%
%TA.AperFunction,SMDPad,CuDef*%
G36*
G01*
X103985000Y-100780001D02*
X103985000Y-99879999D01*
G75*
G02*
X104234999Y-99630000I249999J0D01*
G01*
X104760001Y-99630000D01*
G75*
G02*
X105010000Y-99879999I0J-249999D01*
G01*
X105010000Y-100780001D01*
G75*
G02*
X104760001Y-101030000I-249999J0D01*
G01*
X104234999Y-101030000D01*
G75*
G02*
X103985000Y-100780001I0J249999D01*
G01*
G37*
%TD.AperFunction*%
%TD*%
%TO.P,R9,1*%
%TO.N,Net-(C3-Pad2)*%
%TA.AperFunction,SMDPad,CuDef*%
G36*
G01*
X133195000Y-100780001D02*
X133195000Y-99879999D01*
G75*
G02*
X133444999Y-99630000I249999J0D01*
G01*
X133970001Y-99630000D01*
G75*
G02*
X134220000Y-99879999I0J-249999D01*
G01*
X134220000Y-100780001D01*
G75*
G02*
X133970001Y-101030000I-249999J0D01*
G01*
X133444999Y-101030000D01*
G75*
G02*
X133195000Y-100780001I0J249999D01*
G01*
G37*
%TD.AperFunction*%
%TO.P,R9,2*%
%TO.N,+3V3*%
%TA.AperFunction,SMDPad,CuDef*%
G36*
G01*
X135020000Y-100780001D02*
X135020000Y-99879999D01*
G75*
G02*
X135269999Y-99630000I249999J0D01*
G01*
X135795001Y-99630000D01*
G75*
G02*
X136045000Y-99879999I0J-249999D01*
G01*
X136045000Y-100780001D01*
G75*
G02*
X135795001Y-101030000I-249999J0D01*
G01*
X135269999Y-101030000D01*
G75*
G02*
X135020000Y-100780001I0J249999D01*
G01*
G37*
%TD.AperFunction*%
%TD*%
%TO.P,R11,2*%
%TO.N,Net-(C3-Pad2)*%
%TA.AperFunction,SMDPad,CuDef*%
G36*
G01*
X138830000Y-100780001D02*
X138830000Y-99879999D01*
G75*
G02*
X139079999Y-99630000I249999J0D01*
G01*
X139605001Y-99630000D01*
G75*
G02*
X139855000Y-99879999I0J-249999D01*
G01*
X139855000Y-100780001D01*
G75*
G02*
X139605001Y-101030000I-249999J0D01*
G01*
X139079999Y-101030000D01*
G75*
G02*
X138830000Y-100780001I0J249999D01*
G01*
G37*
%TD.AperFunction*%
%TO.P,R11,1*%
%TO.N,/BUT4*%
%TA.AperFunction,SMDPad,CuDef*%
G36*
G01*
X137005000Y-100780001D02*
X137005000Y-99879999D01*
G75*
G02*
X137254999Y-99630000I249999J0D01*
G01*
X137780001Y-99630000D01*
G75*
G02*
X138030000Y-99879999I0J-249999D01*
G01*
X138030000Y-100780001D01*
G75*
G02*
X137780001Y-101030000I-249999J0D01*
G01*
X137254999Y-101030000D01*
G75*
G02*
X137005000Y-100780001I0J249999D01*
G01*
G37*
%TD.AperFunction*%
%TD*%
D21*
%TO.P,SW4,S1*%
%TO.N,Net-(C3-Pad2)*%
X129300000Y-109775000D03*
%TO.P,SW4,S2*%
%TO.N,GND*%
X129300000Y-104775000D03*
D22*
%TO.P,SW4,MP*%
%TO.N,N/C*%
X121800000Y-113475000D03*
X121800000Y-100775000D03*
D23*
%TO.P,SW4,B*%
%TO.N,Net-(C2-Pad1)*%
X114300000Y-109775000D03*
%TO.P,SW4,C*%
%TO.N,GND*%
X114300000Y-107275000D03*
%TO.P,SW4,A*%
%TO.N,Net-(C1-Pad2)*%
X114300000Y-104775000D03*
%TD*%
D24*
%TO.P,U1,1*%
%TO.N,+3V3*%
X67310000Y-57150000D03*
%TO.P,U1,2*%
%TO.N,GND*%
X67310000Y-59690000D03*
%TO.P,U1,3*%
%TO.N,/CS*%
X67310000Y-62230000D03*
%TO.P,U1,4*%
%TO.N,/RESETT*%
X67310000Y-64770000D03*
%TO.P,U1,5*%
%TO.N,/DCD*%
X67310000Y-67310000D03*
%TO.P,U1,6*%
%TO.N,/MOSI*%
X67310000Y-69850000D03*
%TO.P,U1,7*%
%TO.N,/SCK*%
X67310000Y-72390000D03*
%TO.P,U1,8*%
%TO.N,+3V3*%
X67310000Y-74930000D03*
%TO.P,U1,9*%
%TO.N,/MISO*%
X67310000Y-77470000D03*
%TO.P,U1,10*%
%TO.N,Net-(J6-Pad1)*%
X67310000Y-80010000D03*
%TO.P,U1,11*%
%TO.N,Net-(J1-Pad1)*%
X67310000Y-82550000D03*
%TO.P,U1,12*%
%TO.N,Net-(J3-Pad1)*%
X67310000Y-85090000D03*
%TO.P,U1,13*%
%TO.N,Net-(J4-Pad1)*%
X67310000Y-87630000D03*
%TO.P,U1,14*%
%TO.N,Net-(J5-Pad1)*%
X67310000Y-90170000D03*
%TO.P,U1,15*%
%TO.N,N/C*%
X148336000Y-69850000D03*
%TO.P,U1,16*%
X148336000Y-72390000D03*
%TO.P,U1,17*%
X148336000Y-74930000D03*
%TO.P,U1,18*%
X148336000Y-77470000D03*
%TD*%
%TO.P,U2,1*%
%TO.N,N/C*%
X60960000Y-73660000D03*
%TO.P,U2,2*%
X60960000Y-76200000D03*
%TO.P,U2,3*%
X60960000Y-78740000D03*
%TO.P,U2,4*%
%TO.N,/BUT1*%
X60960000Y-81280000D03*
%TO.P,U2,5*%
%TO.N,/BUT2*%
X60960000Y-83820000D03*
%TO.P,U2,6*%
%TO.N,/BUT3*%
X60960000Y-86360000D03*
%TO.P,U2,7*%
%TO.N,/BUT4*%
X60960000Y-88900000D03*
%TO.P,U2,8*%
%TO.N,/TOUCH_CS*%
X60960000Y-91440000D03*
%TO.P,U2,9*%
%TO.N,/LEFT*%
X60960000Y-93980000D03*
%TO.P,U2,10*%
%TO.N,/RIGHT*%
X60960000Y-96520000D03*
%TO.P,U2,11*%
%TO.N,/BUZZ*%
X60960000Y-99060000D03*
%TO.P,U2,12*%
%TO.N,/RESETT*%
X60960000Y-101600000D03*
%TO.P,U2,13*%
%TO.N,GND*%
X60960000Y-104140000D03*
%TO.P,U2,14*%
%TO.N,+3V3*%
X38100000Y-73660000D03*
%TO.P,U2,15*%
%TO.N,N/C*%
X38100000Y-76200000D03*
%TO.P,U2,16*%
%TO.N,/MISO*%
X38100000Y-78740000D03*
%TO.P,U2,17*%
%TO.N,/MOSI*%
X38100000Y-81280000D03*
%TO.P,U2,18*%
%TO.N,/SCK*%
X38100000Y-83820000D03*
%TO.P,U2,19*%
%TO.N,/CS*%
X38100000Y-86360000D03*
%TO.P,U2,20*%
%TO.N,N/C*%
X38100000Y-88900000D03*
%TO.P,U2,21*%
X38100000Y-91440000D03*
%TO.P,U2,22*%
%TO.N,/TIRQ*%
X38100000Y-93980000D03*
%TO.P,U2,23*%
%TO.N,N/C*%
X38100000Y-96520000D03*
%TO.P,U2,24*%
%TO.N,/CSTEMP*%
X38100000Y-99060000D03*
%TO.P,U2,25*%
%TO.N,/IO15*%
X38100000Y-101600000D03*
%TO.P,U2,26*%
%TO.N,/DCD*%
X38100000Y-104140000D03*
%TD*%
%TO.P,U3,1*%
%TO.N,+3V3*%
X85090000Y-60960000D03*
%TO.P,U3,2*%
%TO.N,GND*%
X87630000Y-60960000D03*
%TO.P,U3,3*%
%TO.N,Net-(JP1-Pad1)*%
X90170000Y-60960000D03*
%TO.P,U3,4*%
%TO.N,/SCK*%
X92710000Y-60960000D03*
%TO.P,U3,5*%
%TO.N,/MOSI*%
X95250000Y-60960000D03*
%TO.P,U3,6*%
%TO.N,/MISO*%
X97790000Y-60960000D03*
%TO.P,U3,7*%
%TO.N,/CSTEMP*%
X100330000Y-60960000D03*
%TO.P,U3,8*%
%TO.N,N/C*%
X102870000Y-60960000D03*
%TO.P,U3,~*%
X88773000Y-83058000D03*
X92329000Y-83058000D03*
X95885000Y-83058000D03*
X99441000Y-83058000D03*
%TD*%
D23*
%TO.P,SW1,2*%
%TO.N,/BUT1*%
X80010000Y-109875000D03*
%TO.P,SW1,1*%
%TO.N,GND*%
X80010000Y-103875000D03*
%TD*%
%TO.P,SW2,1*%
%TO.N,GND*%
X97790000Y-103875000D03*
%TO.P,SW2,2*%
%TO.N,/BUT2*%
X97790000Y-109875000D03*
%TD*%
%TO.P,SW3,2*%
%TO.N,/BUT3*%
X143510000Y-109875000D03*
%TO.P,SW3,1*%
%TO.N,GND*%
X143510000Y-103875000D03*
%TD*%
D25*
%TO.N,GND*%
X133350000Y-106680000D03*
X129540000Y-104140000D03*
X107950000Y-107950000D03*
X114300000Y-107950000D03*
X79248000Y-71628000D03*
X55372000Y-84328000D03*
X42164000Y-86868000D03*
X46736000Y-79756000D03*
X41656000Y-79248000D03*
X86868000Y-104140000D03*
X86868000Y-106680000D03*
X92964000Y-110744000D03*
%TO.N,+3V3*%
X125245000Y-97875600D03*
%TO.N,/MISO*%
X81136500Y-77805600D03*
%TO.N,/LEFT*%
X97315000Y-97237800D03*
%TD*%
D26*
%TO.N,Net-(C1-Pad2)*%
X110132500Y-101841900D02*
X110132500Y-100330000D01*
X112974700Y-104775000D02*
X110132500Y-101932800D01*
X110132500Y-101932800D02*
X110132500Y-101841900D01*
X110132500Y-101841900D02*
X106009400Y-101841900D01*
X106009400Y-101841900D02*
X104497500Y-100330000D01*
X112974700Y-104775000D02*
X110170000Y-107579700D01*
X110170000Y-107579700D02*
X110170000Y-107950000D01*
X114300000Y-104775000D02*
X112974700Y-104775000D01*
%TO.N,Net-(C2-Pad1)*%
X114300000Y-109775000D02*
X112974700Y-109775000D01*
X112974700Y-109775000D02*
X110989700Y-111760000D01*
X110989700Y-111760000D02*
X110132500Y-111760000D01*
X106334700Y-109860300D02*
X106334700Y-109824700D01*
X106334700Y-109824700D02*
X104460000Y-107950000D01*
X104497500Y-111760000D02*
X104497500Y-111697500D01*
X104497500Y-111697500D02*
X106334700Y-109860300D01*
X110132500Y-111760000D02*
X108232800Y-109860300D01*
X108232800Y-109860300D02*
X106334700Y-109860300D01*
%TO.N,Net-(C3-Pad2)*%
X133350000Y-108900000D02*
X135650400Y-111200400D01*
X135650400Y-111200400D02*
X144656400Y-111200400D01*
X144656400Y-111200400D02*
X144835400Y-111021400D01*
X144835400Y-111021400D02*
X144835400Y-107937400D01*
X144835400Y-107937400D02*
X139342500Y-102444500D01*
X139342500Y-102444500D02*
X139342500Y-100330000D01*
X132281700Y-108900000D02*
X133350000Y-108900000D01*
X132281700Y-108900000D02*
X132281700Y-101755800D01*
X132281700Y-101755800D02*
X133707500Y-100330000D01*
X129300000Y-109775000D02*
X131406700Y-109775000D01*
X131406700Y-109775000D02*
X132281700Y-108900000D01*
%TO.N,+3V3*%
X125245000Y-98904400D02*
X110031400Y-98904400D01*
X110031400Y-98904400D02*
X109220000Y-99715800D01*
X109220000Y-99715800D02*
X109220000Y-100959500D01*
X109220000Y-100959500D02*
X108805600Y-101373900D01*
X108805600Y-101373900D02*
X107366400Y-101373900D01*
X107366400Y-101373900D02*
X106322500Y-100330000D01*
X135532500Y-100330000D02*
X134106900Y-98904400D01*
X134106900Y-98904400D02*
X125245000Y-98904400D01*
X125245000Y-97875600D02*
X125245000Y-98904400D01*
X138430000Y-107950500D02*
X135532500Y-105053000D01*
X135532500Y-105053000D02*
X135532500Y-100330000D01*
X125980000Y-66325000D02*
X124664700Y-66325000D01*
X103619000Y-111220500D02*
X103619000Y-99642600D01*
X103619000Y-99642600D02*
X104006700Y-99254900D01*
X104006700Y-99254900D02*
X105247400Y-99254900D01*
X105247400Y-99254900D02*
X106322500Y-100330000D01*
X106322500Y-111760000D02*
X105248300Y-112834200D01*
X105248300Y-112834200D02*
X104022400Y-112834200D01*
X104022400Y-112834200D02*
X103619000Y-112430800D01*
X103619000Y-112430800D02*
X103619000Y-111220500D01*
X103619000Y-111220500D02*
X96338000Y-111220500D01*
X96338000Y-111220500D02*
X92710000Y-107592500D01*
X74930000Y-107592500D02*
X78537900Y-111200400D01*
X78537900Y-111200400D02*
X89102100Y-111200400D01*
X89102100Y-111200400D02*
X92710000Y-107592500D01*
X37565500Y-73660000D02*
X38100000Y-73660000D01*
X97155000Y-54610000D02*
X98580300Y-54610000D01*
X124664700Y-66325000D02*
X110295300Y-66325000D01*
X110295300Y-66325000D02*
X98580300Y-54610000D01*
X35560000Y-73660000D02*
X38100000Y-73660000D01*
X30480000Y-68580000D02*
X35560000Y-73660000D01*
X30480000Y-59690000D02*
X30480000Y-68580000D01*
X33020000Y-57150000D02*
X30480000Y-59690000D01*
X67310000Y-57150000D02*
X33020000Y-57150000D01*
%TO.N,Net-(D1-Pad2)*%
X118745000Y-54610000D02*
X117669700Y-53534700D01*
X117669700Y-53534700D02*
X112355600Y-53534700D01*
X112355600Y-53534700D02*
X111280300Y-54610000D01*
X125980000Y-54325000D02*
X125695000Y-54610000D01*
X125695000Y-54610000D02*
X118745000Y-54610000D01*
X109855000Y-54610000D02*
X111280300Y-54610000D01*
%TO.N,/MOSI*%
X95250000Y-60960000D02*
X86360000Y-69850000D01*
X86360000Y-69850000D02*
X67310000Y-69850000D01*
%TO.N,/MISO*%
X81062800Y-77687200D02*
X97790000Y-60960000D01*
X67310000Y-77470000D02*
X67527200Y-77687200D01*
X67527200Y-77687200D02*
X81062800Y-77687200D01*
X81062800Y-77687200D02*
X81062800Y-77731900D01*
X81062800Y-77731900D02*
X81136500Y-77805600D01*
D27*
%TO.N,Net-(J7-Pad1)*%
X154305000Y-55880000D02*
X151604700Y-55880000D01*
X138180000Y-54325000D02*
X150049700Y-54325000D01*
X150049700Y-54325000D02*
X151604700Y-55880000D01*
%TO.N,Net-(J7-Pad3)*%
X138180000Y-66325000D02*
X138465000Y-66040000D01*
X138465000Y-66040000D02*
X154305000Y-66040000D01*
D26*
%TO.N,/BUT1*%
X74930000Y-105767500D02*
X61872500Y-92710000D01*
X61872500Y-92710000D02*
X60622500Y-92710000D01*
X60622500Y-92710000D02*
X59381400Y-91468900D01*
X59381400Y-91468900D02*
X59381400Y-82858600D01*
X59381400Y-82858600D02*
X60960000Y-81280000D01*
X78684700Y-109875000D02*
X78684700Y-109522200D01*
X78684700Y-109522200D02*
X74930000Y-105767500D01*
X80010000Y-109875000D02*
X78684700Y-109875000D01*
%TO.N,/BUT2*%
X92710000Y-105767500D02*
X79303800Y-105767500D01*
X79303800Y-105767500D02*
X63706300Y-90170000D01*
X63706300Y-90170000D02*
X60688700Y-90170000D01*
X60688700Y-90170000D02*
X59831800Y-89313100D01*
X59831800Y-89313100D02*
X59831800Y-84948200D01*
X59831800Y-84948200D02*
X60960000Y-83820000D01*
X96464700Y-109875000D02*
X96464700Y-109522200D01*
X96464700Y-109522200D02*
X92710000Y-105767500D01*
X97790000Y-109875000D02*
X96464700Y-109875000D01*
%TO.N,/BUT3*%
X138430000Y-106125500D02*
X138430000Y-99697700D01*
X138430000Y-99697700D02*
X125092300Y-86360000D01*
X125092300Y-86360000D02*
X60960000Y-86360000D01*
X143510000Y-109875000D02*
X142179500Y-109875000D01*
X142179500Y-109875000D02*
X138430000Y-106125500D01*
%TO.N,/RIGHT*%
X60960000Y-96520000D02*
X77773800Y-113333800D01*
X77773800Y-113333800D02*
X106733700Y-113333800D01*
X106733700Y-113333800D02*
X108307500Y-111760000D01*
%TO.N,/LEFT*%
X97315000Y-97237800D02*
X105215300Y-97237800D01*
X105215300Y-97237800D02*
X108307500Y-100330000D01*
%TO.N,/BUT4*%
X60960000Y-88900000D02*
X126087500Y-88900000D01*
X126087500Y-88900000D02*
X137517500Y-100330000D01*
%TO.N,/CS*%
X38100000Y-86360000D02*
X49530000Y-74930000D01*
X49530000Y-74930000D02*
X61426200Y-74930000D01*
X61426200Y-74930000D02*
X65276500Y-71079700D01*
X65276500Y-71079700D02*
X65276500Y-64263500D01*
X65276500Y-64263500D02*
X67310000Y-62230000D01*
%TO.N,/DCD*%
X38100000Y-104140000D02*
X37005400Y-103045400D01*
X37005400Y-103045400D02*
X37005400Y-98592100D01*
X37005400Y-98592100D02*
X37807500Y-97790000D01*
X37807500Y-97790000D02*
X38459600Y-97790000D01*
X38459600Y-97790000D02*
X58779600Y-77470000D01*
X58779600Y-77470000D02*
X61273500Y-77470000D01*
X61273500Y-77470000D02*
X65857400Y-72886100D01*
X65857400Y-72886100D02*
X65857400Y-68762600D01*
X65857400Y-68762600D02*
X67310000Y-67310000D01*
%TO.N,/CSTEMP*%
X100330000Y-60960000D02*
X80175800Y-81114200D01*
X80175800Y-81114200D02*
X64810500Y-81114200D01*
X64810500Y-81114200D02*
X63844300Y-80148000D01*
X63844300Y-80148000D02*
X57012000Y-80148000D01*
X57012000Y-80148000D02*
X38100000Y-99060000D01*
%TD*%
D28*
%TO.N,Net-(J7-Pad2)*%
X154452249Y-41372437D02*
X155209774Y-41579672D01*
X155918625Y-41917777D01*
X156556404Y-42376067D01*
X157102946Y-42940055D01*
X157540977Y-43591913D01*
X157856651Y-44311038D01*
X158041206Y-45079768D01*
X158090001Y-45744221D01*
X158090001Y-77343000D01*
X150495000Y-77343000D01*
X150495000Y-68580000D01*
X150492560Y-68555224D01*
X150485333Y-68531399D01*
X150473597Y-68509443D01*
X150457803Y-68490197D01*
X150438557Y-68474403D01*
X150416601Y-68462667D01*
X150392776Y-68455440D01*
X150368000Y-68453000D01*
X146304000Y-68453000D01*
X146279224Y-68455440D01*
X146255399Y-68462667D01*
X146233443Y-68474403D01*
X146214197Y-68490197D01*
X146198403Y-68509443D01*
X146186667Y-68531399D01*
X146179440Y-68555224D01*
X146177000Y-68580000D01*
X146177000Y-77343000D01*
X120142000Y-77343000D01*
X120142000Y-67085000D01*
X124351928Y-67085000D01*
X124351928Y-67315000D01*
X124364188Y-67439482D01*
X124400498Y-67559180D01*
X124459463Y-67669494D01*
X124538815Y-67766185D01*
X124635506Y-67845537D01*
X124745820Y-67904502D01*
X124865518Y-67940812D01*
X124990000Y-67953072D01*
X126970000Y-67953072D01*
X127094482Y-67940812D01*
X127214180Y-67904502D01*
X127324494Y-67845537D01*
X127421185Y-67766185D01*
X127500537Y-67669494D01*
X127559502Y-67559180D01*
X127595812Y-67439482D01*
X127608072Y-67315000D01*
X127608072Y-66325000D01*
X136537089Y-66325000D01*
X136568658Y-66645516D01*
X136662148Y-66953714D01*
X136813970Y-67237752D01*
X137018287Y-67486713D01*
X137267248Y-67691030D01*
X137551286Y-67842852D01*
X137859484Y-67936342D01*
X138180000Y-67967911D01*
X138500516Y-67936342D01*
X138808714Y-67842852D01*
X139092752Y-67691030D01*
X139112285Y-67675000D01*
X152920654Y-67675000D01*
X152944017Y-67698363D01*
X153293698Y-67932012D01*
X153682244Y-68092953D01*
X154094721Y-68175000D01*
X154515279Y-68175000D01*
X154927756Y-68092953D01*
X155316302Y-67932012D01*
X155665983Y-67698363D01*
X155963363Y-67400983D01*
X156197012Y-67051302D01*
X156357953Y-66662756D01*
X156440000Y-66250279D01*
X156440000Y-65829721D01*
X156357953Y-65417244D01*
X156197012Y-65028698D01*
X155963363Y-64679017D01*
X155665983Y-64381637D01*
X155316302Y-64147988D01*
X154927756Y-63987047D01*
X154515279Y-63905000D01*
X154094721Y-63905000D01*
X153682244Y-63987047D01*
X153293698Y-64147988D01*
X152944017Y-64381637D01*
X152920654Y-64405000D01*
X138545322Y-64405000D01*
X138465000Y-64397089D01*
X138384678Y-64405000D01*
X138144484Y-64428657D01*
X137836285Y-64522148D01*
X137552248Y-64673969D01*
X137303286Y-64878286D01*
X137252075Y-64940687D01*
X136967085Y-65225677D01*
X136813970Y-65412248D01*
X136662148Y-65696286D01*
X136568658Y-66004484D01*
X136537089Y-66325000D01*
X127608072Y-66325000D01*
X127608072Y-65335000D01*
X127595812Y-65210518D01*
X127559502Y-65090820D01*
X127500537Y-64980506D01*
X127421185Y-64883815D01*
X127324494Y-64804463D01*
X127214180Y-64745498D01*
X127094482Y-64709188D01*
X126970000Y-64696928D01*
X124990000Y-64696928D01*
X124865518Y-64709188D01*
X124745820Y-64745498D01*
X124635506Y-64804463D01*
X124538815Y-64883815D01*
X124459463Y-64980506D01*
X124400498Y-65090820D01*
X124364188Y-65210518D01*
X124351928Y-65335000D01*
X124351928Y-65565000D01*
X120142000Y-65565000D01*
X120142000Y-62451653D01*
X152992952Y-62451653D01*
X153148962Y-62767214D01*
X153523745Y-62958020D01*
X153928551Y-63072044D01*
X154347824Y-63104902D01*
X154765451Y-63055334D01*
X155165383Y-62925243D01*
X155461038Y-62767214D01*
X155617048Y-62451653D01*
X154305000Y-61139605D01*
X152992952Y-62451653D01*
X120142000Y-62451653D01*
X120142000Y-61437234D01*
X123047371Y-61437234D01*
X123139210Y-61698314D01*
X123423286Y-61835956D01*
X123728756Y-61915533D01*
X124043881Y-61933987D01*
X124356551Y-61890608D01*
X124654751Y-61787063D01*
X124820790Y-61698314D01*
X124912629Y-61437234D01*
X123980000Y-60504605D01*
X123047371Y-61437234D01*
X120142000Y-61437234D01*
X120142000Y-60388881D01*
X122371013Y-60388881D01*
X122414392Y-60701551D01*
X122517937Y-60999751D01*
X122606686Y-61165790D01*
X122867766Y-61257629D01*
X123800395Y-60325000D01*
X124159605Y-60325000D01*
X125092234Y-61257629D01*
X125353314Y-61165790D01*
X125432275Y-61002824D01*
X152160098Y-61002824D01*
X152209666Y-61420451D01*
X152339757Y-61820383D01*
X152497786Y-62116038D01*
X152813347Y-62272048D01*
X154125395Y-60960000D01*
X154484605Y-60960000D01*
X155796653Y-62272048D01*
X156112214Y-62116038D01*
X156303020Y-61741255D01*
X156417044Y-61336449D01*
X156449902Y-60917176D01*
X156400334Y-60499549D01*
X156270243Y-60099617D01*
X156112214Y-59803962D01*
X155796653Y-59647952D01*
X154484605Y-60960000D01*
X154125395Y-60960000D01*
X152813347Y-59647952D01*
X152497786Y-59803962D01*
X152306980Y-60178745D01*
X152192956Y-60583551D01*
X152160098Y-61002824D01*
X125432275Y-61002824D01*
X125490956Y-60881714D01*
X125570533Y-60576244D01*
X125588987Y-60261119D01*
X125545608Y-59948449D01*
X125442063Y-59650249D01*
X125353314Y-59484210D01*
X125308219Y-59468347D01*
X152992952Y-59468347D01*
X154305000Y-60780395D01*
X155617048Y-59468347D01*
X155461038Y-59152786D01*
X155086255Y-58961980D01*
X154681449Y-58847956D01*
X154262176Y-58815098D01*
X153844549Y-58864666D01*
X153444617Y-58994757D01*
X153148962Y-59152786D01*
X152992952Y-59468347D01*
X125308219Y-59468347D01*
X125092234Y-59392371D01*
X124159605Y-60325000D01*
X123800395Y-60325000D01*
X122867766Y-59392371D01*
X122606686Y-59484210D01*
X122469044Y-59768286D01*
X122389467Y-60073756D01*
X122371013Y-60388881D01*
X120142000Y-60388881D01*
X120142000Y-59212766D01*
X123047371Y-59212766D01*
X123980000Y-60145395D01*
X124912629Y-59212766D01*
X124820790Y-58951686D01*
X124536714Y-58814044D01*
X124231244Y-58734467D01*
X123916119Y-58716013D01*
X123603449Y-58759392D01*
X123305249Y-58862937D01*
X123139210Y-58951686D01*
X123047371Y-59212766D01*
X120142000Y-59212766D01*
X120142000Y-55370000D01*
X124726903Y-55370000D01*
X124944123Y-55587220D01*
X125210274Y-55765057D01*
X125506005Y-55887552D01*
X125819951Y-55950000D01*
X126140049Y-55950000D01*
X126453995Y-55887552D01*
X126749726Y-55765057D01*
X127015877Y-55587220D01*
X127242220Y-55360877D01*
X127420057Y-55094726D01*
X127542552Y-54798995D01*
X127605000Y-54485049D01*
X127605000Y-54325000D01*
X136537089Y-54325000D01*
X136568657Y-54645516D01*
X136662148Y-54953715D01*
X136813969Y-55237752D01*
X137018286Y-55486714D01*
X137267248Y-55691031D01*
X137551285Y-55842852D01*
X137859484Y-55936343D01*
X138099678Y-55960000D01*
X149372462Y-55960000D01*
X150391779Y-56979318D01*
X150442986Y-57041714D01*
X150691948Y-57246031D01*
X150975985Y-57397852D01*
X151284184Y-57491343D01*
X151524378Y-57515000D01*
X151524380Y-57515000D01*
X151604699Y-57522911D01*
X151685019Y-57515000D01*
X152182379Y-57515000D01*
X152215498Y-57624180D01*
X152274463Y-57734494D01*
X152353815Y-57831185D01*
X152450506Y-57910537D01*
X152560820Y-57969502D01*
X152680518Y-58005812D01*
X152805000Y-58018072D01*
X155805000Y-58018072D01*
X155929482Y-58005812D01*
X156049180Y-57969502D01*
X156159494Y-57910537D01*
X156256185Y-57831185D01*
X156335537Y-57734494D01*
X156394502Y-57624180D01*
X156430812Y-57504482D01*
X156443072Y-57380000D01*
X156443072Y-54380000D01*
X156430812Y-54255518D01*
X156394502Y-54135820D01*
X156335537Y-54025506D01*
X156256185Y-53928815D01*
X156159494Y-53849463D01*
X156049180Y-53790498D01*
X155929482Y-53754188D01*
X155805000Y-53741928D01*
X152805000Y-53741928D01*
X152680518Y-53754188D01*
X152560820Y-53790498D01*
X152450506Y-53849463D01*
X152353815Y-53928815D01*
X152274463Y-54025506D01*
X152215498Y-54135820D01*
X152205551Y-54168612D01*
X151262625Y-53225686D01*
X151211414Y-53163286D01*
X150962452Y-52958969D01*
X150678415Y-52807148D01*
X150370216Y-52713657D01*
X150130022Y-52690000D01*
X150130019Y-52690000D01*
X150049700Y-52682089D01*
X149969381Y-52690000D01*
X138099678Y-52690000D01*
X137859484Y-52713657D01*
X137551285Y-52807148D01*
X137267248Y-52958969D01*
X137018286Y-53163286D01*
X136813969Y-53412248D01*
X136662148Y-53696285D01*
X136568657Y-54004484D01*
X136537089Y-54325000D01*
X127605000Y-54325000D01*
X127605000Y-54164951D01*
X127542552Y-53851005D01*
X127420057Y-53555274D01*
X127242220Y-53289123D01*
X127015877Y-53062780D01*
X126749726Y-52884943D01*
X126453995Y-52762448D01*
X126140049Y-52700000D01*
X125819951Y-52700000D01*
X125506005Y-52762448D01*
X125210274Y-52884943D01*
X124944123Y-53062780D01*
X124717780Y-53289123D01*
X124539943Y-53555274D01*
X124417864Y-53850000D01*
X120142000Y-53850000D01*
X120142000Y-49657000D01*
X121920000Y-49657000D01*
X121944776Y-49654560D01*
X121968601Y-49647333D01*
X121990557Y-49635597D01*
X122009803Y-49619803D01*
X122025597Y-49600557D01*
X122037333Y-49578601D01*
X122044560Y-49554776D01*
X122047000Y-49530000D01*
X122047000Y-45509721D01*
X151535000Y-45509721D01*
X151535000Y-45930279D01*
X151617047Y-46342756D01*
X151777988Y-46731302D01*
X152011637Y-47080983D01*
X152309017Y-47378363D01*
X152658698Y-47612012D01*
X153047244Y-47772953D01*
X153459721Y-47855000D01*
X153880279Y-47855000D01*
X154292756Y-47772953D01*
X154681302Y-47612012D01*
X155030983Y-47378363D01*
X155328363Y-47080983D01*
X155562012Y-46731302D01*
X155722953Y-46342756D01*
X155805000Y-45930279D01*
X155805000Y-45509721D01*
X155722953Y-45097244D01*
X155562012Y-44708698D01*
X155328363Y-44359017D01*
X155030983Y-44061637D01*
X154681302Y-43827988D01*
X154292756Y-43667047D01*
X153880279Y-43585000D01*
X153459721Y-43585000D01*
X153047244Y-43667047D01*
X152658698Y-43827988D01*
X152309017Y-44061637D01*
X152011637Y-44359017D01*
X151777988Y-44708698D01*
X151617047Y-45097244D01*
X151535000Y-45509721D01*
X122047000Y-45509721D01*
X122047000Y-41300000D01*
X153640608Y-41300000D01*
X154452249Y-41372437D01*
%TA.AperFunction,Conductor*%
D29*
G36*
X154452249Y-41372437D02*
G01*
X155209774Y-41579672D01*
X155918625Y-41917777D01*
X156556404Y-42376067D01*
X157102946Y-42940055D01*
X157540977Y-43591913D01*
X157856651Y-44311038D01*
X158041206Y-45079768D01*
X158090001Y-45744221D01*
X158090001Y-77343000D01*
X150495000Y-77343000D01*
X150495000Y-68580000D01*
X150492560Y-68555224D01*
X150485333Y-68531399D01*
X150473597Y-68509443D01*
X150457803Y-68490197D01*
X150438557Y-68474403D01*
X150416601Y-68462667D01*
X150392776Y-68455440D01*
X150368000Y-68453000D01*
X146304000Y-68453000D01*
X146279224Y-68455440D01*
X146255399Y-68462667D01*
X146233443Y-68474403D01*
X146214197Y-68490197D01*
X146198403Y-68509443D01*
X146186667Y-68531399D01*
X146179440Y-68555224D01*
X146177000Y-68580000D01*
X146177000Y-77343000D01*
X120142000Y-77343000D01*
X120142000Y-67085000D01*
X124351928Y-67085000D01*
X124351928Y-67315000D01*
X124364188Y-67439482D01*
X124400498Y-67559180D01*
X124459463Y-67669494D01*
X124538815Y-67766185D01*
X124635506Y-67845537D01*
X124745820Y-67904502D01*
X124865518Y-67940812D01*
X124990000Y-67953072D01*
X126970000Y-67953072D01*
X127094482Y-67940812D01*
X127214180Y-67904502D01*
X127324494Y-67845537D01*
X127421185Y-67766185D01*
X127500537Y-67669494D01*
X127559502Y-67559180D01*
X127595812Y-67439482D01*
X127608072Y-67315000D01*
X127608072Y-66325000D01*
X136537089Y-66325000D01*
X136568658Y-66645516D01*
X136662148Y-66953714D01*
X136813970Y-67237752D01*
X137018287Y-67486713D01*
X137267248Y-67691030D01*
X137551286Y-67842852D01*
X137859484Y-67936342D01*
X138180000Y-67967911D01*
X138500516Y-67936342D01*
X138808714Y-67842852D01*
X139092752Y-67691030D01*
X139112285Y-67675000D01*
X152920654Y-67675000D01*
X152944017Y-67698363D01*
X153293698Y-67932012D01*
X153682244Y-68092953D01*
X154094721Y-68175000D01*
X154515279Y-68175000D01*
X154927756Y-68092953D01*
X155316302Y-67932012D01*
X155665983Y-67698363D01*
X155963363Y-67400983D01*
X156197012Y-67051302D01*
X156357953Y-66662756D01*
X156440000Y-66250279D01*
X156440000Y-65829721D01*
X156357953Y-65417244D01*
X156197012Y-65028698D01*
X155963363Y-64679017D01*
X155665983Y-64381637D01*
X155316302Y-64147988D01*
X154927756Y-63987047D01*
X154515279Y-63905000D01*
X154094721Y-63905000D01*
X153682244Y-63987047D01*
X153293698Y-64147988D01*
X152944017Y-64381637D01*
X152920654Y-64405000D01*
X138545322Y-64405000D01*
X138465000Y-64397089D01*
X138384678Y-64405000D01*
X138144484Y-64428657D01*
X137836285Y-64522148D01*
X137552248Y-64673969D01*
X137303286Y-64878286D01*
X137252075Y-64940687D01*
X136967085Y-65225677D01*
X136813970Y-65412248D01*
X136662148Y-65696286D01*
X136568658Y-66004484D01*
X136537089Y-66325000D01*
X127608072Y-66325000D01*
X127608072Y-65335000D01*
X127595812Y-65210518D01*
X127559502Y-65090820D01*
X127500537Y-64980506D01*
X127421185Y-64883815D01*
X127324494Y-64804463D01*
X127214180Y-64745498D01*
X127094482Y-64709188D01*
X126970000Y-64696928D01*
X124990000Y-64696928D01*
X124865518Y-64709188D01*
X124745820Y-64745498D01*
X124635506Y-64804463D01*
X124538815Y-64883815D01*
X124459463Y-64980506D01*
X124400498Y-65090820D01*
X124364188Y-65210518D01*
X124351928Y-65335000D01*
X124351928Y-65565000D01*
X120142000Y-65565000D01*
X120142000Y-62451653D01*
X152992952Y-62451653D01*
X153148962Y-62767214D01*
X153523745Y-62958020D01*
X153928551Y-63072044D01*
X154347824Y-63104902D01*
X154765451Y-63055334D01*
X155165383Y-62925243D01*
X155461038Y-62767214D01*
X155617048Y-62451653D01*
X154305000Y-61139605D01*
X152992952Y-62451653D01*
X120142000Y-62451653D01*
X120142000Y-61437234D01*
X123047371Y-61437234D01*
X123139210Y-61698314D01*
X123423286Y-61835956D01*
X123728756Y-61915533D01*
X124043881Y-61933987D01*
X124356551Y-61890608D01*
X124654751Y-61787063D01*
X124820790Y-61698314D01*
X124912629Y-61437234D01*
X123980000Y-60504605D01*
X123047371Y-61437234D01*
X120142000Y-61437234D01*
X120142000Y-60388881D01*
X122371013Y-60388881D01*
X122414392Y-60701551D01*
X122517937Y-60999751D01*
X122606686Y-61165790D01*
X122867766Y-61257629D01*
X123800395Y-60325000D01*
X124159605Y-60325000D01*
X125092234Y-61257629D01*
X125353314Y-61165790D01*
X125432275Y-61002824D01*
X152160098Y-61002824D01*
X152209666Y-61420451D01*
X152339757Y-61820383D01*
X152497786Y-62116038D01*
X152813347Y-62272048D01*
X154125395Y-60960000D01*
X154484605Y-60960000D01*
X155796653Y-62272048D01*
X156112214Y-62116038D01*
X156303020Y-61741255D01*
X156417044Y-61336449D01*
X156449902Y-60917176D01*
X156400334Y-60499549D01*
X156270243Y-60099617D01*
X156112214Y-59803962D01*
X155796653Y-59647952D01*
X154484605Y-60960000D01*
X154125395Y-60960000D01*
X152813347Y-59647952D01*
X152497786Y-59803962D01*
X152306980Y-60178745D01*
X152192956Y-60583551D01*
X152160098Y-61002824D01*
X125432275Y-61002824D01*
X125490956Y-60881714D01*
X125570533Y-60576244D01*
X125588987Y-60261119D01*
X125545608Y-59948449D01*
X125442063Y-59650249D01*
X125353314Y-59484210D01*
X125308219Y-59468347D01*
X152992952Y-59468347D01*
X154305000Y-60780395D01*
X155617048Y-59468347D01*
X155461038Y-59152786D01*
X155086255Y-58961980D01*
X154681449Y-58847956D01*
X154262176Y-58815098D01*
X153844549Y-58864666D01*
X153444617Y-58994757D01*
X153148962Y-59152786D01*
X152992952Y-59468347D01*
X125308219Y-59468347D01*
X125092234Y-59392371D01*
X124159605Y-60325000D01*
X123800395Y-60325000D01*
X122867766Y-59392371D01*
X122606686Y-59484210D01*
X122469044Y-59768286D01*
X122389467Y-60073756D01*
X122371013Y-60388881D01*
X120142000Y-60388881D01*
X120142000Y-59212766D01*
X123047371Y-59212766D01*
X123980000Y-60145395D01*
X124912629Y-59212766D01*
X124820790Y-58951686D01*
X124536714Y-58814044D01*
X124231244Y-58734467D01*
X123916119Y-58716013D01*
X123603449Y-58759392D01*
X123305249Y-58862937D01*
X123139210Y-58951686D01*
X123047371Y-59212766D01*
X120142000Y-59212766D01*
X120142000Y-55370000D01*
X124726903Y-55370000D01*
X124944123Y-55587220D01*
X125210274Y-55765057D01*
X125506005Y-55887552D01*
X125819951Y-55950000D01*
X126140049Y-55950000D01*
X126453995Y-55887552D01*
X126749726Y-55765057D01*
X127015877Y-55587220D01*
X127242220Y-55360877D01*
X127420057Y-55094726D01*
X127542552Y-54798995D01*
X127605000Y-54485049D01*
X127605000Y-54325000D01*
X136537089Y-54325000D01*
X136568657Y-54645516D01*
X136662148Y-54953715D01*
X136813969Y-55237752D01*
X137018286Y-55486714D01*
X137267248Y-55691031D01*
X137551285Y-55842852D01*
X137859484Y-55936343D01*
X138099678Y-55960000D01*
X149372462Y-55960000D01*
X150391779Y-56979318D01*
X150442986Y-57041714D01*
X150691948Y-57246031D01*
X150975985Y-57397852D01*
X151284184Y-57491343D01*
X151524378Y-57515000D01*
X151524380Y-57515000D01*
X151604699Y-57522911D01*
X151685019Y-57515000D01*
X152182379Y-57515000D01*
X152215498Y-57624180D01*
X152274463Y-57734494D01*
X152353815Y-57831185D01*
X152450506Y-57910537D01*
X152560820Y-57969502D01*
X152680518Y-58005812D01*
X152805000Y-58018072D01*
X155805000Y-58018072D01*
X155929482Y-58005812D01*
X156049180Y-57969502D01*
X156159494Y-57910537D01*
X156256185Y-57831185D01*
X156335537Y-57734494D01*
X156394502Y-57624180D01*
X156430812Y-57504482D01*
X156443072Y-57380000D01*
X156443072Y-54380000D01*
X156430812Y-54255518D01*
X156394502Y-54135820D01*
X156335537Y-54025506D01*
X156256185Y-53928815D01*
X156159494Y-53849463D01*
X156049180Y-53790498D01*
X155929482Y-53754188D01*
X155805000Y-53741928D01*
X152805000Y-53741928D01*
X152680518Y-53754188D01*
X152560820Y-53790498D01*
X152450506Y-53849463D01*
X152353815Y-53928815D01*
X152274463Y-54025506D01*
X152215498Y-54135820D01*
X152205551Y-54168612D01*
X151262625Y-53225686D01*
X151211414Y-53163286D01*
X150962452Y-52958969D01*
X150678415Y-52807148D01*
X150370216Y-52713657D01*
X150130022Y-52690000D01*
X150130019Y-52690000D01*
X150049700Y-52682089D01*
X149969381Y-52690000D01*
X138099678Y-52690000D01*
X137859484Y-52713657D01*
X137551285Y-52807148D01*
X137267248Y-52958969D01*
X137018286Y-53163286D01*
X136813969Y-53412248D01*
X136662148Y-53696285D01*
X136568657Y-54004484D01*
X136537089Y-54325000D01*
X127605000Y-54325000D01*
X127605000Y-54164951D01*
X127542552Y-53851005D01*
X127420057Y-53555274D01*
X127242220Y-53289123D01*
X127015877Y-53062780D01*
X126749726Y-52884943D01*
X126453995Y-52762448D01*
X126140049Y-52700000D01*
X125819951Y-52700000D01*
X125506005Y-52762448D01*
X125210274Y-52884943D01*
X124944123Y-53062780D01*
X124717780Y-53289123D01*
X124539943Y-53555274D01*
X124417864Y-53850000D01*
X120142000Y-53850000D01*
X120142000Y-49657000D01*
X121920000Y-49657000D01*
X121944776Y-49654560D01*
X121968601Y-49647333D01*
X121990557Y-49635597D01*
X122009803Y-49619803D01*
X122025597Y-49600557D01*
X122037333Y-49578601D01*
X122044560Y-49554776D01*
X122047000Y-49530000D01*
X122047000Y-45509721D01*
X151535000Y-45509721D01*
X151535000Y-45930279D01*
X151617047Y-46342756D01*
X151777988Y-46731302D01*
X152011637Y-47080983D01*
X152309017Y-47378363D01*
X152658698Y-47612012D01*
X153047244Y-47772953D01*
X153459721Y-47855000D01*
X153880279Y-47855000D01*
X154292756Y-47772953D01*
X154681302Y-47612012D01*
X155030983Y-47378363D01*
X155328363Y-47080983D01*
X155562012Y-46731302D01*
X155722953Y-46342756D01*
X155805000Y-45930279D01*
X155805000Y-45509721D01*
X155722953Y-45097244D01*
X155562012Y-44708698D01*
X155328363Y-44359017D01*
X155030983Y-44061637D01*
X154681302Y-43827988D01*
X154292756Y-43667047D01*
X153880279Y-43585000D01*
X153459721Y-43585000D01*
X153047244Y-43667047D01*
X152658698Y-43827988D01*
X152309017Y-44061637D01*
X152011637Y-44359017D01*
X151777988Y-44708698D01*
X151617047Y-45097244D01*
X151535000Y-45509721D01*
X122047000Y-45509721D01*
X122047000Y-41300000D01*
X153640608Y-41300000D01*
X154452249Y-41372437D01*
G37*
%TD.AperFunction*%
%TD*%
D28*
%TO.N,GND*%
X116717886Y-49495110D02*
X116713000Y-49530000D01*
X116713000Y-52774700D01*
X112392923Y-52774700D01*
X112355600Y-52771024D01*
X112318277Y-52774700D01*
X112318267Y-52774700D01*
X112206614Y-52785697D01*
X112063353Y-52829154D01*
X111931324Y-52899726D01*
X111815599Y-52994699D01*
X111791801Y-53023697D01*
X111246256Y-53569243D01*
X111202663Y-53504002D01*
X110960998Y-53262337D01*
X110676831Y-53072463D01*
X110361081Y-52941675D01*
X110025883Y-52875000D01*
X109684117Y-52875000D01*
X109348919Y-52941675D01*
X109033169Y-53072463D01*
X108749002Y-53262337D01*
X108507337Y-53504002D01*
X108317463Y-53788169D01*
X108186675Y-54103919D01*
X108120000Y-54439117D01*
X108120000Y-54780883D01*
X108186675Y-55116081D01*
X108317463Y-55431831D01*
X108507337Y-55715998D01*
X108749002Y-55957663D01*
X109033169Y-56147537D01*
X109348919Y-56278325D01*
X109684117Y-56345000D01*
X110025883Y-56345000D01*
X110361081Y-56278325D01*
X110676831Y-56147537D01*
X110960998Y-55957663D01*
X111202663Y-55715998D01*
X111392537Y-55431831D01*
X111422423Y-55359679D01*
X111429286Y-55359003D01*
X111572547Y-55315546D01*
X111704576Y-55244974D01*
X111820301Y-55150001D01*
X111844104Y-55120998D01*
X112280000Y-54685102D01*
X112280000Y-54737002D01*
X112438748Y-54737002D01*
X112280000Y-54895750D01*
X112276928Y-55360000D01*
X112289188Y-55484482D01*
X112325498Y-55604180D01*
X112384463Y-55714494D01*
X112463815Y-55811185D01*
X112560506Y-55890537D01*
X112670820Y-55949502D01*
X112790518Y-55985812D01*
X112915000Y-55998072D01*
X113379250Y-55995000D01*
X113538000Y-55836250D01*
X113538000Y-54737000D01*
X113518000Y-54737000D01*
X113518000Y-54483000D01*
X113538000Y-54483000D01*
X113538000Y-54463000D01*
X113792000Y-54463000D01*
X113792000Y-54483000D01*
X113812000Y-54483000D01*
X113812000Y-54737000D01*
X113792000Y-54737000D01*
X113792000Y-55836250D01*
X113950750Y-55995000D01*
X114415000Y-55998072D01*
X114539482Y-55985812D01*
X114659180Y-55949502D01*
X114769494Y-55890537D01*
X114866185Y-55811185D01*
X114945537Y-55714494D01*
X115004502Y-55604180D01*
X115040812Y-55484482D01*
X115051445Y-55376517D01*
X115129201Y-55492886D01*
X115322114Y-55685799D01*
X115548957Y-55837371D01*
X115801011Y-55941775D01*
X116068589Y-55995000D01*
X116341411Y-55995000D01*
X116608989Y-55941775D01*
X116713000Y-55898692D01*
X116713000Y-65565000D01*
X110610102Y-65565000D01*
X99144104Y-54099003D01*
X99120301Y-54069999D01*
X99004576Y-53975026D01*
X98893072Y-53915425D01*
X98893072Y-53510000D01*
X98880812Y-53385518D01*
X98844502Y-53265820D01*
X98785537Y-53155506D01*
X98706185Y-53058815D01*
X98609494Y-52979463D01*
X98499180Y-52920498D01*
X98379482Y-52884188D01*
X98255000Y-52871928D01*
X96055000Y-52871928D01*
X95930518Y-52884188D01*
X95810820Y-52920498D01*
X95700506Y-52979463D01*
X95603815Y-53058815D01*
X95524463Y-53155506D01*
X95465498Y-53265820D01*
X95429188Y-53385518D01*
X95416928Y-53510000D01*
X95416928Y-55710000D01*
X95429188Y-55834482D01*
X95465498Y-55954180D01*
X95524463Y-56064494D01*
X95603815Y-56161185D01*
X95700506Y-56240537D01*
X95810820Y-56299502D01*
X95930518Y-56335812D01*
X96055000Y-56348072D01*
X98255000Y-56348072D01*
X98379482Y-56335812D01*
X98499180Y-56299502D01*
X98609494Y-56240537D01*
X98706185Y-56161185D01*
X98785537Y-56064494D01*
X98844502Y-55954180D01*
X98845707Y-55950208D01*
X102503943Y-59608444D01*
X102462510Y-59616686D01*
X102208273Y-59721995D01*
X101979465Y-59874880D01*
X101784880Y-60069465D01*
X101631995Y-60298273D01*
X101600000Y-60375515D01*
X101568005Y-60298273D01*
X101415120Y-60069465D01*
X101220535Y-59874880D01*
X100991727Y-59721995D01*
X100737490Y-59616686D01*
X100467592Y-59563000D01*
X100192408Y-59563000D01*
X99922510Y-59616686D01*
X99668273Y-59721995D01*
X99439465Y-59874880D01*
X99244880Y-60069465D01*
X99091995Y-60298273D01*
X99060000Y-60375515D01*
X99028005Y-60298273D01*
X98875120Y-60069465D01*
X98680535Y-59874880D01*
X98451727Y-59721995D01*
X98197490Y-59616686D01*
X97927592Y-59563000D01*
X97652408Y-59563000D01*
X97382510Y-59616686D01*
X97128273Y-59721995D01*
X96899465Y-59874880D01*
X96704880Y-60069465D01*
X96551995Y-60298273D01*
X96520000Y-60375515D01*
X96488005Y-60298273D01*
X96335120Y-60069465D01*
X96140535Y-59874880D01*
X95911727Y-59721995D01*
X95657490Y-59616686D01*
X95387592Y-59563000D01*
X95112408Y-59563000D01*
X94842510Y-59616686D01*
X94588273Y-59721995D01*
X94359465Y-59874880D01*
X94164880Y-60069465D01*
X94011995Y-60298273D01*
X93980000Y-60375515D01*
X93948005Y-60298273D01*
X93795120Y-60069465D01*
X93600535Y-59874880D01*
X93371727Y-59721995D01*
X93117490Y-59616686D01*
X92847592Y-59563000D01*
X92572408Y-59563000D01*
X92302510Y-59616686D01*
X92048273Y-59721995D01*
X91819465Y-59874880D01*
X91624880Y-60069465D01*
X91471995Y-60298273D01*
X91440000Y-60375515D01*
X91408005Y-60298273D01*
X91255120Y-60069465D01*
X91060535Y-59874880D01*
X90831727Y-59721995D01*
X90577490Y-59616686D01*
X90307592Y-59563000D01*
X90032408Y-59563000D01*
X89762510Y-59616686D01*
X89508273Y-59721995D01*
X89279465Y-59874880D01*
X89084880Y-60069465D01*
X88931995Y-60298273D01*
X88902308Y-60369943D01*
X88897636Y-60356977D01*
X88835656Y-60241020D01*
X88595565Y-60174040D01*
X87809605Y-60960000D01*
X88595565Y-61745960D01*
X88835656Y-61678980D01*
X88899485Y-61543240D01*
X88931995Y-61621727D01*
X89084880Y-61850535D01*
X89279465Y-62045120D01*
X89508273Y-62198005D01*
X89762510Y-62303314D01*
X90032408Y-62357000D01*
X90307592Y-62357000D01*
X90577490Y-62303314D01*
X90831727Y-62198005D01*
X91060535Y-62045120D01*
X91255120Y-61850535D01*
X91408005Y-61621727D01*
X91440000Y-61544485D01*
X91471995Y-61621727D01*
X91624880Y-61850535D01*
X91819465Y-62045120D01*
X92048273Y-62198005D01*
X92302510Y-62303314D01*
X92572408Y-62357000D01*
X92778198Y-62357000D01*
X86045199Y-69090000D01*
X68482341Y-69090000D01*
X68395120Y-68959465D01*
X68200535Y-68764880D01*
X67971727Y-68611995D01*
X67894485Y-68580000D01*
X67971727Y-68548005D01*
X68200535Y-68395120D01*
X68395120Y-68200535D01*
X68548005Y-67971727D01*
X68653314Y-67717490D01*
X68707000Y-67447592D01*
X68707000Y-67172408D01*
X68653314Y-66902510D01*
X68548005Y-66648273D01*
X68395120Y-66419465D01*
X68200535Y-66224880D01*
X67971727Y-66071995D01*
X67894485Y-66040000D01*
X67971727Y-66008005D01*
X68200535Y-65855120D01*
X68395120Y-65660535D01*
X68548005Y-65431727D01*
X68653314Y-65177490D01*
X68707000Y-64907592D01*
X68707000Y-64632408D01*
X68653314Y-64362510D01*
X68548005Y-64108273D01*
X68395120Y-63879465D01*
X68200535Y-63684880D01*
X67971727Y-63531995D01*
X67894485Y-63500000D01*
X67971727Y-63468005D01*
X68200535Y-63315120D01*
X68395120Y-63120535D01*
X68548005Y-62891727D01*
X68653314Y-62637490D01*
X68707000Y-62367592D01*
X68707000Y-62092408D01*
X68653314Y-61822510D01*
X68548005Y-61568273D01*
X68395120Y-61339465D01*
X68200535Y-61144880D01*
X67971727Y-60991995D01*
X67900057Y-60962308D01*
X67913023Y-60957636D01*
X68028980Y-60895656D01*
X68049414Y-60822408D01*
X83693000Y-60822408D01*
X83693000Y-61097592D01*
X83746686Y-61367490D01*
X83851995Y-61621727D01*
X84004880Y-61850535D01*
X84199465Y-62045120D01*
X84428273Y-62198005D01*
X84682510Y-62303314D01*
X84952408Y-62357000D01*
X85227592Y-62357000D01*
X85497490Y-62303314D01*
X85751727Y-62198005D01*
X85980535Y-62045120D01*
X86100090Y-61925565D01*
X86844040Y-61925565D01*
X86911020Y-62165656D01*
X87160048Y-62282756D01*
X87427135Y-62349023D01*
X87702017Y-62361910D01*
X87974133Y-62320922D01*
X88233023Y-62227636D01*
X88348980Y-62165656D01*
X88415960Y-61925565D01*
X87630000Y-61139605D01*
X86844040Y-61925565D01*
X86100090Y-61925565D01*
X86175120Y-61850535D01*
X86328005Y-61621727D01*
X86357692Y-61550057D01*
X86362364Y-61563023D01*
X86424344Y-61678980D01*
X86664435Y-61745960D01*
X87450395Y-60960000D01*
X86664435Y-60174040D01*
X86424344Y-60241020D01*
X86360515Y-60376760D01*
X86328005Y-60298273D01*
X86175120Y-60069465D01*
X86100090Y-59994435D01*
X86844040Y-59994435D01*
X87630000Y-60780395D01*
X88415960Y-59994435D01*
X88348980Y-59754344D01*
X88099952Y-59637244D01*
X87832865Y-59570977D01*
X87557983Y-59558090D01*
X87285867Y-59599078D01*
X87026977Y-59692364D01*
X86911020Y-59754344D01*
X86844040Y-59994435D01*
X86100090Y-59994435D01*
X85980535Y-59874880D01*
X85751727Y-59721995D01*
X85497490Y-59616686D01*
X85227592Y-59563000D01*
X84952408Y-59563000D01*
X84682510Y-59616686D01*
X84428273Y-59721995D01*
X84199465Y-59874880D01*
X84004880Y-60069465D01*
X83851995Y-60298273D01*
X83746686Y-60552510D01*
X83693000Y-60822408D01*
X68049414Y-60822408D01*
X68095960Y-60655565D01*
X67310000Y-59869605D01*
X66524040Y-60655565D01*
X66591020Y-60895656D01*
X66726760Y-60959485D01*
X66648273Y-60991995D01*
X66419465Y-61144880D01*
X66224880Y-61339465D01*
X66071995Y-61568273D01*
X65966686Y-61822510D01*
X65913000Y-62092408D01*
X65913000Y-62367592D01*
X65943628Y-62521570D01*
X64765498Y-63699701D01*
X64736500Y-63723499D01*
X64712702Y-63752497D01*
X64712701Y-63752498D01*
X64641526Y-63839224D01*
X64570954Y-63971254D01*
X64527498Y-64114515D01*
X64512824Y-64263500D01*
X64516501Y-64300832D01*
X64516500Y-70764897D01*
X63627000Y-71654398D01*
X63627000Y-60960000D01*
X63624560Y-60935224D01*
X63617333Y-60911399D01*
X63605597Y-60889443D01*
X63589803Y-60870197D01*
X63570557Y-60854403D01*
X63548601Y-60842667D01*
X63524776Y-60835440D01*
X63500000Y-60833000D01*
X36830000Y-60833000D01*
X36805224Y-60835440D01*
X36781399Y-60842667D01*
X36759443Y-60854403D01*
X36740197Y-60870197D01*
X36724403Y-60889443D01*
X36712667Y-60911399D01*
X36705440Y-60935224D01*
X36703000Y-60960000D01*
X36703000Y-72390000D01*
X36705440Y-72414776D01*
X36712667Y-72438601D01*
X36724403Y-72460557D01*
X36740197Y-72479803D01*
X36759443Y-72495597D01*
X36781399Y-72507333D01*
X36805224Y-72514560D01*
X36830000Y-72517000D01*
X37296088Y-72517000D01*
X37209465Y-72574880D01*
X37014880Y-72769465D01*
X36927659Y-72900000D01*
X35874802Y-72900000D01*
X31240000Y-68265199D01*
X31240000Y-60004801D01*
X31482784Y-59762017D01*
X65908090Y-59762017D01*
X65949078Y-60034133D01*
X66042364Y-60293023D01*
X66104344Y-60408980D01*
X66344435Y-60475960D01*
X67130395Y-59690000D01*
X67489605Y-59690000D01*
X68275565Y-60475960D01*
X68515656Y-60408980D01*
X68632756Y-60159952D01*
X68699023Y-59892865D01*
X68711910Y-59617983D01*
X68670922Y-59345867D01*
X68577636Y-59086977D01*
X68515656Y-58971020D01*
X68275565Y-58904040D01*
X67489605Y-59690000D01*
X67130395Y-59690000D01*
X66344435Y-58904040D01*
X66104344Y-58971020D01*
X65987244Y-59220048D01*
X65920977Y-59487135D01*
X65908090Y-59762017D01*
X31482784Y-59762017D01*
X33334803Y-57910000D01*
X66137659Y-57910000D01*
X66224880Y-58040535D01*
X66419465Y-58235120D01*
X66648273Y-58388005D01*
X66719943Y-58417692D01*
X66706977Y-58422364D01*
X66591020Y-58484344D01*
X66524040Y-58724435D01*
X67310000Y-59510395D01*
X68095960Y-58724435D01*
X68028980Y-58484344D01*
X67893240Y-58420515D01*
X67971727Y-58388005D01*
X68200535Y-58235120D01*
X68395120Y-58040535D01*
X68548005Y-57811727D01*
X68653314Y-57557490D01*
X68707000Y-57287592D01*
X68707000Y-57012408D01*
X68653314Y-56742510D01*
X68548005Y-56488273D01*
X68395120Y-56259465D01*
X68200535Y-56064880D01*
X67971727Y-55911995D01*
X67717490Y-55806686D01*
X67447592Y-55753000D01*
X67172408Y-55753000D01*
X66902510Y-55806686D01*
X66648273Y-55911995D01*
X66419465Y-56064880D01*
X66224880Y-56259465D01*
X66137659Y-56390000D01*
X33057322Y-56390000D01*
X33019999Y-56386324D01*
X32982676Y-56390000D01*
X32982667Y-56390000D01*
X32871014Y-56400997D01*
X32727753Y-56444454D01*
X32595724Y-56515026D01*
X32595722Y-56515027D01*
X32595723Y-56515027D01*
X32508996Y-56586201D01*
X32508992Y-56586205D01*
X32479999Y-56609999D01*
X32456205Y-56638992D01*
X29969003Y-59126196D01*
X29939999Y-59149999D01*
X29884871Y-59217174D01*
X29845026Y-59265724D01*
X29774455Y-59397753D01*
X29774454Y-59397754D01*
X29730997Y-59541015D01*
X29720000Y-59652668D01*
X29720000Y-59652678D01*
X29716324Y-59690000D01*
X29720000Y-59727322D01*
X29720001Y-68542668D01*
X29716324Y-68580000D01*
X29730998Y-68728985D01*
X29774454Y-68872246D01*
X29845026Y-69004276D01*
X29915379Y-69090000D01*
X29940000Y-69120001D01*
X29968998Y-69143799D01*
X34996201Y-74171003D01*
X35019999Y-74200001D01*
X35048997Y-74223799D01*
X35135723Y-74294974D01*
X35267753Y-74365546D01*
X35411014Y-74409003D01*
X35522667Y-74420000D01*
X35522677Y-74420000D01*
X35560000Y-74423676D01*
X35597323Y-74420000D01*
X36927659Y-74420000D01*
X37014880Y-74550535D01*
X37209465Y-74745120D01*
X37438273Y-74898005D01*
X37515515Y-74930000D01*
X37438273Y-74961995D01*
X37209465Y-75114880D01*
X37014880Y-75309465D01*
X36861995Y-75538273D01*
X36756686Y-75792510D01*
X36703000Y-76062408D01*
X36703000Y-76337592D01*
X36756686Y-76607490D01*
X36861995Y-76861727D01*
X37014880Y-77090535D01*
X37209465Y-77285120D01*
X37438273Y-77438005D01*
X37515515Y-77470000D01*
X37438273Y-77501995D01*
X37209465Y-77654880D01*
X37014880Y-77849465D01*
X36861995Y-78078273D01*
X36756686Y-78332510D01*
X36703000Y-78602408D01*
X36703000Y-78877592D01*
X36756686Y-79147490D01*
X36861995Y-79401727D01*
X37014880Y-79630535D01*
X37209465Y-79825120D01*
X37438273Y-79978005D01*
X37515515Y-80010000D01*
X37438273Y-80041995D01*
X37209465Y-80194880D01*
X37014880Y-80389465D01*
X36861995Y-80618273D01*
X36756686Y-80872510D01*
X36703000Y-81142408D01*
X36703000Y-81417592D01*
X36756686Y-81687490D01*
X36861995Y-81941727D01*
X37014880Y-82170535D01*
X37209465Y-82365120D01*
X37438273Y-82518005D01*
X37515515Y-82550000D01*
X37438273Y-82581995D01*
X37209465Y-82734880D01*
X37014880Y-82929465D01*
X36861995Y-83158273D01*
X36756686Y-83412510D01*
X36703000Y-83682408D01*
X36703000Y-83957592D01*
X36756686Y-84227490D01*
X36861995Y-84481727D01*
X37014880Y-84710535D01*
X37209465Y-84905120D01*
X37438273Y-85058005D01*
X37515515Y-85090000D01*
X37438273Y-85121995D01*
X37209465Y-85274880D01*
X37014880Y-85469465D01*
X36861995Y-85698273D01*
X36756686Y-85952510D01*
X36703000Y-86222408D01*
X36703000Y-86497592D01*
X36756686Y-86767490D01*
X36861995Y-87021727D01*
X37014880Y-87250535D01*
X37209465Y-87445120D01*
X37438273Y-87598005D01*
X37515515Y-87630000D01*
X37438273Y-87661995D01*
X37209465Y-87814880D01*
X37014880Y-88009465D01*
X36861995Y-88238273D01*
X36756686Y-88492510D01*
X36703000Y-88762408D01*
X36703000Y-89037592D01*
X36756686Y-89307490D01*
X36861995Y-89561727D01*
X37014880Y-89790535D01*
X37209465Y-89985120D01*
X37438273Y-90138005D01*
X37515515Y-90170000D01*
X37438273Y-90201995D01*
X37209465Y-90354880D01*
X37014880Y-90549465D01*
X36861995Y-90778273D01*
X36756686Y-91032510D01*
X36703000Y-91302408D01*
X36703000Y-91577592D01*
X36756686Y-91847490D01*
X36861995Y-92101727D01*
X37014880Y-92330535D01*
X37209465Y-92525120D01*
X37438273Y-92678005D01*
X37515515Y-92710000D01*
X37438273Y-92741995D01*
X37209465Y-92894880D01*
X37014880Y-93089465D01*
X36861995Y-93318273D01*
X36756686Y-93572510D01*
X36703000Y-93842408D01*
X36703000Y-94117592D01*
X36756686Y-94387490D01*
X36861995Y-94641727D01*
X37014880Y-94870535D01*
X37209465Y-95065120D01*
X37438273Y-95218005D01*
X37515515Y-95250000D01*
X37438273Y-95281995D01*
X37209465Y-95434880D01*
X37014880Y-95629465D01*
X36861995Y-95858273D01*
X36756686Y-96112510D01*
X36703000Y-96382408D01*
X36703000Y-96657592D01*
X36756686Y-96927490D01*
X36861995Y-97181727D01*
X37014880Y-97410535D01*
X37063522Y-97459177D01*
X36494398Y-98028301D01*
X36465400Y-98052099D01*
X36441602Y-98081097D01*
X36441601Y-98081098D01*
X36370426Y-98167824D01*
X36299854Y-98299854D01*
X36270000Y-98398273D01*
X36256398Y-98443114D01*
X36245401Y-98554767D01*
X36241724Y-98592100D01*
X36245401Y-98629432D01*
X36245400Y-103008077D01*
X36241724Y-103045400D01*
X36245400Y-103082722D01*
X36245400Y-103082732D01*
X36256397Y-103194385D01*
X36299854Y-103337646D01*
X36370426Y-103469676D01*
X36410271Y-103518226D01*
X36465399Y-103585401D01*
X36494402Y-103609204D01*
X36733628Y-103848429D01*
X36703000Y-104002408D01*
X36703000Y-104277592D01*
X36756686Y-104547490D01*
X36861995Y-104801727D01*
X37014880Y-105030535D01*
X37209465Y-105225120D01*
X37438273Y-105378005D01*
X37692510Y-105483314D01*
X37962408Y-105537000D01*
X38237592Y-105537000D01*
X38507490Y-105483314D01*
X38761727Y-105378005D01*
X38990535Y-105225120D01*
X39110090Y-105105565D01*
X60174040Y-105105565D01*
X60241020Y-105345656D01*
X60490048Y-105462756D01*
X60757135Y-105529023D01*
X61032017Y-105541910D01*
X61304133Y-105500922D01*
X61563023Y-105407636D01*
X61678980Y-105345656D01*
X61745960Y-105105565D01*
X60960000Y-104319605D01*
X60174040Y-105105565D01*
X39110090Y-105105565D01*
X39185120Y-105030535D01*
X39338005Y-104801727D01*
X39443314Y-104547490D01*
X39497000Y-104277592D01*
X39497000Y-104212017D01*
X59558090Y-104212017D01*
X59599078Y-104484133D01*
X59692364Y-104743023D01*
X59754344Y-104858980D01*
X59994435Y-104925960D01*
X60780395Y-104140000D01*
X61139605Y-104140000D01*
X61925565Y-104925960D01*
X62165656Y-104858980D01*
X62282756Y-104609952D01*
X62349023Y-104342865D01*
X62361910Y-104067983D01*
X62320922Y-103795867D01*
X62227636Y-103536977D01*
X62165656Y-103421020D01*
X61925565Y-103354040D01*
X61139605Y-104140000D01*
X60780395Y-104140000D01*
X59994435Y-103354040D01*
X59754344Y-103421020D01*
X59637244Y-103670048D01*
X59570977Y-103937135D01*
X59558090Y-104212017D01*
X39497000Y-104212017D01*
X39497000Y-104002408D01*
X39443314Y-103732510D01*
X39338005Y-103478273D01*
X39185120Y-103249465D01*
X38990535Y-103054880D01*
X38761727Y-102901995D01*
X38684485Y-102870000D01*
X38761727Y-102838005D01*
X38990535Y-102685120D01*
X39185120Y-102490535D01*
X39338005Y-102261727D01*
X39443314Y-102007490D01*
X39497000Y-101737592D01*
X39497000Y-101462408D01*
X39443314Y-101192510D01*
X39338005Y-100938273D01*
X39185120Y-100709465D01*
X38990535Y-100514880D01*
X38761727Y-100361995D01*
X38684485Y-100330000D01*
X38761727Y-100298005D01*
X38990535Y-100145120D01*
X39185120Y-99950535D01*
X39338005Y-99721727D01*
X39443314Y-99467490D01*
X39497000Y-99197592D01*
X39497000Y-98922408D01*
X39466372Y-98768429D01*
X57326802Y-80908000D01*
X59609627Y-80908000D01*
X59563000Y-81142408D01*
X59563000Y-81417592D01*
X59593628Y-81571570D01*
X58870398Y-82294801D01*
X58841400Y-82318599D01*
X58817602Y-82347597D01*
X58817601Y-82347598D01*
X58746426Y-82434324D01*
X58675854Y-82566354D01*
X58671110Y-82581995D01*
X58632398Y-82709614D01*
X58621401Y-82821267D01*
X58617724Y-82858600D01*
X58621401Y-82895932D01*
X58621400Y-91431578D01*
X58617724Y-91468900D01*
X58621400Y-91506222D01*
X58621400Y-91506232D01*
X58632397Y-91617885D01*
X58675854Y-91761146D01*
X58746426Y-91893176D01*
X58786271Y-91941726D01*
X58841399Y-92008901D01*
X58870402Y-92032703D01*
X59901021Y-93063324D01*
X59874880Y-93089465D01*
X59721995Y-93318273D01*
X59616686Y-93572510D01*
X59563000Y-93842408D01*
X59563000Y-94117592D01*
X59616686Y-94387490D01*
X59721995Y-94641727D01*
X59874880Y-94870535D01*
X60069465Y-95065120D01*
X60298273Y-95218005D01*
X60375515Y-95250000D01*
X60298273Y-95281995D01*
X60069465Y-95434880D01*
X59874880Y-95629465D01*
X59721995Y-95858273D01*
X59616686Y-96112510D01*
X59563000Y-96382408D01*
X59563000Y-96657592D01*
X59616686Y-96927490D01*
X59721995Y-97181727D01*
X59874880Y-97410535D01*
X60069465Y-97605120D01*
X60298273Y-97758005D01*
X60375515Y-97790000D01*
X60298273Y-97821995D01*
X60069465Y-97974880D01*
X59874880Y-98169465D01*
X59721995Y-98398273D01*
X59616686Y-98652510D01*
X59563000Y-98922408D01*
X59563000Y-99197592D01*
X59616686Y-99467490D01*
X59721995Y-99721727D01*
X59874880Y-99950535D01*
X60069465Y-100145120D01*
X60298273Y-100298005D01*
X60375515Y-100330000D01*
X60298273Y-100361995D01*
X60069465Y-100514880D01*
X59874880Y-100709465D01*
X59721995Y-100938273D01*
X59616686Y-101192510D01*
X59563000Y-101462408D01*
X59563000Y-101737592D01*
X59616686Y-102007490D01*
X59721995Y-102261727D01*
X59874880Y-102490535D01*
X60069465Y-102685120D01*
X60298273Y-102838005D01*
X60369943Y-102867692D01*
X60356977Y-102872364D01*
X60241020Y-102934344D01*
X60174040Y-103174435D01*
X60960000Y-103960395D01*
X61745960Y-103174435D01*
X61678980Y-102934344D01*
X61543240Y-102870515D01*
X61621727Y-102838005D01*
X61850535Y-102685120D01*
X62045120Y-102490535D01*
X62198005Y-102261727D01*
X62303314Y-102007490D01*
X62357000Y-101737592D01*
X62357000Y-101462408D01*
X62303314Y-101192510D01*
X62198005Y-100938273D01*
X62045120Y-100709465D01*
X61850535Y-100514880D01*
X61621727Y-100361995D01*
X61544485Y-100330000D01*
X61621727Y-100298005D01*
X61850535Y-100145120D01*
X62045120Y-99950535D01*
X62198005Y-99721727D01*
X62303314Y-99467490D01*
X62357000Y-99197592D01*
X62357000Y-98991801D01*
X77210001Y-113844803D01*
X77233799Y-113873801D01*
X77262797Y-113897599D01*
X77349523Y-113968774D01*
X77469355Y-114032826D01*
X77481553Y-114039346D01*
X77624814Y-114082803D01*
X77736467Y-114093800D01*
X77736477Y-114093800D01*
X77773800Y-114097476D01*
X77811122Y-114093800D01*
X106696378Y-114093800D01*
X106733700Y-114097476D01*
X106771022Y-114093800D01*
X106771033Y-114093800D01*
X106882686Y-114082803D01*
X107025947Y-114039346D01*
X107157976Y-113968774D01*
X107273701Y-113873801D01*
X107297504Y-113844797D01*
X108044298Y-113098003D01*
X108044999Y-113098072D01*
X108570001Y-113098072D01*
X108743255Y-113081008D01*
X108909851Y-113030472D01*
X109063387Y-112948405D01*
X109197962Y-112837962D01*
X109220000Y-112811109D01*
X109242038Y-112837962D01*
X109376613Y-112948405D01*
X109530149Y-113030472D01*
X109696745Y-113081008D01*
X109869999Y-113098072D01*
X110395001Y-113098072D01*
X110568255Y-113081008D01*
X110734851Y-113030472D01*
X110888387Y-112948405D01*
X111022962Y-112837962D01*
X111133405Y-112703387D01*
X111215472Y-112549851D01*
X111236900Y-112479210D01*
X111281947Y-112465546D01*
X111413976Y-112394974D01*
X111529701Y-112300001D01*
X111553504Y-112270997D01*
X112743528Y-111080974D01*
X112769463Y-111129494D01*
X112848815Y-111226185D01*
X112945506Y-111305537D01*
X113055820Y-111364502D01*
X113175518Y-111400812D01*
X113300000Y-111413072D01*
X115300000Y-111413072D01*
X115424482Y-111400812D01*
X115544180Y-111364502D01*
X115654494Y-111305537D01*
X115751185Y-111226185D01*
X115830537Y-111129494D01*
X115889502Y-111019180D01*
X115925812Y-110899482D01*
X115938072Y-110775000D01*
X115938072Y-108775000D01*
X115925812Y-108650518D01*
X115889502Y-108530820D01*
X115886391Y-108525000D01*
X115889502Y-108519180D01*
X115925812Y-108399482D01*
X115938072Y-108275000D01*
X115935000Y-107560750D01*
X115776250Y-107402000D01*
X114427000Y-107402000D01*
X114427000Y-107422000D01*
X114173000Y-107422000D01*
X114173000Y-107402000D01*
X112823750Y-107402000D01*
X112665000Y-107560750D01*
X112661928Y-108275000D01*
X112674188Y-108399482D01*
X112710498Y-108519180D01*
X112713609Y-108525000D01*
X112710498Y-108530820D01*
X112674188Y-108650518D01*
X112661928Y-108775000D01*
X112661928Y-109080425D01*
X112550423Y-109140026D01*
X112486792Y-109192247D01*
X112434699Y-109234999D01*
X112410901Y-109263997D01*
X111006429Y-110668470D01*
X110888387Y-110571595D01*
X110734851Y-110489528D01*
X110568255Y-110438992D01*
X110395001Y-110421928D01*
X109869999Y-110421928D01*
X109869299Y-110421997D01*
X108796604Y-109349303D01*
X108772801Y-109320299D01*
X108763888Y-109312984D01*
X108770000Y-109313072D01*
X108894482Y-109300812D01*
X109014180Y-109264502D01*
X109124494Y-109205537D01*
X109221185Y-109126185D01*
X109286658Y-109046406D01*
X109292038Y-109052962D01*
X109426614Y-109163405D01*
X109580150Y-109245472D01*
X109746746Y-109296008D01*
X109920000Y-109313072D01*
X110420000Y-109313072D01*
X110593254Y-109296008D01*
X110759850Y-109245472D01*
X110913386Y-109163405D01*
X111047962Y-109052962D01*
X111158405Y-108918386D01*
X111240472Y-108764850D01*
X111291008Y-108598254D01*
X111308072Y-108425000D01*
X111308072Y-107516429D01*
X112674277Y-106150225D01*
X112674188Y-106150518D01*
X112661928Y-106275000D01*
X112665000Y-106989250D01*
X112823750Y-107148000D01*
X114173000Y-107148000D01*
X114173000Y-107128000D01*
X114427000Y-107128000D01*
X114427000Y-107148000D01*
X115776250Y-107148000D01*
X115935000Y-106989250D01*
X115938072Y-106275000D01*
X115925812Y-106150518D01*
X115889502Y-106030820D01*
X115886391Y-106025000D01*
X115889502Y-106019180D01*
X115925812Y-105899482D01*
X115938072Y-105775000D01*
X127161928Y-105775000D01*
X127174188Y-105899482D01*
X127210498Y-106019180D01*
X127269463Y-106129494D01*
X127348815Y-106226185D01*
X127445506Y-106305537D01*
X127555820Y-106364502D01*
X127675518Y-106400812D01*
X127800000Y-106413072D01*
X129014250Y-106410000D01*
X129173000Y-106251250D01*
X129173000Y-104902000D01*
X129427000Y-104902000D01*
X129427000Y-106251250D01*
X129585750Y-106410000D01*
X130800000Y-106413072D01*
X130924482Y-106400812D01*
X131044180Y-106364502D01*
X131154494Y-106305537D01*
X131251185Y-106226185D01*
X131330537Y-106129494D01*
X131389502Y-106019180D01*
X131425812Y-105899482D01*
X131438072Y-105775000D01*
X131435000Y-105060750D01*
X131276250Y-104902000D01*
X129427000Y-104902000D01*
X129173000Y-104902000D01*
X127323750Y-104902000D01*
X127165000Y-105060750D01*
X127161928Y-105775000D01*
X115938072Y-105775000D01*
X115938072Y-103775000D01*
X127161928Y-103775000D01*
X127165000Y-104489250D01*
X127323750Y-104648000D01*
X129173000Y-104648000D01*
X129173000Y-103298750D01*
X129427000Y-103298750D01*
X129427000Y-104648000D01*
X131276250Y-104648000D01*
X131435000Y-104489250D01*
X131438072Y-103775000D01*
X131425812Y-103650518D01*
X131389502Y-103530820D01*
X131330537Y-103420506D01*
X131251185Y-103323815D01*
X131154494Y-103244463D01*
X131044180Y-103185498D01*
X130924482Y-103149188D01*
X130800000Y-103136928D01*
X129585750Y-103140000D01*
X129427000Y-103298750D01*
X129173000Y-103298750D01*
X129014250Y-103140000D01*
X127800000Y-103136928D01*
X127675518Y-103149188D01*
X127555820Y-103185498D01*
X127445506Y-103244463D01*
X127348815Y-103323815D01*
X127269463Y-103420506D01*
X127210498Y-103530820D01*
X127174188Y-103650518D01*
X127161928Y-103775000D01*
X115938072Y-103775000D01*
X115925812Y-103650518D01*
X115889502Y-103530820D01*
X115830537Y-103420506D01*
X115751185Y-103323815D01*
X115654494Y-103244463D01*
X115544180Y-103185498D01*
X115424482Y-103149188D01*
X115300000Y-103136928D01*
X113300000Y-103136928D01*
X113175518Y-103149188D01*
X113055820Y-103185498D01*
X112945506Y-103244463D01*
X112848815Y-103323815D01*
X112769463Y-103420506D01*
X112743528Y-103469026D01*
X110892500Y-101617999D01*
X110892500Y-101515030D01*
X111022962Y-101407962D01*
X111133405Y-101273387D01*
X111215472Y-101119851D01*
X111266008Y-100953255D01*
X111283072Y-100780001D01*
X111283072Y-99879999D01*
X111266008Y-99706745D01*
X111253163Y-99664400D01*
X119561928Y-99664400D01*
X119561928Y-102275000D01*
X119574188Y-102399482D01*
X119610498Y-102519180D01*
X119669463Y-102629494D01*
X119748815Y-102726185D01*
X119845506Y-102805537D01*
X119955820Y-102864502D01*
X120075518Y-102900812D01*
X120200000Y-102913072D01*
X123400000Y-102913072D01*
X123524482Y-102900812D01*
X123644180Y-102864502D01*
X123754494Y-102805537D01*
X123851185Y-102726185D01*
X123930537Y-102629494D01*
X123989502Y-102519180D01*
X124025812Y-102399482D01*
X124038072Y-102275000D01*
X124038072Y-99664400D01*
X125207667Y-99664400D01*
X125245000Y-99668077D01*
X125282333Y-99664400D01*
X132586837Y-99664400D01*
X132573992Y-99706745D01*
X132556928Y-99879999D01*
X132556928Y-100405770D01*
X131770698Y-101192001D01*
X131741700Y-101215799D01*
X131717902Y-101244797D01*
X131717901Y-101244798D01*
X131646726Y-101331524D01*
X131576154Y-101463554D01*
X131532698Y-101606815D01*
X131518024Y-101755800D01*
X131521701Y-101793132D01*
X131521700Y-108585198D01*
X131428553Y-108678346D01*
X131425812Y-108650518D01*
X131389502Y-108530820D01*
X131330537Y-108420506D01*
X131251185Y-108323815D01*
X131154494Y-108244463D01*
X131044180Y-108185498D01*
X130924482Y-108149188D01*
X130800000Y-108136928D01*
X127800000Y-108136928D01*
X127675518Y-108149188D01*
X127555820Y-108185498D01*
X127445506Y-108244463D01*
X127348815Y-108323815D01*
X127269463Y-108420506D01*
X127210498Y-108530820D01*
X127174188Y-108650518D01*
X127161928Y-108775000D01*
X127161928Y-110775000D01*
X127174188Y-110899482D01*
X127210498Y-111019180D01*
X127269463Y-111129494D01*
X127348815Y-111226185D01*
X127445506Y-111305537D01*
X127555820Y-111364502D01*
X127675518Y-111400812D01*
X127800000Y-111413072D01*
X130800000Y-111413072D01*
X130924482Y-111400812D01*
X131044180Y-111364502D01*
X131154494Y-111305537D01*
X131251185Y-111226185D01*
X131330537Y-111129494D01*
X131389502Y-111019180D01*
X131425812Y-110899482D01*
X131438072Y-110775000D01*
X131438072Y-110535586D01*
X131444022Y-110535000D01*
X131444033Y-110535000D01*
X131555686Y-110524003D01*
X131698947Y-110480546D01*
X131830976Y-110409974D01*
X131946701Y-110315001D01*
X131970503Y-110285998D01*
X132374190Y-109882312D01*
X132381614Y-109888405D01*
X132535150Y-109970472D01*
X132701746Y-110021008D01*
X132875000Y-110038072D01*
X133413271Y-110038072D01*
X135086601Y-111711403D01*
X135110399Y-111740401D01*
X135139397Y-111764199D01*
X135226123Y-111835374D01*
X135285293Y-111867001D01*
X135358153Y-111905946D01*
X135501414Y-111949403D01*
X135613067Y-111960400D01*
X135613077Y-111960400D01*
X135650400Y-111964076D01*
X135687723Y-111960400D01*
X144619078Y-111960400D01*
X144656400Y-111964076D01*
X144693722Y-111960400D01*
X144693733Y-111960400D01*
X144805386Y-111949403D01*
X144948647Y-111905946D01*
X145080676Y-111835374D01*
X145196401Y-111740401D01*
X145220204Y-111711397D01*
X145346398Y-111585203D01*
X145375401Y-111561401D01*
X145470374Y-111445676D01*
X145540946Y-111313647D01*
X145584403Y-111170386D01*
X145595400Y-111058733D01*
X145595400Y-111058724D01*
X145599076Y-111021401D01*
X145595400Y-110984078D01*
X145595400Y-110279721D01*
X151535000Y-110279721D01*
X151535000Y-110700279D01*
X151617047Y-111112756D01*
X151777988Y-111501302D01*
X152011637Y-111850983D01*
X152309017Y-112148363D01*
X152658698Y-112382012D01*
X153047244Y-112542953D01*
X153459721Y-112625000D01*
X153880279Y-112625000D01*
X154292756Y-112542953D01*
X154681302Y-112382012D01*
X155030983Y-112148363D01*
X155328363Y-111850983D01*
X155562012Y-111501302D01*
X155722953Y-111112756D01*
X155805000Y-110700279D01*
X155805000Y-110279721D01*
X155722953Y-109867244D01*
X155562012Y-109478698D01*
X155328363Y-109129017D01*
X155030983Y-108831637D01*
X154681302Y-108597988D01*
X154292756Y-108437047D01*
X153880279Y-108355000D01*
X153459721Y-108355000D01*
X153047244Y-108437047D01*
X152658698Y-108597988D01*
X152309017Y-108831637D01*
X152011637Y-109129017D01*
X151777988Y-109478698D01*
X151617047Y-109867244D01*
X151535000Y-110279721D01*
X145595400Y-110279721D01*
X145595400Y-107974725D01*
X145599076Y-107937400D01*
X145595400Y-107900075D01*
X145595400Y-107900067D01*
X145584403Y-107788414D01*
X145540946Y-107645153D01*
X145470374Y-107513124D01*
X145375401Y-107397399D01*
X145346403Y-107373601D01*
X143353526Y-105380724D01*
X143383000Y-105351250D01*
X143383000Y-104002000D01*
X143637000Y-104002000D01*
X143637000Y-105351250D01*
X143795750Y-105510000D01*
X144510000Y-105513072D01*
X144634482Y-105500812D01*
X144754180Y-105464502D01*
X144864494Y-105405537D01*
X144961185Y-105326185D01*
X145040537Y-105229494D01*
X145099502Y-105119180D01*
X145135812Y-104999482D01*
X145148072Y-104875000D01*
X145145000Y-104160750D01*
X144986250Y-104002000D01*
X143637000Y-104002000D01*
X143383000Y-104002000D01*
X142033750Y-104002000D01*
X142004276Y-104031474D01*
X140847802Y-102875000D01*
X141871928Y-102875000D01*
X141875000Y-103589250D01*
X142033750Y-103748000D01*
X143383000Y-103748000D01*
X143383000Y-102398750D01*
X143637000Y-102398750D01*
X143637000Y-103748000D01*
X144986250Y-103748000D01*
X145145000Y-103589250D01*
X145148072Y-102875000D01*
X145135812Y-102750518D01*
X145099502Y-102630820D01*
X145040537Y-102520506D01*
X144961185Y-102423815D01*
X144864494Y-102344463D01*
X144754180Y-102285498D01*
X144634482Y-102249188D01*
X144510000Y-102236928D01*
X143795750Y-102240000D01*
X143637000Y-102398750D01*
X143383000Y-102398750D01*
X143224250Y-102240000D01*
X142510000Y-102236928D01*
X142385518Y-102249188D01*
X142265820Y-102285498D01*
X142155506Y-102344463D01*
X142058815Y-102423815D01*
X141979463Y-102520506D01*
X141920498Y-102630820D01*
X141884188Y-102750518D01*
X141871928Y-102875000D01*
X140847802Y-102875000D01*
X140102500Y-102129699D01*
X140102500Y-101515030D01*
X140232962Y-101407962D01*
X140343405Y-101273387D01*
X140425472Y-101119851D01*
X140476008Y-100953255D01*
X140493072Y-100780001D01*
X140493072Y-99879999D01*
X140476008Y-99706745D01*
X140425472Y-99540149D01*
X140343405Y-99386613D01*
X140232962Y-99252038D01*
X140098387Y-99141595D01*
X139944851Y-99059528D01*
X139778255Y-99008992D01*
X139605001Y-98991928D01*
X139079999Y-98991928D01*
X138906745Y-99008992D01*
X138837192Y-99030090D01*
X125656104Y-85849003D01*
X125632301Y-85819999D01*
X125516576Y-85725026D01*
X125384547Y-85654454D01*
X125241286Y-85610997D01*
X125129633Y-85600000D01*
X125129622Y-85600000D01*
X125092300Y-85596324D01*
X125054978Y-85600000D01*
X68610853Y-85600000D01*
X68653314Y-85497490D01*
X68707000Y-85227592D01*
X68707000Y-84952408D01*
X68653314Y-84682510D01*
X68548005Y-84428273D01*
X68395120Y-84199465D01*
X68200535Y-84004880D01*
X67971727Y-83851995D01*
X67894485Y-83820000D01*
X67971727Y-83788005D01*
X68200535Y-83635120D01*
X68395120Y-83440535D01*
X68548005Y-83211727D01*
X68653314Y-82957490D01*
X68660690Y-82920408D01*
X87376000Y-82920408D01*
X87376000Y-83195592D01*
X87429686Y-83465490D01*
X87534995Y-83719727D01*
X87687880Y-83948535D01*
X87882465Y-84143120D01*
X88111273Y-84296005D01*
X88365510Y-84401314D01*
X88635408Y-84455000D01*
X88910592Y-84455000D01*
X89180490Y-84401314D01*
X89434727Y-84296005D01*
X89663535Y-84143120D01*
X89858120Y-83948535D01*
X90011005Y-83719727D01*
X90116314Y-83465490D01*
X90170000Y-83195592D01*
X90170000Y-82920408D01*
X90932000Y-82920408D01*
X90932000Y-83195592D01*
X90985686Y-83465490D01*
X91090995Y-83719727D01*
X91243880Y-83948535D01*
X91438465Y-84143120D01*
X91667273Y-84296005D01*
X91921510Y-84401314D01*
X92191408Y-84455000D01*
X92466592Y-84455000D01*
X92736490Y-84401314D01*
X92990727Y-84296005D01*
X93219535Y-84143120D01*
X93414120Y-83948535D01*
X93567005Y-83719727D01*
X93672314Y-83465490D01*
X93726000Y-83195592D01*
X93726000Y-82920408D01*
X94488000Y-82920408D01*
X94488000Y-83195592D01*
X94541686Y-83465490D01*
X94646995Y-83719727D01*
X94799880Y-83948535D01*
X94994465Y-84143120D01*
X95223273Y-84296005D01*
X95477510Y-84401314D01*
X95747408Y-84455000D01*
X96022592Y-84455000D01*
X96292490Y-84401314D01*
X96546727Y-84296005D01*
X96775535Y-84143120D01*
X96970120Y-83948535D01*
X97123005Y-83719727D01*
X97228314Y-83465490D01*
X97282000Y-83195592D01*
X97282000Y-82920408D01*
X98044000Y-82920408D01*
X98044000Y-83195592D01*
X98097686Y-83465490D01*
X98202995Y-83719727D01*
X98355880Y-83948535D01*
X98550465Y-84143120D01*
X98779273Y-84296005D01*
X99033510Y-84401314D01*
X99303408Y-84455000D01*
X99578592Y-84455000D01*
X99848490Y-84401314D01*
X100102727Y-84296005D01*
X100331535Y-84143120D01*
X100526120Y-83948535D01*
X100679005Y-83719727D01*
X100784314Y-83465490D01*
X100838000Y-83195592D01*
X100838000Y-82920408D01*
X100784314Y-82650510D01*
X100679005Y-82396273D01*
X100526120Y-82167465D01*
X100331535Y-81972880D01*
X100102727Y-81819995D01*
X99848490Y-81714686D01*
X99578592Y-81661000D01*
X99303408Y-81661000D01*
X99033510Y-81714686D01*
X98779273Y-81819995D01*
X98550465Y-81972880D01*
X98355880Y-82167465D01*
X98202995Y-82396273D01*
X98097686Y-82650510D01*
X98044000Y-82920408D01*
X97282000Y-82920408D01*
X97228314Y-82650510D01*
X97123005Y-82396273D01*
X96970120Y-82167465D01*
X96775535Y-81972880D01*
X96546727Y-81819995D01*
X96292490Y-81714686D01*
X96022592Y-81661000D01*
X95747408Y-81661000D01*
X95477510Y-81714686D01*
X95223273Y-81819995D01*
X94994465Y-81972880D01*
X94799880Y-82167465D01*
X94646995Y-82396273D01*
X94541686Y-82650510D01*
X94488000Y-82920408D01*
X93726000Y-82920408D01*
X93672314Y-82650510D01*
X93567005Y-82396273D01*
X93414120Y-82167465D01*
X93219535Y-81972880D01*
X92990727Y-81819995D01*
X92736490Y-81714686D01*
X92466592Y-81661000D01*
X92191408Y-81661000D01*
X91921510Y-81714686D01*
X91667273Y-81819995D01*
X91438465Y-81972880D01*
X91243880Y-82167465D01*
X91090995Y-82396273D01*
X90985686Y-82650510D01*
X90932000Y-82920408D01*
X90170000Y-82920408D01*
X90116314Y-82650510D01*
X90011005Y-82396273D01*
X89858120Y-82167465D01*
X89663535Y-81972880D01*
X89434727Y-81819995D01*
X89180490Y-81714686D01*
X88910592Y-81661000D01*
X88635408Y-81661000D01*
X88365510Y-81714686D01*
X88111273Y-81819995D01*
X87882465Y-81972880D01*
X87687880Y-82167465D01*
X87534995Y-82396273D01*
X87429686Y-82650510D01*
X87376000Y-82920408D01*
X68660690Y-82920408D01*
X68707000Y-82687592D01*
X68707000Y-82412408D01*
X68653314Y-82142510D01*
X68548005Y-81888273D01*
X68538602Y-81874200D01*
X80138478Y-81874200D01*
X80175800Y-81877876D01*
X80213122Y-81874200D01*
X80213133Y-81874200D01*
X80324786Y-81863203D01*
X80468047Y-81819746D01*
X80600076Y-81749174D01*
X80715801Y-81654201D01*
X80739604Y-81625197D01*
X100038430Y-62326372D01*
X100192408Y-62357000D01*
X100467592Y-62357000D01*
X100737490Y-62303314D01*
X100991727Y-62198005D01*
X101220535Y-62045120D01*
X101415120Y-61850535D01*
X101568005Y-61621727D01*
X101600000Y-61544485D01*
X101631995Y-61621727D01*
X101784880Y-61850535D01*
X101979465Y-62045120D01*
X102208273Y-62198005D01*
X102462510Y-62303314D01*
X102732408Y-62357000D01*
X103007592Y-62357000D01*
X103277490Y-62303314D01*
X103531727Y-62198005D01*
X103760535Y-62045120D01*
X103955120Y-61850535D01*
X104108005Y-61621727D01*
X104213314Y-61367490D01*
X104221556Y-61326057D01*
X109731501Y-66836003D01*
X109755299Y-66865001D01*
X109784297Y-66888799D01*
X109871023Y-66959974D01*
X109979121Y-67017754D01*
X110003053Y-67030546D01*
X110146314Y-67074003D01*
X110257967Y-67085000D01*
X110257977Y-67085000D01*
X110295300Y-67088676D01*
X110332623Y-67085000D01*
X116713000Y-67085000D01*
X116713000Y-78740000D01*
X116715440Y-78764776D01*
X116722667Y-78788601D01*
X116734403Y-78810557D01*
X116750197Y-78829803D01*
X116769443Y-78845597D01*
X116791399Y-78857333D01*
X116815224Y-78864560D01*
X116840000Y-78867000D01*
X146177000Y-78867000D01*
X146177000Y-80264000D01*
X146179440Y-80288776D01*
X146186667Y-80312601D01*
X146198403Y-80334557D01*
X146214197Y-80353803D01*
X146233443Y-80369597D01*
X146255399Y-80381333D01*
X146279224Y-80388560D01*
X146304000Y-80391000D01*
X150368000Y-80391000D01*
X150392776Y-80388560D01*
X150416601Y-80381333D01*
X150438557Y-80369597D01*
X150457803Y-80353803D01*
X150473597Y-80334557D01*
X150485333Y-80312601D01*
X150492560Y-80288776D01*
X150495000Y-80264000D01*
X150495000Y-78867000D01*
X158090000Y-78867000D01*
X158090000Y-110460608D01*
X158017563Y-111272249D01*
X157810328Y-112029774D01*
X157472221Y-112738627D01*
X157013928Y-113376410D01*
X156449945Y-113922946D01*
X155798085Y-114360978D01*
X155078963Y-114676651D01*
X154310232Y-114861206D01*
X153645792Y-114910000D01*
X124038072Y-114910000D01*
X124038072Y-111975000D01*
X124025812Y-111850518D01*
X123989502Y-111730820D01*
X123930537Y-111620506D01*
X123851185Y-111523815D01*
X123754494Y-111444463D01*
X123644180Y-111385498D01*
X123524482Y-111349188D01*
X123400000Y-111336928D01*
X120200000Y-111336928D01*
X120075518Y-111349188D01*
X119955820Y-111385498D01*
X119845506Y-111444463D01*
X119748815Y-111523815D01*
X119669463Y-111620506D01*
X119610498Y-111730820D01*
X119574188Y-111850518D01*
X119561928Y-111975000D01*
X119561928Y-114910000D01*
X33049392Y-114910000D01*
X32237751Y-114837563D01*
X31480226Y-114630328D01*
X30771373Y-114292221D01*
X30133590Y-113833928D01*
X29587054Y-113269945D01*
X29149022Y-112618085D01*
X28833349Y-111898963D01*
X28648794Y-111130232D01*
X28600000Y-110465792D01*
X28600000Y-110279721D01*
X30885000Y-110279721D01*
X30885000Y-110700279D01*
X30967047Y-111112756D01*
X31127988Y-111501302D01*
X31361637Y-111850983D01*
X31659017Y-112148363D01*
X32008698Y-112382012D01*
X32397244Y-112542953D01*
X32809721Y-112625000D01*
X33230279Y-112625000D01*
X33642756Y-112542953D01*
X34031302Y-112382012D01*
X34380983Y-112148363D01*
X34678363Y-111850983D01*
X34912012Y-111501302D01*
X35072953Y-111112756D01*
X35155000Y-110700279D01*
X35155000Y-110279721D01*
X35072953Y-109867244D01*
X34912012Y-109478698D01*
X34678363Y-109129017D01*
X34380983Y-108831637D01*
X34031302Y-108597988D01*
X33642756Y-108437047D01*
X33230279Y-108355000D01*
X32809721Y-108355000D01*
X32397244Y-108437047D01*
X32008698Y-108597988D01*
X31659017Y-108831637D01*
X31361637Y-109129017D01*
X31127988Y-109478698D01*
X30967047Y-109867244D01*
X30885000Y-110279721D01*
X28600000Y-110279721D01*
X28600000Y-45749392D01*
X28621390Y-45509721D01*
X30885000Y-45509721D01*
X30885000Y-45930279D01*
X30967047Y-46342756D01*
X31127988Y-46731302D01*
X31361637Y-47080983D01*
X31659017Y-47378363D01*
X32008698Y-47612012D01*
X32397244Y-47772953D01*
X32809721Y-47855000D01*
X33230279Y-47855000D01*
X33642756Y-47772953D01*
X34031302Y-47612012D01*
X34380983Y-47378363D01*
X34678363Y-47080983D01*
X34912012Y-46731302D01*
X35072953Y-46342756D01*
X35155000Y-45930279D01*
X35155000Y-45509721D01*
X35072953Y-45097244D01*
X34912012Y-44708698D01*
X34678363Y-44359017D01*
X34380983Y-44061637D01*
X34031302Y-43827988D01*
X33642756Y-43667047D01*
X33230279Y-43585000D01*
X32809721Y-43585000D01*
X32397244Y-43667047D01*
X32008698Y-43827988D01*
X31659017Y-44061637D01*
X31361637Y-44359017D01*
X31127988Y-44708698D01*
X30967047Y-45097244D01*
X30885000Y-45509721D01*
X28621390Y-45509721D01*
X28672437Y-44937751D01*
X28879672Y-44180226D01*
X29217777Y-43471375D01*
X29676067Y-42833596D01*
X30240055Y-42287054D01*
X30891913Y-41849023D01*
X31611038Y-41533349D01*
X32379768Y-41348794D01*
X33044207Y-41300000D01*
X119059346Y-41300000D01*
X116717886Y-49495110D01*
%TA.AperFunction,Conductor*%
D29*
G36*
X116717886Y-49495110D02*
G01*
X116713000Y-49530000D01*
X116713000Y-52774700D01*
X112392923Y-52774700D01*
X112355600Y-52771024D01*
X112318277Y-52774700D01*
X112318267Y-52774700D01*
X112206614Y-52785697D01*
X112063353Y-52829154D01*
X111931324Y-52899726D01*
X111815599Y-52994699D01*
X111791801Y-53023697D01*
X111246256Y-53569243D01*
X111202663Y-53504002D01*
X110960998Y-53262337D01*
X110676831Y-53072463D01*
X110361081Y-52941675D01*
X110025883Y-52875000D01*
X109684117Y-52875000D01*
X109348919Y-52941675D01*
X109033169Y-53072463D01*
X108749002Y-53262337D01*
X108507337Y-53504002D01*
X108317463Y-53788169D01*
X108186675Y-54103919D01*
X108120000Y-54439117D01*
X108120000Y-54780883D01*
X108186675Y-55116081D01*
X108317463Y-55431831D01*
X108507337Y-55715998D01*
X108749002Y-55957663D01*
X109033169Y-56147537D01*
X109348919Y-56278325D01*
X109684117Y-56345000D01*
X110025883Y-56345000D01*
X110361081Y-56278325D01*
X110676831Y-56147537D01*
X110960998Y-55957663D01*
X111202663Y-55715998D01*
X111392537Y-55431831D01*
X111422423Y-55359679D01*
X111429286Y-55359003D01*
X111572547Y-55315546D01*
X111704576Y-55244974D01*
X111820301Y-55150001D01*
X111844104Y-55120998D01*
X112280000Y-54685102D01*
X112280000Y-54737002D01*
X112438748Y-54737002D01*
X112280000Y-54895750D01*
X112276928Y-55360000D01*
X112289188Y-55484482D01*
X112325498Y-55604180D01*
X112384463Y-55714494D01*
X112463815Y-55811185D01*
X112560506Y-55890537D01*
X112670820Y-55949502D01*
X112790518Y-55985812D01*
X112915000Y-55998072D01*
X113379250Y-55995000D01*
X113538000Y-55836250D01*
X113538000Y-54737000D01*
X113518000Y-54737000D01*
X113518000Y-54483000D01*
X113538000Y-54483000D01*
X113538000Y-54463000D01*
X113792000Y-54463000D01*
X113792000Y-54483000D01*
X113812000Y-54483000D01*
X113812000Y-54737000D01*
X113792000Y-54737000D01*
X113792000Y-55836250D01*
X113950750Y-55995000D01*
X114415000Y-55998072D01*
X114539482Y-55985812D01*
X114659180Y-55949502D01*
X114769494Y-55890537D01*
X114866185Y-55811185D01*
X114945537Y-55714494D01*
X115004502Y-55604180D01*
X115040812Y-55484482D01*
X115051445Y-55376517D01*
X115129201Y-55492886D01*
X115322114Y-55685799D01*
X115548957Y-55837371D01*
X115801011Y-55941775D01*
X116068589Y-55995000D01*
X116341411Y-55995000D01*
X116608989Y-55941775D01*
X116713000Y-55898692D01*
X116713000Y-65565000D01*
X110610102Y-65565000D01*
X99144104Y-54099003D01*
X99120301Y-54069999D01*
X99004576Y-53975026D01*
X98893072Y-53915425D01*
X98893072Y-53510000D01*
X98880812Y-53385518D01*
X98844502Y-53265820D01*
X98785537Y-53155506D01*
X98706185Y-53058815D01*
X98609494Y-52979463D01*
X98499180Y-52920498D01*
X98379482Y-52884188D01*
X98255000Y-52871928D01*
X96055000Y-52871928D01*
X95930518Y-52884188D01*
X95810820Y-52920498D01*
X95700506Y-52979463D01*
X95603815Y-53058815D01*
X95524463Y-53155506D01*
X95465498Y-53265820D01*
X95429188Y-53385518D01*
X95416928Y-53510000D01*
X95416928Y-55710000D01*
X95429188Y-55834482D01*
X95465498Y-55954180D01*
X95524463Y-56064494D01*
X95603815Y-56161185D01*
X95700506Y-56240537D01*
X95810820Y-56299502D01*
X95930518Y-56335812D01*
X96055000Y-56348072D01*
X98255000Y-56348072D01*
X98379482Y-56335812D01*
X98499180Y-56299502D01*
X98609494Y-56240537D01*
X98706185Y-56161185D01*
X98785537Y-56064494D01*
X98844502Y-55954180D01*
X98845707Y-55950208D01*
X102503943Y-59608444D01*
X102462510Y-59616686D01*
X102208273Y-59721995D01*
X101979465Y-59874880D01*
X101784880Y-60069465D01*
X101631995Y-60298273D01*
X101600000Y-60375515D01*
X101568005Y-60298273D01*
X101415120Y-60069465D01*
X101220535Y-59874880D01*
X100991727Y-59721995D01*
X100737490Y-59616686D01*
X100467592Y-59563000D01*
X100192408Y-59563000D01*
X99922510Y-59616686D01*
X99668273Y-59721995D01*
X99439465Y-59874880D01*
X99244880Y-60069465D01*
X99091995Y-60298273D01*
X99060000Y-60375515D01*
X99028005Y-60298273D01*
X98875120Y-60069465D01*
X98680535Y-59874880D01*
X98451727Y-59721995D01*
X98197490Y-59616686D01*
X97927592Y-59563000D01*
X97652408Y-59563000D01*
X97382510Y-59616686D01*
X97128273Y-59721995D01*
X96899465Y-59874880D01*
X96704880Y-60069465D01*
X96551995Y-60298273D01*
X96520000Y-60375515D01*
X96488005Y-60298273D01*
X96335120Y-60069465D01*
X96140535Y-59874880D01*
X95911727Y-59721995D01*
X95657490Y-59616686D01*
X95387592Y-59563000D01*
X95112408Y-59563000D01*
X94842510Y-59616686D01*
X94588273Y-59721995D01*
X94359465Y-59874880D01*
X94164880Y-60069465D01*
X94011995Y-60298273D01*
X93980000Y-60375515D01*
X93948005Y-60298273D01*
X93795120Y-60069465D01*
X93600535Y-59874880D01*
X93371727Y-59721995D01*
X93117490Y-59616686D01*
X92847592Y-59563000D01*
X92572408Y-59563000D01*
X92302510Y-59616686D01*
X92048273Y-59721995D01*
X91819465Y-59874880D01*
X91624880Y-60069465D01*
X91471995Y-60298273D01*
X91440000Y-60375515D01*
X91408005Y-60298273D01*
X91255120Y-60069465D01*
X91060535Y-59874880D01*
X90831727Y-59721995D01*
X90577490Y-59616686D01*
X90307592Y-59563000D01*
X90032408Y-59563000D01*
X89762510Y-59616686D01*
X89508273Y-59721995D01*
X89279465Y-59874880D01*
X89084880Y-60069465D01*
X88931995Y-60298273D01*
X88902308Y-60369943D01*
X88897636Y-60356977D01*
X88835656Y-60241020D01*
X88595565Y-60174040D01*
X87809605Y-60960000D01*
X88595565Y-61745960D01*
X88835656Y-61678980D01*
X88899485Y-61543240D01*
X88931995Y-61621727D01*
X89084880Y-61850535D01*
X89279465Y-62045120D01*
X89508273Y-62198005D01*
X89762510Y-62303314D01*
X90032408Y-62357000D01*
X90307592Y-62357000D01*
X90577490Y-62303314D01*
X90831727Y-62198005D01*
X91060535Y-62045120D01*
X91255120Y-61850535D01*
X91408005Y-61621727D01*
X91440000Y-61544485D01*
X91471995Y-61621727D01*
X91624880Y-61850535D01*
X91819465Y-62045120D01*
X92048273Y-62198005D01*
X92302510Y-62303314D01*
X92572408Y-62357000D01*
X92778198Y-62357000D01*
X86045199Y-69090000D01*
X68482341Y-69090000D01*
X68395120Y-68959465D01*
X68200535Y-68764880D01*
X67971727Y-68611995D01*
X67894485Y-68580000D01*
X67971727Y-68548005D01*
X68200535Y-68395120D01*
X68395120Y-68200535D01*
X68548005Y-67971727D01*
X68653314Y-67717490D01*
X68707000Y-67447592D01*
X68707000Y-67172408D01*
X68653314Y-66902510D01*
X68548005Y-66648273D01*
X68395120Y-66419465D01*
X68200535Y-66224880D01*
X67971727Y-66071995D01*
X67894485Y-66040000D01*
X67971727Y-66008005D01*
X68200535Y-65855120D01*
X68395120Y-65660535D01*
X68548005Y-65431727D01*
X68653314Y-65177490D01*
X68707000Y-64907592D01*
X68707000Y-64632408D01*
X68653314Y-64362510D01*
X68548005Y-64108273D01*
X68395120Y-63879465D01*
X68200535Y-63684880D01*
X67971727Y-63531995D01*
X67894485Y-63500000D01*
X67971727Y-63468005D01*
X68200535Y-63315120D01*
X68395120Y-63120535D01*
X68548005Y-62891727D01*
X68653314Y-62637490D01*
X68707000Y-62367592D01*
X68707000Y-62092408D01*
X68653314Y-61822510D01*
X68548005Y-61568273D01*
X68395120Y-61339465D01*
X68200535Y-61144880D01*
X67971727Y-60991995D01*
X67900057Y-60962308D01*
X67913023Y-60957636D01*
X68028980Y-60895656D01*
X68049414Y-60822408D01*
X83693000Y-60822408D01*
X83693000Y-61097592D01*
X83746686Y-61367490D01*
X83851995Y-61621727D01*
X84004880Y-61850535D01*
X84199465Y-62045120D01*
X84428273Y-62198005D01*
X84682510Y-62303314D01*
X84952408Y-62357000D01*
X85227592Y-62357000D01*
X85497490Y-62303314D01*
X85751727Y-62198005D01*
X85980535Y-62045120D01*
X86100090Y-61925565D01*
X86844040Y-61925565D01*
X86911020Y-62165656D01*
X87160048Y-62282756D01*
X87427135Y-62349023D01*
X87702017Y-62361910D01*
X87974133Y-62320922D01*
X88233023Y-62227636D01*
X88348980Y-62165656D01*
X88415960Y-61925565D01*
X87630000Y-61139605D01*
X86844040Y-61925565D01*
X86100090Y-61925565D01*
X86175120Y-61850535D01*
X86328005Y-61621727D01*
X86357692Y-61550057D01*
X86362364Y-61563023D01*
X86424344Y-61678980D01*
X86664435Y-61745960D01*
X87450395Y-60960000D01*
X86664435Y-60174040D01*
X86424344Y-60241020D01*
X86360515Y-60376760D01*
X86328005Y-60298273D01*
X86175120Y-60069465D01*
X86100090Y-59994435D01*
X86844040Y-59994435D01*
X87630000Y-60780395D01*
X88415960Y-59994435D01*
X88348980Y-59754344D01*
X88099952Y-59637244D01*
X87832865Y-59570977D01*
X87557983Y-59558090D01*
X87285867Y-59599078D01*
X87026977Y-59692364D01*
X86911020Y-59754344D01*
X86844040Y-59994435D01*
X86100090Y-59994435D01*
X85980535Y-59874880D01*
X85751727Y-59721995D01*
X85497490Y-59616686D01*
X85227592Y-59563000D01*
X84952408Y-59563000D01*
X84682510Y-59616686D01*
X84428273Y-59721995D01*
X84199465Y-59874880D01*
X84004880Y-60069465D01*
X83851995Y-60298273D01*
X83746686Y-60552510D01*
X83693000Y-60822408D01*
X68049414Y-60822408D01*
X68095960Y-60655565D01*
X67310000Y-59869605D01*
X66524040Y-60655565D01*
X66591020Y-60895656D01*
X66726760Y-60959485D01*
X66648273Y-60991995D01*
X66419465Y-61144880D01*
X66224880Y-61339465D01*
X66071995Y-61568273D01*
X65966686Y-61822510D01*
X65913000Y-62092408D01*
X65913000Y-62367592D01*
X65943628Y-62521570D01*
X64765498Y-63699701D01*
X64736500Y-63723499D01*
X64712702Y-63752497D01*
X64712701Y-63752498D01*
X64641526Y-63839224D01*
X64570954Y-63971254D01*
X64527498Y-64114515D01*
X64512824Y-64263500D01*
X64516501Y-64300832D01*
X64516500Y-70764897D01*
X63627000Y-71654398D01*
X63627000Y-60960000D01*
X63624560Y-60935224D01*
X63617333Y-60911399D01*
X63605597Y-60889443D01*
X63589803Y-60870197D01*
X63570557Y-60854403D01*
X63548601Y-60842667D01*
X63524776Y-60835440D01*
X63500000Y-60833000D01*
X36830000Y-60833000D01*
X36805224Y-60835440D01*
X36781399Y-60842667D01*
X36759443Y-60854403D01*
X36740197Y-60870197D01*
X36724403Y-60889443D01*
X36712667Y-60911399D01*
X36705440Y-60935224D01*
X36703000Y-60960000D01*
X36703000Y-72390000D01*
X36705440Y-72414776D01*
X36712667Y-72438601D01*
X36724403Y-72460557D01*
X36740197Y-72479803D01*
X36759443Y-72495597D01*
X36781399Y-72507333D01*
X36805224Y-72514560D01*
X36830000Y-72517000D01*
X37296088Y-72517000D01*
X37209465Y-72574880D01*
X37014880Y-72769465D01*
X36927659Y-72900000D01*
X35874802Y-72900000D01*
X31240000Y-68265199D01*
X31240000Y-60004801D01*
X31482784Y-59762017D01*
X65908090Y-59762017D01*
X65949078Y-60034133D01*
X66042364Y-60293023D01*
X66104344Y-60408980D01*
X66344435Y-60475960D01*
X67130395Y-59690000D01*
X67489605Y-59690000D01*
X68275565Y-60475960D01*
X68515656Y-60408980D01*
X68632756Y-60159952D01*
X68699023Y-59892865D01*
X68711910Y-59617983D01*
X68670922Y-59345867D01*
X68577636Y-59086977D01*
X68515656Y-58971020D01*
X68275565Y-58904040D01*
X67489605Y-59690000D01*
X67130395Y-59690000D01*
X66344435Y-58904040D01*
X66104344Y-58971020D01*
X65987244Y-59220048D01*
X65920977Y-59487135D01*
X65908090Y-59762017D01*
X31482784Y-59762017D01*
X33334803Y-57910000D01*
X66137659Y-57910000D01*
X66224880Y-58040535D01*
X66419465Y-58235120D01*
X66648273Y-58388005D01*
X66719943Y-58417692D01*
X66706977Y-58422364D01*
X66591020Y-58484344D01*
X66524040Y-58724435D01*
X67310000Y-59510395D01*
X68095960Y-58724435D01*
X68028980Y-58484344D01*
X67893240Y-58420515D01*
X67971727Y-58388005D01*
X68200535Y-58235120D01*
X68395120Y-58040535D01*
X68548005Y-57811727D01*
X68653314Y-57557490D01*
X68707000Y-57287592D01*
X68707000Y-57012408D01*
X68653314Y-56742510D01*
X68548005Y-56488273D01*
X68395120Y-56259465D01*
X68200535Y-56064880D01*
X67971727Y-55911995D01*
X67717490Y-55806686D01*
X67447592Y-55753000D01*
X67172408Y-55753000D01*
X66902510Y-55806686D01*
X66648273Y-55911995D01*
X66419465Y-56064880D01*
X66224880Y-56259465D01*
X66137659Y-56390000D01*
X33057322Y-56390000D01*
X33019999Y-56386324D01*
X32982676Y-56390000D01*
X32982667Y-56390000D01*
X32871014Y-56400997D01*
X32727753Y-56444454D01*
X32595724Y-56515026D01*
X32595722Y-56515027D01*
X32595723Y-56515027D01*
X32508996Y-56586201D01*
X32508992Y-56586205D01*
X32479999Y-56609999D01*
X32456205Y-56638992D01*
X29969003Y-59126196D01*
X29939999Y-59149999D01*
X29884871Y-59217174D01*
X29845026Y-59265724D01*
X29774455Y-59397753D01*
X29774454Y-59397754D01*
X29730997Y-59541015D01*
X29720000Y-59652668D01*
X29720000Y-59652678D01*
X29716324Y-59690000D01*
X29720000Y-59727322D01*
X29720001Y-68542668D01*
X29716324Y-68580000D01*
X29730998Y-68728985D01*
X29774454Y-68872246D01*
X29845026Y-69004276D01*
X29915379Y-69090000D01*
X29940000Y-69120001D01*
X29968998Y-69143799D01*
X34996201Y-74171003D01*
X35019999Y-74200001D01*
X35048997Y-74223799D01*
X35135723Y-74294974D01*
X35267753Y-74365546D01*
X35411014Y-74409003D01*
X35522667Y-74420000D01*
X35522677Y-74420000D01*
X35560000Y-74423676D01*
X35597323Y-74420000D01*
X36927659Y-74420000D01*
X37014880Y-74550535D01*
X37209465Y-74745120D01*
X37438273Y-74898005D01*
X37515515Y-74930000D01*
X37438273Y-74961995D01*
X37209465Y-75114880D01*
X37014880Y-75309465D01*
X36861995Y-75538273D01*
X36756686Y-75792510D01*
X36703000Y-76062408D01*
X36703000Y-76337592D01*
X36756686Y-76607490D01*
X36861995Y-76861727D01*
X37014880Y-77090535D01*
X37209465Y-77285120D01*
X37438273Y-77438005D01*
X37515515Y-77470000D01*
X37438273Y-77501995D01*
X37209465Y-77654880D01*
X37014880Y-77849465D01*
X36861995Y-78078273D01*
X36756686Y-78332510D01*
X36703000Y-78602408D01*
X36703000Y-78877592D01*
X36756686Y-79147490D01*
X36861995Y-79401727D01*
X37014880Y-79630535D01*
X37209465Y-79825120D01*
X37438273Y-79978005D01*
X37515515Y-80010000D01*
X37438273Y-80041995D01*
X37209465Y-80194880D01*
X37014880Y-80389465D01*
X36861995Y-80618273D01*
X36756686Y-80872510D01*
X36703000Y-81142408D01*
X36703000Y-81417592D01*
X36756686Y-81687490D01*
X36861995Y-81941727D01*
X37014880Y-82170535D01*
X37209465Y-82365120D01*
X37438273Y-82518005D01*
X37515515Y-82550000D01*
X37438273Y-82581995D01*
X37209465Y-82734880D01*
X37014880Y-82929465D01*
X36861995Y-83158273D01*
X36756686Y-83412510D01*
X36703000Y-83682408D01*
X36703000Y-83957592D01*
X36756686Y-84227490D01*
X36861995Y-84481727D01*
X37014880Y-84710535D01*
X37209465Y-84905120D01*
X37438273Y-85058005D01*
X37515515Y-85090000D01*
X37438273Y-85121995D01*
X37209465Y-85274880D01*
X37014880Y-85469465D01*
X36861995Y-85698273D01*
X36756686Y-85952510D01*
X36703000Y-86222408D01*
X36703000Y-86497592D01*
X36756686Y-86767490D01*
X36861995Y-87021727D01*
X37014880Y-87250535D01*
X37209465Y-87445120D01*
X37438273Y-87598005D01*
X37515515Y-87630000D01*
X37438273Y-87661995D01*
X37209465Y-87814880D01*
X37014880Y-88009465D01*
X36861995Y-88238273D01*
X36756686Y-88492510D01*
X36703000Y-88762408D01*
X36703000Y-89037592D01*
X36756686Y-89307490D01*
X36861995Y-89561727D01*
X37014880Y-89790535D01*
X37209465Y-89985120D01*
X37438273Y-90138005D01*
X37515515Y-90170000D01*
X37438273Y-90201995D01*
X37209465Y-90354880D01*
X37014880Y-90549465D01*
X36861995Y-90778273D01*
X36756686Y-91032510D01*
X36703000Y-91302408D01*
X36703000Y-91577592D01*
X36756686Y-91847490D01*
X36861995Y-92101727D01*
X37014880Y-92330535D01*
X37209465Y-92525120D01*
X37438273Y-92678005D01*
X37515515Y-92710000D01*
X37438273Y-92741995D01*
X37209465Y-92894880D01*
X37014880Y-93089465D01*
X36861995Y-93318273D01*
X36756686Y-93572510D01*
X36703000Y-93842408D01*
X36703000Y-94117592D01*
X36756686Y-94387490D01*
X36861995Y-94641727D01*
X37014880Y-94870535D01*
X37209465Y-95065120D01*
X37438273Y-95218005D01*
X37515515Y-95250000D01*
X37438273Y-95281995D01*
X37209465Y-95434880D01*
X37014880Y-95629465D01*
X36861995Y-95858273D01*
X36756686Y-96112510D01*
X36703000Y-96382408D01*
X36703000Y-96657592D01*
X36756686Y-96927490D01*
X36861995Y-97181727D01*
X37014880Y-97410535D01*
X37063522Y-97459177D01*
X36494398Y-98028301D01*
X36465400Y-98052099D01*
X36441602Y-98081097D01*
X36441601Y-98081098D01*
X36370426Y-98167824D01*
X36299854Y-98299854D01*
X36270000Y-98398273D01*
X36256398Y-98443114D01*
X36245401Y-98554767D01*
X36241724Y-98592100D01*
X36245401Y-98629432D01*
X36245400Y-103008077D01*
X36241724Y-103045400D01*
X36245400Y-103082722D01*
X36245400Y-103082732D01*
X36256397Y-103194385D01*
X36299854Y-103337646D01*
X36370426Y-103469676D01*
X36410271Y-103518226D01*
X36465399Y-103585401D01*
X36494402Y-103609204D01*
X36733628Y-103848429D01*
X36703000Y-104002408D01*
X36703000Y-104277592D01*
X36756686Y-104547490D01*
X36861995Y-104801727D01*
X37014880Y-105030535D01*
X37209465Y-105225120D01*
X37438273Y-105378005D01*
X37692510Y-105483314D01*
X37962408Y-105537000D01*
X38237592Y-105537000D01*
X38507490Y-105483314D01*
X38761727Y-105378005D01*
X38990535Y-105225120D01*
X39110090Y-105105565D01*
X60174040Y-105105565D01*
X60241020Y-105345656D01*
X60490048Y-105462756D01*
X60757135Y-105529023D01*
X61032017Y-105541910D01*
X61304133Y-105500922D01*
X61563023Y-105407636D01*
X61678980Y-105345656D01*
X61745960Y-105105565D01*
X60960000Y-104319605D01*
X60174040Y-105105565D01*
X39110090Y-105105565D01*
X39185120Y-105030535D01*
X39338005Y-104801727D01*
X39443314Y-104547490D01*
X39497000Y-104277592D01*
X39497000Y-104212017D01*
X59558090Y-104212017D01*
X59599078Y-104484133D01*
X59692364Y-104743023D01*
X59754344Y-104858980D01*
X59994435Y-104925960D01*
X60780395Y-104140000D01*
X61139605Y-104140000D01*
X61925565Y-104925960D01*
X62165656Y-104858980D01*
X62282756Y-104609952D01*
X62349023Y-104342865D01*
X62361910Y-104067983D01*
X62320922Y-103795867D01*
X62227636Y-103536977D01*
X62165656Y-103421020D01*
X61925565Y-103354040D01*
X61139605Y-104140000D01*
X60780395Y-104140000D01*
X59994435Y-103354040D01*
X59754344Y-103421020D01*
X59637244Y-103670048D01*
X59570977Y-103937135D01*
X59558090Y-104212017D01*
X39497000Y-104212017D01*
X39497000Y-104002408D01*
X39443314Y-103732510D01*
X39338005Y-103478273D01*
X39185120Y-103249465D01*
X38990535Y-103054880D01*
X38761727Y-102901995D01*
X38684485Y-102870000D01*
X38761727Y-102838005D01*
X38990535Y-102685120D01*
X39185120Y-102490535D01*
X39338005Y-102261727D01*
X39443314Y-102007490D01*
X39497000Y-101737592D01*
X39497000Y-101462408D01*
X39443314Y-101192510D01*
X39338005Y-100938273D01*
X39185120Y-100709465D01*
X38990535Y-100514880D01*
X38761727Y-100361995D01*
X38684485Y-100330000D01*
X38761727Y-100298005D01*
X38990535Y-100145120D01*
X39185120Y-99950535D01*
X39338005Y-99721727D01*
X39443314Y-99467490D01*
X39497000Y-99197592D01*
X39497000Y-98922408D01*
X39466372Y-98768429D01*
X57326802Y-80908000D01*
X59609627Y-80908000D01*
X59563000Y-81142408D01*
X59563000Y-81417592D01*
X59593628Y-81571570D01*
X58870398Y-82294801D01*
X58841400Y-82318599D01*
X58817602Y-82347597D01*
X58817601Y-82347598D01*
X58746426Y-82434324D01*
X58675854Y-82566354D01*
X58671110Y-82581995D01*
X58632398Y-82709614D01*
X58621401Y-82821267D01*
X58617724Y-82858600D01*
X58621401Y-82895932D01*
X58621400Y-91431578D01*
X58617724Y-91468900D01*
X58621400Y-91506222D01*
X58621400Y-91506232D01*
X58632397Y-91617885D01*
X58675854Y-91761146D01*
X58746426Y-91893176D01*
X58786271Y-91941726D01*
X58841399Y-92008901D01*
X58870402Y-92032703D01*
X59901021Y-93063324D01*
X59874880Y-93089465D01*
X59721995Y-93318273D01*
X59616686Y-93572510D01*
X59563000Y-93842408D01*
X59563000Y-94117592D01*
X59616686Y-94387490D01*
X59721995Y-94641727D01*
X59874880Y-94870535D01*
X60069465Y-95065120D01*
X60298273Y-95218005D01*
X60375515Y-95250000D01*
X60298273Y-95281995D01*
X60069465Y-95434880D01*
X59874880Y-95629465D01*
X59721995Y-95858273D01*
X59616686Y-96112510D01*
X59563000Y-96382408D01*
X59563000Y-96657592D01*
X59616686Y-96927490D01*
X59721995Y-97181727D01*
X59874880Y-97410535D01*
X60069465Y-97605120D01*
X60298273Y-97758005D01*
X60375515Y-97790000D01*
X60298273Y-97821995D01*
X60069465Y-97974880D01*
X59874880Y-98169465D01*
X59721995Y-98398273D01*
X59616686Y-98652510D01*
X59563000Y-98922408D01*
X59563000Y-99197592D01*
X59616686Y-99467490D01*
X59721995Y-99721727D01*
X59874880Y-99950535D01*
X60069465Y-100145120D01*
X60298273Y-100298005D01*
X60375515Y-100330000D01*
X60298273Y-100361995D01*
X60069465Y-100514880D01*
X59874880Y-100709465D01*
X59721995Y-100938273D01*
X59616686Y-101192510D01*
X59563000Y-101462408D01*
X59563000Y-101737592D01*
X59616686Y-102007490D01*
X59721995Y-102261727D01*
X59874880Y-102490535D01*
X60069465Y-102685120D01*
X60298273Y-102838005D01*
X60369943Y-102867692D01*
X60356977Y-102872364D01*
X60241020Y-102934344D01*
X60174040Y-103174435D01*
X60960000Y-103960395D01*
X61745960Y-103174435D01*
X61678980Y-102934344D01*
X61543240Y-102870515D01*
X61621727Y-102838005D01*
X61850535Y-102685120D01*
X62045120Y-102490535D01*
X62198005Y-102261727D01*
X62303314Y-102007490D01*
X62357000Y-101737592D01*
X62357000Y-101462408D01*
X62303314Y-101192510D01*
X62198005Y-100938273D01*
X62045120Y-100709465D01*
X61850535Y-100514880D01*
X61621727Y-100361995D01*
X61544485Y-100330000D01*
X61621727Y-100298005D01*
X61850535Y-100145120D01*
X62045120Y-99950535D01*
X62198005Y-99721727D01*
X62303314Y-99467490D01*
X62357000Y-99197592D01*
X62357000Y-98991801D01*
X77210001Y-113844803D01*
X77233799Y-113873801D01*
X77262797Y-113897599D01*
X77349523Y-113968774D01*
X77469355Y-114032826D01*
X77481553Y-114039346D01*
X77624814Y-114082803D01*
X77736467Y-114093800D01*
X77736477Y-114093800D01*
X77773800Y-114097476D01*
X77811122Y-114093800D01*
X106696378Y-114093800D01*
X106733700Y-114097476D01*
X106771022Y-114093800D01*
X106771033Y-114093800D01*
X106882686Y-114082803D01*
X107025947Y-114039346D01*
X107157976Y-113968774D01*
X107273701Y-113873801D01*
X107297504Y-113844797D01*
X108044298Y-113098003D01*
X108044999Y-113098072D01*
X108570001Y-113098072D01*
X108743255Y-113081008D01*
X108909851Y-113030472D01*
X109063387Y-112948405D01*
X109197962Y-112837962D01*
X109220000Y-112811109D01*
X109242038Y-112837962D01*
X109376613Y-112948405D01*
X109530149Y-113030472D01*
X109696745Y-113081008D01*
X109869999Y-113098072D01*
X110395001Y-113098072D01*
X110568255Y-113081008D01*
X110734851Y-113030472D01*
X110888387Y-112948405D01*
X111022962Y-112837962D01*
X111133405Y-112703387D01*
X111215472Y-112549851D01*
X111236900Y-112479210D01*
X111281947Y-112465546D01*
X111413976Y-112394974D01*
X111529701Y-112300001D01*
X111553504Y-112270997D01*
X112743528Y-111080974D01*
X112769463Y-111129494D01*
X112848815Y-111226185D01*
X112945506Y-111305537D01*
X113055820Y-111364502D01*
X113175518Y-111400812D01*
X113300000Y-111413072D01*
X115300000Y-111413072D01*
X115424482Y-111400812D01*
X115544180Y-111364502D01*
X115654494Y-111305537D01*
X115751185Y-111226185D01*
X115830537Y-111129494D01*
X115889502Y-111019180D01*
X115925812Y-110899482D01*
X115938072Y-110775000D01*
X115938072Y-108775000D01*
X115925812Y-108650518D01*
X115889502Y-108530820D01*
X115886391Y-108525000D01*
X115889502Y-108519180D01*
X115925812Y-108399482D01*
X115938072Y-108275000D01*
X115935000Y-107560750D01*
X115776250Y-107402000D01*
X114427000Y-107402000D01*
X114427000Y-107422000D01*
X114173000Y-107422000D01*
X114173000Y-107402000D01*
X112823750Y-107402000D01*
X112665000Y-107560750D01*
X112661928Y-108275000D01*
X112674188Y-108399482D01*
X112710498Y-108519180D01*
X112713609Y-108525000D01*
X112710498Y-108530820D01*
X112674188Y-108650518D01*
X112661928Y-108775000D01*
X112661928Y-109080425D01*
X112550423Y-109140026D01*
X112486792Y-109192247D01*
X112434699Y-109234999D01*
X112410901Y-109263997D01*
X111006429Y-110668470D01*
X110888387Y-110571595D01*
X110734851Y-110489528D01*
X110568255Y-110438992D01*
X110395001Y-110421928D01*
X109869999Y-110421928D01*
X109869299Y-110421997D01*
X108796604Y-109349303D01*
X108772801Y-109320299D01*
X108763888Y-109312984D01*
X108770000Y-109313072D01*
X108894482Y-109300812D01*
X109014180Y-109264502D01*
X109124494Y-109205537D01*
X109221185Y-109126185D01*
X109286658Y-109046406D01*
X109292038Y-109052962D01*
X109426614Y-109163405D01*
X109580150Y-109245472D01*
X109746746Y-109296008D01*
X109920000Y-109313072D01*
X110420000Y-109313072D01*
X110593254Y-109296008D01*
X110759850Y-109245472D01*
X110913386Y-109163405D01*
X111047962Y-109052962D01*
X111158405Y-108918386D01*
X111240472Y-108764850D01*
X111291008Y-108598254D01*
X111308072Y-108425000D01*
X111308072Y-107516429D01*
X112674277Y-106150225D01*
X112674188Y-106150518D01*
X112661928Y-106275000D01*
X112665000Y-106989250D01*
X112823750Y-107148000D01*
X114173000Y-107148000D01*
X114173000Y-107128000D01*
X114427000Y-107128000D01*
X114427000Y-107148000D01*
X115776250Y-107148000D01*
X115935000Y-106989250D01*
X115938072Y-106275000D01*
X115925812Y-106150518D01*
X115889502Y-106030820D01*
X115886391Y-106025000D01*
X115889502Y-106019180D01*
X115925812Y-105899482D01*
X115938072Y-105775000D01*
X127161928Y-105775000D01*
X127174188Y-105899482D01*
X127210498Y-106019180D01*
X127269463Y-106129494D01*
X127348815Y-106226185D01*
X127445506Y-106305537D01*
X127555820Y-106364502D01*
X127675518Y-106400812D01*
X127800000Y-106413072D01*
X129014250Y-106410000D01*
X129173000Y-106251250D01*
X129173000Y-104902000D01*
X129427000Y-104902000D01*
X129427000Y-106251250D01*
X129585750Y-106410000D01*
X130800000Y-106413072D01*
X130924482Y-106400812D01*
X131044180Y-106364502D01*
X131154494Y-106305537D01*
X131251185Y-106226185D01*
X131330537Y-106129494D01*
X131389502Y-106019180D01*
X131425812Y-105899482D01*
X131438072Y-105775000D01*
X131435000Y-105060750D01*
X131276250Y-104902000D01*
X129427000Y-104902000D01*
X129173000Y-104902000D01*
X127323750Y-104902000D01*
X127165000Y-105060750D01*
X127161928Y-105775000D01*
X115938072Y-105775000D01*
X115938072Y-103775000D01*
X127161928Y-103775000D01*
X127165000Y-104489250D01*
X127323750Y-104648000D01*
X129173000Y-104648000D01*
X129173000Y-103298750D01*
X129427000Y-103298750D01*
X129427000Y-104648000D01*
X131276250Y-104648000D01*
X131435000Y-104489250D01*
X131438072Y-103775000D01*
X131425812Y-103650518D01*
X131389502Y-103530820D01*
X131330537Y-103420506D01*
X131251185Y-103323815D01*
X131154494Y-103244463D01*
X131044180Y-103185498D01*
X130924482Y-103149188D01*
X130800000Y-103136928D01*
X129585750Y-103140000D01*
X129427000Y-103298750D01*
X129173000Y-103298750D01*
X129014250Y-103140000D01*
X127800000Y-103136928D01*
X127675518Y-103149188D01*
X127555820Y-103185498D01*
X127445506Y-103244463D01*
X127348815Y-103323815D01*
X127269463Y-103420506D01*
X127210498Y-103530820D01*
X127174188Y-103650518D01*
X127161928Y-103775000D01*
X115938072Y-103775000D01*
X115925812Y-103650518D01*
X115889502Y-103530820D01*
X115830537Y-103420506D01*
X115751185Y-103323815D01*
X115654494Y-103244463D01*
X115544180Y-103185498D01*
X115424482Y-103149188D01*
X115300000Y-103136928D01*
X113300000Y-103136928D01*
X113175518Y-103149188D01*
X113055820Y-103185498D01*
X112945506Y-103244463D01*
X112848815Y-103323815D01*
X112769463Y-103420506D01*
X112743528Y-103469026D01*
X110892500Y-101617999D01*
X110892500Y-101515030D01*
X111022962Y-101407962D01*
X111133405Y-101273387D01*
X111215472Y-101119851D01*
X111266008Y-100953255D01*
X111283072Y-100780001D01*
X111283072Y-99879999D01*
X111266008Y-99706745D01*
X111253163Y-99664400D01*
X119561928Y-99664400D01*
X119561928Y-102275000D01*
X119574188Y-102399482D01*
X119610498Y-102519180D01*
X119669463Y-102629494D01*
X119748815Y-102726185D01*
X119845506Y-102805537D01*
X119955820Y-102864502D01*
X120075518Y-102900812D01*
X120200000Y-102913072D01*
X123400000Y-102913072D01*
X123524482Y-102900812D01*
X123644180Y-102864502D01*
X123754494Y-102805537D01*
X123851185Y-102726185D01*
X123930537Y-102629494D01*
X123989502Y-102519180D01*
X124025812Y-102399482D01*
X124038072Y-102275000D01*
X124038072Y-99664400D01*
X125207667Y-99664400D01*
X125245000Y-99668077D01*
X125282333Y-99664400D01*
X132586837Y-99664400D01*
X132573992Y-99706745D01*
X132556928Y-99879999D01*
X132556928Y-100405770D01*
X131770698Y-101192001D01*
X131741700Y-101215799D01*
X131717902Y-101244797D01*
X131717901Y-101244798D01*
X131646726Y-101331524D01*
X131576154Y-101463554D01*
X131532698Y-101606815D01*
X131518024Y-101755800D01*
X131521701Y-101793132D01*
X131521700Y-108585198D01*
X131428553Y-108678346D01*
X131425812Y-108650518D01*
X131389502Y-108530820D01*
X131330537Y-108420506D01*
X131251185Y-108323815D01*
X131154494Y-108244463D01*
X131044180Y-108185498D01*
X130924482Y-108149188D01*
X130800000Y-108136928D01*
X127800000Y-108136928D01*
X127675518Y-108149188D01*
X127555820Y-108185498D01*
X127445506Y-108244463D01*
X127348815Y-108323815D01*
X127269463Y-108420506D01*
X127210498Y-108530820D01*
X127174188Y-108650518D01*
X127161928Y-108775000D01*
X127161928Y-110775000D01*
X127174188Y-110899482D01*
X127210498Y-111019180D01*
X127269463Y-111129494D01*
X127348815Y-111226185D01*
X127445506Y-111305537D01*
X127555820Y-111364502D01*
X127675518Y-111400812D01*
X127800000Y-111413072D01*
X130800000Y-111413072D01*
X130924482Y-111400812D01*
X131044180Y-111364502D01*
X131154494Y-111305537D01*
X131251185Y-111226185D01*
X131330537Y-111129494D01*
X131389502Y-111019180D01*
X131425812Y-110899482D01*
X131438072Y-110775000D01*
X131438072Y-110535586D01*
X131444022Y-110535000D01*
X131444033Y-110535000D01*
X131555686Y-110524003D01*
X131698947Y-110480546D01*
X131830976Y-110409974D01*
X131946701Y-110315001D01*
X131970503Y-110285998D01*
X132374190Y-109882312D01*
X132381614Y-109888405D01*
X132535150Y-109970472D01*
X132701746Y-110021008D01*
X132875000Y-110038072D01*
X133413271Y-110038072D01*
X135086601Y-111711403D01*
X135110399Y-111740401D01*
X135139397Y-111764199D01*
X135226123Y-111835374D01*
X135285293Y-111867001D01*
X135358153Y-111905946D01*
X135501414Y-111949403D01*
X135613067Y-111960400D01*
X135613077Y-111960400D01*
X135650400Y-111964076D01*
X135687723Y-111960400D01*
X144619078Y-111960400D01*
X144656400Y-111964076D01*
X144693722Y-111960400D01*
X144693733Y-111960400D01*
X144805386Y-111949403D01*
X144948647Y-111905946D01*
X145080676Y-111835374D01*
X145196401Y-111740401D01*
X145220204Y-111711397D01*
X145346398Y-111585203D01*
X145375401Y-111561401D01*
X145470374Y-111445676D01*
X145540946Y-111313647D01*
X145584403Y-111170386D01*
X145595400Y-111058733D01*
X145595400Y-111058724D01*
X145599076Y-111021401D01*
X145595400Y-110984078D01*
X145595400Y-110279721D01*
X151535000Y-110279721D01*
X151535000Y-110700279D01*
X151617047Y-111112756D01*
X151777988Y-111501302D01*
X152011637Y-111850983D01*
X152309017Y-112148363D01*
X152658698Y-112382012D01*
X153047244Y-112542953D01*
X153459721Y-112625000D01*
X153880279Y-112625000D01*
X154292756Y-112542953D01*
X154681302Y-112382012D01*
X155030983Y-112148363D01*
X155328363Y-111850983D01*
X155562012Y-111501302D01*
X155722953Y-111112756D01*
X155805000Y-110700279D01*
X155805000Y-110279721D01*
X155722953Y-109867244D01*
X155562012Y-109478698D01*
X155328363Y-109129017D01*
X155030983Y-108831637D01*
X154681302Y-108597988D01*
X154292756Y-108437047D01*
X153880279Y-108355000D01*
X153459721Y-108355000D01*
X153047244Y-108437047D01*
X152658698Y-108597988D01*
X152309017Y-108831637D01*
X152011637Y-109129017D01*
X151777988Y-109478698D01*
X151617047Y-109867244D01*
X151535000Y-110279721D01*
X145595400Y-110279721D01*
X145595400Y-107974725D01*
X145599076Y-107937400D01*
X145595400Y-107900075D01*
X145595400Y-107900067D01*
X145584403Y-107788414D01*
X145540946Y-107645153D01*
X145470374Y-107513124D01*
X145375401Y-107397399D01*
X145346403Y-107373601D01*
X143353526Y-105380724D01*
X143383000Y-105351250D01*
X143383000Y-104002000D01*
X143637000Y-104002000D01*
X143637000Y-105351250D01*
X143795750Y-105510000D01*
X144510000Y-105513072D01*
X144634482Y-105500812D01*
X144754180Y-105464502D01*
X144864494Y-105405537D01*
X144961185Y-105326185D01*
X145040537Y-105229494D01*
X145099502Y-105119180D01*
X145135812Y-104999482D01*
X145148072Y-104875000D01*
X145145000Y-104160750D01*
X144986250Y-104002000D01*
X143637000Y-104002000D01*
X143383000Y-104002000D01*
X142033750Y-104002000D01*
X142004276Y-104031474D01*
X140847802Y-102875000D01*
X141871928Y-102875000D01*
X141875000Y-103589250D01*
X142033750Y-103748000D01*
X143383000Y-103748000D01*
X143383000Y-102398750D01*
X143637000Y-102398750D01*
X143637000Y-103748000D01*
X144986250Y-103748000D01*
X145145000Y-103589250D01*
X145148072Y-102875000D01*
X145135812Y-102750518D01*
X145099502Y-102630820D01*
X145040537Y-102520506D01*
X144961185Y-102423815D01*
X144864494Y-102344463D01*
X144754180Y-102285498D01*
X144634482Y-102249188D01*
X144510000Y-102236928D01*
X143795750Y-102240000D01*
X143637000Y-102398750D01*
X143383000Y-102398750D01*
X143224250Y-102240000D01*
X142510000Y-102236928D01*
X142385518Y-102249188D01*
X142265820Y-102285498D01*
X142155506Y-102344463D01*
X142058815Y-102423815D01*
X141979463Y-102520506D01*
X141920498Y-102630820D01*
X141884188Y-102750518D01*
X141871928Y-102875000D01*
X140847802Y-102875000D01*
X140102500Y-102129699D01*
X140102500Y-101515030D01*
X140232962Y-101407962D01*
X140343405Y-101273387D01*
X140425472Y-101119851D01*
X140476008Y-100953255D01*
X140493072Y-100780001D01*
X140493072Y-99879999D01*
X140476008Y-99706745D01*
X140425472Y-99540149D01*
X140343405Y-99386613D01*
X140232962Y-99252038D01*
X140098387Y-99141595D01*
X139944851Y-99059528D01*
X139778255Y-99008992D01*
X139605001Y-98991928D01*
X139079999Y-98991928D01*
X138906745Y-99008992D01*
X138837192Y-99030090D01*
X125656104Y-85849003D01*
X125632301Y-85819999D01*
X125516576Y-85725026D01*
X125384547Y-85654454D01*
X125241286Y-85610997D01*
X125129633Y-85600000D01*
X125129622Y-85600000D01*
X125092300Y-85596324D01*
X125054978Y-85600000D01*
X68610853Y-85600000D01*
X68653314Y-85497490D01*
X68707000Y-85227592D01*
X68707000Y-84952408D01*
X68653314Y-84682510D01*
X68548005Y-84428273D01*
X68395120Y-84199465D01*
X68200535Y-84004880D01*
X67971727Y-83851995D01*
X67894485Y-83820000D01*
X67971727Y-83788005D01*
X68200535Y-83635120D01*
X68395120Y-83440535D01*
X68548005Y-83211727D01*
X68653314Y-82957490D01*
X68660690Y-82920408D01*
X87376000Y-82920408D01*
X87376000Y-83195592D01*
X87429686Y-83465490D01*
X87534995Y-83719727D01*
X87687880Y-83948535D01*
X87882465Y-84143120D01*
X88111273Y-84296005D01*
X88365510Y-84401314D01*
X88635408Y-84455000D01*
X88910592Y-84455000D01*
X89180490Y-84401314D01*
X89434727Y-84296005D01*
X89663535Y-84143120D01*
X89858120Y-83948535D01*
X90011005Y-83719727D01*
X90116314Y-83465490D01*
X90170000Y-83195592D01*
X90170000Y-82920408D01*
X90932000Y-82920408D01*
X90932000Y-83195592D01*
X90985686Y-83465490D01*
X91090995Y-83719727D01*
X91243880Y-83948535D01*
X91438465Y-84143120D01*
X91667273Y-84296005D01*
X91921510Y-84401314D01*
X92191408Y-84455000D01*
X92466592Y-84455000D01*
X92736490Y-84401314D01*
X92990727Y-84296005D01*
X93219535Y-84143120D01*
X93414120Y-83948535D01*
X93567005Y-83719727D01*
X93672314Y-83465490D01*
X93726000Y-83195592D01*
X93726000Y-82920408D01*
X94488000Y-82920408D01*
X94488000Y-83195592D01*
X94541686Y-83465490D01*
X94646995Y-83719727D01*
X94799880Y-83948535D01*
X94994465Y-84143120D01*
X95223273Y-84296005D01*
X95477510Y-84401314D01*
X95747408Y-84455000D01*
X96022592Y-84455000D01*
X96292490Y-84401314D01*
X96546727Y-84296005D01*
X96775535Y-84143120D01*
X96970120Y-83948535D01*
X97123005Y-83719727D01*
X97228314Y-83465490D01*
X97282000Y-83195592D01*
X97282000Y-82920408D01*
X98044000Y-82920408D01*
X98044000Y-83195592D01*
X98097686Y-83465490D01*
X98202995Y-83719727D01*
X98355880Y-83948535D01*
X98550465Y-84143120D01*
X98779273Y-84296005D01*
X99033510Y-84401314D01*
X99303408Y-84455000D01*
X99578592Y-84455000D01*
X99848490Y-84401314D01*
X100102727Y-84296005D01*
X100331535Y-84143120D01*
X100526120Y-83948535D01*
X100679005Y-83719727D01*
X100784314Y-83465490D01*
X100838000Y-83195592D01*
X100838000Y-82920408D01*
X100784314Y-82650510D01*
X100679005Y-82396273D01*
X100526120Y-82167465D01*
X100331535Y-81972880D01*
X100102727Y-81819995D01*
X99848490Y-81714686D01*
X99578592Y-81661000D01*
X99303408Y-81661000D01*
X99033510Y-81714686D01*
X98779273Y-81819995D01*
X98550465Y-81972880D01*
X98355880Y-82167465D01*
X98202995Y-82396273D01*
X98097686Y-82650510D01*
X98044000Y-82920408D01*
X97282000Y-82920408D01*
X97228314Y-82650510D01*
X97123005Y-82396273D01*
X96970120Y-82167465D01*
X96775535Y-81972880D01*
X96546727Y-81819995D01*
X96292490Y-81714686D01*
X96022592Y-81661000D01*
X95747408Y-81661000D01*
X95477510Y-81714686D01*
X95223273Y-81819995D01*
X94994465Y-81972880D01*
X94799880Y-82167465D01*
X94646995Y-82396273D01*
X94541686Y-82650510D01*
X94488000Y-82920408D01*
X93726000Y-82920408D01*
X93672314Y-82650510D01*
X93567005Y-82396273D01*
X93414120Y-82167465D01*
X93219535Y-81972880D01*
X92990727Y-81819995D01*
X92736490Y-81714686D01*
X92466592Y-81661000D01*
X92191408Y-81661000D01*
X91921510Y-81714686D01*
X91667273Y-81819995D01*
X91438465Y-81972880D01*
X91243880Y-82167465D01*
X91090995Y-82396273D01*
X90985686Y-82650510D01*
X90932000Y-82920408D01*
X90170000Y-82920408D01*
X90116314Y-82650510D01*
X90011005Y-82396273D01*
X89858120Y-82167465D01*
X89663535Y-81972880D01*
X89434727Y-81819995D01*
X89180490Y-81714686D01*
X88910592Y-81661000D01*
X88635408Y-81661000D01*
X88365510Y-81714686D01*
X88111273Y-81819995D01*
X87882465Y-81972880D01*
X87687880Y-82167465D01*
X87534995Y-82396273D01*
X87429686Y-82650510D01*
X87376000Y-82920408D01*
X68660690Y-82920408D01*
X68707000Y-82687592D01*
X68707000Y-82412408D01*
X68653314Y-82142510D01*
X68548005Y-81888273D01*
X68538602Y-81874200D01*
X80138478Y-81874200D01*
X80175800Y-81877876D01*
X80213122Y-81874200D01*
X80213133Y-81874200D01*
X80324786Y-81863203D01*
X80468047Y-81819746D01*
X80600076Y-81749174D01*
X80715801Y-81654201D01*
X80739604Y-81625197D01*
X100038430Y-62326372D01*
X100192408Y-62357000D01*
X100467592Y-62357000D01*
X100737490Y-62303314D01*
X100991727Y-62198005D01*
X101220535Y-62045120D01*
X101415120Y-61850535D01*
X101568005Y-61621727D01*
X101600000Y-61544485D01*
X101631995Y-61621727D01*
X101784880Y-61850535D01*
X101979465Y-62045120D01*
X102208273Y-62198005D01*
X102462510Y-62303314D01*
X102732408Y-62357000D01*
X103007592Y-62357000D01*
X103277490Y-62303314D01*
X103531727Y-62198005D01*
X103760535Y-62045120D01*
X103955120Y-61850535D01*
X104108005Y-61621727D01*
X104213314Y-61367490D01*
X104221556Y-61326057D01*
X109731501Y-66836003D01*
X109755299Y-66865001D01*
X109784297Y-66888799D01*
X109871023Y-66959974D01*
X109979121Y-67017754D01*
X110003053Y-67030546D01*
X110146314Y-67074003D01*
X110257967Y-67085000D01*
X110257977Y-67085000D01*
X110295300Y-67088676D01*
X110332623Y-67085000D01*
X116713000Y-67085000D01*
X116713000Y-78740000D01*
X116715440Y-78764776D01*
X116722667Y-78788601D01*
X116734403Y-78810557D01*
X116750197Y-78829803D01*
X116769443Y-78845597D01*
X116791399Y-78857333D01*
X116815224Y-78864560D01*
X116840000Y-78867000D01*
X146177000Y-78867000D01*
X146177000Y-80264000D01*
X146179440Y-80288776D01*
X146186667Y-80312601D01*
X146198403Y-80334557D01*
X146214197Y-80353803D01*
X146233443Y-80369597D01*
X146255399Y-80381333D01*
X146279224Y-80388560D01*
X146304000Y-80391000D01*
X150368000Y-80391000D01*
X150392776Y-80388560D01*
X150416601Y-80381333D01*
X150438557Y-80369597D01*
X150457803Y-80353803D01*
X150473597Y-80334557D01*
X150485333Y-80312601D01*
X150492560Y-80288776D01*
X150495000Y-80264000D01*
X150495000Y-78867000D01*
X158090000Y-78867000D01*
X158090000Y-110460608D01*
X158017563Y-111272249D01*
X157810328Y-112029774D01*
X157472221Y-112738627D01*
X157013928Y-113376410D01*
X156449945Y-113922946D01*
X155798085Y-114360978D01*
X155078963Y-114676651D01*
X154310232Y-114861206D01*
X153645792Y-114910000D01*
X124038072Y-114910000D01*
X124038072Y-111975000D01*
X124025812Y-111850518D01*
X123989502Y-111730820D01*
X123930537Y-111620506D01*
X123851185Y-111523815D01*
X123754494Y-111444463D01*
X123644180Y-111385498D01*
X123524482Y-111349188D01*
X123400000Y-111336928D01*
X120200000Y-111336928D01*
X120075518Y-111349188D01*
X119955820Y-111385498D01*
X119845506Y-111444463D01*
X119748815Y-111523815D01*
X119669463Y-111620506D01*
X119610498Y-111730820D01*
X119574188Y-111850518D01*
X119561928Y-111975000D01*
X119561928Y-114910000D01*
X33049392Y-114910000D01*
X32237751Y-114837563D01*
X31480226Y-114630328D01*
X30771373Y-114292221D01*
X30133590Y-113833928D01*
X29587054Y-113269945D01*
X29149022Y-112618085D01*
X28833349Y-111898963D01*
X28648794Y-111130232D01*
X28600000Y-110465792D01*
X28600000Y-110279721D01*
X30885000Y-110279721D01*
X30885000Y-110700279D01*
X30967047Y-111112756D01*
X31127988Y-111501302D01*
X31361637Y-111850983D01*
X31659017Y-112148363D01*
X32008698Y-112382012D01*
X32397244Y-112542953D01*
X32809721Y-112625000D01*
X33230279Y-112625000D01*
X33642756Y-112542953D01*
X34031302Y-112382012D01*
X34380983Y-112148363D01*
X34678363Y-111850983D01*
X34912012Y-111501302D01*
X35072953Y-111112756D01*
X35155000Y-110700279D01*
X35155000Y-110279721D01*
X35072953Y-109867244D01*
X34912012Y-109478698D01*
X34678363Y-109129017D01*
X34380983Y-108831637D01*
X34031302Y-108597988D01*
X33642756Y-108437047D01*
X33230279Y-108355000D01*
X32809721Y-108355000D01*
X32397244Y-108437047D01*
X32008698Y-108597988D01*
X31659017Y-108831637D01*
X31361637Y-109129017D01*
X31127988Y-109478698D01*
X30967047Y-109867244D01*
X30885000Y-110279721D01*
X28600000Y-110279721D01*
X28600000Y-45749392D01*
X28621390Y-45509721D01*
X30885000Y-45509721D01*
X30885000Y-45930279D01*
X30967047Y-46342756D01*
X31127988Y-46731302D01*
X31361637Y-47080983D01*
X31659017Y-47378363D01*
X32008698Y-47612012D01*
X32397244Y-47772953D01*
X32809721Y-47855000D01*
X33230279Y-47855000D01*
X33642756Y-47772953D01*
X34031302Y-47612012D01*
X34380983Y-47378363D01*
X34678363Y-47080983D01*
X34912012Y-46731302D01*
X35072953Y-46342756D01*
X35155000Y-45930279D01*
X35155000Y-45509721D01*
X35072953Y-45097244D01*
X34912012Y-44708698D01*
X34678363Y-44359017D01*
X34380983Y-44061637D01*
X34031302Y-43827988D01*
X33642756Y-43667047D01*
X33230279Y-43585000D01*
X32809721Y-43585000D01*
X32397244Y-43667047D01*
X32008698Y-43827988D01*
X31659017Y-44061637D01*
X31361637Y-44359017D01*
X31127988Y-44708698D01*
X30967047Y-45097244D01*
X30885000Y-45509721D01*
X28621390Y-45509721D01*
X28672437Y-44937751D01*
X28879672Y-44180226D01*
X29217777Y-43471375D01*
X29676067Y-42833596D01*
X30240055Y-42287054D01*
X30891913Y-41849023D01*
X31611038Y-41533349D01*
X32379768Y-41348794D01*
X33044207Y-41300000D01*
X119059346Y-41300000D01*
X116717886Y-49495110D01*
G37*
%TD.AperFunction*%
D28*
X74306745Y-108726008D02*
X74479999Y-108743072D01*
X75005771Y-108743072D01*
X77974101Y-111711403D01*
X77997899Y-111740401D01*
X78026897Y-111764199D01*
X78113623Y-111835374D01*
X78172793Y-111867001D01*
X78245653Y-111905946D01*
X78388914Y-111949403D01*
X78500567Y-111960400D01*
X78500576Y-111960400D01*
X78537899Y-111964076D01*
X78575222Y-111960400D01*
X89064778Y-111960400D01*
X89102100Y-111964076D01*
X89139422Y-111960400D01*
X89139433Y-111960400D01*
X89251086Y-111949403D01*
X89394347Y-111905946D01*
X89526376Y-111835374D01*
X89642101Y-111740401D01*
X89665904Y-111711397D01*
X92634230Y-108743072D01*
X92785771Y-108743072D01*
X95774201Y-111731503D01*
X95797999Y-111760501D01*
X95913724Y-111855474D01*
X96045753Y-111926046D01*
X96189014Y-111969503D01*
X96300667Y-111980500D01*
X96300677Y-111980500D01*
X96338000Y-111984176D01*
X96375323Y-111980500D01*
X102859000Y-111980500D01*
X102859000Y-112393477D01*
X102855324Y-112430800D01*
X102859000Y-112468122D01*
X102859000Y-112468132D01*
X102869408Y-112573800D01*
X78088602Y-112573800D01*
X74212100Y-108697298D01*
X74306745Y-108726008D01*
%TA.AperFunction,Conductor*%
D29*
G36*
X74306745Y-108726008D02*
G01*
X74479999Y-108743072D01*
X75005771Y-108743072D01*
X77974101Y-111711403D01*
X77997899Y-111740401D01*
X78026897Y-111764199D01*
X78113623Y-111835374D01*
X78172793Y-111867001D01*
X78245653Y-111905946D01*
X78388914Y-111949403D01*
X78500567Y-111960400D01*
X78500576Y-111960400D01*
X78537899Y-111964076D01*
X78575222Y-111960400D01*
X89064778Y-111960400D01*
X89102100Y-111964076D01*
X89139422Y-111960400D01*
X89139433Y-111960400D01*
X89251086Y-111949403D01*
X89394347Y-111905946D01*
X89526376Y-111835374D01*
X89642101Y-111740401D01*
X89665904Y-111711397D01*
X92634230Y-108743072D01*
X92785771Y-108743072D01*
X95774201Y-111731503D01*
X95797999Y-111760501D01*
X95913724Y-111855474D01*
X96045753Y-111926046D01*
X96189014Y-111969503D01*
X96300667Y-111980500D01*
X96300677Y-111980500D01*
X96338000Y-111984176D01*
X96375323Y-111980500D01*
X102859000Y-111980500D01*
X102859000Y-112393477D01*
X102855324Y-112430800D01*
X102859000Y-112468122D01*
X102859000Y-112468132D01*
X102869408Y-112573800D01*
X78088602Y-112573800D01*
X74212100Y-108697298D01*
X74306745Y-108726008D01*
G37*
%TD.AperFunction*%
D28*
X65966686Y-89762510D02*
X65913000Y-90032408D01*
X65913000Y-90307592D01*
X65966686Y-90577490D01*
X66071995Y-90831727D01*
X66224880Y-91060535D01*
X66419465Y-91255120D01*
X66648273Y-91408005D01*
X66902510Y-91513314D01*
X67172408Y-91567000D01*
X67447592Y-91567000D01*
X67717490Y-91513314D01*
X67971727Y-91408005D01*
X68200535Y-91255120D01*
X68395120Y-91060535D01*
X68548005Y-90831727D01*
X68653314Y-90577490D01*
X68663378Y-90526891D01*
X112858519Y-90526891D01*
X112955843Y-90801252D01*
X113104822Y-91051355D01*
X113299731Y-91267588D01*
X113533080Y-91441641D01*
X113795901Y-91566825D01*
X113943110Y-91611476D01*
X114173000Y-91490155D01*
X114173000Y-90297000D01*
X112979186Y-90297000D01*
X112858519Y-90526891D01*
X68663378Y-90526891D01*
X68707000Y-90307592D01*
X68707000Y-90032408D01*
X68653314Y-89762510D01*
X68610853Y-89660000D01*
X112912831Y-89660000D01*
X112858519Y-89813109D01*
X112979186Y-90043000D01*
X114173000Y-90043000D01*
X114173000Y-90023000D01*
X114427000Y-90023000D01*
X114427000Y-90043000D01*
X114447000Y-90043000D01*
X114447000Y-90297000D01*
X114427000Y-90297000D01*
X114427000Y-91490155D01*
X114656890Y-91611476D01*
X114804099Y-91566825D01*
X115066920Y-91441641D01*
X115300269Y-91267588D01*
X115376034Y-91183534D01*
X115400498Y-91264180D01*
X115459463Y-91374494D01*
X115538815Y-91471185D01*
X115635506Y-91550537D01*
X115745820Y-91609502D01*
X115865518Y-91645812D01*
X115990000Y-91658072D01*
X117690000Y-91658072D01*
X117814482Y-91645812D01*
X117934180Y-91609502D01*
X118044494Y-91550537D01*
X118141185Y-91471185D01*
X118220537Y-91374494D01*
X118279502Y-91264180D01*
X118315812Y-91144482D01*
X118328072Y-91020000D01*
X118328072Y-89660000D01*
X125772699Y-89660000D01*
X134273411Y-98160713D01*
X134255886Y-98155397D01*
X134144233Y-98144400D01*
X134144222Y-98144400D01*
X134106900Y-98140724D01*
X134069578Y-98144400D01*
X126246810Y-98144400D01*
X126280000Y-97977539D01*
X126280000Y-97773661D01*
X126240226Y-97573702D01*
X126162205Y-97385344D01*
X126048937Y-97215826D01*
X125904774Y-97071663D01*
X125735256Y-96958395D01*
X125546898Y-96880374D01*
X125346939Y-96840600D01*
X125143061Y-96840600D01*
X124943102Y-96880374D01*
X124754744Y-96958395D01*
X124585226Y-97071663D01*
X124441063Y-97215826D01*
X124327795Y-97385344D01*
X124249774Y-97573702D01*
X124210000Y-97773661D01*
X124210000Y-97977539D01*
X124243190Y-98144400D01*
X110068723Y-98144400D01*
X110031400Y-98140724D01*
X109994077Y-98144400D01*
X109994067Y-98144400D01*
X109882414Y-98155397D01*
X109739153Y-98198854D01*
X109607123Y-98269426D01*
X109570047Y-98299854D01*
X109491399Y-98364399D01*
X109467601Y-98393398D01*
X108826696Y-99034303D01*
X108743255Y-99008992D01*
X108570001Y-98991928D01*
X108044999Y-98991928D01*
X108044299Y-98991997D01*
X105779104Y-96726803D01*
X105755301Y-96697799D01*
X105639576Y-96602826D01*
X105507547Y-96532254D01*
X105364286Y-96488797D01*
X105252633Y-96477800D01*
X105252622Y-96477800D01*
X105215300Y-96474124D01*
X105177978Y-96477800D01*
X98018711Y-96477800D01*
X97974774Y-96433863D01*
X97805256Y-96320595D01*
X97616898Y-96242574D01*
X97416939Y-96202800D01*
X97213061Y-96202800D01*
X97013102Y-96242574D01*
X96824744Y-96320595D01*
X96655226Y-96433863D01*
X96511063Y-96578026D01*
X96397795Y-96747544D01*
X96319774Y-96935902D01*
X96280000Y-97135861D01*
X96280000Y-97339739D01*
X96319774Y-97539698D01*
X96397795Y-97728056D01*
X96511063Y-97897574D01*
X96655226Y-98041737D01*
X96824744Y-98155005D01*
X97013102Y-98233026D01*
X97213061Y-98272800D01*
X97416939Y-98272800D01*
X97616898Y-98233026D01*
X97805256Y-98155005D01*
X97974774Y-98041737D01*
X98018711Y-97997800D01*
X104900499Y-97997800D01*
X105413912Y-98511213D01*
X105396386Y-98505897D01*
X105284733Y-98494900D01*
X105284722Y-98494900D01*
X105247400Y-98491224D01*
X105210078Y-98494900D01*
X104044033Y-98494900D01*
X104006700Y-98491223D01*
X103969367Y-98494900D01*
X103857714Y-98505897D01*
X103714453Y-98549354D01*
X103582424Y-98619926D01*
X103466699Y-98714899D01*
X103442896Y-98743903D01*
X103107998Y-99078801D01*
X103079000Y-99102599D01*
X103055202Y-99131597D01*
X103055201Y-99131598D01*
X102984026Y-99218324D01*
X102913454Y-99350354D01*
X102891250Y-99423553D01*
X102869998Y-99493614D01*
X102864725Y-99547147D01*
X102855324Y-99642600D01*
X102859001Y-99679932D01*
X102859000Y-110460500D01*
X99428072Y-110460500D01*
X99428072Y-108875000D01*
X99415812Y-108750518D01*
X99379502Y-108630820D01*
X99320537Y-108520506D01*
X99241185Y-108423815D01*
X99144494Y-108344463D01*
X99034180Y-108285498D01*
X98914482Y-108249188D01*
X98790000Y-108236928D01*
X96790000Y-108236928D01*
X96665518Y-108249188D01*
X96545820Y-108285498D01*
X96435506Y-108344463D01*
X96395004Y-108377702D01*
X94048003Y-106030702D01*
X94048072Y-106030001D01*
X94048072Y-105504999D01*
X94031008Y-105331745D01*
X93980472Y-105165149D01*
X93898405Y-105011613D01*
X93787962Y-104877038D01*
X93785479Y-104875000D01*
X96151928Y-104875000D01*
X96164188Y-104999482D01*
X96200498Y-105119180D01*
X96259463Y-105229494D01*
X96338815Y-105326185D01*
X96435506Y-105405537D01*
X96545820Y-105464502D01*
X96665518Y-105500812D01*
X96790000Y-105513072D01*
X97504250Y-105510000D01*
X97663000Y-105351250D01*
X97663000Y-104002000D01*
X97917000Y-104002000D01*
X97917000Y-105351250D01*
X98075750Y-105510000D01*
X98790000Y-105513072D01*
X98914482Y-105500812D01*
X99034180Y-105464502D01*
X99144494Y-105405537D01*
X99241185Y-105326185D01*
X99320537Y-105229494D01*
X99379502Y-105119180D01*
X99415812Y-104999482D01*
X99428072Y-104875000D01*
X99425000Y-104160750D01*
X99266250Y-104002000D01*
X97917000Y-104002000D01*
X97663000Y-104002000D01*
X96313750Y-104002000D01*
X96155000Y-104160750D01*
X96151928Y-104875000D01*
X93785479Y-104875000D01*
X93653387Y-104766595D01*
X93499851Y-104684528D01*
X93333255Y-104633992D01*
X93160001Y-104616928D01*
X92259999Y-104616928D01*
X92086745Y-104633992D01*
X91920149Y-104684528D01*
X91766613Y-104766595D01*
X91632038Y-104877038D01*
X91524970Y-105007500D01*
X81633380Y-105007500D01*
X81635812Y-104999482D01*
X81648072Y-104875000D01*
X81645000Y-104160750D01*
X81486250Y-104002000D01*
X80137000Y-104002000D01*
X80137000Y-104022000D01*
X79883000Y-104022000D01*
X79883000Y-104002000D01*
X79863000Y-104002000D01*
X79863000Y-103748000D01*
X79883000Y-103748000D01*
X79883000Y-102398750D01*
X80137000Y-102398750D01*
X80137000Y-103748000D01*
X81486250Y-103748000D01*
X81645000Y-103589250D01*
X81648072Y-102875000D01*
X96151928Y-102875000D01*
X96155000Y-103589250D01*
X96313750Y-103748000D01*
X97663000Y-103748000D01*
X97663000Y-102398750D01*
X97917000Y-102398750D01*
X97917000Y-103748000D01*
X99266250Y-103748000D01*
X99425000Y-103589250D01*
X99428072Y-102875000D01*
X99415812Y-102750518D01*
X99379502Y-102630820D01*
X99320537Y-102520506D01*
X99241185Y-102423815D01*
X99144494Y-102344463D01*
X99034180Y-102285498D01*
X98914482Y-102249188D01*
X98790000Y-102236928D01*
X98075750Y-102240000D01*
X97917000Y-102398750D01*
X97663000Y-102398750D01*
X97504250Y-102240000D01*
X96790000Y-102236928D01*
X96665518Y-102249188D01*
X96545820Y-102285498D01*
X96435506Y-102344463D01*
X96338815Y-102423815D01*
X96259463Y-102520506D01*
X96200498Y-102630820D01*
X96164188Y-102750518D01*
X96151928Y-102875000D01*
X81648072Y-102875000D01*
X81635812Y-102750518D01*
X81599502Y-102630820D01*
X81540537Y-102520506D01*
X81461185Y-102423815D01*
X81364494Y-102344463D01*
X81254180Y-102285498D01*
X81134482Y-102249188D01*
X81010000Y-102236928D01*
X80295750Y-102240000D01*
X80137000Y-102398750D01*
X79883000Y-102398750D01*
X79724250Y-102240000D01*
X79010000Y-102236928D01*
X78885518Y-102249188D01*
X78765820Y-102285498D01*
X78655506Y-102344463D01*
X78558815Y-102423815D01*
X78479463Y-102520506D01*
X78420498Y-102630820D01*
X78384188Y-102750518D01*
X78371928Y-102875000D01*
X78375000Y-103589250D01*
X78533748Y-103747998D01*
X78375000Y-103747998D01*
X78375000Y-103763898D01*
X64271101Y-89660000D01*
X66009147Y-89660000D01*
X65966686Y-89762510D01*
%TA.AperFunction,Conductor*%
D29*
G36*
X65966686Y-89762510D02*
G01*
X65913000Y-90032408D01*
X65913000Y-90307592D01*
X65966686Y-90577490D01*
X66071995Y-90831727D01*
X66224880Y-91060535D01*
X66419465Y-91255120D01*
X66648273Y-91408005D01*
X66902510Y-91513314D01*
X67172408Y-91567000D01*
X67447592Y-91567000D01*
X67717490Y-91513314D01*
X67971727Y-91408005D01*
X68200535Y-91255120D01*
X68395120Y-91060535D01*
X68548005Y-90831727D01*
X68653314Y-90577490D01*
X68663378Y-90526891D01*
X112858519Y-90526891D01*
X112955843Y-90801252D01*
X113104822Y-91051355D01*
X113299731Y-91267588D01*
X113533080Y-91441641D01*
X113795901Y-91566825D01*
X113943110Y-91611476D01*
X114173000Y-91490155D01*
X114173000Y-90297000D01*
X112979186Y-90297000D01*
X112858519Y-90526891D01*
X68663378Y-90526891D01*
X68707000Y-90307592D01*
X68707000Y-90032408D01*
X68653314Y-89762510D01*
X68610853Y-89660000D01*
X112912831Y-89660000D01*
X112858519Y-89813109D01*
X112979186Y-90043000D01*
X114173000Y-90043000D01*
X114173000Y-90023000D01*
X114427000Y-90023000D01*
X114427000Y-90043000D01*
X114447000Y-90043000D01*
X114447000Y-90297000D01*
X114427000Y-90297000D01*
X114427000Y-91490155D01*
X114656890Y-91611476D01*
X114804099Y-91566825D01*
X115066920Y-91441641D01*
X115300269Y-91267588D01*
X115376034Y-91183534D01*
X115400498Y-91264180D01*
X115459463Y-91374494D01*
X115538815Y-91471185D01*
X115635506Y-91550537D01*
X115745820Y-91609502D01*
X115865518Y-91645812D01*
X115990000Y-91658072D01*
X117690000Y-91658072D01*
X117814482Y-91645812D01*
X117934180Y-91609502D01*
X118044494Y-91550537D01*
X118141185Y-91471185D01*
X118220537Y-91374494D01*
X118279502Y-91264180D01*
X118315812Y-91144482D01*
X118328072Y-91020000D01*
X118328072Y-89660000D01*
X125772699Y-89660000D01*
X134273411Y-98160713D01*
X134255886Y-98155397D01*
X134144233Y-98144400D01*
X134144222Y-98144400D01*
X134106900Y-98140724D01*
X134069578Y-98144400D01*
X126246810Y-98144400D01*
X126280000Y-97977539D01*
X126280000Y-97773661D01*
X126240226Y-97573702D01*
X126162205Y-97385344D01*
X126048937Y-97215826D01*
X125904774Y-97071663D01*
X125735256Y-96958395D01*
X125546898Y-96880374D01*
X125346939Y-96840600D01*
X125143061Y-96840600D01*
X124943102Y-96880374D01*
X124754744Y-96958395D01*
X124585226Y-97071663D01*
X124441063Y-97215826D01*
X124327795Y-97385344D01*
X124249774Y-97573702D01*
X124210000Y-97773661D01*
X124210000Y-97977539D01*
X124243190Y-98144400D01*
X110068723Y-98144400D01*
X110031400Y-98140724D01*
X109994077Y-98144400D01*
X109994067Y-98144400D01*
X109882414Y-98155397D01*
X109739153Y-98198854D01*
X109607123Y-98269426D01*
X109570047Y-98299854D01*
X109491399Y-98364399D01*
X109467601Y-98393398D01*
X108826696Y-99034303D01*
X108743255Y-99008992D01*
X108570001Y-98991928D01*
X108044999Y-98991928D01*
X108044299Y-98991997D01*
X105779104Y-96726803D01*
X105755301Y-96697799D01*
X105639576Y-96602826D01*
X105507547Y-96532254D01*
X105364286Y-96488797D01*
X105252633Y-96477800D01*
X105252622Y-96477800D01*
X105215300Y-96474124D01*
X105177978Y-96477800D01*
X98018711Y-96477800D01*
X97974774Y-96433863D01*
X97805256Y-96320595D01*
X97616898Y-96242574D01*
X97416939Y-96202800D01*
X97213061Y-96202800D01*
X97013102Y-96242574D01*
X96824744Y-96320595D01*
X96655226Y-96433863D01*
X96511063Y-96578026D01*
X96397795Y-96747544D01*
X96319774Y-96935902D01*
X96280000Y-97135861D01*
X96280000Y-97339739D01*
X96319774Y-97539698D01*
X96397795Y-97728056D01*
X96511063Y-97897574D01*
X96655226Y-98041737D01*
X96824744Y-98155005D01*
X97013102Y-98233026D01*
X97213061Y-98272800D01*
X97416939Y-98272800D01*
X97616898Y-98233026D01*
X97805256Y-98155005D01*
X97974774Y-98041737D01*
X98018711Y-97997800D01*
X104900499Y-97997800D01*
X105413912Y-98511213D01*
X105396386Y-98505897D01*
X105284733Y-98494900D01*
X105284722Y-98494900D01*
X105247400Y-98491224D01*
X105210078Y-98494900D01*
X104044033Y-98494900D01*
X104006700Y-98491223D01*
X103969367Y-98494900D01*
X103857714Y-98505897D01*
X103714453Y-98549354D01*
X103582424Y-98619926D01*
X103466699Y-98714899D01*
X103442896Y-98743903D01*
X103107998Y-99078801D01*
X103079000Y-99102599D01*
X103055202Y-99131597D01*
X103055201Y-99131598D01*
X102984026Y-99218324D01*
X102913454Y-99350354D01*
X102891250Y-99423553D01*
X102869998Y-99493614D01*
X102864725Y-99547147D01*
X102855324Y-99642600D01*
X102859001Y-99679932D01*
X102859000Y-110460500D01*
X99428072Y-110460500D01*
X99428072Y-108875000D01*
X99415812Y-108750518D01*
X99379502Y-108630820D01*
X99320537Y-108520506D01*
X99241185Y-108423815D01*
X99144494Y-108344463D01*
X99034180Y-108285498D01*
X98914482Y-108249188D01*
X98790000Y-108236928D01*
X96790000Y-108236928D01*
X96665518Y-108249188D01*
X96545820Y-108285498D01*
X96435506Y-108344463D01*
X96395004Y-108377702D01*
X94048003Y-106030702D01*
X94048072Y-106030001D01*
X94048072Y-105504999D01*
X94031008Y-105331745D01*
X93980472Y-105165149D01*
X93898405Y-105011613D01*
X93787962Y-104877038D01*
X93785479Y-104875000D01*
X96151928Y-104875000D01*
X96164188Y-104999482D01*
X96200498Y-105119180D01*
X96259463Y-105229494D01*
X96338815Y-105326185D01*
X96435506Y-105405537D01*
X96545820Y-105464502D01*
X96665518Y-105500812D01*
X96790000Y-105513072D01*
X97504250Y-105510000D01*
X97663000Y-105351250D01*
X97663000Y-104002000D01*
X97917000Y-104002000D01*
X97917000Y-105351250D01*
X98075750Y-105510000D01*
X98790000Y-105513072D01*
X98914482Y-105500812D01*
X99034180Y-105464502D01*
X99144494Y-105405537D01*
X99241185Y-105326185D01*
X99320537Y-105229494D01*
X99379502Y-105119180D01*
X99415812Y-104999482D01*
X99428072Y-104875000D01*
X99425000Y-104160750D01*
X99266250Y-104002000D01*
X97917000Y-104002000D01*
X97663000Y-104002000D01*
X96313750Y-104002000D01*
X96155000Y-104160750D01*
X96151928Y-104875000D01*
X93785479Y-104875000D01*
X93653387Y-104766595D01*
X93499851Y-104684528D01*
X93333255Y-104633992D01*
X93160001Y-104616928D01*
X92259999Y-104616928D01*
X92086745Y-104633992D01*
X91920149Y-104684528D01*
X91766613Y-104766595D01*
X91632038Y-104877038D01*
X91524970Y-105007500D01*
X81633380Y-105007500D01*
X81635812Y-104999482D01*
X81648072Y-104875000D01*
X81645000Y-104160750D01*
X81486250Y-104002000D01*
X80137000Y-104002000D01*
X80137000Y-104022000D01*
X79883000Y-104022000D01*
X79883000Y-104002000D01*
X79863000Y-104002000D01*
X79863000Y-103748000D01*
X79883000Y-103748000D01*
X79883000Y-102398750D01*
X80137000Y-102398750D01*
X80137000Y-103748000D01*
X81486250Y-103748000D01*
X81645000Y-103589250D01*
X81648072Y-102875000D01*
X96151928Y-102875000D01*
X96155000Y-103589250D01*
X96313750Y-103748000D01*
X97663000Y-103748000D01*
X97663000Y-102398750D01*
X97917000Y-102398750D01*
X97917000Y-103748000D01*
X99266250Y-103748000D01*
X99425000Y-103589250D01*
X99428072Y-102875000D01*
X99415812Y-102750518D01*
X99379502Y-102630820D01*
X99320537Y-102520506D01*
X99241185Y-102423815D01*
X99144494Y-102344463D01*
X99034180Y-102285498D01*
X98914482Y-102249188D01*
X98790000Y-102236928D01*
X98075750Y-102240000D01*
X97917000Y-102398750D01*
X97663000Y-102398750D01*
X97504250Y-102240000D01*
X96790000Y-102236928D01*
X96665518Y-102249188D01*
X96545820Y-102285498D01*
X96435506Y-102344463D01*
X96338815Y-102423815D01*
X96259463Y-102520506D01*
X96200498Y-102630820D01*
X96164188Y-102750518D01*
X96151928Y-102875000D01*
X81648072Y-102875000D01*
X81635812Y-102750518D01*
X81599502Y-102630820D01*
X81540537Y-102520506D01*
X81461185Y-102423815D01*
X81364494Y-102344463D01*
X81254180Y-102285498D01*
X81134482Y-102249188D01*
X81010000Y-102236928D01*
X80295750Y-102240000D01*
X80137000Y-102398750D01*
X79883000Y-102398750D01*
X79724250Y-102240000D01*
X79010000Y-102236928D01*
X78885518Y-102249188D01*
X78765820Y-102285498D01*
X78655506Y-102344463D01*
X78558815Y-102423815D01*
X78479463Y-102520506D01*
X78420498Y-102630820D01*
X78384188Y-102750518D01*
X78371928Y-102875000D01*
X78375000Y-103589250D01*
X78533748Y-103747998D01*
X78375000Y-103747998D01*
X78375000Y-103763898D01*
X64271101Y-89660000D01*
X66009147Y-89660000D01*
X65966686Y-89762510D01*
G37*
%TD.AperFunction*%
D28*
X78740000Y-106278502D02*
X78763799Y-106307501D01*
X78792797Y-106331299D01*
X78879523Y-106402474D01*
X78908095Y-106417746D01*
X79011553Y-106473046D01*
X79154814Y-106516503D01*
X79266467Y-106527500D01*
X79266476Y-106527500D01*
X79303799Y-106531176D01*
X79341122Y-106527500D01*
X91524970Y-106527500D01*
X91632038Y-106657962D01*
X91658891Y-106680000D01*
X91632038Y-106702038D01*
X91521595Y-106836613D01*
X91439528Y-106990149D01*
X91388992Y-107156745D01*
X91371928Y-107329999D01*
X91371928Y-107855001D01*
X91371997Y-107855701D01*
X88787299Y-110440400D01*
X81648072Y-110440400D01*
X81648072Y-108875000D01*
X81635812Y-108750518D01*
X81599502Y-108630820D01*
X81540537Y-108520506D01*
X81461185Y-108423815D01*
X81364494Y-108344463D01*
X81254180Y-108285498D01*
X81134482Y-108249188D01*
X81010000Y-108236928D01*
X79010000Y-108236928D01*
X78885518Y-108249188D01*
X78765820Y-108285498D01*
X78655506Y-108344463D01*
X78615004Y-108377702D01*
X76268003Y-106030702D01*
X76268072Y-106030001D01*
X76268072Y-105504999D01*
X76251008Y-105331745D01*
X76200472Y-105165149D01*
X76118405Y-105011613D01*
X76007962Y-104877038D01*
X75873387Y-104766595D01*
X75719851Y-104684528D01*
X75553255Y-104633992D01*
X75380001Y-104616928D01*
X74854230Y-104616928D01*
X62436304Y-92199003D01*
X62412501Y-92169999D01*
X62296776Y-92075026D01*
X62224964Y-92036641D01*
X62303314Y-91847490D01*
X62357000Y-91577592D01*
X62357000Y-91302408D01*
X62303314Y-91032510D01*
X62260853Y-90930000D01*
X63391499Y-90930000D01*
X78740000Y-106278502D01*
%TA.AperFunction,Conductor*%
D29*
G36*
X78740000Y-106278502D02*
G01*
X78763799Y-106307501D01*
X78792797Y-106331299D01*
X78879523Y-106402474D01*
X78908095Y-106417746D01*
X79011553Y-106473046D01*
X79154814Y-106516503D01*
X79266467Y-106527500D01*
X79266476Y-106527500D01*
X79303799Y-106531176D01*
X79341122Y-106527500D01*
X91524970Y-106527500D01*
X91632038Y-106657962D01*
X91658891Y-106680000D01*
X91632038Y-106702038D01*
X91521595Y-106836613D01*
X91439528Y-106990149D01*
X91388992Y-107156745D01*
X91371928Y-107329999D01*
X91371928Y-107855001D01*
X91371997Y-107855701D01*
X88787299Y-110440400D01*
X81648072Y-110440400D01*
X81648072Y-108875000D01*
X81635812Y-108750518D01*
X81599502Y-108630820D01*
X81540537Y-108520506D01*
X81461185Y-108423815D01*
X81364494Y-108344463D01*
X81254180Y-108285498D01*
X81134482Y-108249188D01*
X81010000Y-108236928D01*
X79010000Y-108236928D01*
X78885518Y-108249188D01*
X78765820Y-108285498D01*
X78655506Y-108344463D01*
X78615004Y-108377702D01*
X76268003Y-106030702D01*
X76268072Y-106030001D01*
X76268072Y-105504999D01*
X76251008Y-105331745D01*
X76200472Y-105165149D01*
X76118405Y-105011613D01*
X76007962Y-104877038D01*
X75873387Y-104766595D01*
X75719851Y-104684528D01*
X75553255Y-104633992D01*
X75380001Y-104616928D01*
X74854230Y-104616928D01*
X62436304Y-92199003D01*
X62412501Y-92169999D01*
X62296776Y-92075026D01*
X62224964Y-92036641D01*
X62303314Y-91847490D01*
X62357000Y-91577592D01*
X62357000Y-91302408D01*
X62303314Y-91032510D01*
X62260853Y-90930000D01*
X63391499Y-90930000D01*
X78740000Y-106278502D01*
G37*
%TD.AperFunction*%
D28*
X134642038Y-101407962D02*
X134772501Y-101515030D01*
X134772500Y-105015677D01*
X134768824Y-105053000D01*
X134772500Y-105090322D01*
X134772500Y-105090332D01*
X134783497Y-105201985D01*
X134821172Y-105326185D01*
X134826954Y-105345246D01*
X134897526Y-105477276D01*
X134935173Y-105523149D01*
X134992499Y-105593001D01*
X135021503Y-105616804D01*
X137091997Y-107687299D01*
X137091928Y-107687999D01*
X137091928Y-108213001D01*
X137108992Y-108386255D01*
X137159528Y-108552851D01*
X137241595Y-108706387D01*
X137352038Y-108840962D01*
X137486613Y-108951405D01*
X137640149Y-109033472D01*
X137806745Y-109084008D01*
X137979999Y-109101072D01*
X138880001Y-109101072D01*
X139053255Y-109084008D01*
X139219851Y-109033472D01*
X139373387Y-108951405D01*
X139507962Y-108840962D01*
X139618405Y-108706387D01*
X139700472Y-108552851D01*
X139719575Y-108489876D01*
X141615701Y-110386003D01*
X141639499Y-110415001D01*
X141670448Y-110440400D01*
X135965202Y-110440400D01*
X134709641Y-109184839D01*
X134713072Y-109150000D01*
X134713072Y-108650000D01*
X134696008Y-108476746D01*
X134645472Y-108310150D01*
X134563405Y-108156614D01*
X134452962Y-108022038D01*
X134446406Y-108016658D01*
X134526185Y-107951185D01*
X134605537Y-107854494D01*
X134664502Y-107744180D01*
X134700812Y-107624482D01*
X134713072Y-107500000D01*
X134710000Y-107285750D01*
X134551250Y-107127000D01*
X133477000Y-107127000D01*
X133477000Y-107147000D01*
X133223000Y-107147000D01*
X133223000Y-107127000D01*
X133203000Y-107127000D01*
X133203000Y-106873000D01*
X133223000Y-106873000D01*
X133223000Y-106023750D01*
X133477000Y-106023750D01*
X133477000Y-106873000D01*
X134551250Y-106873000D01*
X134710000Y-106714250D01*
X134713072Y-106500000D01*
X134700812Y-106375518D01*
X134664502Y-106255820D01*
X134605537Y-106145506D01*
X134526185Y-106048815D01*
X134429494Y-105969463D01*
X134319180Y-105910498D01*
X134199482Y-105874188D01*
X134075000Y-105861928D01*
X133635750Y-105865000D01*
X133477000Y-106023750D01*
X133223000Y-106023750D01*
X133064250Y-105865000D01*
X133041700Y-105864842D01*
X133041700Y-102070601D01*
X133444298Y-101668003D01*
X133444999Y-101668072D01*
X133970001Y-101668072D01*
X134143255Y-101651008D01*
X134309851Y-101600472D01*
X134463387Y-101518405D01*
X134597962Y-101407962D01*
X134620000Y-101381109D01*
X134642038Y-101407962D01*
%TA.AperFunction,Conductor*%
D29*
G36*
X134642038Y-101407962D02*
G01*
X134772501Y-101515030D01*
X134772500Y-105015677D01*
X134768824Y-105053000D01*
X134772500Y-105090322D01*
X134772500Y-105090332D01*
X134783497Y-105201985D01*
X134821172Y-105326185D01*
X134826954Y-105345246D01*
X134897526Y-105477276D01*
X134935173Y-105523149D01*
X134992499Y-105593001D01*
X135021503Y-105616804D01*
X137091997Y-107687299D01*
X137091928Y-107687999D01*
X137091928Y-108213001D01*
X137108992Y-108386255D01*
X137159528Y-108552851D01*
X137241595Y-108706387D01*
X137352038Y-108840962D01*
X137486613Y-108951405D01*
X137640149Y-109033472D01*
X137806745Y-109084008D01*
X137979999Y-109101072D01*
X138880001Y-109101072D01*
X139053255Y-109084008D01*
X139219851Y-109033472D01*
X139373387Y-108951405D01*
X139507962Y-108840962D01*
X139618405Y-108706387D01*
X139700472Y-108552851D01*
X139719575Y-108489876D01*
X141615701Y-110386003D01*
X141639499Y-110415001D01*
X141670448Y-110440400D01*
X135965202Y-110440400D01*
X134709641Y-109184839D01*
X134713072Y-109150000D01*
X134713072Y-108650000D01*
X134696008Y-108476746D01*
X134645472Y-108310150D01*
X134563405Y-108156614D01*
X134452962Y-108022038D01*
X134446406Y-108016658D01*
X134526185Y-107951185D01*
X134605537Y-107854494D01*
X134664502Y-107744180D01*
X134700812Y-107624482D01*
X134713072Y-107500000D01*
X134710000Y-107285750D01*
X134551250Y-107127000D01*
X133477000Y-107127000D01*
X133477000Y-107147000D01*
X133223000Y-107147000D01*
X133223000Y-107127000D01*
X133203000Y-107127000D01*
X133203000Y-106873000D01*
X133223000Y-106873000D01*
X133223000Y-106023750D01*
X133477000Y-106023750D01*
X133477000Y-106873000D01*
X134551250Y-106873000D01*
X134710000Y-106714250D01*
X134713072Y-106500000D01*
X134700812Y-106375518D01*
X134664502Y-106255820D01*
X134605537Y-106145506D01*
X134526185Y-106048815D01*
X134429494Y-105969463D01*
X134319180Y-105910498D01*
X134199482Y-105874188D01*
X134075000Y-105861928D01*
X133635750Y-105865000D01*
X133477000Y-106023750D01*
X133223000Y-106023750D01*
X133064250Y-105865000D01*
X133041700Y-105864842D01*
X133041700Y-102070601D01*
X133444298Y-101668003D01*
X133444999Y-101668072D01*
X133970001Y-101668072D01*
X134143255Y-101651008D01*
X134309851Y-101600472D01*
X134463387Y-101518405D01*
X134597962Y-101407962D01*
X134620000Y-101381109D01*
X134642038Y-101407962D01*
G37*
%TD.AperFunction*%
D28*
X105445605Y-102352908D02*
X105469399Y-102381901D01*
X105498392Y-102405695D01*
X105498396Y-102405699D01*
X105545676Y-102444500D01*
X105585124Y-102476874D01*
X105717153Y-102547446D01*
X105860414Y-102590903D01*
X105972067Y-102601900D01*
X105972076Y-102601900D01*
X106009399Y-102605576D01*
X106046722Y-102601900D01*
X109726799Y-102601900D01*
X111899898Y-104775000D01*
X110087971Y-106586928D01*
X109920000Y-106586928D01*
X109746746Y-106603992D01*
X109580150Y-106654528D01*
X109426614Y-106736595D01*
X109292038Y-106847038D01*
X109286658Y-106853594D01*
X109221185Y-106773815D01*
X109124494Y-106694463D01*
X109014180Y-106635498D01*
X108894482Y-106599188D01*
X108770000Y-106586928D01*
X108555750Y-106590000D01*
X108397000Y-106748750D01*
X108397000Y-107823000D01*
X108417000Y-107823000D01*
X108417000Y-108077000D01*
X108397000Y-108077000D01*
X108397000Y-108097000D01*
X108143000Y-108097000D01*
X108143000Y-108077000D01*
X106487000Y-108077000D01*
X106487000Y-108097000D01*
X106233000Y-108097000D01*
X106233000Y-108077000D01*
X106213000Y-108077000D01*
X106213000Y-107823000D01*
X106233000Y-107823000D01*
X106233000Y-106748750D01*
X106487000Y-106748750D01*
X106487000Y-107823000D01*
X108143000Y-107823000D01*
X108143000Y-106748750D01*
X107984250Y-106590000D01*
X107770000Y-106586928D01*
X107645518Y-106599188D01*
X107525820Y-106635498D01*
X107415506Y-106694463D01*
X107318815Y-106773815D01*
X107315000Y-106778464D01*
X107311185Y-106773815D01*
X107214494Y-106694463D01*
X107104180Y-106635498D01*
X106984482Y-106599188D01*
X106860000Y-106586928D01*
X106645750Y-106590000D01*
X106487000Y-106748750D01*
X106233000Y-106748750D01*
X106074250Y-106590000D01*
X105860000Y-106586928D01*
X105735518Y-106599188D01*
X105615820Y-106635498D01*
X105505506Y-106694463D01*
X105408815Y-106773815D01*
X105343342Y-106853594D01*
X105337962Y-106847038D01*
X105203386Y-106736595D01*
X105049850Y-106654528D01*
X104883254Y-106603992D01*
X104710000Y-106586928D01*
X104379000Y-106586928D01*
X104379000Y-101668072D01*
X104760001Y-101668072D01*
X104760701Y-101668003D01*
X105445605Y-102352908D01*
%TA.AperFunction,Conductor*%
D29*
G36*
X105445605Y-102352908D02*
G01*
X105469399Y-102381901D01*
X105498392Y-102405695D01*
X105498396Y-102405699D01*
X105545676Y-102444500D01*
X105585124Y-102476874D01*
X105717153Y-102547446D01*
X105860414Y-102590903D01*
X105972067Y-102601900D01*
X105972076Y-102601900D01*
X106009399Y-102605576D01*
X106046722Y-102601900D01*
X109726799Y-102601900D01*
X111899898Y-104775000D01*
X110087971Y-106586928D01*
X109920000Y-106586928D01*
X109746746Y-106603992D01*
X109580150Y-106654528D01*
X109426614Y-106736595D01*
X109292038Y-106847038D01*
X109286658Y-106853594D01*
X109221185Y-106773815D01*
X109124494Y-106694463D01*
X109014180Y-106635498D01*
X108894482Y-106599188D01*
X108770000Y-106586928D01*
X108555750Y-106590000D01*
X108397000Y-106748750D01*
X108397000Y-107823000D01*
X108417000Y-107823000D01*
X108417000Y-108077000D01*
X108397000Y-108077000D01*
X108397000Y-108097000D01*
X108143000Y-108097000D01*
X108143000Y-108077000D01*
X106487000Y-108077000D01*
X106487000Y-108097000D01*
X106233000Y-108097000D01*
X106233000Y-108077000D01*
X106213000Y-108077000D01*
X106213000Y-107823000D01*
X106233000Y-107823000D01*
X106233000Y-106748750D01*
X106487000Y-106748750D01*
X106487000Y-107823000D01*
X108143000Y-107823000D01*
X108143000Y-106748750D01*
X107984250Y-106590000D01*
X107770000Y-106586928D01*
X107645518Y-106599188D01*
X107525820Y-106635498D01*
X107415506Y-106694463D01*
X107318815Y-106773815D01*
X107315000Y-106778464D01*
X107311185Y-106773815D01*
X107214494Y-106694463D01*
X107104180Y-106635498D01*
X106984482Y-106599188D01*
X106860000Y-106586928D01*
X106645750Y-106590000D01*
X106487000Y-106748750D01*
X106233000Y-106748750D01*
X106074250Y-106590000D01*
X105860000Y-106586928D01*
X105735518Y-106599188D01*
X105615820Y-106635498D01*
X105505506Y-106694463D01*
X105408815Y-106773815D01*
X105343342Y-106853594D01*
X105337962Y-106847038D01*
X105203386Y-106736595D01*
X105049850Y-106654528D01*
X104883254Y-106603992D01*
X104710000Y-106586928D01*
X104379000Y-106586928D01*
X104379000Y-101668072D01*
X104760001Y-101668072D01*
X104760701Y-101668003D01*
X105445605Y-102352908D01*
G37*
%TD.AperFunction*%
D28*
X59616686Y-75792510D02*
X59563000Y-76062408D01*
X59563000Y-76337592D01*
X59616686Y-76607490D01*
X59659147Y-76710000D01*
X58816933Y-76710000D01*
X58779600Y-76706323D01*
X58742267Y-76710000D01*
X58630614Y-76720997D01*
X58487353Y-76764454D01*
X58355324Y-76835026D01*
X58239599Y-76929999D01*
X58215801Y-76958997D01*
X39329402Y-95845397D01*
X39185120Y-95629465D01*
X38990535Y-95434880D01*
X38761727Y-95281995D01*
X38684485Y-95250000D01*
X38761727Y-95218005D01*
X38990535Y-95065120D01*
X39185120Y-94870535D01*
X39338005Y-94641727D01*
X39443314Y-94387490D01*
X39497000Y-94117592D01*
X39497000Y-93842408D01*
X39443314Y-93572510D01*
X39338005Y-93318273D01*
X39185120Y-93089465D01*
X38990535Y-92894880D01*
X38761727Y-92741995D01*
X38684485Y-92710000D01*
X38761727Y-92678005D01*
X38990535Y-92525120D01*
X39185120Y-92330535D01*
X39338005Y-92101727D01*
X39443314Y-91847490D01*
X39497000Y-91577592D01*
X39497000Y-91302408D01*
X39443314Y-91032510D01*
X39338005Y-90778273D01*
X39185120Y-90549465D01*
X38990535Y-90354880D01*
X38761727Y-90201995D01*
X38684485Y-90170000D01*
X38761727Y-90138005D01*
X38990535Y-89985120D01*
X39185120Y-89790535D01*
X39338005Y-89561727D01*
X39443314Y-89307490D01*
X39497000Y-89037592D01*
X39497000Y-88762408D01*
X39443314Y-88492510D01*
X39338005Y-88238273D01*
X39185120Y-88009465D01*
X38990535Y-87814880D01*
X38761727Y-87661995D01*
X38684485Y-87630000D01*
X38761727Y-87598005D01*
X38990535Y-87445120D01*
X39185120Y-87250535D01*
X39338005Y-87021727D01*
X39443314Y-86767490D01*
X39497000Y-86497592D01*
X39497000Y-86222408D01*
X39466372Y-86068429D01*
X49844802Y-75690000D01*
X59659147Y-75690000D01*
X59616686Y-75792510D01*
%TA.AperFunction,Conductor*%
D29*
G36*
X59616686Y-75792510D02*
G01*
X59563000Y-76062408D01*
X59563000Y-76337592D01*
X59616686Y-76607490D01*
X59659147Y-76710000D01*
X58816933Y-76710000D01*
X58779600Y-76706323D01*
X58742267Y-76710000D01*
X58630614Y-76720997D01*
X58487353Y-76764454D01*
X58355324Y-76835026D01*
X58239599Y-76929999D01*
X58215801Y-76958997D01*
X39329402Y-95845397D01*
X39185120Y-95629465D01*
X38990535Y-95434880D01*
X38761727Y-95281995D01*
X38684485Y-95250000D01*
X38761727Y-95218005D01*
X38990535Y-95065120D01*
X39185120Y-94870535D01*
X39338005Y-94641727D01*
X39443314Y-94387490D01*
X39497000Y-94117592D01*
X39497000Y-93842408D01*
X39443314Y-93572510D01*
X39338005Y-93318273D01*
X39185120Y-93089465D01*
X38990535Y-92894880D01*
X38761727Y-92741995D01*
X38684485Y-92710000D01*
X38761727Y-92678005D01*
X38990535Y-92525120D01*
X39185120Y-92330535D01*
X39338005Y-92101727D01*
X39443314Y-91847490D01*
X39497000Y-91577592D01*
X39497000Y-91302408D01*
X39443314Y-91032510D01*
X39338005Y-90778273D01*
X39185120Y-90549465D01*
X38990535Y-90354880D01*
X38761727Y-90201995D01*
X38684485Y-90170000D01*
X38761727Y-90138005D01*
X38990535Y-89985120D01*
X39185120Y-89790535D01*
X39338005Y-89561727D01*
X39443314Y-89307490D01*
X39497000Y-89037592D01*
X39497000Y-88762408D01*
X39443314Y-88492510D01*
X39338005Y-88238273D01*
X39185120Y-88009465D01*
X38990535Y-87814880D01*
X38761727Y-87661995D01*
X38684485Y-87630000D01*
X38761727Y-87598005D01*
X38990535Y-87445120D01*
X39185120Y-87250535D01*
X39338005Y-87021727D01*
X39443314Y-86767490D01*
X39497000Y-86497592D01*
X39497000Y-86222408D01*
X39466372Y-86068429D01*
X49844802Y-75690000D01*
X59659147Y-75690000D01*
X59616686Y-75792510D01*
G37*
%TD.AperFunction*%
D28*
X60069465Y-72574880D02*
X59874880Y-72769465D01*
X59721995Y-72998273D01*
X59616686Y-73252510D01*
X59563000Y-73522408D01*
X59563000Y-73797592D01*
X59616686Y-74067490D01*
X59659147Y-74170000D01*
X49567322Y-74170000D01*
X49529999Y-74166324D01*
X49492677Y-74170000D01*
X49492667Y-74170000D01*
X49381014Y-74180997D01*
X49239912Y-74223799D01*
X49237753Y-74224454D01*
X49105723Y-74295026D01*
X49022083Y-74363668D01*
X48989999Y-74389999D01*
X48966201Y-74418997D01*
X39497000Y-83888199D01*
X39497000Y-83682408D01*
X39443314Y-83412510D01*
X39338005Y-83158273D01*
X39185120Y-82929465D01*
X38990535Y-82734880D01*
X38761727Y-82581995D01*
X38684485Y-82550000D01*
X38761727Y-82518005D01*
X38990535Y-82365120D01*
X39185120Y-82170535D01*
X39338005Y-81941727D01*
X39443314Y-81687490D01*
X39497000Y-81417592D01*
X39497000Y-81142408D01*
X39443314Y-80872510D01*
X39338005Y-80618273D01*
X39185120Y-80389465D01*
X38990535Y-80194880D01*
X38761727Y-80041995D01*
X38684485Y-80010000D01*
X38761727Y-79978005D01*
X38990535Y-79825120D01*
X39185120Y-79630535D01*
X39338005Y-79401727D01*
X39443314Y-79147490D01*
X39497000Y-78877592D01*
X39497000Y-78602408D01*
X39443314Y-78332510D01*
X39338005Y-78078273D01*
X39185120Y-77849465D01*
X38990535Y-77654880D01*
X38761727Y-77501995D01*
X38684485Y-77470000D01*
X38761727Y-77438005D01*
X38990535Y-77285120D01*
X39185120Y-77090535D01*
X39338005Y-76861727D01*
X39443314Y-76607490D01*
X39497000Y-76337592D01*
X39497000Y-76062408D01*
X39443314Y-75792510D01*
X39338005Y-75538273D01*
X39185120Y-75309465D01*
X38990535Y-75114880D01*
X38761727Y-74961995D01*
X38684485Y-74930000D01*
X38761727Y-74898005D01*
X38990535Y-74745120D01*
X39185120Y-74550535D01*
X39338005Y-74321727D01*
X39443314Y-74067490D01*
X39497000Y-73797592D01*
X39497000Y-73522408D01*
X39443314Y-73252510D01*
X39338005Y-72998273D01*
X39185120Y-72769465D01*
X38990535Y-72574880D01*
X38903912Y-72517000D01*
X60156088Y-72517000D01*
X60069465Y-72574880D01*
%TA.AperFunction,Conductor*%
D29*
G36*
X60069465Y-72574880D02*
G01*
X59874880Y-72769465D01*
X59721995Y-72998273D01*
X59616686Y-73252510D01*
X59563000Y-73522408D01*
X59563000Y-73797592D01*
X59616686Y-74067490D01*
X59659147Y-74170000D01*
X49567322Y-74170000D01*
X49529999Y-74166324D01*
X49492677Y-74170000D01*
X49492667Y-74170000D01*
X49381014Y-74180997D01*
X49239912Y-74223799D01*
X49237753Y-74224454D01*
X49105723Y-74295026D01*
X49022083Y-74363668D01*
X48989999Y-74389999D01*
X48966201Y-74418997D01*
X39497000Y-83888199D01*
X39497000Y-83682408D01*
X39443314Y-83412510D01*
X39338005Y-83158273D01*
X39185120Y-82929465D01*
X38990535Y-82734880D01*
X38761727Y-82581995D01*
X38684485Y-82550000D01*
X38761727Y-82518005D01*
X38990535Y-82365120D01*
X39185120Y-82170535D01*
X39338005Y-81941727D01*
X39443314Y-81687490D01*
X39497000Y-81417592D01*
X39497000Y-81142408D01*
X39443314Y-80872510D01*
X39338005Y-80618273D01*
X39185120Y-80389465D01*
X38990535Y-80194880D01*
X38761727Y-80041995D01*
X38684485Y-80010000D01*
X38761727Y-79978005D01*
X38990535Y-79825120D01*
X39185120Y-79630535D01*
X39338005Y-79401727D01*
X39443314Y-79147490D01*
X39497000Y-78877592D01*
X39497000Y-78602408D01*
X39443314Y-78332510D01*
X39338005Y-78078273D01*
X39185120Y-77849465D01*
X38990535Y-77654880D01*
X38761727Y-77501995D01*
X38684485Y-77470000D01*
X38761727Y-77438005D01*
X38990535Y-77285120D01*
X39185120Y-77090535D01*
X39338005Y-76861727D01*
X39443314Y-76607490D01*
X39497000Y-76337592D01*
X39497000Y-76062408D01*
X39443314Y-75792510D01*
X39338005Y-75538273D01*
X39185120Y-75309465D01*
X38990535Y-75114880D01*
X38761727Y-74961995D01*
X38684485Y-74930000D01*
X38761727Y-74898005D01*
X38990535Y-74745120D01*
X39185120Y-74550535D01*
X39338005Y-74321727D01*
X39443314Y-74067490D01*
X39497000Y-73797592D01*
X39497000Y-73522408D01*
X39443314Y-73252510D01*
X39338005Y-72998273D01*
X39185120Y-72769465D01*
X38990535Y-72574880D01*
X38903912Y-72517000D01*
X60156088Y-72517000D01*
X60069465Y-72574880D01*
G37*
%TD.AperFunction*%
D28*
X95112408Y-62357000D02*
X95318198Y-62357000D01*
X80872329Y-76802870D01*
X80834602Y-76810374D01*
X80646244Y-76888395D01*
X80588168Y-76927200D01*
X68597266Y-76927200D01*
X68548005Y-76808273D01*
X68395120Y-76579465D01*
X68200535Y-76384880D01*
X67971727Y-76231995D01*
X67894485Y-76200000D01*
X67971727Y-76168005D01*
X68200535Y-76015120D01*
X68395120Y-75820535D01*
X68548005Y-75591727D01*
X68653314Y-75337490D01*
X68707000Y-75067592D01*
X68707000Y-74792408D01*
X68653314Y-74522510D01*
X68548005Y-74268273D01*
X68395120Y-74039465D01*
X68200535Y-73844880D01*
X67971727Y-73691995D01*
X67894485Y-73660000D01*
X67971727Y-73628005D01*
X68200535Y-73475120D01*
X68395120Y-73280535D01*
X68548005Y-73051727D01*
X68653314Y-72797490D01*
X68707000Y-72527592D01*
X68707000Y-72252408D01*
X68653314Y-71982510D01*
X68548005Y-71728273D01*
X68395120Y-71499465D01*
X68200535Y-71304880D01*
X67971727Y-71151995D01*
X67894485Y-71120000D01*
X67971727Y-71088005D01*
X68200535Y-70935120D01*
X68395120Y-70740535D01*
X68482341Y-70610000D01*
X86322678Y-70610000D01*
X86360000Y-70613676D01*
X86397322Y-70610000D01*
X86397333Y-70610000D01*
X86508986Y-70599003D01*
X86652247Y-70555546D01*
X86784276Y-70484974D01*
X86900001Y-70390001D01*
X86923804Y-70360997D01*
X94958430Y-62326372D01*
X95112408Y-62357000D01*
%TA.AperFunction,Conductor*%
D29*
G36*
X95112408Y-62357000D02*
G01*
X95318198Y-62357000D01*
X80872329Y-76802870D01*
X80834602Y-76810374D01*
X80646244Y-76888395D01*
X80588168Y-76927200D01*
X68597266Y-76927200D01*
X68548005Y-76808273D01*
X68395120Y-76579465D01*
X68200535Y-76384880D01*
X67971727Y-76231995D01*
X67894485Y-76200000D01*
X67971727Y-76168005D01*
X68200535Y-76015120D01*
X68395120Y-75820535D01*
X68548005Y-75591727D01*
X68653314Y-75337490D01*
X68707000Y-75067592D01*
X68707000Y-74792408D01*
X68653314Y-74522510D01*
X68548005Y-74268273D01*
X68395120Y-74039465D01*
X68200535Y-73844880D01*
X67971727Y-73691995D01*
X67894485Y-73660000D01*
X67971727Y-73628005D01*
X68200535Y-73475120D01*
X68395120Y-73280535D01*
X68548005Y-73051727D01*
X68653314Y-72797490D01*
X68707000Y-72527592D01*
X68707000Y-72252408D01*
X68653314Y-71982510D01*
X68548005Y-71728273D01*
X68395120Y-71499465D01*
X68200535Y-71304880D01*
X67971727Y-71151995D01*
X67894485Y-71120000D01*
X67971727Y-71088005D01*
X68200535Y-70935120D01*
X68395120Y-70740535D01*
X68482341Y-70610000D01*
X86322678Y-70610000D01*
X86360000Y-70613676D01*
X86397322Y-70610000D01*
X86397333Y-70610000D01*
X86508986Y-70599003D01*
X86652247Y-70555546D01*
X86784276Y-70484974D01*
X86900001Y-70390001D01*
X86923804Y-70360997D01*
X94958430Y-62326372D01*
X95112408Y-62357000D01*
G37*
%TD.AperFunction*%
%TD*%
M02*
